<svg xmlns="http://www.w3.org/2000/svg" xmlns:xlink="http://www.w3.org/1999/xlink" viewBox="0 0 887.56 709.29"><defs><style>.cls-1{fill:none;}.cls-2{fill:#ff9fae;}.cls-3{fill:#f9e595;}.cls-4{fill:#e5c665;}.cls-5{fill:#f7d173;}.cls-6{clip-path:url(#clip-path);}.cls-7{clip-path:url(#clip-path-3);}.cls-8{fill:#3c3c3b;}.cls-9{fill:#706f6f;}.cls-10{fill:#fff;}.cls-11{fill:#c6c6c6;}.cls-12{fill:#3199cc;}.cls-13{opacity:0.2;}.cls-14{clip-path:url(#clip-path-4);}.cls-15{fill:#1d1d1b;}.cls-16{fill:#36a9e1;}.cls-17{clip-path:url(#clip-path-5);}.cls-18{fill:#7f572b;}.cls-19{fill:#664622;}.cls-20{fill:#ededed;}.cls-21{fill:#321a14;}.cls-22{fill:#878787;}.cls-23{fill:#b2b2b2;}.cls-24{clip-path:url(#clip-path-6);}.cls-25{fill:#f9b233;}.cls-26{clip-path:url(#clip-path-7);}.cls-27{clip-path:url(#clip-path-8);}.cls-28{clip-path:url(#clip-path-9);}.cls-29{clip-path:url(#clip-path-10);}.cls-30{clip-path:url(#clip-path-11);}.cls-31{clip-path:url(#clip-path-12);}.cls-32{clip-path:url(#clip-path-14);}.cls-33{clip-path:url(#clip-path-15);}.cls-34{clip-path:url(#clip-path-16);}.cls-35{clip-path:url(#clip-path-17);}.cls-36{clip-path:url(#clip-path-18);}</style><clipPath id="clip-path"><rect class="cls-1" x="140.62" y="94.6" width="180.85" height="398.11"/></clipPath><clipPath id="clip-path-3"><rect class="cls-1" x="140.62" y="94.6" width="180.85" height="398.11"/></clipPath><clipPath id="clip-path-4"><rect class="cls-1" x="196.59" y="320.22" width="37.78" height="130.02"/></clipPath><clipPath id="clip-path-5"><rect class="cls-1" x="143.72" y="310.98" width="103.03" height="145.98"/></clipPath><clipPath id="clip-path-6"><rect class="cls-1" x="251.07" y="183.27" width="52.05" height="66.1"/></clipPath><clipPath id="clip-path-7"><polygon class="cls-1" points="234.23 207.95 236.97 210.61 237.61 207.89 234.43 207.14 234.23 207.95"/></clipPath><clipPath id="clip-path-8"><polygon class="cls-1" points="233.43 208.16 234.26 211.32 236.97 210.61 234.23 207.95 233.43 208.16"/></clipPath><clipPath id="clip-path-9"><polygon class="cls-1" points="235.44 207.63 233.52 211.52 237.44 210.49 236.61 207.32 235.44 207.63"/></clipPath><clipPath id="clip-path-10"><polygon class="cls-1" points="231.96 207.77 233.52 211.52 235.44 207.63 234.98 206.52 231.96 207.77"/></clipPath><clipPath id="clip-path-11"><path class="cls-1" d="M215.75,143.22c0,.13,0,.29-.05.46s0,.36,0,.55l-.1,1.51,3.27.2,0-.42c0-.1,0-.21,0-.29s-3.08-2.47-3.08-2.47,0,.18,0,.46"/></clipPath><clipPath id="clip-path-12"><path class="cls-1" d="M217.19,142.27l-1,.34-.43.15s3,2.36,3.14,2.38l.27-.09.4-.13-1-3.12-1.45.47"/></clipPath><clipPath id="clip-path-14"><rect class="cls-1" x="233.2" y="136.76" width="26.24" height="27.5"/></clipPath><clipPath id="clip-path-15"><rect class="cls-1" x="227.2" y="127.08" width="10.8" height="13.56"/></clipPath><clipPath id="clip-path-16"><rect class="cls-1" x="220.1" y="118.52" width="48.04" height="10.53"/></clipPath><clipPath id="clip-path-17"><rect class="cls-1" x="197.9" y="179.7" width="0.18" height="0.03"/></clipPath><clipPath id="clip-path-18"><rect class="cls-1" x="149.27" y="178.22" width="77.35" height="142.01"/></clipPath></defs><title>Asset 13</title><g id="Layer_2" data-name="Layer 2"><g id="OBJECT"><path class="cls-2" d="M818.24,500.57C714.3,589.73,586.38,442.8,341.43,516.33c-135,40.54-263.67,135.46-331,185.21Q5.07,705.47,0,709.29v-560c73.29,21.16,152.65,24.8,225.17,6.51C371.19,118.9,378.66,21,518.75,2.08c9.7-1.29,194.91-23.35,301.45,112.3C914.34,234.23,906.21,425.1,818.24,500.57Z"/><g id="Group_66" data-name="Group 66"><path id="Path_207-2" data-name="Path 207-2" class="cls-3" d="M729.06,383.66A29.56,29.56,0,0,1,730,407h0a27.82,27.82,0,0,1-2.17,4.5L698.3,472.79a2.4,2.4,0,0,1-3.17,1.15h0l-.47-.22a2.42,2.42,0,0,1-1.1-3.23l8.31-17.21a4.09,4.09,0,0,0-1.88-5.48h0a4.09,4.09,0,0,0-5.48,1.88v0l-13.29,27.54a4.11,4.11,0,0,1-5.48,1.91h0a4.11,4.11,0,0,1-1.91-5.48v0l9.41-19.48a4.08,4.08,0,0,0-1.88-5.48h0a4.13,4.13,0,0,0-5.49,1.9L660.3,482.63a4.1,4.1,0,0,1-5.47,1.91h0a4.13,4.13,0,0,1-1.94-5.49l20.76-42.92a4.1,4.1,0,0,0-1.88-5.49h0a4.11,4.11,0,0,0-5.48,1.91v0l-12.75,26.37a4.1,4.1,0,0,1-5.47,1.91h0a4.07,4.07,0,0,1-1.92-5.42l0,0,10.51-22a2.37,2.37,0,0,0-1.09-3.18h0a2.42,2.42,0,0,1-1.13-3.23l21.53-44.38h0a29.66,29.66,0,0,1,53.17.91Z"/><path id="Path_208-2" data-name="Path 208-2" class="cls-4" d="M684,384a8.64,8.64,0,1,0,11,5.34v0A8.64,8.64,0,0,0,684,384Z"/><path id="Path_209-2" data-name="Path 209-2" class="cls-4" d="M708.85,375a4.82,4.82,0,1,0,3.71.19A4.82,4.82,0,0,0,708.85,375Z"/><path id="Path_210-2" data-name="Path 210-2" class="cls-4" d="M704.82,399.59a1.61,1.61,0,1,0,2.07,1,1.58,1.58,0,0,0-.82-.9A1.64,1.64,0,0,0,704.82,399.59Z"/><path id="Path_211-2" data-name="Path 211-2" class="cls-4" d="M720.38,398.42a5.22,5.22,0,1,0,4,.21A5.24,5.24,0,0,0,720.38,398.42Z"/></g><path id="Path_338-2" data-name="Path 338-2" class="cls-5" d="M507,416.35a8.28,8.28,0,1,0,5.91,2.43A8.28,8.28,0,0,0,507,416.35Z"/><path id="Path_337-2" data-name="Path 337-2" class="cls-5" d="M421.9,392.35a8.28,8.28,0,1,0,5.91,2.43A8.28,8.28,0,0,0,421.9,392.35Z"/><path id="Path_232-2" data-name="Path 232-2" class="cls-5" d="M454.81,328.88a10.14,10.14,0,1,0,9.7-10.58,10.14,10.14,0,0,0-9.7,10.58Z"/><g id="Artwork_49" data-name="Artwork 49"><g class="cls-6"><g class="cls-6"><g class="cls-7"><path class="cls-8" d="M290.87,492.71c-10.05-.16-20.1,0-30.14,0H236a39.9,39.9,0,0,1-.79-8.74,55.3,55.3,0,0,1,2.93-18.13c.42,0,21.69-9.29,21.75-8.87a16.88,16.88,0,0,0,1.18,4.78c2.81,6.27,5.36,9.25,10.82,10.38,12.64,2.63,17.8,8.41,19,14.45a16,16,0,0,1,0,6.13"/><path class="cls-9" d="M247.7,461.86c-4.84,2.05-9.33,4-9.52,4A55,55,0,0,0,235.25,484a39.17,39.17,0,0,0,.8,8.74h24.67c7.72,0,15.44-.09,23.16-.06-2.53-18.19-32.06-10.87-36.18-30.79"/><path class="cls-10" d="M261,475.86a37.09,37.09,0,0,1-4.6-2.27l-16.27,19.12h6.51Z"/><path class="cls-10" d="M265.13,477.45l-12.89,15.26h6L269.37,479c-1.4-.52-2.82-1-4.24-1.53"/><path class="cls-11" d="M291.59,492.71h-56.8a22.67,22.67,0,0,1,0-8.74c20.3.47,36.6,5,56.67,3.24a12.93,12.93,0,0,1,.1,5.5"/><path class="cls-8" d="M197.11,492.71c-10-.16-20.09,0-30.14,0H142.29a39.9,39.9,0,0,1-.79-8.74,55,55,0,0,1,2.93-18.13c.42,0,21.69-9.29,21.75-8.87a16.88,16.88,0,0,0,1.18,4.78c2.81,6.27,5.36,9.25,10.82,10.38,12.64,2.63,17.79,8.41,19,14.45a16,16,0,0,1,0,6.13"/><path class="cls-9" d="M154,461.86c-4.85,2.05-9.33,4-9.52,4A55,55,0,0,0,141.5,484a39.9,39.9,0,0,0,.79,8.74H167c7.72,0,15.44-.09,23.16-.06-2.53-18.19-32.06-10.87-36.18-30.79"/><path class="cls-10" d="M167.26,475.86a37.09,37.09,0,0,1-4.6-2.27l-16.27,19.12h6.51Z"/><path class="cls-10" d="M171.38,477.45l-12.89,15.26h6L175.62,479c-1.4-.52-2.82-1-4.24-1.53"/><path class="cls-11" d="M197.84,492.71H141a22.28,22.28,0,0,1,0-8.74c20.29.47,36.6,5,56.66,3.24a12.93,12.93,0,0,1,.11,5.5"/><path class="cls-12" d="M261.11,461.75c-9.92,4.09-16.31,5.28-24.1,7.89-2.5-6.87-4.75-13.32-6.72-19.4-9.63-29.74-12.6-50.65-5.58-68.23-5.46-7.26-11.15-17.4-17-29.4-3.34-6.88-6.74-14.36-10.17-22.27-.32-.71-.62-1.44-.95-2.16-2.38-5.56-4.8-11.32-7.23-17.2-2.22-5.39-4.45-10.88-6.68-16.43l51.72,4.69,5.95.54,2.22,11.2,4.18,21.09,9,45.6c5.36,33.65,8.85,64.4,5.32,84.08"/><g class="cls-13"><g class="cls-14"><path class="cls-15" d="M230.29,450.24c-9.64-29.74-12.61-50.65-5.58-68.23-5.46-7.26-11.15-17.4-17-29.4-3.35-6.87-6.74-14.36-10.17-22.27-.32-.71-.62-1.44-.95-2.16,7.64-3.87,20.49-8,20.49-8,2.25,22.24,4.65,41.76,17.3,58.41-4.76,22.87-5.8,46.85-4.09,71.61"/></g></g><path class="cls-16" d="M237.37,292.74c-1,2.13-2,4.3-3,6.5C232.68,303,230.92,307,229,311c-.58,1.22-1.18,2.47-1.8,3.71-2.4,4.86-5.1,9.9-8.29,15.17-2.38,3.93-5.05,8-8.09,12.19l-3.1,10.56L198,385.76c-7.52,36.5-25.75,56.91-29.65,78.05-12,7.68-16.87-.37-24.76,4.21,0-4,.08-7.87.14-11.59.59-36,2.95-59.6,17.78-79.85-1.11-14.49-1.8-28.61-1.93-41.63,0-5.23,0-10.3.13-15.13q.13-4.56.39-8.84a140.37,140.37,0,0,1,3.58-25.83l4.7.49Z"/><g class="cls-13"><g class="cls-17"><path class="cls-15" d="M242.57,311H160.09c-.17,2.85-.31,5.79-.39,8.84,0,1.17-.06,2.36-.08,3.55,0,.2,0,.41,0,.61,0,1,0,1.95,0,2.94,0,.34,0,.67,0,1,0,.87,0,1.74,0,2.62v1.12c0,.94,0,1.9,0,2.85V335c.13,13,.82,27.13,1.93,41.63-14.83,20.25-17.19,43.82-17.78,79.85l.26.53c7.06-35.26,13.65-71.64,31.63-80.38-4.55-15.68-8.84-31.2-6.77-43.14,9.76-1.47,19.33-2.52,28.7-3.09q10.86-.68,21.36-.49a219.42,219.42,0,0,1,27.85,2.21Z"/></g></g><path class="cls-18" d="M303.08,213.7l0,.29c-2.6,18.19-9.18,32-20.56,35.38C274,247.07,264.71,236,257.31,222c-2-3.77-3.86-7.76-5.52-11.84-5.57-13.62-9-28.3-8.48-39.84,0-.82.11-1.63.18-2.41.34-.64.69-1.25,1.06-1.82,6.89-10.52,19.2-7.62,26.83,11.34a152.7,152.7,0,0,1,8.12,26.89c.49,2.54.68,4,.68,4l12.64-26,11.14.24a157,157,0,0,1-.88,31.2"/><path class="cls-19" d="M294.9,187.06l8.84,1.89,2.29-5.63c4.82-4.21,5.24-12.43,5.24-12.43-6.17-2.94-10.95-9.53-16.27-14.76a50.29,50.29,0,0,1-6.46,11.78l-.39,1c0,.33.46,7.37.55,7.92a7.69,7.69,0,0,0,3.44,5.16l2.33.63Z"/><path class="cls-20" d="M280.31,203.45c-.27.29-.53.57-.81.84A56.14,56.14,0,0,1,269.31,212c-4.32,2.78-8.57,5.52-12,9.95a25.23,25.23,0,0,0-1.65,2.35,92.5,92.5,0,0,1-4.59-10.27c-5.6-14.64-8.46-31.59-7.76-43.76,0-.82.11-1.63.18-2.41.34-.64.7-1.25,1.06-1.82,6.91-10.68,19.48-9.22,27.1,9.75,4.75,11.8,7.92,22.44,8.66,27.64"/><path class="cls-21" d="M292.74,151.71a8.73,8.73,0,1,1-12.34.22,8.74,8.74,0,0,1,12.34-.22"/><polygon class="cls-22" points="298.24 159.82 288.9 169.49 284.72 166.55 295.16 155.74 298.24 159.82"/><polygon class="cls-23" points="302.31 168.13 297.35 173.27 289.44 168.93 297.7 160.38 302.31 168.13"/><rect class="cls-22" x="305.84" y="166.63" width="7.15" height="26.64" transform="translate(-35 277.43) rotate(-45.98)"/><path class="cls-18" d="M306,183.32c-2.64.48-5.62,1.62-7.34.37,1.67-8.22-4.25-11.49-4.25-11.49l-.07-.93a1.53,1.53,0,0,1,.47-1.22l2.12-2.58c3.87-4.56,1-6.65,1-6.65-1.37-.93-3.19,1.11-3.87,1.76L292,164.64l-3.22,3.06a1.92,1.92,0,0,0-.58,1.23c0,.33.46,7.37.55,7.92a7.69,7.69,0,0,0,3.44,5.16l1.1.61.09,5,10.89,2.19Z"/><path class="cls-18" d="M300.25,160.3a2.68,2.68,0,0,1-3.12,2.14l-.49-.1a2.66,2.66,0,0,1-2.13-3.12l.43-2.85a2.48,2.48,0,0,1,2.91-2l1,.18a2.33,2.33,0,0,1,1.85,2.72Z"/><path class="cls-18" d="M301.15,168.89a2.68,2.68,0,0,1-1.67,1.21,2.45,2.45,0,0,1-2-.34,2.59,2.59,0,0,1-.79-3.47l3.06-6.27a2.51,2.51,0,0,1,3.46-.82l.86.54a2.33,2.33,0,0,1,.74,3.18Z"/><path class="cls-18" d="M302.05,173.27a2,2,0,0,1-1.62-1.34,2.7,2.7,0,0,1,.2-2l2.54-4.77a2.5,2.5,0,0,1,3.38-1l.89.47a2.29,2.29,0,0,1,1.13,1.38,2.32,2.32,0,0,1-.17,1.77s-3.2,5.71-6.35,5.55"/><path class="cls-18" d="M305.9,175.78c-1.2-.21-1.4-2.1-.88-3.11l1.75-3.42a2,2,0,0,1,2.71-.76l.74.38a1.86,1.86,0,0,1,.9,2.47s-2.78,4.88-5.22,4.44"/><g class="cls-13"><g class="cls-24"><path class="cls-15" d="M303.11,213.38c0,.05,0,.16,0,.32l0,.29c-2.6,18.19-9.18,32-20.56,35.38C274,247.07,264.71,236,257.31,222a25.23,25.23,0,0,0-1.65,2.35,92.5,92.5,0,0,1-4.59-10.27c.24-1.32.47-2.63.72-3.92,2.68-14.5,5-26.86,5-26.86s5.79,41,23.56,53.92c10.34-.09,17.16-10.29,22.8-23.81"/></g></g><path class="cls-16" d="M243,313.31l-80.81-17.78a89.76,89.76,0,0,1,3.25-17.79L236,285.15c4.15,8.65,5.4,18.48,7,28.16"/><path class="cls-20" d="M263.55,162.89c0,32.48-13.18,67.52-13.1,99.52l-6,57.3a59.71,59.71,0,0,0-17.3-5c-17.66-2.29-33.58,3.69-51.69,5.2a85.22,85.22,0,0,1-15.8-.07,75.12,75.12,0,0,1-10-1.7c-2.32-22.16,5.8-58.15,12.49-89.86l16-50,10-31.28c15.37-2.92,31.47-4.32,48.18-1.34Z"/><path class="cls-25" d="M237.55,237l.06,1.33a.91.91,0,0,1-.37.83,1.76,1.76,0,0,1-1.12.32c-.48,0-.73-.21-.76-.63l-.12-1.68a12.38,12.38,0,0,1-6.31-1.55,5.18,5.18,0,0,1-2.59-6.46,3.07,3.07,0,0,1,1-1.41,4.43,4.43,0,0,1,2.34-1l.44,0a4.66,4.66,0,0,1,2.07.47,1.59,1.59,0,0,1,1,1.31.63.63,0,0,1-.32.59,2.83,2.83,0,0,0-1,.95,2.62,2.62,0,0,0-.4.94v.38q.18,2.55,3.51,3.08l-.65-9-1.34-.48c-.59-.21-1.1-.41-1.54-.6s-.92-.4-1.41-.66a15.27,15.27,0,0,1-1.73-1.08,5.11,5.11,0,0,1-2.16-3.88,5.69,5.69,0,0,1,1.83-5,10,10,0,0,1,5.35-2.25l-.08-1.22a.79.79,0,0,1,.45-.75,2.06,2.06,0,0,1,1.12-.3c.43,0,.66.26.69.77l.1,1.32a11.74,11.74,0,0,1,5.08,1A3.35,3.35,0,0,1,243,215a2.71,2.71,0,0,1-.68,2.09,2.61,2.61,0,0,1-2,.84,3.61,3.61,0,0,1-1.2-.21q-.6-.21-.63-.63l.09-1.08a2.08,2.08,0,0,0-.9-1.66,4,4,0,0,0-1.8-.64l.57,7.29a1,1,0,0,0,.24.09c.11,0,.44.16,1,.37s1.07.42,1.59.64,1.21.57,2.06,1a8.38,8.38,0,0,1,1.92,1.36,6.35,6.35,0,0,1,1.94,4.12,6.86,6.86,0,0,1-1.91,5.76,10.07,10.07,0,0,1-5.67,2.62m-6.49-20.07q.13,1.82,2.95,3.1l-.44-6.17a3.38,3.38,0,0,0-1.81,1.08,2.5,2.5,0,0,0-.66,1.39Zm5.73,9.49.55,7.68a3.93,3.93,0,0,0,2-1.48,3.52,3.52,0,0,0,.58-2.29q-.16-2.34-3.09-3.91"/><path class="cls-25" d="M226.21,142a1.65,1.65,0,0,1-1.43,1.76l-1.29.21c-.64.1-1.28.24-1.28.24a1.65,1.65,0,0,1-1.93-1.21,1.62,1.62,0,0,1,1.23-2s.71-.15,1.43-.26l1.44-.24a1.64,1.64,0,0,1,1.83,1.49"/><path class="cls-25" d="M233.38,142.62a1.7,1.7,0,0,1-1.88,1.29c0-.08-2.54-.3-2.54-.3a1.64,1.64,0,0,1,.16-3.27s2.95.26,2.94.35a1.57,1.57,0,0,1,1.32,1.93"/><path class="cls-25" d="M239.9,145.65a1.71,1.71,0,0,1-2.2.52l-1.1-.62-1.16-.5a1.73,1.73,0,0,1-.91-2.07,1.58,1.58,0,0,1,2.16-1l1.37.6,1.3.73a1.58,1.58,0,0,1,.54,2.3"/><path class="cls-25" d="M245,150.72a1.65,1.65,0,0,1-2.25-.24s-1.71-1.91-1.77-1.85a1.7,1.7,0,0,1-.1-2.27,1.56,1.56,0,0,1,2.33-.12c.07-.06,2,2.14,2,2.14a1.62,1.62,0,0,1-.26,2.34"/><path class="cls-25" d="M247.9,157.08a2.18,2.18,0,0,1-1-.67c-.28-.18-.45,0-.52-.18,0,0-1.16-2.35-1.21-2.31a1.68,1.68,0,0,1,.56-2.22,1.59,1.59,0,0,1,2.26.57c.07,0,1.35,2.57,1.35,2.57a6.18,6.18,0,0,1,.39,1.07,2.76,2.76,0,0,1-.55.91,1.4,1.4,0,0,1-1.25.26"/><path class="cls-25" d="M246.24,164.12a1.65,1.65,0,0,1-1.22-2l.64-2.69a1.63,1.63,0,0,1,3.18.75l-.63,2.69a1.65,1.65,0,0,1-2,1.22"/><path class="cls-25" d="M244.58,171.15a1.63,1.63,0,0,1-1.22-2l.64-2.69a1.63,1.63,0,0,1,3.18.75l-.63,2.69a1.63,1.63,0,0,1-2,1.21"/><path class="cls-25" d="M242.92,178.19a1.63,1.63,0,0,1-1.21-2l.63-2.69a1.63,1.63,0,0,1,3.18.75l-.63,2.69a1.63,1.63,0,0,1-2,1.21"/><path class="cls-25" d="M241.27,185.23a1.63,1.63,0,0,1-1.22-2l.63-2.69a1.63,1.63,0,1,1,3.18.75l-.63,2.69a1.63,1.63,0,0,1-2,1.21"/><path class="cls-25" d="M239.61,192.27a1.64,1.64,0,0,1-1.22-2l.63-2.68a1.64,1.64,0,1,1,3.19.75l-.64,2.68a1.63,1.63,0,0,1-2,1.22"/><path class="cls-25" d="M238,199.31a1.65,1.65,0,0,1-1.22-2l.64-2.69a1.63,1.63,0,0,1,3.18.75l-.63,2.69a1.65,1.65,0,0,1-2,1.22"/><path class="cls-25" d="M236.29,206.34a1.63,1.63,0,0,1-1.22-2l.64-2.69a1.63,1.63,0,0,1,3.18.75l-.63,2.69a1.63,1.63,0,0,1-2,1.21"/><path class="cls-25" d="M230.83,200.69a1.61,1.61,0,0,1,2.11.84l1,2.46a1.64,1.64,0,0,1-3,1.25l-1-2.48a1.6,1.6,0,0,1,.92-2.07"/><path class="cls-25" d="M228.27,194.2a1.61,1.61,0,0,1,2.09.88l1,2.47a1.64,1.64,0,0,1-3,1.2l-1-2.48a1.62,1.62,0,0,1,1-2.07"/><path class="cls-25" d="M225.81,187.68a1.61,1.61,0,0,1,2.08.91l.92,2.48a1.59,1.59,0,0,1-1,2.05,1.61,1.61,0,0,1-2.09-.89l-.94-2.51a1.6,1.6,0,0,1,1-2"/><path class="cls-25" d="M223.52,181.09a1.6,1.6,0,0,1,2,1l.88,2.5a1.62,1.62,0,0,1-1,2,1.61,1.61,0,0,1-2.07-1l-.89-2.52a1.63,1.63,0,0,1,1.06-2"/><path class="cls-25" d="M221.42,174.44a1.63,1.63,0,0,1,2,1l.77,2.53a1.6,1.6,0,0,1-1.06,2,1.63,1.63,0,0,1-2.06-1l-.78-2.57a1.59,1.59,0,0,1,1.1-2"/><path class="cls-25" d="M219.63,167.7a1.62,1.62,0,0,1,2,1.13s.14.64.33,1.27l.34,1.28a1.63,1.63,0,0,1-3.15.86l-.36-1.3c-.19-.65-.33-1.31-.33-1.31a1.61,1.61,0,0,1,1.21-1.93"/><path class="cls-25" d="M218.21,160.88a1.61,1.61,0,0,1,1.88,1.24l.53,2.57a1.64,1.64,0,0,1-1.26,1.88,1.57,1.57,0,0,1-1.94-1.19l-.54-2.65a1.6,1.6,0,0,1,1.33-1.85"/><path class="cls-25" d="M217.31,154a1.64,1.64,0,0,1,1.78,1.39l.3,2.59a1.59,1.59,0,0,1-1.37,1.78,1.62,1.62,0,0,1-1.87-1.32l-.31-2.71a1.56,1.56,0,0,1,1.47-1.73"/><path class="cls-25" d="M217.12,147a1.67,1.67,0,0,1,1.62,1.58v1.3c0,.64,0,1.29,0,1.29a1.64,1.64,0,0,1-3.27.13s0-.68,0-1.37v-1.37a1.55,1.55,0,0,1,1.65-1.56"/></g><g class="cls-26"><path class="cls-25" d="M236.37,212.2l-.1,0h-.1l-.1,0-.1,0-.1,0-.1-.06-.1-.07-.09-.09-.09-.09-.09-.11-.08-.12-.08-.13-.07-.13-.06-.15-.06-.15,0-.16-.71-2.68,0-.16a.5.5,0,0,1,.08-.2l.07-.08.09-.06.1-.06.1-.06.12,0,.13,0,.14,0,.14,0h.46l.16,0,.16,0,.17,0,.15.05.15.06.14.07.13.07.12.08.11.08.09.09.09.09.08.1.06.1,0,.1,0,.1,0,.1v.1l0,.1-.38,1.61,0,.1c0,.13,0,.29,0,.29v.3l0,.14,0,.14,0,.13,0,.12,0,.11-.06.1-.06.09-.08.07-.08.07-.08,0Z"/></g><g class="cls-27"><path class="cls-25" d="M233.85,209.74l0-.16,0-.16V209l0-.14,0-.14,0-.13,0-.12,0-.11.06-.1.06-.09.08-.07.08-.07a1.35,1.35,0,0,1,.28,0l2.69.63.16.05.16.05.15.06.13.06.13.08.12.08.11.08.1.09.09.09.07.09.06.1.05.1,0,.1v.3l0,.1,0,.09-.06.08-.07.08-.09.06-.1.06-.11.05-.12,0-.12,0-.14,0-.14,0h-.46a1.21,1.21,0,0,0-.23,0l-1.6.42-.1,0h-.21l-.1,0-.1-.05-.1-.06-.09-.07-.1-.08-.09-.1-.08-.11-.09-.11-.07-.13-.07-.14-.07-.14,0-.16Z"/></g><g class="cls-28"><path class="cls-25" d="M231.69,210.74l-.05-.14,0-.14V210l0-.14.05-.14.06-.13.07-.13.08-.12.1-.12.11-.11.12-.1.13-.1.14-.08.15-.07,2.56-1.06.16-.06a2.37,2.37,0,0,1,.29,0l.14,0,.13,0,.14.05.13.07.12.07.12.09.11.1.11.11.09.13.09.13.07.14.06.15.05.16,0,.17,0,.16v.32l0,.15,0,.15L237,210l-.05.14-.08.13-.08.12-.09.1-.1.1-.12.09-.12.07-.13.06-.14,0-2.33.62-.3.05-.15,0-.16,0H233l-.15,0-.15,0-.14,0-.13,0-.13-.06-.12-.08-.12-.09-.1-.1-.09-.11-.07-.12Z"/></g><g class="cls-29"><path class="cls-25" d="M233.47,207.14l.16,0,.16,0,.15,0,.16,0h.16l.15,0,.15,0,.14,0,.13,0,.13.07.12.07.12.09.1.1.09.11a2.83,2.83,0,0,1,.11.29l.71,2.68,0,.16,0,.17v.31l0,.16,0,.15-.05.14-.06.13-.07.13L236,212l-.09.11-.11.1-.11.09-.12.07-.13.06-.14,0-.14,0-.15,0h-.14l-.14,0-.14,0-.13,0-.13-.06-.13-.08-.11-.09-.12-.1-.1-.11-.09-.13-.09-.13-.07-.14-.14-.27-.92-2.23,0-.14,0-.14,0-.14v-.14l0-.15,0-.13,0-.14.06-.14.08-.13.08-.12.1-.12.11-.11.12-.1.13-.09.14-.08Z"/></g><g class="cls-30"><path class="cls-25" d="M216.28,141.11l.12,0h.22l.12,0,.11,0,.12.05.11.06.11.08.1.09.1.1.09.11.09.12.09.13.07.14.07.15.06.16.87,2.62.05.16h.09l-.07.15-.06.09-.08.08-.08.07-.1.07-.11.07-.12,0-.13.05-.14.05-.14,0-.16,0-.15,0h-.34l-.16,0-.16,0-.16,0-.14,0-.14-.05-.14-.06-.12-.07-.11-.08-.1-.08-.09-.09-.07-.09-.07-.1,0-.1,0-.1,0-.11v-.11l.06-.9.09-.86,0-.1a2.07,2.07,0,0,0-.05-.3v-.58l0-.13,0-.13,0-.11,0-.11.06-.09.07-.09.08-.07.09-.06Z"/></g><g class="cls-31"><path class="cls-25" d="M219.12,143.36l0,.16,0,.16,0,.16v.45l0,.13,0,.13,0,.13-.05.11,0,.1-.06.1-.07.08-.08.07c0-.07,0,0,0,0h-.24l-2.76-.22h-.16l-.17,0-.15,0-.15-.05-.14-.06-.13-.06-.12-.07-.11-.08-.1-.09-.09-.09-.08-.1-.06-.1,0-.1,0-.11,0-.11v-.11l0-.11,0-.1,0-.09.06-.09.08-.08.09-.08.1-.07.11-.06.12-.05.14,0,.14,0,.14,0,.15,0h.16l.23-.07.82-.3.86-.28.11,0H218l.11,0,.11,0,.11.05.1.06.1.08.1.09.1.1.09.11.09.13.07.13.07.14.07.15Z"/></g><g class="cls-7"><path class="cls-18" d="M219.24,144.12l15.86-25.57c9.4,4.38,19.71,17.52,22.1,18.11,0,0-11,22.74-13.4,30-8.22,12.56-28.43-2.27-24.56-22.49"/><g class="cls-13"><g class="cls-32"><path class="cls-15" d="M236.52,136.75c-7.73,11.11-.7,22.05,8.33,27.05,7.48,2.21,10.84-4.05,14.59-10.88Z"/></g></g><path class="cls-18" d="M267.38,140.71l-2.16.82c-.16,1.69-.71,6.91-2.85,10.74-3.63,6.47-6.35,6.87-12,5.95-6.4-3.32-13.89-8.95-13.87-23-4-.76-10.11,3.16-12.47-.1a28.3,28.3,0,0,1-3.66-7.29,28.88,28.88,0,0,1-1.6-10.09c2.58-21.9,19.57-20.63,28.93-20,9.93,1.15,17.31,8.71,19.85,20.76.25,1.15.45,2.33.6,3.55-.21,1.58-.78,3.85-1.52,4.7a3.71,3.71,0,0,0-.89,2.27,3.82,3.82,0,0,0,.33,1.66c.71,1.63,1.63,2.94,2.55,4.81,1.36,2.73,0,4.7-1.23,5.2"/><path class="cls-20" d="M267,110.15l1.6,8.16-48.46,9.49-.72-3.66,2.46-.48A3.38,3.38,0,0,0,224,122.2a3.36,3.36,0,0,0,.49-2.47,3.4,3.4,0,0,0-1.34-2.09,3.67,3.67,0,0,0-1.23-.54,3.32,3.32,0,0,0-1.37,0l-2.35.46a19.27,19.27,0,0,1,13.36-20,18.8,18.8,0,0,1,2.12-.54L244.36,95c.28-.06.58-.1.86-.15A19.25,19.25,0,0,1,267,110.15"/><path class="cls-15" d="M267,110.15l1.6,8.16-37.81,7.41-1.6-8.16A19.26,19.26,0,0,1,267,110.15"/><path class="cls-15" d="M223.05,123.17a3.32,3.32,0,0,0,1-1l.92,4.66-1.12.22Z"/><path class="cls-15" d="M237.86,96.23a19.29,19.29,0,0,0-14.69,21.41,3.48,3.48,0,0,0-1.23-.54A19.54,19.54,0,0,1,231.22,98a10.2,10.2,0,0,1,2.48-1Z"/><polygon class="cls-25" points="242.23 116.76 241.98 115.45 242.94 115.26 241.65 108.69 240.69 108.88 240.43 107.57 243.32 107 246.71 111.52 248.14 106.06 251.03 105.49 251.29 106.81 250.32 106.99 251.61 113.56 252.57 113.37 252.83 114.69 248.98 115.44 248.72 114.13 249.68 113.94 248.96 110.26 247.53 115.72 244.14 111.18 244.87 114.88 245.83 114.69 246.09 116.01 242.23 116.76"/><polygon class="cls-25" points="256.3 114.01 254.55 113.26 253.16 106.17 254.5 104.81 257.2 104.28 258.95 105.03 259.26 106.61 257.33 106.99 257.07 105.67 255.14 106.05 256.43 112.62 258.36 112.24 258.1 110.93 260.03 110.55 260.33 112.13 259 113.48 256.3 114.01"/><rect class="cls-9" x="230.03" y="118.21" width="58.83" height="1.87" transform="translate(-18.06 52.08) rotate(-11.08)"/><g class="cls-13"><g class="cls-33"><path class="cls-15" d="M237.7,132.51c1,3.67-.52,7.25-3.34,8s-5.89-1.62-6.87-5.29.53-7.25,3.35-8,5.89,1.62,6.86,5.29"/></g></g><g class="cls-13"><g class="cls-34"><path class="cls-15" d="M268.14,122.07c-.21,1.58-.78,3.85-1.52,4.7a3.71,3.71,0,0,0-.89,2.27l-45.37-1.22h-.26l.25,0,47.19-9.24c.25,1.15.45,2.33.6,3.55"/></g></g><path class="cls-18" d="M239.18,130.07c1,3.67-.53,7.24-3.35,8s-5.89-1.62-6.86-5.29.53-7.25,3.35-8,5.89,1.63,6.86,5.3"/><g class="cls-13"><g class="cls-35"><path class="cls-15" d="M198.09,179.73l-.19,0a.24.24,0,0,1,.19,0"/></g></g><g class="cls-13"><g class="cls-36"><path class="cls-15" d="M224.58,258.25c-2.75,2-6.6,2.19-9.49,2.32,0,0-.38.15-.46,1l.52,2.83a24.56,24.56,0,0,0,1.24,2.93c3.72,7.66,10.75,16.37,7.08,18.92-2.5,1.75-2.91-4.34-9.94-13.74-.35.26-.33.1-.59.29,1.91,4.19,7.76,17,3.73,18.54-2.85.68-3-8.08-7.35-17a1.87,1.87,0,0,1-.87.27c2.86,12.46,3.51,17.88.37,18.19-2.73.26-3.08-10.55-4.54-17.58a3.53,3.53,0,0,1-1.6,0s1,14.34-3.21,13.61c-2.47-.42,0-10.79-.93-14.7a28.21,28.21,0,0,1-3.81-9.25l-18.49-5.08c-5.9,7.73-8,16.52-7.87,26,.16,10.79,3.27,22.41,7.13,34.25a85.22,85.22,0,0,1-15.8-.07,75.12,75.12,0,0,1-10-1.7c-2.32-22.17,5.8-58.15,12.49-89.86l16-50c10.42.77,18.4,1.39,19.7,1.49-2.26.78-11.47,36.6-11.47,36.6l26,33.06.73,4c2.19,1.9,3.12,3.28,9.8.45,2.63-1.13,5.87,1.33,1.64,4.41"/></g></g><path class="cls-18" d="M188.11,147.6c-23.38,14.72-38.58,49.21-44.12,72.77,18.48,19.64,28.31,26,55.16,37.2l9.34-7.57-35.88-38s17.59-18.55,27.09-35c10.78-18.65,2.41-32-11.59-29.45"/><path class="cls-18" d="M189,248.41l7.1,5.66c.92,5.41.93,11.41,5.24,18.16.92,3.91-1.53,14.28.92,14.7,4.17.73,3.22-13.61,3.22-13.61a3.68,3.68,0,0,0,1.6,0c1.46,7,1.81,17.85,4.53,17.58,3.15-.3,2.49-5.72-.36-18.18a1.88,1.88,0,0,0,.87-.28c4.38,9,4.49,17.73,7.35,17,4-1.52-1.82-14.35-3.73-18.53.26-.19.23,0,.59-.3,7,9.41,7.43,15.5,9.94,13.75,3.67-2.54-3.36-11.26-7.08-18.92-3-6.13-1.3-6.73-1.3-6.73,2.89-.13,6.73-.31,9.49-2.32,4.22-3.08,1-5.54-1.64-4.42-11.39,4.83-6.07-2.57-18.78-4l-10.16-7.63Z"/><path class="cls-20" d="M182.45,208.25c2.59-3.58,16.58-27.77,18.66-31.37,10.78-18.65-.2-32.83-12.89-29.95-11.76,2.68-24.47,21.69-32,39.75a74.57,74.57,0,0,0,26.23,21.57"/></g></g></g></g></g></g></svg>