<svg xmlns="http://www.w3.org/2000/svg" width="86.291" height="118.393" viewBox="0 0 86.291 118.393">
  <g id="Astroid" transform="translate(-2744.103 -2309.922)">
    <path id="Path_207" data-name="Path 207" d="M310.144,106.791a29.553,29.553,0,0,1,.952,23.291h0a28.309,28.309,0,0,1-2.161,4.5l-29.553,61.34a2.381,2.381,0,0,1-3.186,1.135l-.476-.22a2.417,2.417,0,0,1-1.1-3.223l8.313-17.212a4.1,4.1,0,0,0-1.9-5.493h0a4.1,4.1,0,0,0-5.493,1.9l-13.293,27.539a4.1,4.1,0,0,1-5.493,1.9h0a4.1,4.1,0,0,1-1.9-5.493l9.412-19.482a4.1,4.1,0,0,0-1.9-5.493h0a4.138,4.138,0,0,0-5.493,1.9l-15.491,32.08a4.1,4.1,0,0,1-5.493,1.9h0a4.138,4.138,0,0,1-1.941-5.493l20.764-42.92a4.1,4.1,0,0,0-1.9-5.493h0a4.1,4.1,0,0,0-5.493,1.941l-12.744,26.367a4.1,4.1,0,0,1-5.493,1.9h0a4.065,4.065,0,0,1-1.9-5.456l10.51-21.973a2.38,2.38,0,0,0-1.1-3.186h0a2.417,2.417,0,0,1-1.135-3.223l21.533-44.385h0a29.663,29.663,0,0,1,53.174.916Z" transform="translate(2517.356 2220.218)" fill="#f9e595"/>
    <path id="Path_208" data-name="Path 208" d="M241.446,94.808a8.642,8.642,0,1,0,10.986,5.31,8.642,8.642,0,0,0-10.986-5.31Z" transform="translate(2541.01 2232.53)" fill="#e5c665"/>
    <path id="Path_209" data-name="Path 209" d="M246.335,92.2a4.834,4.834,0,1,0,3.712.194,4.834,4.834,0,0,0-3.712-.194Z" transform="translate(2560.95 2226.125)" fill="#e5c665"/>
    <path id="Path_210" data-name="Path 210" d="M243.663,98.794a1.611,1.611,0,1,0,1.252.054,1.611,1.611,0,0,0-1.252-.054Z" transform="translate(2559.594 2244.145)" fill="#e5c665"/>
    <path id="Path_211" data-name="Path 211" d="M249.726,98.62a5.237,5.237,0,1,0,4.022.215,5.273,5.273,0,0,0-4.022-.215Z" transform="translate(2569.095 2243.147)" fill="#e5c665"/>
  </g>
</svg>
