<svg id="communications" xmlns="http://www.w3.org/2000/svg" width="63.495" height="55.029" viewBox="0 0 63.495 55.029">
  <g id="Group_12" data-name="Group 12" transform="translate(0 0)">
    <g id="Group_11" data-name="Group 11">
      <path id="Path_458" data-name="Path 458" d="M60.321,59.515H59.262V37.291A5.3,5.3,0,0,0,53.971,32H9.524a5.3,5.3,0,0,0-5.291,5.291V53.165H3.175A3.175,3.175,0,0,0,0,56.34V83.855a3.175,3.175,0,0,0,3.175,3.175H43.389a1.058,1.058,0,0,0,1.058-1.058,5.3,5.3,0,0,0-5.291-5.291H35.981V74.33h12.7v9.524a3.175,3.175,0,0,0,3.175,3.175h8.466A3.175,3.175,0,0,0,63.5,83.855V62.689A3.175,3.175,0,0,0,60.321,59.515ZM23.282,83.855a1.058,1.058,0,0,1-1.058,1.058H3.175a1.058,1.058,0,0,1-1.058-1.058V82.8H23.282Zm0-3.175H2.117V56.34a1.058,1.058,0,0,1,1.058-1.058H22.223a1.058,1.058,0,0,1,1.058,1.058ZM39.156,82.8a3.181,3.181,0,0,1,2.994,2.117H25.2a3.138,3.138,0,0,0,.195-1.058V82.8ZM25.4,80.68V74.33h2.117v6.35Zm4.233,0V74.33h4.233v6.35ZM48.68,72.214H25.4v-6.35H48.68Zm0-9.524v1.058H25.4V56.34a3.137,3.137,0,0,0-.362-1.44c.016-.015.037-.019.052-.035L35.565,44.388a1.058,1.058,0,0,0-1.5-1.5L23.592,53.368c-.025.026-.036.06-.058.088a3.135,3.135,0,0,0-1.31-.291H6.35V37.291a3.175,3.175,0,0,1,3.175-3.175H53.971a3.175,3.175,0,0,1,3.175,3.175V59.515H51.855A3.175,3.175,0,0,0,48.68,62.689Zm12.7,21.165a1.058,1.058,0,0,1-1.058,1.058H51.855A1.058,1.058,0,0,1,50.8,83.855V82.8H61.379Zm0-3.175H50.8V62.689a1.058,1.058,0,0,1,1.058-1.058h8.466a1.058,1.058,0,0,1,1.058,1.058Z" transform="translate(0 -32)" fill="#3a0070"/>
    </g>
  </g>
  <g id="Group_14" data-name="Group 14" transform="translate(6.337 33.736)">
    <g id="Group_13" data-name="Group 13">
      <path id="Path_459" data-name="Path 459" d="M54.21,287.344a1.058,1.058,0,0,0-1.5,0l-4.489,4.489a1.058,1.058,0,0,0,1.47,1.522l.026-.026,4.489-4.489C54.4,288.513,54.02,287.89,54.21,287.344Z" transform="translate(-47.902 -287.034)" fill="#3a0070"/>
    </g>
  </g>
  <g id="Group_16" data-name="Group 16" transform="translate(12.686 33.749)">
    <g id="Group_15" data-name="Group 15">
      <path id="Path_460" data-name="Path 460" d="M102.184,287.428a1.058,1.058,0,0,0-1.47,0l-4.489,4.489a1.058,1.058,0,0,0,1.47,1.522l.026-.026,4.489-4.489A1.058,1.058,0,0,0,102.184,287.428Z" transform="translate(-95.902 -287.13)" fill="#3a0070"/>
    </g>
  </g>
  <g id="Group_18" data-name="Group 18" transform="translate(29.724 10.596)">
    <g id="Group_17" data-name="Group 17" transform="translate(0 0)">
      <path id="Path_461" data-name="Path 461" d="M236.972,112.4a1.058,1.058,0,0,0-1.47,0l-10.477,10.477a1.058,1.058,0,0,0,1.47,1.522l.026-.026L237,113.892A1.058,1.058,0,0,0,236.972,112.4Z" transform="translate(-224.702 -112.098)" fill="#3a0070"/>
    </g>
  </g>
  <g id="Group_20" data-name="Group 20" transform="translate(53.52 36.614)">
    <g id="Group_19" data-name="Group 19">
      <path id="Path_462" data-name="Path 462" d="M409.376,309.083a1.058,1.058,0,0,0-1.47,0l-2.993,2.993a1.058,1.058,0,1,0,1.47,1.522l.026-.026,2.993-2.993A1.058,1.058,0,0,0,409.376,309.083Z" transform="translate(-404.59 -308.786)" fill="#3a0070"/>
    </g>
  </g>
  <g id="Group_22" data-name="Group 22" transform="translate(30.705 35.981)">
    <g id="Group_21" data-name="Group 21">
      <path id="Path_463" data-name="Path 463" d="M233.183,304h-.011a1.064,1.064,0,1,0,.011,0Z" transform="translate(-232.12 -304)" fill="#3a0070"/>
    </g>
  </g>
  <g id="Group_24" data-name="Group 24" transform="translate(28.573 4.233)">
    <g id="Group_23" data-name="Group 23" transform="translate(0 0)">
      <path id="Path_464" data-name="Path 464" d="M221.291,64h-4.233a1.058,1.058,0,1,0,0,2.117h4.233a1.058,1.058,0,0,0,0-2.117Z" transform="translate(-216 -64)" fill="#3a0070"/>
    </g>
  </g>
</svg>
