<svg xmlns="http://www.w3.org/2000/svg" xmlns:xlink="http://www.w3.org/1999/xlink" width="960.054" height="660.331" viewBox="0 0 960.054 660.331">
  <defs>
    <linearGradient id="linear-gradient" x1="-5.352" y1="1.001" x2="-5.352" gradientUnits="objectBoundingBox">
      <stop offset="0" stop-color="gray" stop-opacity="0.251"/>
      <stop offset="0.535" stop-color="gray" stop-opacity="0.122"/>
      <stop offset="1" stop-color="gray" stop-opacity="0.102"/>
    </linearGradient>
  </defs>
  <g id="Download_illustration" data-name="Download illustration" transform="translate(0.012 0.002)">
    <g id="OBJECT" transform="translate(-0.012 -0.002)">
      <path id="Path_674" data-name="Path 674" d="M960.042,534.169C871.018,497.54,803.1,605.885,612.453,645.932c-171.774,36.093-380.42,3.551-420.9-88.959-28.641-65.463,43.2-123.768,4.735-182.475C151.97,306.89,31.688,346.1,4.75,290.106c-27.576-57.322,71.5-154.433,120.594-193.888,29.891-23.976,159.2-127.911,255.381-86.636C462.8,44.8,441.536,151.809,515.5,176.1,604.512,205.323,680.015,65.05,773.241,91.7c79.879,22.837,186.8,198.423,186.8,198.423Z" transform="translate(0.012 0.002)" fill="#ff9fae"/>
    </g>
    <g id="Group_10" data-name="Group 10" transform="translate(356.988 109.673)">
      <path id="Path_343" data-name="Path 343" d="M603.8,115.819V457.362A15.343,15.343,0,0,1,588.452,472.7H449.787A15.345,15.345,0,0,1,434.44,457.36V115.819a15.346,15.346,0,0,1,15.348-15.347h20.748v2.665a12.64,12.64,0,0,0,12.637,12.637h70.518a12.637,12.637,0,0,0,12.637-12.637v-2.665h22.121A15.346,15.346,0,0,1,603.8,115.82Z" transform="translate(-253.635 -71.311)" fill="#f2f2f2"/>
      <path id="Path_344" data-name="Path 344" d="M774.231,223.308h1.374a1.283,1.283,0,0,1,1.283,1.283v45.036a1.283,1.283,0,0,1-1.283,1.283h-1.374" transform="translate(-403.181 -125.373)" fill="none" stroke="#3f3d56" stroke-miterlimit="10" stroke-width="1"/>
      <path id="Path_345" data-name="Path 345" d="M427.684,172.373h-.994a.842.842,0,0,1-.842-.842V157.543a.842.842,0,0,1,.842-.842h.994" transform="translate(-249.854 -96.058)" fill="none" stroke="#3f3d56" stroke-miterlimit="10" stroke-width="1"/>
      <path id="Path_346" data-name="Path 346" d="M427.436,235.222h-.848a.949.949,0,0,1-.949-.949V208.894a.949.949,0,0,1,.949-.949h1" transform="translate(-249.762 -118.611)" fill="none" stroke="#3f3d56" stroke-miterlimit="10" stroke-width="1"/>
      <path id="Path_347" data-name="Path 347" d="M427.482,301.222h-.835a.9.9,0,0,1-.9-.9V274.612a.9.9,0,0,1,.9-.9h.835" transform="translate(-249.808 -147.555)" fill="none" stroke="#3f3d56" stroke-miterlimit="10" stroke-width="1"/>
      <rect id="Rectangle_19" data-name="Rectangle 19" width="193.22" height="392.692" rx="35.694" transform="translate(177.83 8.855)" fill="none" stroke="#3f3d56" stroke-miterlimit="10" stroke-width="1"/>
      <rect id="Rectangle_20" data-name="Rectangle 20" width="26.982" height="5.479" rx="2.542" transform="translate(254.682 22.262)" fill="#f2f2f2"/>
      <circle id="Ellipse_19" data-name="Ellipse 19" cx="3.108" cy="3.108" r="3.108" transform="translate(285.744 21.894)" fill="#f2f2f2"/>
      <rect id="Rectangle_21" data-name="Rectangle 21" width="26.982" height="5.479" rx="2.542" transform="translate(255.801 20.582)" fill="none" stroke="#3f3d56" stroke-miterlimit="10" stroke-width="1"/>
      <circle id="Ellipse_20" data-name="Ellipse 20" cx="3.108" cy="3.108" r="3.108" transform="translate(286.864 20.214)" fill="none" stroke="#3f3d56" stroke-miterlimit="10" stroke-width="1"/>
      <path id="Path_348" data-name="Path 348" d="M619.8,97.819V439.362A15.343,15.343,0,0,1,604.452,454.7H465.787A15.345,15.345,0,0,1,450.44,439.36V97.819a15.346,15.346,0,0,1,15.348-15.347h20.748v2.665a12.64,12.64,0,0,0,12.637,12.637h70.518a12.637,12.637,0,0,0,12.637-12.637V82.472h22.121A15.345,15.345,0,0,1,619.8,97.82Z" transform="translate(-260.677 -63.389)" fill="none" stroke="#3f3d56" stroke-miterlimit="10" stroke-width="1"/>
      <rect id="Rectangle_22" data-name="Rectangle 22" width="17.357" height="2.24" transform="translate(194.606 51.724)" fill="none" stroke="#3f3d56" stroke-miterlimit="10" stroke-width="1"/>
      <rect id="Rectangle_23" data-name="Rectangle 23" width="17.357" height="2.24" transform="translate(194.606 55.644)" fill="none" stroke="#3f3d56" stroke-miterlimit="10" stroke-width="1"/>
      <rect id="Rectangle_24" data-name="Rectangle 24" width="17.357" height="2.24" transform="translate(194.606 59.563)" fill="none" stroke="#3f3d56" stroke-miterlimit="10" stroke-width="1"/>
      <path id="Path_349" data-name="Path 349" d="M732.439,145.242h-.514l-.193-.161a4.266,4.266,0,0,0,1-2.74,4.162,4.162,0,1,0-4.146,4.19,4.307,4.307,0,0,0,2.732-1l.193.161v.516l3.214,3.223.964-.967Zm-3.857,0a2.885,2.885,0,1,1,2.05-.848,2.9,2.9,0,0,1-2.05.848Z" transform="translate(-381.252 -87.919)" fill="none" stroke="#3f3d56" stroke-miterlimit="10" stroke-width="1"/>
      <path id="Path_350" data-name="Path 350" d="M906.665,190.267A21.808,21.808,0,0,1,928.443,169.6c.663,0,1.317.035,1.965.092a28.974,28.974,0,0,1,50.086-.024c.546-.041,1.1-.069,1.654-.069a21.808,21.808,0,0,1,21.778,20.668" transform="translate(-461.466 -95.432)" fill="#f2f2f2"/>
      <path id="Path_351" data-name="Path 351" d="M914.778,187.271A21.808,21.808,0,0,1,936.556,166.6c.663,0,1.317.035,1.965.092a28.974,28.974,0,0,1,50.086-.024c.546-.041,1.1-.069,1.653-.069a21.808,21.808,0,0,1,21.778,20.668" transform="translate(-465.037 -94.113)" fill="none" stroke="#3f3d56" stroke-miterlimit="10" stroke-width="1"/>
      <path id="Path_352" data-name="Path 352" d="M802.665,411.267A21.808,21.808,0,0,1,824.443,390.6c.663,0,1.317.035,1.965.092a28.974,28.974,0,0,1,50.086-.024c.547-.041,1.1-.069,1.653-.069a21.808,21.808,0,0,1,21.777,20.668" transform="translate(-415.695 -192.696)" fill="#f2f2f2"/>
      <path id="Path_353" data-name="Path 353" d="M810.778,408.271A21.808,21.808,0,0,1,832.556,387.6c.663,0,1.317.035,1.965.092a28.974,28.974,0,0,1,50.086-.024c.546-.041,1.1-.069,1.653-.069a21.808,21.808,0,0,1,21.777,20.668" transform="translate(-419.266 -191.378)" fill="none" stroke="#3f3d56" stroke-miterlimit="10" stroke-width="1"/>
      <path id="Path_354" data-name="Path 354" d="M151.665,87.267A21.808,21.808,0,0,1,173.443,66.6c.663,0,1.317.035,1.965.092a28.974,28.974,0,0,1,50.086-.024c.546-.041,1.1-.069,1.654-.069a21.808,21.808,0,0,1,21.777,20.668" transform="translate(-129.183 -50.101)" fill="#f2f2f2"/>
      <path id="Path_355" data-name="Path 355" d="M159.778,84.271A21.808,21.808,0,0,1,181.556,63.6c.663,0,1.317.035,1.965.092a28.974,28.974,0,0,1,50.086-.024c.546-.041,1.1-.069,1.653-.069a21.808,21.808,0,0,1,21.778,20.668" transform="translate(-132.754 -48.782)" fill="none" stroke="#3f3d56" stroke-miterlimit="10" stroke-width="1"/>
      <rect id="Rectangle_25" data-name="Rectangle 25" width="133.254" height="73.905" rx="12.547" transform="translate(195.446 108.839)" fill="#ff4865"/>
      <rect id="Rectangle_26" data-name="Rectangle 26" width="133.254" height="73.905" rx="12.547" transform="translate(202.724 94.841)" fill="none" stroke="#3f3d56" stroke-miterlimit="10" stroke-width="1"/>
      <path id="Path_356" data-name="Path 356" d="M554.412,299.182l11.753,12.112a2.672,2.672,0,0,0,1.965.789h.035a2.672,2.672,0,0,0,1.965-.789l11.753-12.112a2.594,2.594,0,0,0,0-3.789,2.9,2.9,0,0,0-3.964,0l-6.964,7.28V283.9a2.809,2.809,0,0,0-5.613,0v18.769l-6.964-7.28a2.9,2.9,0,0,0-3.964,0,2.594,2.594,0,0,0,0,3.789Z" transform="translate(-306.074 -150.86)" fill="#fff"/>
      <rect id="Rectangle_27" data-name="Rectangle 27" width="133.254" height="73.905" rx="12.547" transform="translate(343.256 309.279) rotate(180)" fill="#ff4865"/>
      <rect id="Rectangle_28" data-name="Rectangle 28" width="133.254" height="73.905" rx="12.547" transform="translate(335.978 295.282) rotate(180)" fill="none" stroke="#3f3d56" stroke-miterlimit="10" stroke-width="1"/>
      <path id="Path_357" data-name="Path 357" d="M607.882,525.182a2.593,2.593,0,0,0,0-3.789,2.9,2.9,0,0,0-3.964,0l-6.964,7.28V509.9a2.809,2.809,0,0,0-5.613,0v18.769l-6.964-7.28a2.9,2.9,0,0,0-3.964,0,2.594,2.594,0,0,0,0,3.789l11.753,12.112a2.671,2.671,0,0,0,1.965.789h.035a2.671,2.671,0,0,0,1.965-.789l11.753-12.112Z" transform="translate(-317.517 -250.325)" fill="#fff"/>
      <path id="Path_358" data-name="Path 358" d="M328.044,813.88h0s-.176.1-.477.25Q327.81,814.005,328.044,813.88Z" transform="translate(-206.599 -385.29)" fill="url(#linear-gradient)"/>
      <path id="Path_359" data-name="Path 359" d="M207.421,641.624c-4.2,12.077.7,31.681,2.977,40.431a122.5,122.5,0,0,1,2.975,19.255,40.557,40.557,0,0,0,15.4-.352L225.1,682.932c2.625-10.677,0-39.208,0-39.208s5.949-11.027,6.474-27.829c.517-16.54,4.594-21.885,4.723-22.051l0,0c8.4,4.376,19.079,51.284,19.079,51.284-.874,11.376.176,28.879,3.676,38.331a47.455,47.455,0,0,1,2.625,18.727,5.76,5.76,0,0,0,4.762.914c5-.809,10.99-5.114,10.99-5.114s-1.924-51.109-3.326-53.033,0-12.951,0-12.951l-2.274-17.853s.349-30.281-2.977-35.532c-2.87-4.534-3.531-12.5-3.66-14.595-.018-.331-.026-.515-.026-.515l-5.064-6.067s-49.008-3.676-52.684,0c-.9.9-1.46,2.954-1.791,5.537-1.011,7.939.147,20.89.147,20.89s1.47,9.627,3.57,19.428a42.555,42.555,0,0,1,0,17.853,53.392,53.392,0,0,1-1.927,20.478Z" transform="translate(-152.751 -271.708)" fill="#575a89"/>
      <path id="Path_360" data-name="Path 360" d="M213.863,829.152c2.187,2.888,15.051,1.662,17.241.761,1.336-.551,1.237-3.066.874-5.658-.228-1.649-.564-3.329-.7-4.555-.349-3.151,1.05-9.541,1.05-9.541s-2.888,3.064-3.586,0a3.344,3.344,0,0,0-2.5-2.374,6.538,6.538,0,0,0-4.544.285c-2.273.986-6.067,3.089-5.386,5.933.964,4.019-2.45,9.722-2.45,9.722a4.374,4.374,0,0,0-.638,1.1A4.2,4.2,0,0,0,213.863,829.152Z" transform="translate(-156.13 -382.485)" fill="#cbceda"/>
      <path id="Path_361" data-name="Path 361" d="M213.863,842.317c2.187,2.888,15.051,1.662,17.241.761,1.336-.551,1.237-3.066.874-5.658-1.381.647-3.731,1.183-7.647.821a21.987,21.987,0,0,0-2.751-.084,64.356,64.356,0,0,1-8.356-.167A4.2,4.2,0,0,0,213.863,842.317Z" transform="translate(-156.13 -395.65)" opacity="0.1"/>
      <path id="Path_362" data-name="Path 362" d="M279.813,672.379c-.874,11.376.176,28.879,3.676,38.331a47.456,47.456,0,0,1,2.625,18.727,5.76,5.76,0,0,0,4.762.914c-1.055-7.383-5.555-39.189-8.438-64.317a105.182,105.182,0,0,0-18.64-48.307l-3.064,3.368C269.135,625.471,279.813,672.379,279.813,672.379Z" transform="translate(-177.185 -298.96)" opacity="0.1"/>
      <path id="Path_363" data-name="Path 363" d="M224,370.276l2.137,10.5,10.465,17.59,12.909-5.513s17.546-18.378,6.519-21a9.7,9.7,0,0,1-3.662-1.63,7.573,7.573,0,0,1-2.856-6.33,19.4,19.4,0,0,1,1.793-7.53l-22.578-7.089a36.056,36.056,0,0,1,1.62,9.147c.173,6.149-2.111,9.178-3.985,10.622a6.781,6.781,0,0,1-2.36,1.234Z" transform="translate(-161.02 -180.811)" fill="#fbbebe"/>
      <path id="Path_364" data-name="Path 364" d="M232.445,349.273a36.057,36.057,0,0,1,1.62,9.147,17.363,17.363,0,0,0,1.313,1.4,17.867,17.867,0,0,0,17.853,4.075,19.394,19.394,0,0,1,1.793-7.53Z" transform="translate(-164.735 -180.811)" opacity="0.1"/>
      <path id="Path_365" data-name="Path 365" d="M227.821,330.081a17.786,17.786,0,1,0,5.209-12.643A17.852,17.852,0,0,0,227.821,330.081Z" transform="translate(-162.7 -164.508)" fill="#fbbebe"/>
      <path id="Path_366" data-name="Path 366" d="M224,385.816l2.137,10.5,10.465,17.59,12.909-5.513s17.546-18.378,6.519-21a9.7,9.7,0,0,1-3.662-1.63c1.993,5.471-6.227,16.858-6.227,16.858-.956,1.407-3.151.525-3.151.525-5.293-.8-15.041-16.028-16.629-18.562a6.782,6.782,0,0,1-2.36,1.234Z" transform="translate(-161.02 -196.351)" opacity="0.1"/>
      <path id="Path_367" data-name="Path 367" d="M205.956,562.976c3.106.706,20.3,4.516,26.821,3.563,7.175-1.05,21.127-1.748,21.127-1.748s8.884.48,11.617-.769c-.018-.331-.026-.515-.026-.515l-5.064-6.067s-49.008-3.675-52.684,0C206.843,558.342,206.287,560.392,205.956,562.976Z" transform="translate(-153.077 -271.708)" opacity="0.1"/>
      <path id="Path_368" data-name="Path 368" d="M229.376,403.275s9.234-12.793,5.755-17.773l15.6,6.4s9.389-1.138,12.777,12.873a24.239,24.239,0,0,1,.58,7.111,21.215,21.215,0,0,0,2.571,10.645c3.851,7.7,2.975,25.379-4.9,27.129s-10.677.875-10.677.875,1.05,32.03,5.6,35.705-11.6,2.8-11.6,2.8-13.951.7-21.127,1.75-27.3-3.676-27.3-3.676,2.975-13.477,4.026-22.053,3.5-26.838,3.5-26.838L186.32,414.039s-3.151-14.615,7.876-21.091,15.176-8.068,15.176-8.068,11.078,18.045,16.853,18.92C226.226,403.8,228.42,404.682,229.376,403.275Z" transform="translate(-144.251 -196.482)" fill="#3f3d56"/>
      <path id="Path_369" data-name="Path 369" d="M295.584,426.8s.175,5.776-.875,8.051-4.9,14.877-4.9,14.877h8.751s-4.726-5.076-4.376-7.526S295.584,426.8,295.584,426.8Z" transform="translate(-189.981 -214.932)" opacity="0.1"/>
      <path id="Path_370" data-name="Path 370" d="M252.024,485.355s19.326-4.726,21.127-8.751,6.766-13.034,6.766-13.034l-2.04-2.748-9.4,7.381s-11.2,8.926-16.452,9.8S252.024,485.355,252.024,485.355Z" transform="translate(-172.325 -229.905)" fill="#fbbebe"/>
      <path id="Path_371" data-name="Path 371" d="M252.024,485.355s19.326-4.726,21.127-8.751,6.766-13.034,6.766-13.034l-2.04-2.748-9.4,7.381s-11.2,8.926-16.452,9.8S252.024,485.355,252.024,485.355Z" transform="translate(-172.325 -229.905)" opacity="0.05"/>
      <path id="Path_372" data-name="Path 372" d="M224,463.943v10.486h1.685a49.053,49.053,0,0,1,23.8,6.16l3.156,1.753.851.473,5.424-12.221-5.075-4.55s-.092.01-.26.024c-1.242.121-6.611.57-8.887-.2-2.161-.732-4.846-3.061-11.213-1.433-3.135.8-5.813,4.316-8.855,3.219Z" transform="translate(-161.02 -231.246)" fill="#fbbebe"/>
      <path id="Path_373" data-name="Path 373" d="M191.085,420.565l-3.5,3.938v9.539s2.975,30.1,12.427,33.43,26.323-1.925,26.323-1.925,4.358-11.552,2.319-12.252-18.017-4.921-18.017-4.921.226-17.658-3.275-22.909c0,0,2.275-16.452-5.6-16.8S191.085,420.565,191.085,420.565Z" transform="translate(-144.992 -206.946)" opacity="0.1"/>
      <path id="Path_374" data-name="Path 374" d="M190.148,420.565l-3.5,3.938v9.539s2.975,30.1,12.427,33.43,26.323-1.925,26.323-1.925,4.358-11.552,2.319-12.252-18.017-4.921-18.017-4.921.226-17.658-3.275-22.909c0,0,2.275-16.452-5.6-16.8S190.148,420.565,190.148,420.565Z" transform="translate(-144.579 -206.946)" fill="#3f3d56"/>
      <path id="Path_375" data-name="Path 375" d="M232.716,337.667a6.988,6.988,0,0,1,.4-3.408,2.631,2.631,0,0,1,2.775-1.6c1.5.349,2.145,2.3,3.613,2.767a2.86,2.86,0,0,0,3.179-1.641,8.327,8.327,0,0,0,.609-3.807q0-2.193.01-4.387c0-1.591.05-3.311,1.032-4.56,1.221-1.557,4.088-2.237,6-2.174a5.076,5.076,0,0,1,3.426,1.381,4.429,4.429,0,0,0,3.607,1.284,3.115,3.115,0,0,0,2.513-2.174.427.427,0,0,0,.013-.055,17.851,17.851,0,1,0-26.553,23.7A48.238,48.238,0,0,1,232.716,337.667Z" transform="translate(-162.699 -164.506)" opacity="0.1"/>
      <path id="Path_376" data-name="Path 376" d="M250.1,312.437a3.119,3.119,0,0,0,2.513-2.174c.147-.565.108-1.168.275-1.728.409-1.375,1.877-2.092,2.861-3.136,1.972-2.092,1.844-5.535.448-8.048-1.127-2.029-3.313-3.742-5.6-3.345-1.415.245-2.64,1.255-4.074,1.345-1.38.087-2.644-.686-3.9-1.26a14.713,14.713,0,0,0-9.675-.859,5.574,5.574,0,0,0-2.662,1.343,22.669,22.669,0,0,0-1.42,2c-1.633,2.079-4.553,2.485-7.154,2.957s-5.545,1.5-6.4,4c-.567,1.659-.017,3.46.309,5.183a1.523,1.523,0,0,1-.069,1.07c-.406.671-1.422.39-2.189.551-1.476.31-1.855,2.211-1.909,3.718q-.093,2.587-.141,5.176a6.692,6.692,0,0,0,.153,1.921,6.786,6.786,0,0,0,1.489,2.409l5.78,6.943c2.563,3.078,5.284,6.667,4.767,10.639,1.215.545,2.657-.5,3.055-1.774a7.926,7.926,0,0,0-.193-3.943,48.478,48.478,0,0,1-.914-6.835,6.965,6.965,0,0,1,.4-3.407,2.632,2.632,0,0,1,2.775-1.606c1.5.351,2.144,2.3,3.611,2.768a2.861,2.861,0,0,0,3.18-1.64,8.349,8.349,0,0,0,.609-3.808l.01-4.387c0-1.59.051-3.31,1.032-4.561,1.221-1.556,4.089-2.236,6-2.174a5.084,5.084,0,0,1,3.425,1.382A4.434,4.434,0,0,0,250.1,312.437Z" transform="translate(-155.425 -155.949)" fill="#3f3d56"/>
      <path id="Path_377" data-name="Path 377" d="M268.342,426.019l-5.481,22.516S258.541,448.51,268.342,426.019Z" transform="translate(-177.704 -214.588)" opacity="0.1"/>
      <path id="Path_378" data-name="Path 378" d="M239.947,419.3s7.176,11.752,4.376,23.9l-1.337.1S245.373,437.675,239.947,419.3Z" transform="translate(-168.037 -211.63)" opacity="0.1"/>
      <path id="Path_379" data-name="Path 379" d="M224.39,537.6s-8.811-2.914-9.451,3.851C214.939,541.449,216.6,536.811,224.39,537.6Z" transform="translate(-157.03 -263.42)" opacity="0.1"/>
      <path id="Path_380" data-name="Path 380" d="M276.2,468.69s1.75,12.252-1.4,17.153a38.437,38.437,0,0,0,15.4,2.1l1.05-19.253Z" transform="translate(-183.377 -233.368)" opacity="0.1"/>
      <path id="Path_381" data-name="Path 381" d="M275.163,484.052l.851.473,5.424-12.221-5.075-4.55H276.1a.162.162,0,0,0,0,.024C276.181,468.342,277.6,478.864,275.163,484.052Z" transform="translate(-183.536 -232.956)" opacity="0.1"/>
      <path id="Path_382" data-name="Path 382" d="M276.2,467.752s1.75,12.252-1.4,17.153a38.438,38.438,0,0,0,15.4,2.1l6.126-19.253Z" transform="translate(-183.377 -232.955)" fill="#3f3d56"/>
      <path id="Path_383" data-name="Path 383" d="M302.323,826.282a3.964,3.964,0,0,0,3.4,3.467c4.753.71,16.2-1.4,19.093-.023,3.676,1.751,18.2.525,18.9-1.223a2.762,2.762,0,0,0-.252-2.106,5.588,5.588,0,0,0-2.347-2.523,5.815,5.815,0,0,0-1.053-.467c-2.736-.914-7.905-2.851-9.3-4.881,0,0-6.441-5.636-8.28-8.685a4.2,4.2,0,0,0-3.365-2.1c-1.533-.069-3.241.7-3.939,4.062,0,0-8.4,4.791-10.67.591,0,0-.349,10.372-1.743,12.137l-.008.01A2.33,2.33,0,0,0,302.323,826.282Z" transform="translate(-195.478 -382.588)" fill="#cbceda"/>
      <path id="Path_384" data-name="Path 384" d="M302.323,838.963a3.964,3.964,0,0,0,3.4,3.467c4.753.71,16.2-1.4,19.093-.023,3.676,1.751,18.2.525,18.9-1.223a2.762,2.762,0,0,0-.252-2.106,5.588,5.588,0,0,0-2.347-2.523c-2.368,1.57-7.627,3.108-19.192,1.3-11.032-1.722-16.493.509-19.158-.641l-.008.01A2.33,2.33,0,0,0,302.323,838.963Z" transform="translate(-195.478 -395.269)" opacity="0.1"/>
      <g id="Group_9" data-name="Group 9" transform="translate(55.867 145.125)" opacity="0.1">
        <path id="Path_385" data-name="Path 385" d="M218.595,318.481c0-.028-.01-.056-.015-.084a16.391,16.391,0,0,1-.54-3.975,25.528,25.528,0,0,0,.54,3.187,1.9,1.9,0,0,1,.015.872Z" transform="translate(-214.257 -310.598)"/>
        <path id="Path_386" data-name="Path 386" d="M236.929,331.858a5.115,5.115,0,0,0-.43,2,6.027,6.027,0,0,1,.43-2.788,2.632,2.632,0,0,1,2.775-1.606c1.5.351,2.144,2.3,3.611,2.768a2.861,2.861,0,0,0,3.18-1.64,8.35,8.35,0,0,0,.609-3.808q.005-2.194.01-4.387c0-1.59.051-3.31,1.032-4.561,1.221-1.556,4.089-2.236,6-2.174a5.083,5.083,0,0,1,3.425,1.382,4.431,4.431,0,0,0,3.608,1.285,3.119,3.119,0,0,0,2.513-2.174c.147-.565.108-1.168.275-1.728.409-1.375,1.877-2.092,2.861-3.136a5.73,5.73,0,0,0,1.476-3.7,5.967,5.967,0,0,1-1.476,4.487c-.984,1.044-2.452,1.761-2.861,3.136-.166.56-.128,1.163-.275,1.728a3.119,3.119,0,0,1-2.513,2.174,4.432,4.432,0,0,1-3.608-1.285,5.083,5.083,0,0,0-3.425-1.382c-1.914-.062-4.783.618-6,2.174-.981,1.251-1.028,2.972-1.032,4.561q-.005,2.194-.01,4.387a8.35,8.35,0,0,1-.609,3.808,2.861,2.861,0,0,1-3.18,1.64c-1.467-.468-2.112-2.417-3.611-2.768A2.633,2.633,0,0,0,236.929,331.858Z" transform="translate(-222.377 -307.591)"/>
        <path id="Path_387" data-name="Path 387" d="M211.46,341.436a6.787,6.787,0,0,0,1.489,2.409l5.78,6.943c2.433,2.923,5.007,6.306,4.819,10.04-.176-3.423-2.559-6.536-4.819-9.252l-5.78-6.943a6.787,6.787,0,0,1-1.488-2.409,6.688,6.688,0,0,1-.153-1.92A4.764,4.764,0,0,0,211.46,341.436Z" transform="translate(-211.293 -321.988)"/>
        <path id="Path_388" data-name="Path 388" d="M236.143,374.127a4.111,4.111,0,0,0,.173-.937,4.689,4.689,0,0,1-.173,1.724c-.4,1.27-1.841,2.319-3.055,1.774a7.636,7.636,0,0,0,.06-.766C234.349,376.408,235.751,375.376,236.143,374.127Z" transform="translate(-220.885 -336.462)"/>
      </g>
      <path id="Path_389" data-name="Path 389" d="M333.77,814.321s-1.829,3.219-8.459.382" transform="translate(-205.606 -385.484)" opacity="0.1"/>
      <path id="Path_390" data-name="Path 390" d="M232.159,814.706s-5.719,6.731-12.923,2.207" transform="translate(-158.922 -385.653)" opacity="0.1"/>
      <path id="Path_391" data-name="Path 391" d="M212.6,672.509s4.04,2.524,4.171,3.968-2.085-1.05-2.085-1.05Z" transform="translate(-155.999 -323.071)" opacity="0.1"/>
      <path id="Path_392" data-name="Path 392" d="M209.748,707.074a8.435,8.435,0,0,0,4.978,1.942c3.019.131,2.768,4.069.793,2.888A49.619,49.619,0,0,1,209.748,707.074Z" transform="translate(-154.746 -338.283)" opacity="0.1"/>
      <path id="Path_393" data-name="Path 393" d="M208.375,711.585s1.939,9.525,3.515,7.687" transform="translate(-154.142 -340.268)" opacity="0.1"/>
      <path id="Path_394" data-name="Path 394" d="M119.187,676.665a11.653,11.653,0,1,0,1.552-22.348l.292,6-2.838-5.14a11.609,11.609,0,0,0-5.982,6.563,11.426,11.426,0,0,0-.67,3.152A11.65,11.65,0,0,0,119.187,676.665Z" transform="translate(-111.511 -314.951)" fill="#57b894"/>
      <path id="Path_395" data-name="Path 395" d="M148.572,738.355c-1-5.1,3.339-9.623,7.626-12.562s9.3-5.827,10.76-10.815c2.1-7.169-4.16-13.734-9.034-19.4a70.155,70.155,0,0,1-9.251-13.749,18.927,18.927,0,0,1-2.213-6.252c-.384-3.178.637-6.34,1.665-9.371q5.139-15.146,10.99-30.038" transform="translate(-126.856 -307.079)" fill="none" stroke="#3f3d56" stroke-miterlimit="10" stroke-width="1"/>
      <path id="Path_396" data-name="Path 396" d="M120.044,673.907a11.653,11.653,0,1,0,1.552-22.348l.292,6-2.838-5.14a11.609,11.609,0,0,0-5.982,6.563,11.427,11.427,0,0,0-.67,3.152A11.651,11.651,0,0,0,120.044,673.907Z" transform="translate(-111.888 -313.737)" fill="none" stroke="#3f3d56" stroke-miterlimit="10" stroke-width="1"/>
      <path id="Path_397" data-name="Path 397" d="M147.2,626.439a11.639,11.639,0,0,1,8.387-7.389l.959,5.7,1.779-5.988a11.651,11.651,0,1,1-11.125,7.676Z" transform="translate(-126.912 -299.417)" fill="#57b894"/>
      <path id="Path_398" data-name="Path 398" d="M148.347,622.761a11.639,11.639,0,0,1,8.387-7.389l.959,5.7,1.779-5.988a11.651,11.651,0,1,1-11.125,7.676Z" transform="translate(-127.415 -297.798)" fill="none" stroke="#3f3d56" stroke-miterlimit="10" stroke-width="1"/>
      <path id="Path_399" data-name="Path 399" d="M157.309,724.717a11.651,11.651,0,0,0,10.313-20.729l-1.367,4.6-.969-5.769-.03-.011a11.652,11.652,0,0,0-7.947,21.907Z" transform="translate(-128.286 -336.098)" fill="#57b894"/>
      <path id="Path_400" data-name="Path 400" d="M158.3,720.992a11.651,11.651,0,0,0,10.313-20.729l-1.367,4.6-.969-5.769-.03-.011a11.652,11.652,0,1,0-7.947,21.907Z" transform="translate(-128.722 -334.458)" fill="none" stroke="#3f3d56" stroke-miterlimit="10" stroke-width="1"/>
      <path id="Path_401" data-name="Path 401" d="M141.539,766.311a11.646,11.646,0,1,0,2.245-9.125L148.977,765l-7.093-4.147A11.543,11.543,0,0,0,141.539,766.311Z" transform="translate(-124.648 -358.341)" fill="#57b894"/>
      <path id="Path_402" data-name="Path 402" d="M142.4,763.554a11.646,11.646,0,1,0,2.245-9.125l5.192,7.814L142.74,758.1A11.543,11.543,0,0,0,142.4,763.554Z" transform="translate(-125.025 -357.127)" fill="none" stroke="#3f3d56" stroke-miterlimit="10" stroke-width="1"/>
      <path id="Path_403" data-name="Path 403" d="M121.4,823.732s10.283-4.03,13.382-6.236,15.817-4.842,16.586-1.3,15.453,17.6,3.844,17.7-26.974,1.9-30.067.021S121.4,823.732,121.4,823.732Z" transform="translate(-115.864 -385.546)" fill="#656380"/>
      <path id="Path_404" data-name="Path 404" d="M155.421,839.931c-11.609.094-26.974,1.9-30.067.021-2.355-1.435-3.294-6.583-3.608-8.958l-.343.013s.651,8.293,3.744,10.177,18.458.073,30.067-.021c3.351-.027,4.509-1.219,4.445-2.985C159.193,839.245,157.915,839.911,155.421,839.931Z" transform="translate(-115.864 -392.821)" opacity="0.2"/>
      <line id="Line_1" data-name="Line 1" x2="152.29" transform="translate(28.452 447.883)" fill="none" stroke="#3f3d56" stroke-miterlimit="10" stroke-width="1"/>
    </g>
  </g>
</svg>
