<svg xmlns="http://www.w3.org/2000/svg" xmlns:xlink="http://www.w3.org/1999/xlink" width="99.335" height="179.036" viewBox="0 0 99.335 179.036">
  <defs>
    <clipPath id="clip-path">
      <rect id="Rectangle_65" data-name="Rectangle 65" width="99.335" height="179.036" fill="none"/>
    </clipPath>
  </defs>
  <g id="Exc_music" data-name="Exc music" transform="translate(119.35 215.11)">
    <g id="Group_95" data-name="Group 95" transform="translate(-119.35 -215.11)" clip-path="url(#clip-path)">
      <path id="Path_778" data-name="Path 778" d="M39.5,221.674c6.825,8.24,18.227,22.056,18.227,48.606a.458.458,0,0,0,.042.208c-.042,4.661-.166,9.988-.375,15.189h1c.25-5.993.333-11.735.333-15.148a.458.458,0,0,0,.083-.208c0-25.011,12.152-38.827,19.434-47.108,1.165-1.332,2.247-2.58,3.163-3.7,11.777-14.69,20.267-35.955,20.35-36.163a.5.5,0,1,0-.916-.375c-.083.208-8.531,21.348-20.183,35.914-.874,1.082-1.914,2.289-3.121,3.662-6.492,7.407-16.9,19.185-19.226,39.368-2.081-21.515-11.9-33.417-18.019-40.824L38.5,218.928C26.81,204.363,18.4,183.222,18.32,183.014a.5.5,0,1,0-.916.375c.083.208,8.573,21.473,20.35,36.163l1.789,2.206" transform="translate(-10.122 -106.609)" fill="#111"/>
      <path id="Path_779" data-name="Path 779" d="M16.447,56.8c-.125-.291-13.566-28.922,13.4-49.189C34.716,3.912,45.993,0,57.146,0c9.488,0,21.1,4.619,25.26,7.948,26.259,20.974,16.854,48.4,16.771,48.69l-3.5-1.248c.375-1.04,8.573-25.26-15.564-44.57C76.5,7.907,65.719,3.7,57.188,3.7c-9.988,0-20.6,3.5-25.094,6.866C7.5,29.047,19.651,54.932,19.776,55.223Z" transform="translate(-7.583)" fill="#1a1a1a"/>
      <path id="Path_780" data-name="Path 780" d="M209.6,98.5a53.849,53.849,0,0,1-2.5,17.187l5.285,1.914a61.068,61.068,0,0,0,2.622-19.06Z" transform="translate(-120.915 -57.509)" fill="#111"/>
      <path id="Path_781" data-name="Path 781" d="M17.149,98.5a53.849,53.849,0,0,0,2.5,17.187l-5.327,1.873A61.069,61.069,0,0,1,11.7,98.5Z" transform="translate(-6.828 -57.509)" fill="#111"/>
      <path id="Path_782" data-name="Path 782" d="M216.03,148.729c-1.581,2.58-9.53,3.787-9.53,3.787l5.576-27.716s6.658,4.37,7.324,7.158a16.646,16.646,0,0,1,.083,7.782,26.842,26.842,0,0,1-3.5,8.989" transform="translate(-120.565 -72.864)" fill="#111"/>
      <path id="Path_783" data-name="Path 783" d="M229.443,138.572a6.117,6.117,0,0,0-1.5-2.372,4.2,4.2,0,0,1,.416,1.165,22.014,22.014,0,0,1-.208,8.614,35.83,35.83,0,0,1-3.537,10.071,4.12,4.12,0,0,1-.916,1.124,5.439,5.439,0,0,0,2.414-1.831,26.842,26.842,0,0,0,3.5-8.989,16.646,16.646,0,0,0-.083-7.782" transform="translate(-130.607 -79.52)" fill="#1a1a1a"/>
      <path id="Path_784" data-name="Path 784" d="M201.946,148.35c-.957,2.455-3.329,3.579-5.035,2.58s-2.289-3.454-1.5-5.535a58.053,58.053,0,0,0,4.037-20.1,4.569,4.569,0,0,1,3.5-4.536c1.956-.291,3.7,1.665,3.621,4.286a67.209,67.209,0,0,1-4.7,23.3" transform="translate(-113.889 -70.489)" fill="#1a1a1a"/>
      <path id="Path_785" data-name="Path 785" d="M3.906,148.729c1.581,2.58,9.53,3.787,9.53,3.787L7.817,124.8s-6.658,4.37-7.324,7.158A16.646,16.646,0,0,0,.41,139.74a26.967,26.967,0,0,0,3.5,8.989" transform="translate(0.006 -72.864)" fill="#111"/>
      <path id="Path_786" data-name="Path 786" d="M.495,138.572a6.159,6.159,0,0,1,1.5-2.372,4.2,4.2,0,0,0-.416,1.165,22.056,22.056,0,0,0,.208,8.614A35.914,35.914,0,0,0,5.405,156.05a4.12,4.12,0,0,0,.916,1.124,5.439,5.439,0,0,1-2.414-1.831,26.966,26.966,0,0,1-3.5-8.947,16.688,16.688,0,0,1,.083-7.782" transform="translate(0.004 -79.52)" fill="#1a1a1a"/>
      <path id="Path_787" data-name="Path 787" d="M20.715,148.35c.957,2.455,3.329,3.579,5.035,2.58s2.289-3.454,1.5-5.535a58.053,58.053,0,0,1-4.037-20.1,4.569,4.569,0,0,0-3.5-4.536c-1.956-.291-3.7,1.665-3.621,4.286a67.208,67.208,0,0,0,4.7,23.3" transform="translate(-9.396 -70.489)" fill="#1a1a1a"/>
      <path id="Path_788" data-name="Path 788" d="M112.71,98.4c-6.658-5.285-8.573-4.911-9.114-7.865V88.5l-2.7,1.332v41.324a9.114,9.114,0,0,0-5.868-2c-4.328,0-7.824,2.622-7.824,5.909s3.5,5.909,7.824,5.909a8.745,8.745,0,0,0,6.534-2.622,6.346,6.346,0,0,0,2-5.035V103.648c1.789.583,15.772,5.41,8.157,20.807,0,0,14.607-15.189.957-26.051" transform="translate(-50.912 -51.671)" fill="#111"/>
      <path id="Path_789" data-name="Path 789" d="M112.71,98.4c-6.658-5.285-8.573-4.911-9.114-7.865V88.5l-2.7,1.332v41.324a9.114,9.114,0,0,0-5.868-2c-4.328,0-7.824,2.622-7.824,5.909s3.5,5.909,7.824,5.909a8.745,8.745,0,0,0,6.534-2.622,6.346,6.346,0,0,0,2-5.035V103.648c1.789.583,15.772,5.41,8.157,20.807,0,0,14.607-15.189.957-26.051" transform="translate(-50.912 -51.671)" fill="#111"/>
      <path id="Path_790" data-name="Path 790" d="M86.913,92.078A1.5,1.5,0,0,1,86,91.787a20.783,20.783,0,0,1,24.886-33.292,1.54,1.54,0,1,1-1.831,2.455A17.749,17.749,0,1,0,87.787,89.373a1.54,1.54,0,0,1-.916,2.747" transform="translate(-45.34 -31.736)" fill="#111"/>
      <path id="Path_791" data-name="Path 791" d="M77.2,89.528a1.54,1.54,0,0,1-.916-.291A26.009,26.009,0,0,1,107.409,47.58a1.515,1.515,0,0,1-1.831,2.414,22.969,22.969,0,1,0-27.51,36.791,1.54,1.54,0,0,1-.913,2.743" transform="translate(-38.744 -24.983)" fill="#111"/>
      <path id="Path_792" data-name="Path 792" d="M98.607,95.644a1.54,1.54,0,0,1-.916-.291,14.94,14.94,0,1,1,17.894-23.929,1.515,1.515,0,0,1-1.831,2.414A11.906,11.906,0,1,0,99.481,92.9a1.54,1.54,0,0,1-.916,2.747" transform="translate(-53.538 -39.963)" fill="#111"/>
    </g>
  </g>
</svg>
