<svg id="Facebook" xmlns="http://www.w3.org/2000/svg" width="45.58" height="45.58" viewBox="0 0 45.58 45.58">
  <path id="Path_675" data-name="Path 675" d="M43.064,0H2.514A2.515,2.515,0,0,0,0,2.516v40.55A2.515,2.515,0,0,0,2.516,45.58H43.064a2.515,2.515,0,0,0,2.516-2.515h0V2.514A2.515,2.515,0,0,0,43.064,0Zm0,0" transform="translate(0 0)" fill="#4267b2"/>
  <path id="Path_676" data-name="Path 676" d="M220.042,116.02V98.394h5.942l.89-6.9h-6.833V87.1c0-1.993.553-3.351,3.411-3.351h3.622V77.6a48.685,48.685,0,0,0-5.308-.271c-5.252,0-8.847,3.2-8.847,9.093v5.077H207v6.9h5.92V116.02Zm0,0" transform="translate(-188.572 -70.441)" fill="#fff"/>
</svg>
