<svg xmlns="http://www.w3.org/2000/svg" xmlns:xlink="http://www.w3.org/1999/xlink" width="168.712" height="152.939" viewBox="0 0 168.712 152.939">
  <defs>
    <clipPath id="clip-path">
      <rect id="Rectangle_83" data-name="Rectangle 83" width="168.712" height="152.939" fill="none"/>
    </clipPath>
    <clipPath id="clip-path-2">
      <rect id="Rectangle_82" data-name="Rectangle 82" width="7.406" height="1.775" fill="none"/>
    </clipPath>
  </defs>
  <g id="High_Quality" data-name="High Quality" transform="translate(226.65 205.46)">
    <g id="Group_101" data-name="Group 101" transform="translate(-226.65 -205.46)">
      <g id="Layer_1" data-name="Layer 1">
        <g id="Group_100" data-name="Group 100" clip-path="url(#clip-path)">
          <g id="Group_99" data-name="Group 99" transform="translate(-0.063)">
            <path id="Path_938" data-name="Path 938" d="M171.679,385.994c0,3.126-35.395,5.694-79.09,5.694s-79.09-2.531-79.09-5.694S48.895,380.3,92.59,380.3s79.09,2.531,79.09,5.694" transform="translate(-8.412 -238.758)" fill="#d4e1f7"/>
            <path id="Path_939" data-name="Path 939" d="M84.871,90.807C78.47,67.582,49.625,60.1,33.1,77.445l-.707.744C8.685,103.945,19.255,168.3,69.128,182.96c51.771,15.26,101.123-12.729,103.989-38.968s-19.912-34.5-55.344-27.17c-19.986,4.131-28.919-11.575-32.9-26.016" transform="translate(-12.678 -42.646)" fill="#d4e1f7"/>
            <path id="Path_940" data-name="Path 940" d="M386.3,151.814l-.782.93-.521-.893,6.364-7.816a12.729,12.729,0,0,0-.261-3.982c-.67-3.164-.819-6.662,1.079-5.806s1.675,4.727.447,8.225l2.456-3.015a18.536,18.536,0,0,0,1.935-4.466c1.117-4.317,3.015-8.225,4.69-6.439s-1.638,8.411-6.216,11.91l-1.265,1.563c3.275-2.605,8.337-3.945,9.565-2.27s-2.233,2.27-5.471,2.27a11.575,11.575,0,0,0-4.876.93l-5.955,7.369c5.211-4.094,13.213-6.215,15.148-3.536s-3.536,3.573-8.672,3.573a18.208,18.208,0,0,0-7.7,1.489" transform="translate(-241.645 -80.429)" fill="#009e76"/>
            <path id="Path_941" data-name="Path 941" d="M50.22,63.814a3.387,3.387,0,0,1,.372,2.754,5.123,5.123,0,0,1-2.419,2.94l-.372.186a4.95,4.95,0,0,1-1.489.372,9.118,9.118,0,0,1-5.434-1.191,3.945,3.945,0,0,1-1.489-1.3c-1.265-2.27-.968-5.992-3.722-6.29s-6.364-1.6-5.769-5.992S24.8,45.8,24.8,45.8a11.186,11.186,0,0,1,8.709,5.025c3.015,4.913,4.02,3.722,8.076,4.02s6.4,0,7.7,6.588a7.146,7.146,0,0,0,.93,2.382" transform="translate(-15.507 -28.754)" fill="#009e76"/>
            <path id="Path_942" data-name="Path 942" d="M60.088,82.459l-.372.186a12.452,12.452,0,0,1-3.647-6.029c-.558-2.791-2.977-4.541-7.853-5.62-3.126-.707-4.392-4.168-4.429-4.317a.194.194,0,0,1,.372-.112c0,.037,1.228,3.424,4.168,4.057,5.062,1.117,7.555,2.94,8.151,5.918a12.148,12.148,0,0,0,3.536,5.843l.074.074" transform="translate(-27.421 -41.704)" fill="#007665"/>
            <path id="Path_943" data-name="Path 943" d="M61.805,41.61l9.342-2.159h0a12.394,12.394,0,0,0-.223-2.977c-.633-3.312-2.456-11.538-5.062-13.175-3.275-2.047-8.821-1.861-9.044-6.029S54.846,7.7,48.332,8.263,34.6,0,34.6,0s-.223,8.486,6.848,13.324,5.173,6.216,5.359,12.282-.447,9.528,9.23,11.947a9.9,9.9,0,0,1,5.806,4.02" transform="translate(-21.658)" fill="#2bd184"/>
            <path id="Path_944" data-name="Path 944" d="M69.8,36.732c1.3,7.593,3.834,11.463,8.188,12.543,2.754.67,5.955,2.866,8.411,5.694a21.1,21.1,0,0,1,2.345,3.312l.558-.149a21.623,21.623,0,0,0-2.494-3.573A18.093,18.093,0,0,0,78.1,48.679c-4.094-.968-6.513-4.69-7.741-12.022-.819-4.727-5.881-6.848-6.1-6.96a.3.3,0,0,0-.223.521c.037.037,4.987,2.084,5.769,6.513" transform="translate(-40.07 -18.644)" fill="#009e76"/>
            <path id="Path_945" data-name="Path 945" d="M373.773,264.194a3.387,3.387,0,0,0-.6,2.717,5.182,5.182,0,0,0,2.2,3.164l.335.223a4.95,4.95,0,0,0,1.452.484,9.119,9.119,0,0,0,5.546-.707,3.946,3.946,0,0,0,1.563-1.154c1.452-2.159,1.452-5.881,4.243-5.918s6.476-1.117,6.253-5.508,5.881-9.007,5.881-9.007a11.2,11.2,0,0,0-9.119,4.28c-3.424,4.652-4.317,3.312-8.374,3.312s-6.364-.6-8.225,5.843a7.146,7.146,0,0,1-1.154,2.27" transform="translate(-234.177 -156)" fill="#009e76"/>
            <path id="Path_946" data-name="Path 946" d="M379.137,281.777l.335.223a12.163,12.163,0,0,0,4.131-5.694c.782-2.754,3.35-4.28,8.3-4.95,3.2-.447,4.727-3.8,4.8-3.945a.186.186,0,0,0-.335-.149c0,.037-1.526,3.312-4.5,3.722-5.136.707-7.779,2.308-8.635,5.211a12.148,12.148,0,0,1-4.02,5.508l-.112.074" transform="translate(-237.941 -167.739)" fill="#007665"/>
            <path id="Path_947" data-name="Path 947" d="M356.893,228.826l-9.193-2.791h0a12.431,12.431,0,0,1,.409-2.94c.856-3.238,3.275-11.352,5.992-12.766,3.387-1.786,8.932-1.228,9.453-5.359s2.68-9.416,9.156-8.411S387,189.3,387,189.3s-.372,8.486-7.779,12.8-5.62,5.843-6.216,11.873-.223,9.528-10.049,11.277a9.9,9.9,0,0,0-6.067,3.61" transform="translate(-218.228 -118.845)" fill="#2bd184"/>
            <path id="Path_948" data-name="Path 948" d="M369.491,223.262c-1.824,7.481-4.652,11.166-9.081,11.91a17.55,17.55,0,0,0-8.784,5.1,21.1,21.1,0,0,0-2.568,3.126l-.558-.186a21.623,21.623,0,0,1,2.754-3.387,18.335,18.335,0,0,1,9.119-5.248c4.206-.744,6.848-4.28,8.635-11.5,1.154-4.652,6.364-6.4,6.588-6.476a.3.3,0,0,1,.186.521c-.037,0-5.136,1.712-6.215,6.067" transform="translate(-218.73 -135.985)" fill="#009e76"/>
            <path id="Path_949" data-name="Path 949" d="M382.559,80.848c-.93,4.5-5.322,4.727-4.95,8.263s-1.6,6.439-4.727,6.029-5.4-.856-6.513,2.791-5.434,5.806-7.444,3.164l-1.563-2.084-.447-.558-.112-.112a6.923,6.923,0,0,1,.744-9.23,4.377,4.377,0,0,1,3.908-1.265c4.876,1,2.754-3.647,5.4-5.881s6.067-.186,8.151-2.382c2.866-3.015,8.449-3.238,7.518,1.228" transform="translate(-223.051 -48.579)" fill="#009e76"/>
            <path id="Path_950" data-name="Path 950" d="M379.635,91.792,359.947,107.61l-.447-.558,19.651-15.818a.372.372,0,1,1,.447.558" transform="translate(-225.636 -57.179)" fill="#007665"/>
            <path id="Path_951" data-name="Path 951" d="M369.956,26c.856,5.694-4.206,7.89-2.2,11.91s.893,8.3-2.94,9.193-6.737,1.34-6.439,6.141-3.871,9.193-7.369,6.96l-2.754-1.749-.744-.484-.186-.112A8.709,8.709,0,0,1,344.2,46.694a5.53,5.53,0,0,1,4.057-3.2c6.178-.93,1.675-5.471,3.8-9.3,2.456-4.392,7.072-2.9,8.56-6.364,2.084-4.8,8.523-7.518,9.379-1.824" transform="translate(-215.473 -14.314)" fill="#2bd184"/>
            <path id="Path_952" data-name="Path 952" d="M371.546,44.164l-16.3,27.244-.744-.484,16.265-27.207a.45.45,0,1,1,.782.447" transform="translate(-222.497 -27.304)" fill="#009e76"/>
            <path id="Path_953" data-name="Path 953" d="M.228,251.347c1.786,4.206,6.141,3.573,6.439,7.146s2.829,5.992,5.843,4.987,5.136-1.9,6.923,1.452,6.439,4.615,7.89,1.638l1.117-2.345.3-.633.074-.149a6.923,6.923,0,0,0-2.531-8.9,4.354,4.354,0,0,0-4.057-.484c-4.578,1.935-3.424-3.015-6.476-4.727s-5.992,1-8.449-.744c-3.424-2.382-8.932-1.526-7.109,2.68" transform="translate(0.17 -155.248)" fill="#009e76"/>
            <path id="Path_954" data-name="Path 954" d="M16.507,260.519l22.406,11.649.3-.633L16.842,259.886a.372.372,0,0,0-.335.633" transform="translate(-10.228 -163.155)" fill="#007665"/>
            <path id="Path_955" data-name="Path 955" d="M11.837,199.587c-.521,5.732,4.652,7.63,2.9,11.761s-.409,8.3,3.461,8.97,6.811.968,6.811,5.769,4.392,8.97,7.779,6.513l2.643-1.9.707-.521.149-.112a8.709,8.709,0,0,0,2.494-11.352,5.351,5.351,0,0,0-4.206-2.94c-6.216-.6-1.973-5.4-4.355-9.081-2.717-4.243-7.22-2.456-8.932-5.843-2.345-4.69-8.97-7-9.491-1.265" transform="translate(-7.345 -123.177)" fill="#2bd184"/>
            <path id="Path_956" data-name="Path 956" d="M27.261,217.194l17.828,26.239.707-.521-17.79-26.239a.454.454,0,0,0-.744.521" transform="translate(-17 -135.909)" fill="#009e76"/>
            <rect id="Rectangle_81" data-name="Rectangle 81" width="18.833" height="22.1" transform="translate(74.203 118.467)" fill="#001030"/>
            <path id="Path_957" data-name="Path 957" d="M210.466,383.532H169.6v-1.265a4.466,4.466,0,0,1,4.466-4.466h31.9a4.466,4.466,0,0,1,4.466,4.466Z" transform="translate(-106.414 -237.188)" fill="#2a3554"/>
            <path id="Path_958" data-name="Path 958" d="M179.02,95.919v80.02a2.419,2.419,0,0,1-2.419,2.419H55.119a2.419,2.419,0,0,1-2.419-2.419V95.919A2.419,2.419,0,0,1,55.119,93.5H176.6a2.419,2.419,0,0,1,2.419,2.419" transform="translate(-33.023 -58.701)" fill="#2a3554"/>
            <path id="Path_959" data-name="Path 959" d="M181.321,105.056v73.172a2.456,2.456,0,0,1-2.456,2.456H64.156a2.345,2.345,0,0,1-.856-.149,2.456,2.456,0,0,1-1.6-2.308V105.056a2.456,2.456,0,0,1,2.456-2.456H178.864a2.456,2.456,0,0,1,2.456,2.456" transform="translate(-38.673 -64.414)" fill="#fff9ff"/>
            <path id="Path_960" data-name="Path 960" d="M181.321,105.056V108.7H61.7v-3.647a2.456,2.456,0,0,1,2.456-2.456H178.864a2.456,2.456,0,0,1,2.456,2.456" transform="translate(-38.673 -64.414)" fill="#d4e1f7"/>
            <path id="Path_961" data-name="Path 961" d="M105.237,109.682h0a.819.819,0,0,0,.819.819H186.82a.819.819,0,0,0,0-1.6h-80.8a.819.819,0,0,0-.819.819" transform="translate(-65.983 -68.369)" fill="#fff9ff"/>
            <path id="Path_962" data-name="Path 962" d="M78.009,109.631v.6a.223.223,0,0,1-.335.186l-.521-.3-.521-.3a.223.223,0,0,1,0-.372l.521-.3.521-.3a.223.223,0,0,1,.335.186Z" transform="translate(-47.984 -68.318)" fill="#2a3554"/>
            <path id="Path_963" data-name="Path 963" d="M87.8,109.631v.6a.223.223,0,0,0,.335.186l.521-.3.521-.3a.223.223,0,0,0,0-.372l-.521-.3-.521-.3a.223.223,0,0,0-.335.186Z" transform="translate(-55.059 -68.318)" fill="#2a3554"/>
            <path id="Path_964" data-name="Path 964" d="M353.882,108.791a1.191,1.191,0,1,1-1.191-1.191,1.191,1.191,0,0,1,1.191,1.191" transform="translate(-220.613 -67.553)" fill="#2bd184"/>
            <path id="Path_965" data-name="Path 965" d="M341.982,108.791a1.191,1.191,0,1,1-1.191-1.191,1.191,1.191,0,0,1,1.191,1.191" transform="translate(-213.143 -67.553)" fill="#005db1"/>
            <path id="Path_966" data-name="Path 966" d="M365.782,108.791a1.191,1.191,0,1,1-1.191-1.191,1.191,1.191,0,0,1,1.191,1.191" transform="translate(-228.084 -67.553)" fill="#ff5767"/>
            <path id="Path_967" data-name="Path 967" d="M205.3,158.7a.856.856,0,0,1-.484-.149l-.149-.112-.223-.149-1.228-.856-6.662-4.615-6.662,4.764-1.042.744-.186.112-.112.074a.856.856,0,0,1-1.34-.93v-.112l.074-.223.409-1.3,2.233-7.22-6.811-4.95-1.452-1.079a1.488,1.488,0,0,1-.447-.521.856.856,0,0,1,.744-1.265h2.9l7.555-.186,2.27-7.369.633-2.047a.856.856,0,0,1,1.638-.074v.112l.074.223.558,1.526,2.977,7.853,7.406-.149h1.824a2.2,2.2,0,0,1,.633.074.856.856,0,0,1,.3,1.526h-.074l-.149.112-1.489,1.042-6.4,4.466,2.829,7.853.521,1.452.074.223v.112a.856.856,0,0,1-.819,1.117" transform="translate(-113.646 -82.032)" fill="#d4e1f7"/>
            <path id="Path_968" data-name="Path 968" d="M164.559,221.345h-.186l-.261-.186-1.3-.893-1.3.93-.223.149h-.074a.186.186,0,0,1-.261-.186h0l.074-.261.447-1.452-1.34-.968-.3-.223-.074-.112a.186.186,0,0,1,0-.186l.149-.074h2.084l.447-1.452.112-.409a.186.186,0,0,1,.335,0h.037l.112.3.6,1.563H165.6a.186.186,0,0,1,.074.3h-.037l-.3.186-1.265.893.558,1.563.112.3h.037a.186.186,0,0,1-.074.186H164.6" transform="translate(-100.219 -135.556)" fill="#ff5767"/>
            <path id="Path_969" data-name="Path 969" d="M191.359,221.345h-.186l-.261-.186-1.3-.893-1.3.93-.223.149h-.074a.186.186,0,0,1-.261-.186h0l.074-.261.447-1.452-1.34-.968-.3-.223-.074-.112a.186.186,0,0,1,0-.186l.149-.074h2.084l.447-1.452.112-.409a.186.186,0,0,1,.335,0h.037l.112.3.6,1.489H192.4a.186.186,0,0,1,.074.3h-.037l-.3.186-1.265.893.558,1.563.112.3h.037a.186.186,0,0,1-.074.186H191.4" transform="translate(-117.045 -135.556)" fill="#ff5767"/>
            <path id="Path_970" data-name="Path 970" d="M218.159,221.345h-.186l-.261-.186-1.3-.893-1.3.93-.223.149h-.074a.186.186,0,0,1-.261-.186h0l.074-.261.447-1.452-1.34-.968-.3-.223-.074-.112a.186.186,0,0,1,0-.186l.149-.074h2.084l.447-1.452.112-.409a.186.186,0,0,1,.335,0h.037l.112.3.6,1.563H219.2a.186.186,0,0,1,.074.3h-.037l-.3.186-1.265.893.558,1.563.112.3h.037a.186.186,0,0,1-.074.186H218.2" transform="translate(-133.87 -135.556)" fill="#ff5767"/>
            <path id="Path_971" data-name="Path 971" d="M244.959,221.345h-.186l-.261-.186-1.3-.893-1.3.93-.223.149h-.074a.186.186,0,0,1-.261-.186h0l.074-.261.447-1.452-1.34-.968-.3-.223-.074-.112a.186.186,0,0,1,0-.186l.149-.074h2.084l.447-1.452.112-.409a.186.186,0,0,1,.335,0h.037l.112.3.6,1.563H246a.186.186,0,0,1,.074.3h-.037l-.3.186-1.265.893.558,1.563.112.3h.037a.186.186,0,0,1-.074.186H245" transform="translate(-150.696 -135.556)" fill="#ff5767"/>
            <path id="Path_972" data-name="Path 972" d="M271.822,221.345h-.186l-.261-.186-1.3-.893-1.3.93-.223.149h-.037a.186.186,0,0,1-.261-.186h0l.074-.261.447-1.452-1.34-.968-.3-.223-.074-.112a.186.186,0,0,1,0-.186l.149-.074h2.084l.447-1.452.112-.409a.186.186,0,0,1,.335,0h.037l.112.3.6,1.563H272.9a.186.186,0,0,1,.074.3h-.037l-.3.186-1.265.893.558,1.563.112.3h.037a.186.186,0,0,1-.074.186H271.9" transform="translate(-167.584 -135.556)" fill="#d4e1f7"/>
            <path id="Path_973" data-name="Path 973" d="M111.582,149.77H89.1a1.154,1.154,0,0,1,0-2.27h22.48a1.154,1.154,0,0,1,0,2.27" transform="translate(-55.281 -92.603)" fill="#d4e1f7"/>
            <path id="Path_974" data-name="Path 974" d="M111.582,165.17H89.1a1.154,1.154,0,0,1,0-2.27h22.48a1.154,1.154,0,0,1,0,2.27" transform="translate(-55.281 -102.271)" fill="#d4e1f7"/>
            <path id="Path_975" data-name="Path 975" d="M111.582,180.57H89.1a1.154,1.154,0,0,1,0-2.27h22.48a1.154,1.154,0,0,1,0,2.27" transform="translate(-55.281 -111.939)" fill="#d4e1f7"/>
            <path id="Path_976" data-name="Path 976" d="M111.582,195.97H89.1a1.154,1.154,0,0,1,0-2.27h22.48a1.154,1.154,0,0,1,0,2.27" transform="translate(-55.281 -121.608)" fill="#d4e1f7"/>
            <path id="Path_977" data-name="Path 977" d="M111.582,245.17H89.1a1.154,1.154,0,0,1,0-2.27h22.48a1.154,1.154,0,0,1,0,2.27" transform="translate(-55.281 -152.496)" fill="#d4e1f7"/>
            <path id="Path_978" data-name="Path 978" d="M111.582,260.57H89.1a1.154,1.154,0,0,1,0-2.27h22.48a1.154,1.154,0,0,1,0,2.27" transform="translate(-55.281 -162.164)" fill="#d4e1f7"/>
            <path id="Path_979" data-name="Path 979" d="M111.582,275.97H89.1a1.154,1.154,0,0,1,0-2.27h22.48a1.154,1.154,0,0,1,0,2.27" transform="translate(-55.281 -171.833)" fill="#d4e1f7"/>
            <path id="Path_980" data-name="Path 980" d="M111.582,291.47H89.1a1.154,1.154,0,0,1,0-2.27h22.48a1.154,1.154,0,0,1,0,2.27" transform="translate(-55.281 -181.564)" fill="#d4e1f7"/>
            <path id="Path_981" data-name="Path 981" d="M312.682,149.77H290.2a1.154,1.154,0,0,1,0-2.27h22.48a1.154,1.154,0,0,1,0,2.27" transform="translate(-181.535 -92.603)" fill="#d4e1f7"/>
            <path id="Path_982" data-name="Path 982" d="M312.682,165.17H290.2a1.154,1.154,0,0,1,0-2.27h22.48a1.154,1.154,0,0,1,0,2.27" transform="translate(-181.535 -102.271)" fill="#d4e1f7"/>
            <path id="Path_983" data-name="Path 983" d="M312.682,180.57H290.2a1.154,1.154,0,0,1,0-2.27h22.48a1.154,1.154,0,0,1,0,2.27" transform="translate(-181.535 -111.939)" fill="#d4e1f7"/>
            <path id="Path_984" data-name="Path 984" d="M312.682,195.97H290.2a1.154,1.154,0,0,1,0-2.27h22.48a1.154,1.154,0,0,1,0,2.27" transform="translate(-181.535 -121.608)" fill="#d4e1f7"/>
            <path id="Path_985" data-name="Path 985" d="M312.682,245.17H290.2a1.154,1.154,0,0,1,0-2.27h22.48a1.154,1.154,0,0,1,0,2.27" transform="translate(-181.535 -152.496)" fill="#d4e1f7"/>
            <path id="Path_986" data-name="Path 986" d="M312.682,260.57H290.2a1.154,1.154,0,0,1,0-2.27h22.48a1.154,1.154,0,0,1,0,2.27" transform="translate(-181.535 -162.164)" fill="#d4e1f7"/>
            <path id="Path_987" data-name="Path 987" d="M312.682,275.97H290.2a1.154,1.154,0,0,1,0-2.27h22.48a1.154,1.154,0,0,1,0,2.27" transform="translate(-181.535 -171.833)" fill="#d4e1f7"/>
            <path id="Path_988" data-name="Path 988" d="M312.682,291.47H290.2a1.154,1.154,0,0,1,0-2.27h22.48a1.154,1.154,0,0,1,0,2.27" transform="translate(-181.535 -181.564)" fill="#d4e1f7"/>
            <path id="Path_989" data-name="Path 989" d="M213.882,245.17H191.4a1.154,1.154,0,0,1,0-2.27h22.48a1.154,1.154,0,0,1,0,2.27" transform="translate(-119.507 -152.496)" fill="#d4e1f7"/>
            <path id="Path_990" data-name="Path 990" d="M213.882,260.57H191.4a1.154,1.154,0,0,1,0-2.27h22.48a1.154,1.154,0,0,1,0,2.27" transform="translate(-119.507 -162.164)" fill="#d4e1f7"/>
            <path id="Path_991" data-name="Path 991" d="M213.882,275.97H191.4a1.154,1.154,0,0,1,0-2.27h22.48a1.154,1.154,0,0,1,0,2.27" transform="translate(-119.507 -171.833)" fill="#d4e1f7"/>
            <path id="Path_992" data-name="Path 992" d="M213.882,291.47H191.4a1.154,1.154,0,0,1,0-2.27h22.48a1.154,1.154,0,0,1,0,2.27" transform="translate(-119.507 -181.564)" fill="#d4e1f7"/>
            <path id="Path_993" data-name="Path 993" d="M88.8,379.723v3.238h2.456l.186-3.461Z" transform="translate(-55.687 -238.255)" fill="#f9af8b"/>
            <path id="Path_994" data-name="Path 994" d="M91.418,259.9s-.112,2.2-.335,5.4c-.447,7.295-1.228,19.838-1.6,23.522-.67,6.476-.707,16.265-.707,16.265H85.24c-.409-8.225-1.154-33.981-1.34-41.127V262.1l5.992-1.712.484-.149Z" transform="translate(-52.61 -163.169)" fill="#2a3554"/>
            <path id="Path_995" data-name="Path 995" d="M90.3,260.235l1.117-.335s-.149,2.456-.335,5.657A16.351,16.351,0,0,1,83.9,263.92v-1.861l5.992-1.712Z" transform="translate(-52.61 -163.169)" fill="#021019"/>
            <path id="Path_996" data-name="Path 996" d="M86.5,377.9l.149,1.6h4.28l.112-1.6Z" transform="translate(-54.243 -237.251)" fill="#4a5180"/>
            <path id="Path_997" data-name="Path 997" d="M79.657,386.768s-.521-.707-.968-.67-3.61,2.643-4.727,2.866-.893,1.042-.67,1.452,8.858-.261,8.858-.261a12.99,12.99,0,0,0-.074-3.35c-.3-.782-1.526.149-2.382-.037" transform="translate(-45.836 -242.397)" fill="#ff5767"/>
            <path id="Path_998" data-name="Path 998" d="M82.836,390.838h.112a.149.149,0,0,0,.074-.223,2.382,2.382,0,0,0-.819-.819,1.079,1.079,0,0,0-1.117.074.16.16,0,0,0,.186.261.782.782,0,0,1,.782-.037,2.122,2.122,0,0,1,.67.707l.074.074" transform="translate(-50.802 -244.643)" fill="#fff9ff"/>
            <path id="Path_999" data-name="Path 999" d="M84.136,389.638h.112a.149.149,0,0,0,.074-.223,2.382,2.382,0,0,0-.819-.819,1.079,1.079,0,0,0-1.117.074.16.16,0,0,0,.186.261.782.782,0,0,1,.782-.037,2.121,2.121,0,0,1,.67.707l.074.074" transform="translate(-51.618 -243.89)" fill="#fff9ff"/>
            <path id="Path_1000" data-name="Path 1000" d="M81.236,391.838h.112a.149.149,0,0,0,.074-.223,2.382,2.382,0,0,0-.819-.819,1.079,1.079,0,0,0-1.117.074.16.16,0,0,0,.186.261.782.782,0,0,1,.782-.037,2.122,2.122,0,0,1,.67.707l.074.074" transform="translate(-49.798 -245.271)" fill="#fff9ff"/>
            <path id="Path_1001" data-name="Path 1001" d="M114.9,380.6l.112,2.754,2.494-.149.074-2.9Z" transform="translate(-72.073 -238.758)" fill="#f9af8b"/>
            <path id="Path_1002" data-name="Path 1002" d="M115.813,386.023a10.457,10.457,0,0,1,1.489-.223c.335.037,2.345,2.494,3.052,2.68,1.3.3,1.191,2.345.409,2.419a22.461,22.461,0,0,1-6.178-.968,16.342,16.342,0,0,1-.037-3.424c.223-.819.633-.261,1.3-.447" transform="translate(-71.795 -242.211)" fill="#ff5767"/>
            <path id="Path_1003" data-name="Path 1003" d="M122.69,390.833h-.112a.149.149,0,0,1-.037-.223,2.456,2.456,0,0,1,.93-.744,1.079,1.079,0,0,1,1.117.186.158.158,0,0,1-.223.223.782.782,0,0,0-.782-.112,2.158,2.158,0,0,0-.782.633l-.112.074" transform="translate(-76.848 -244.713)" fill="#fff9ff"/>
            <path id="Path_1004" data-name="Path 1004" d="M121.49,389.433h-.112a.149.149,0,0,1-.037-.223,2.419,2.419,0,0,1,.93-.744,1.079,1.079,0,0,1,1.117.186.158.158,0,1,1-.223.223.782.782,0,0,0-.782-.112,2.121,2.121,0,0,0-.782.633l-.112.074" transform="translate(-76.095 -243.834)" fill="#fff9ff"/>
            <path id="Path_1005" data-name="Path 1005" d="M124.29,392.033h-.112a.149.149,0,0,1-.037-.223,2.456,2.456,0,0,1,.93-.744,1.079,1.079,0,0,1,1.117.186.158.158,0,0,1-.223.223.782.782,0,0,0-.782-.112,2.121,2.121,0,0,0-.782.633l-.112.074" transform="translate(-77.852 -245.466)" fill="#fff9ff"/>
            <path id="Path_1006" data-name="Path 1006" d="M114.055,262.2l-.074,3.052c-.223,8.486-.93,32.12-1.3,39.936H109.44c-.186-.037-.558-10.31-.484-15.371.037-3.089-1.191-16.488-1.935-24.229-.3-3.312-.521-5.583-.521-5.583l.93.261.484.149Z" transform="translate(-66.799 -163.232)" fill="#2a3554"/>
            <path id="Path_1007" data-name="Path 1007" d="M114.055,262.259l-.074,3.052a38.073,38.073,0,0,1-6.96.372c-.3-3.312-.521-5.583-.521-5.583l.93.261.484.149Z" transform="translate(-66.799 -163.294)" fill="#021019"/>
            <path id="Path_1008" data-name="Path 1008" d="M112.4,378l.149,1.6h4.28l.112-1.6Z" transform="translate(-70.503 -237.314)" fill="#4a5180"/>
            <path id="Path_1009" data-name="Path 1009" d="M119.537,196.438l2.866,9.677v.335c.112,2.419,2.308,9.863,2.121,11.091a7.732,7.732,0,0,0,.223,3.871c.447.819.819,2.084,1.154,1.414s-.335-2.531.037-2.568,1.191,1.526.893,3.275.744,2.2.67,1.34.6-1.9.6-3.238a13.254,13.254,0,0,0-1.377-4.02,82.21,82.21,0,0,0-.819-11.166c-.744-3.61-3.35-13.883-3.35-13.883-1.638-.335-3.052,3.834-3.052,3.834" transform="translate(-74.961 -120.885)" fill="#f9af8b"/>
            <path id="Path_1010" data-name="Path 1010" d="M127.274,227.163v.335l1.414-.409a.153.153,0,1,0-.074-.3l-1.414.409" transform="translate(-79.795 -142.379)" fill="#fc8664"/>
            <path id="Path_1011" data-name="Path 1011" d="M99.523,213.1c-4.02,2.643-12.17,2.568-16.823.149.447-2.754,1.6-9.863,1.489-13.548q-.037-.6-.037-1.191l-.074-1.042c-.409-6.1-1.452-11.128-.93-11.761a4.876,4.876,0,0,1,1.042-.893l.6-.372,1.563-.893c1.265-.67,2.568-1.3,3.238-1.749a4.131,4.131,0,0,0,1.712.447h.112a4.131,4.131,0,0,0,1.712-.447c.6.409,1.749.968,2.9,1.563a25.011,25.011,0,0,1,2.382,1.377,4.8,4.8,0,0,1,1,.893c.261.335.149,1.712-.074,3.8s-.521,4.764-.744,7.741c-.037.819-.112,1.675-.112,2.531a95.782,95.782,0,0,0,1.079,13.4" transform="translate(-51.857 -114.137)" fill="#005db1"/>
            <path id="Path_1012" data-name="Path 1012" d="M101.565,237.468h0a13.784,13.784,0,0,1-7.741-2.717,17.753,17.753,0,0,1-3.052-2.717.149.149,0,0,1,.223-.186,17.456,17.456,0,0,0,3.015,2.643,13.62,13.62,0,0,0,7.555,2.643.149.149,0,1,1,0,.3" transform="translate(-56.914 -145.538)" fill="#004386"/>
            <path id="Path_1013" data-name="Path 1013" d="M101,246.6a12.947,12.947,0,0,1-5.732-1.675.15.15,0,1,1,.149-.261c.037.037,3.35,1.9,6.253,1.6a.15.15,0,0,1,.037.3H101" transform="translate(-59.703 -153.593)" fill="#004386"/>
            <path id="Path_1014" data-name="Path 1014" d="M103.815,196.836a.15.15,0,1,1-.037-.3c3.945-.744,5.136-3.275,5.136-3.312a.159.159,0,1,1,.3.112c-.037.112-1.265,2.717-5.4,3.5h-.037" transform="translate(-65.008 -121.245)" fill="#004386"/>
            <path id="Path_1015" data-name="Path 1015" d="M102.14,183.463c-.782,1.786-2.643,4.206-5.136,3.8s-3.647-2.27-4.5-3.61c1.265-.67,2.568-1.3,3.238-1.749a4.132,4.132,0,0,0,1.712.447h.112a4.168,4.168,0,0,0,1.712-.447c.6.409,1.749.968,2.9,1.563" transform="translate(-58.01 -114.199)" fill="#f9af8b"/>
            <path id="Path_1016" data-name="Path 1016" d="M106,183.2h0" transform="translate(-66.485 -115.016)" fill="#2a3554"/>
            <path id="Path_1017" data-name="Path 1017" d="M104.329,137.957a3.015,3.015,0,1,1-2.821-3.042,3.014,3.014,0,0,1,2.821,3.042" transform="translate(-61.651 -84.698)" fill="#2a3554"/>
            <path id="Path_1018" data-name="Path 1018" d="M104.443,143.832a2.978,2.978,0,0,1-.484,1.079l-.149.149H99.158a2.978,2.978,0,0,1-.558-1.191,6.513,6.513,0,0,1,2.9-.67,6.737,6.737,0,0,1,2.94.633" transform="translate(-61.839 -89.902)" fill="#ff5767"/>
            <path id="Path_1019" data-name="Path 1019" d="M92.7,162.144s-.744-1-1.3-.186.223,3.312,1.6,2.68Z" transform="translate(-57.201 -101.478)" fill="#fc8664"/>
            <path id="Path_1020" data-name="Path 1020" d="M93.081,165.367a.112.112,0,0,1-.112-.074,1.787,1.787,0,0,0-1-1.079.118.118,0,1,1,.074-.223,2.01,2.01,0,0,1,1.154,1.228.112.112,0,0,1-.074.149h-.037" transform="translate(-57.623 -102.951)" fill="#fd664d"/>
            <path id="Path_1021" data-name="Path 1021" d="M92.787,165.862h-.074a.112.112,0,0,1-.037-.149,1.079,1.079,0,0,1,.447-.335.125.125,0,1,1,.112.223.856.856,0,0,0-.335.261h-.112" transform="translate(-58.111 -103.818)" fill="#fd664d"/>
            <path id="Path_1022" data-name="Path 1022" d="M115.6,162.144s.744-1,1.3-.186-.223,3.312-1.6,2.68Z" transform="translate(-72.324 -101.478)" fill="#fc8664"/>
            <path id="Path_1023" data-name="Path 1023" d="M115.9,165.367a.112.112,0,0,0,.112-.074,1.787,1.787,0,0,1,1-1.079.118.118,0,1,0-.074-.223,2.01,2.01,0,0,0-1.154,1.228.112.112,0,0,0,.074.149h.037" transform="translate(-72.624 -102.951)" fill="#fd664d"/>
            <path id="Path_1024" data-name="Path 1024" d="M117.33,165.862h.074a.112.112,0,0,0,.037-.149,1.08,1.08,0,0,0-.447-.335.125.125,0,0,0-.112.223.856.856,0,0,1,.335.261h.112" transform="translate(-73.275 -103.818)" fill="#fd664d"/>
            <path id="Path_1025" data-name="Path 1025" d="M104.573,175.3v2.456s-.744,1.228-1.712,1.34S101,178.017,101,178.017v-2.531Z" transform="translate(-63.346 -110.056)" fill="#f9af8b"/>
            <path id="Path_1026" data-name="Path 1026" d="M104.573,175.3v1.079c-.67.744-1.824,1-3.573.744v-1.638Z" transform="translate(-63.346 -110.056)" fill="#fc8664"/>
            <path id="Path_1027" data-name="Path 1027" d="M102.733,153.4a23.782,23.782,0,0,1-.335,3.089c-.037.223-.112.447-.149.67-.521,1.786-1.786,4.913-5.4,3.61-1.6-.558-2.345-2.345-2.643-4.131a17.456,17.456,0,0,1-.223-3.35,2.568,2.568,0,0,1,1.3-2.159,6.869,6.869,0,0,1,5.843-.186,2.531,2.531,0,0,1,1.638,2.494" transform="translate(-58.938 -94.409)" fill="#f9af8b"/>
            <path id="Path_1028" data-name="Path 1028" d="M100.3,162.584c0,.261-.149.484-.3.484s-.3-.223-.3-.484.149-.484.3-.484.3.223.3.484" transform="translate(-62.53 -101.769)" fill="#2a3554"/>
            <path id="Path_1029" data-name="Path 1029" d="M110.3,162.584c0,.261-.149.484-.3.484s-.3-.223-.3-.484.149-.484.3-.484.3.223.3.484" transform="translate(-68.808 -101.769)" fill="#2a3554"/>
            <path id="Path_1030" data-name="Path 1030" d="M98.147,159.286a5.025,5.025,0,0,1,1.3-.186.223.223,0,0,1,.223.261h0a.223.223,0,0,1-.223.186,5.62,5.62,0,0,0-1.749.223.335.335,0,0,1,.112-.223.782.782,0,0,1,.372-.223" transform="translate(-61.274 -99.885)" fill="#2a3554"/>
            <path id="Path_1031" data-name="Path 1031" d="M109.421,159.286a5.025,5.025,0,0,0-1.3-.186.223.223,0,0,0-.223.261h0a.223.223,0,0,0,.223.186,5.62,5.62,0,0,1,1.749.223.335.335,0,0,0-.112-.223.782.782,0,0,0-.372-.223" transform="translate(-67.673 -99.885)" fill="#2a3554"/>
            <path id="Path_1032" data-name="Path 1032" d="M104.945,165.236l-.261-.074a.372.372,0,0,1-.186-.3,17.268,17.268,0,0,1,.074-1.824.113.113,0,1,1,.223.037,17.571,17.571,0,0,0-.074,1.786.112.112,0,0,0,.074.112.707.707,0,0,0,.484-.037.118.118,0,1,1,.074.223,1.228,1.228,0,0,1-.409.074" transform="translate(-65.541 -102.3)" fill="#fc8664"/>
            <path id="Path_1033" data-name="Path 1033" d="M101.8,171.1a1.377,1.377,0,0,0,1.377,1.265,1.29,1.29,0,0,0,1.34-1.265Z" transform="translate(-63.848 -107.419)" fill="#fff9ff"/>
            <path id="Path_1034" data-name="Path 1034" d="M104.4,175.726a1.154,1.154,0,0,1-.558-.149.112.112,0,0,1,.112-.186.93.93,0,0,0,.409.112,1,1,0,0,0,.447-.112.112.112,0,0,1,.112.186,1.228,1.228,0,0,1-.558.149" transform="translate(-65.111 -110.11)" fill="#fc8664"/>
            <path id="Path_1035" data-name="Path 1035" d="M102.641,149.493a.372.372,0,0,1-.3.223,7.333,7.333,0,0,1-.037.856c-.149,1.675-.558,1.973-.67,1.563a19.5,19.5,0,0,1-.037-2.382l-.633-.074-.372-1.638-.149,1.6a5.447,5.447,0,0,1-1.935-.112l-.447-1.6-.3,1.563a3.238,3.238,0,0,1-1.973.149l-.261-1.675-.6,1.675a6.44,6.44,0,0,1-1.042.261c0,.521-.037,1.935-.3,1.861s-.409-1.228-.372-1.9a.261.261,0,0,1-.149-.223,6.513,6.513,0,0,1,.3-2.419,3.579,3.579,0,0,1,1.9-2.159,7.452,7.452,0,0,1,5.657,0c2.2,1.452,1.712,4.466,1.712,4.466" transform="translate(-58.363 -90.725)" fill="#2a3554"/>
            <path id="Path_1036" data-name="Path 1036" d="M84.59,202.654c-.409-6.1-1.452-11.128-.93-11.761A4.876,4.876,0,0,1,84.7,190c.484,2.2,1.638,8.821-.112,12.654" transform="translate(-52.37 -119.285)" fill="#f9af8b"/>
            <path id="Path_1037" data-name="Path 1037" d="M124.552,194.552c-.223,2.047-.521,4.764-.744,7.741-1.563-3.834-.67-10.2-.223-12.394a4.765,4.765,0,0,1,1,.893c.261.335.149,1.712-.074,3.8" transform="translate(-77.109 -119.222)" fill="#f9af8b"/>
            <path id="Path_1038" data-name="Path 1038" d="M76.067,199.29l-1.786,5.694-1.935,5.434a1.9,1.9,0,0,1-2.643,1.228h-.074c-1.861-.856-.819-4.5-.819-4.5h.335l1-2.68.186-.484.335-.819.484-1.228c1.191-3.089,2.2-6.476,2.2-6.476L74.169,193Z" transform="translate(-42.954 -121.168)" fill="#f9af8b"/>
            <path id="Path_1039" data-name="Path 1039" d="M73.893,226.655h-.037a.149.149,0,0,1-.149-.112c-.261-1.712-.558-2.977-.707-3.759l.186-.484c.186.67.484,2.084.819,4.168a.149.149,0,0,1-.112.149" transform="translate(-45.767 -139.563)" fill="#fc8664"/>
            <path id="Path_1040" data-name="Path 1040" d="M61.031,223.811s-.261-4.131-1.154-5.025a3.258,3.258,0,0,0-2.494-1.191c-.819.037-1.6.149-1.563.484s-1.9-.3-2.754.223,2.494.93,3.5.93a1.392,1.392,0,0,1,1.563,1.191c.037.6.633,4.541.633,4.541Z" transform="translate(-33.166 -136.608)" fill="#f9af8b"/>
            <path id="Path_1041" data-name="Path 1041" d="M54.736,216.712l-12.58.074a.856.856,0,0,1-.856-.856h0a.856.856,0,0,1,.856-.856L54.736,215a.856.856,0,0,1,.856.856h0a.856.856,0,0,1-.856.856" transform="translate(-25.866 -134.98)" fill="#001030"/>
            <path id="Path_1042" data-name="Path 1042" d="M36.606,201.066l-2.754-10.049a.893.893,0,0,1,.856-1.117h5.881a.893.893,0,0,1,.856.633l3.015,10.533Z" transform="translate(-21.172 -119.222)" fill="#2a3554"/>
            <path id="Path_1043" data-name="Path 1043" d="M52.856,190.433l3.015,10.421h.67l-3.015-10.421a.893.893,0,0,0-.856-.633H52a.893.893,0,0,1,.856.633" transform="translate(-32.583 -119.159)" fill="#001030"/>
            <path id="Path_1044" data-name="Path 1044" d="M46.256,203.99a.93.93,0,0,1-.93,1.191,1.6,1.6,0,0,1-1.489-1.191.93.93,0,0,1,.93-1.191,1.6,1.6,0,0,1,1.489,1.191" transform="translate(-27.435 -127.319)" fill="#4a5180"/>
            <path id="Path_1045" data-name="Path 1045" d="M307.829,203.175a31.648,31.648,0,0,1-4.355,7.63c-1.861.744-6.737,2.2-8.374,1.786a13.621,13.621,0,0,0,0-3.35c2.27.037,6.513-2.233,6.513-2.233A87.053,87.053,0,0,0,306.6,193.2c1.749,4.243,1.228,9.975,1.228,9.975" transform="translate(-185.205 -121.294)" fill="#e22445"/>
            <path id="Path_1046" data-name="Path 1046" d="M335.552,377.961l-.372,3.164a4.057,4.057,0,0,1-2.68.261l.335-3.685Z" transform="translate(-208.685 -237.125)" fill="#f9af8b"/>
            <path id="Path_1047" data-name="Path 1047" d="M323.04,385.444s-.521-.744-.968-.744-3.871,2.568-5.025,2.717-.968,1.042-.782,1.452,9.119.149,9.119.149a13.978,13.978,0,0,0,.074-3.461c-.261-.819-1.563.074-2.456-.149" transform="translate(-198.406 -241.52)" fill="#005db1"/>
            <path id="Path_1048" data-name="Path 1048" d="M326.536,389.364h.112a.149.149,0,0,0,.074-.223,2.456,2.456,0,0,0-.819-.893,1.117,1.117,0,0,0-1.117,0,.16.16,0,1,0,.186.261.782.782,0,0,1,.782,0,2.2,2.2,0,0,1,.67.782l.074.074" transform="translate(-203.801 -243.653)" fill="#fff9ff"/>
            <path id="Path_1049" data-name="Path 1049" d="M327.836,388.164h.112a.149.149,0,0,0,.074-.223,2.457,2.457,0,0,0-.819-.893,1.117,1.117,0,0,0-1.117,0,.16.16,0,1,0,.186.261.782.782,0,0,1,.782,0,2.159,2.159,0,0,1,.67.782l.074.074" transform="translate(-204.617 -242.9)" fill="#fff9ff"/>
            <path id="Path_1050" data-name="Path 1050" d="M324.736,390.264h.112a.149.149,0,0,0,.074-.223,2.456,2.456,0,0,0-.819-.893,1.116,1.116,0,0,0-1.117,0,.16.16,0,1,0,.186.261.782.782,0,0,1,.782,0,2.159,2.159,0,0,1,.67.782l.074.074" transform="translate(-202.67 -244.219)" fill="#fff9ff"/>
            <path id="Path_1051" data-name="Path 1051" d="M373.447,367.2l2.047,2.419a4.057,4.057,0,0,1-1.638,2.121l-2.456-2.791Z" transform="translate(-233.107 -230.533)" fill="#f9af8b"/>
            <path id="Path_1052" data-name="Path 1052" d="M373.828,374.3s-.893-.149-1.191.186-.819,4.541-1.489,5.508a.922.922,0,0,0,.521,1.563c.447.149,6.4-6.513,6.4-6.513a14.831,14.831,0,0,0-2.456-2.456c-.782-.409-1.042,1.191-1.824,1.675" transform="translate(-232.781 -233.874)" fill="#005db1"/>
            <path id="Path_1053" data-name="Path 1053" d="M375.308,383.641l.074-.112a.149.149,0,0,0-.112-.186,2.456,2.456,0,0,0-1.191-.037,1.117,1.117,0,0,0-.782.819.169.169,0,1,0,.335.037.782.782,0,0,1,.558-.558,2.2,2.2,0,0,1,1,.037h.112" transform="translate(-234.298 -240.61)" fill="#fff9ff"/>
            <path id="Path_1054" data-name="Path 1054" d="M375.408,381.941l.074-.112a.149.149,0,0,0-.112-.186,2.456,2.456,0,0,0-1.191-.037,1.117,1.117,0,0,0-.782.819.169.169,0,0,0,.335.037.782.782,0,0,1,.558-.558,2.159,2.159,0,0,1,1,.037h.112" transform="translate(-234.361 -239.542)" fill="#fff9ff"/>
            <path id="Path_1055" data-name="Path 1055" d="M374.808,385.541l.074-.112a.149.149,0,0,0-.112-.186,2.457,2.457,0,0,0-1.191-.037,1.117,1.117,0,0,0-.782.819.169.169,0,0,0,.335.037.782.782,0,0,1,.558-.558,2.158,2.158,0,0,1,1,.037h.112" transform="translate(-233.984 -241.802)" fill="#fff9ff"/>
            <path id="Path_1056" data-name="Path 1056" d="M332.69,276.649l1.563,17.083a36.1,36.1,0,0,1,4.131,5.881c1.489,2.717,6.141,10.756,6.141,10.756l-2.084,1.638L328,298.012,324.8,276.5Z" transform="translate(-203.851 -173.591)" fill="#021019"/>
            <path id="Path_1057" data-name="Path 1057" d="M370.1,368.419a2.642,2.642,0,0,0,1.079,1.228l2.791-2.345a4.206,4.206,0,0,0-.93-1.3Z" transform="translate(-232.291 -229.78)" fill="#2a3554"/>
            <path id="Path_1058" data-name="Path 1058" d="M348.106,277.544a104.3,104.3,0,0,1-8.523,16.227,65.909,65.909,0,0,1-1.935,10.607c-.521,1.6-1.526,9.081-1.526,9.081H332.4l.93-21.252L337.2,276.8Z" transform="translate(-208.622 -173.779)" fill="#2a3554"/>
            <path id="Path_1059" data-name="Path 1059" d="M331.148,375.1a3.089,3.089,0,0,0,0,1.9l4.243.112a4.876,4.876,0,0,0,.186-1.861Z" transform="translate(-207.742 -235.493)" fill="#4a5180"/>
            <path id="Path_1060" data-name="Path 1060" d="M342.442,212.975v.372c0,2.308,0,4.131-.037,4.987a37.029,37.029,0,0,1-6.7,1.191h-1.228a35.691,35.691,0,0,1-4.578-.074l-.93-.074h-.447a37.48,37.48,0,0,1-5.322-1.042v-2.2h0c0-1.079,0-2.419.037-3.908v-.372c0-1,.037-2.084.037-3.2v-.372c0-1.154.037-2.345.037-3.536s.037-1.489.037-2.233.037-1.526.037-2.27v-.484c.186-7.109.484-13.659.968-14.4a5.971,5.971,0,0,1,2.047-1.712l.335-.223c.409-.261,3.61-1.34,4.02-1.6l3.424-.223,3.312,1.117.409.261a19.315,19.315,0,0,1,3.089,2.047l.261.261.149.186a1.079,1.079,0,0,1,.112.3c.409,1.489.633,7.406.744,13.808q0,.707.037,1.377v3.052c.037,3.238.037,6.364.037,8.932" transform="translate(-202.846 -114.011)" fill="#ff5767"/>
            <path id="Path_1061" data-name="Path 1061" d="M344.405,187.617a3.543,3.543,0,0,1-2.568-1.414.186.186,0,0,1,.3-.223,3.315,3.315,0,0,0,2.27,1.265,2.76,2.76,0,0,0,2.084-1.414.192.192,0,1,1,.335.186,3.054,3.054,0,0,1-2.382,1.6" transform="translate(-214.524 -116.604)" fill="#e22445"/>
            <path id="Path_1062" data-name="Path 1062" d="M331.7,222.592h-.074a.186.186,0,0,1-.074-.261l.633-1.377a.176.176,0,1,1,.3.186l-.633,1.377a.186.186,0,0,1-.149.112" transform="translate(-208.076 -138.664)" fill="#e22445"/>
            <path id="Path_1063" data-name="Path 1063" d="M327.765,219.235h-.074a.186.186,0,0,1-.186-.186l-.112-1.526a.172.172,0,1,1,.335-.037l.112,1.526a.186.186,0,0,1-.074.186" transform="translate(-205.476 -136.424)" fill="#e22445"/>
            <path id="Path_1064" data-name="Path 1064" d="M337,212.954a.186.186,0,0,1-.186-.149l-.223-1.489a.19.19,0,1,1,.372-.074l.223,1.489a.186.186,0,0,1-.149.223H337" transform="translate(-211.252 -132.524)" fill="#e22445"/>
            <path id="Path_1065" data-name="Path 1065" d="M352.9,214.893h-.074a.186.186,0,0,1-.074-.261l.744-1.3a.192.192,0,1,1,.335.186l-.744,1.3a.186.186,0,0,1-.149.112" transform="translate(-221.385 -133.869)" fill="#e22445"/>
            <path id="Path_1066" data-name="Path 1066" d="M331.777,199.81h-.112l-1.191-.819a.2.2,0,0,1,.223-.335l1.191.819a.186.186,0,0,1,.037.261l-.149.074" transform="translate(-207.367 -124.702)" fill="#e22445"/>
            <path id="Path_1067" data-name="Path 1067" d="M348.2,231.792h-.074a.186.186,0,0,1-.074-.261l.633-1.377a.176.176,0,1,1,.3.186l-.633,1.377a.186.186,0,0,1-.149.112" transform="translate(-218.435 -144.44)" fill="#e22445"/>
            <path id="Path_1068" data-name="Path 1068" d="M340.5,202.61a.176.176,0,0,1-.074-.335l1.191-.819a.192.192,0,1,1,.186.335l-1.191.819H340.5" transform="translate(-213.601 -126.46)" fill="#e22445"/>
            <path id="Path_1069" data-name="Path 1069" d="M332.347,187.579a.188.188,0,1,1-.372.037l-.074-.893.335-.223Z" transform="translate(-208.308 -117.087)" fill="#e22445"/>
            <path id="Path_1070" data-name="Path 1070" d="M328.5,209.81a.176.176,0,0,1-.074-.335l1.191-.819a.192.192,0,1,1,.186.335l-1.191.819H328.5" transform="translate(-206.067 -130.981)" fill="#e22445"/>
            <path id="Path_1071" data-name="Path 1071" d="M354.386,191.551h-.112a.186.186,0,0,1-.037-.261l.707-1.117a.186.186,0,0,1,.3.223l-.707,1.117-.149.074" transform="translate(-222.309 -119.347)" fill="#e22445"/>
            <path id="Path_1072" data-name="Path 1072" d="M354.427,243.362l-.112-.074-1-1.117a.184.184,0,0,1,.261-.261l1,1.117a.186.186,0,0,1,0,.261h-.112" transform="translate(-221.717 -151.841)" fill="#e22445"/>
            <path id="Path_1073" data-name="Path 1073" d="M344.627,242.762l-.112-.074-1-1.117a.184.184,0,1,1,.261-.261l1,1.117a.186.186,0,0,1,0,.261h-.112" transform="translate(-215.564 -151.465)" fill="#e22445"/>
            <path id="Path_1074" data-name="Path 1074" d="M339.574,262.58a.186.186,0,0,1,0-.149l.633-1.377a.176.176,0,1,1,.3.186l-.633,1.377a.186.186,0,0,1-.223.074l-.074-.112" transform="translate(-213.116 -163.839)" fill="#e22445"/>
            <path id="Path_1075" data-name="Path 1075" d="M367.574,274.78a.186.186,0,0,1,0-.149l.633-1.377a.176.176,0,1,1,.3.186l-.633,1.377a.186.186,0,0,1-.223.074l-.074-.112" transform="translate(-230.695 -171.498)" fill="#e22445"/>
            <path id="Path_1076" data-name="Path 1076" d="M354.776,281.779H354.4l-.112-.856a.172.172,0,1,1,.335-.074Z" transform="translate(-222.364 -176.227)" fill="#e22445"/>
            <path id="Path_1077" data-name="Path 1077" d="M358.89,273.516a.186.186,0,0,1-.074-.112l-.223-1.489a.19.19,0,1,1,.372-.074l.223,1.489a.186.186,0,0,1-.149.223h-.149" transform="translate(-225.064 -170.57)" fill="#e22445"/>
            <path id="Path_1078" data-name="Path 1078" d="M335.8,239.993h-.074a.186.186,0,0,1-.074-.261l.707-1.3a.192.192,0,1,1,.335.186l-.707,1.3a.186.186,0,0,1-.149.112" transform="translate(-210.65 -149.627)" fill="#e22445"/>
            <path id="Path_1079" data-name="Path 1079" d="M340.375,230.968a.186.186,0,0,1-.149-.112l-.67-1.34a.192.192,0,1,1,.335-.186l.67,1.34a.186.186,0,0,1-.074.261h-.074" transform="translate(-213.098 -143.914)" fill="#e22445"/>
            <path id="Path_1080" data-name="Path 1080" d="M324.8,231.391h-.074a.186.186,0,0,1-.186-.037l-.744-.67V230.2l.968.856a.186.186,0,0,1,.037.261" transform="translate(-203.223 -144.523)" fill="#e22445"/>
            <path id="Path_1081" data-name="Path 1081" d="M340.275,192.368a.186.186,0,0,1-.149-.112l-.67-1.34a.192.192,0,1,1,.335-.186l.67,1.34a.186.186,0,0,1-.074.261h-.074" transform="translate(-213.036 -119.68)" fill="#e22445"/>
            <path id="Path_1082" data-name="Path 1082" d="M352.679,205.454h-.037a.186.186,0,0,1-.149-.223l.261-1.489a.19.19,0,1,1,.372.074l-.26,1.489a.186.186,0,0,1-.186.149" transform="translate(-221.234 -127.816)" fill="#e22445"/>
            <path id="Path_1083" data-name="Path 1083" d="M346.379,209.054h-.037a.186.186,0,0,1-.149-.223l.261-1.489a.19.19,0,1,1,.372.074l-.261,1.489a.186.186,0,0,1-.186.149" transform="translate(-217.279 -130.076)" fill="#e22445"/>
            <path id="Path_1084" data-name="Path 1084" d="M349.568,196.093a.186.186,0,0,1-.149-.074l-.782-1.3a.177.177,0,1,1,.3-.186l.782,1.3a.186.186,0,0,1-.037.261h-.112" transform="translate(-218.793 -122.066)" fill="#e22445"/>
            <path id="Path_1085" data-name="Path 1085" d="M332.3,231.754a.186.186,0,0,1-.037-.223l.6-1.377a.176.176,0,1,1,.3.186l-.6,1.377a.186.186,0,0,1-.223.074H332.3" transform="translate(-208.523 -144.44)" fill="#e22445"/>
            <path id="Path_1086" data-name="Path 1086" d="M343.574,220.775a.186.186,0,0,1-.186-.112l-.521-1.414a.184.184,0,1,1,.335-.149l.521,1.414a.186.186,0,0,1-.112.261h-.074" transform="translate(-215.182 -137.48)" fill="#e22445"/>
            <path id="Path_1087" data-name="Path 1087" d="M359.8,244.492h-.074a.186.186,0,0,1-.074-.261l.633-1.377a.176.176,0,1,1,.3.186l-.633,1.377a.186.186,0,0,1-.149.112" transform="translate(-225.717 -152.413)" fill="#e22445"/>
            <path id="Path_1088" data-name="Path 1088" d="M332.019,272.173v.074a.186.186,0,0,1-.223.074l-1.265-.707a.183.183,0,0,1,.149-.335l1.265.707a.186.186,0,0,1,.112.186" transform="translate(-207.385 -170.305)" fill="#e22445"/>
            <path id="Path_1089" data-name="Path 1089" d="M324.119,275v.074a.186.186,0,0,1-.261.074l-.558-.3V274.4l.707.409a.186.186,0,0,1,.112.186" transform="translate(-202.909 -172.272)" fill="#e22445"/>
            <path id="Path_1090" data-name="Path 1090" d="M338.419,280.266l-.447,1H337.6l.484-1.117a.176.176,0,1,1,.3.186" transform="translate(-211.887 -175.83)" fill="#e22445"/>
            <path id="Path_1091" data-name="Path 1091" d="M365.7,234.954a.186.186,0,0,1-.186-.149l-.223-1.489a.19.19,0,1,1,.372-.074l.223,1.489a.186.186,0,0,1-.149.223H365.7" transform="translate(-229.27 -146.336)" fill="#e22445"/>
            <path id="Path_1092" data-name="Path 1092" d="M366.5,205.393h-.074a.186.186,0,0,1-.074-.261l.744-1.3a.192.192,0,1,1,.335.186l-.744,1.3a.186.186,0,0,1-.149.112" transform="translate(-229.924 -127.904)" fill="#e22445"/>
            <path id="Path_1093" data-name="Path 1093" d="M358.177,220.61h-.112l-1.191-.819a.2.2,0,0,1,.223-.335l1.191.819a.186.186,0,0,1,.037.261l-.149.074" transform="translate(-223.941 -137.761)" fill="#e22445"/>
            <path id="Path_1094" data-name="Path 1094" d="M326.2,243.692h-.074a.186.186,0,0,1-.074-.261l.633-1.377a.176.176,0,1,1,.3.186l-.633,1.377a.186.186,0,0,1-.149.112" transform="translate(-204.623 -151.911)" fill="#e22445"/>
            <path id="Path_1095" data-name="Path 1095" d="M365.7,226.11a.176.176,0,0,1-.074-.335l1.191-.819a.192.192,0,1,1,.186.335l-1.191.819H365.7" transform="translate(-229.421 -141.214)" fill="#e22445"/>
            <path id="Path_1096" data-name="Path 1096" d="M357.686,230.154H357.5a.186.186,0,0,1-.112-.223l.372-1.489a.173.173,0,1,1,.335.074L357.723,230v.074" transform="translate(-224.306 -143.323)" fill="#e22445"/>
            <path id="Path_1097" data-name="Path 1097" d="M370.833,191.223l-.3.521-.149.074h-.112a.186.186,0,0,1-.037-.261l.335-.558.26.261" transform="translate(-232.354 -119.912)" fill="#e22445"/>
            <path id="Path_1098" data-name="Path 1098" d="M331.927,256.862l-.112-.074-1-1.117a.184.184,0,1,1,.261-.261l1,1.117a.186.186,0,0,1,0,.261h-.112" transform="translate(-207.591 -160.317)" fill="#e22445"/>
            <path id="Path_1099" data-name="Path 1099" d="M349.527,267.162l-.112-.074-1-1.117a.184.184,0,1,1,.261-.261l1,1.117a.186.186,0,0,1,0,.261h-.112" transform="translate(-218.64 -166.783)" fill="#e22445"/>
            <path id="Path_1100" data-name="Path 1100" d="M356.332,262.524a.186.186,0,0,1-.037-.149l.186-1.526a.172.172,0,1,1,.335.074l-.186,1.526a.186.186,0,0,1-.186.149l-.112-.074" transform="translate(-223.622 -163.671)" fill="#e22445"/>
            <path id="Path_1101" data-name="Path 1101" d="M344.427,274.562l-.112-.074-1-1.117a.184.184,0,1,1,.261-.261l1,1.117a.186.186,0,0,1,0,.26h-.112" transform="translate(-215.438 -171.429)" fill="#e22445"/>
            <path id="Path_1102" data-name="Path 1102" d="M372.7,265.9v.372l-1.117.112a.207.207,0,0,1-.037-.409Z" transform="translate(-233.1 -166.936)" fill="#e22445"/>
            <path id="Path_1103" data-name="Path 1103" d="M337.827,250.662l-.112-.074-1-1.117a.184.184,0,1,1,.261-.261l1,1.117a.186.186,0,0,1,0,.261h-.112" transform="translate(-211.295 -156.424)" fill="#e22445"/>
            <path id="Path_1104" data-name="Path 1104" d="M350.152,251.586a.186.186,0,0,1-.074.149L349,252.7a.186.186,0,0,1-.223-.3l1.079-.968a.19.19,0,0,1,.3.186" transform="translate(-218.856 -157.832)" fill="#e22445"/>
            <path id="Path_1105" data-name="Path 1105" d="M366.3,263.593h-.074a.186.186,0,0,1-.074-.261l.707-1.3a.192.192,0,1,1,.335.186l-.707,1.3a.186.186,0,0,1-.149.112" transform="translate(-229.798 -164.443)" fill="#e22445"/>
            <path id="Path_1106" data-name="Path 1106" d="M368.475,252.868a.186.186,0,0,1-.149-.112l-.67-1.34a.192.192,0,1,1,.335-.186l.67,1.34a.186.186,0,0,1-.074.261h-.074" transform="translate(-230.74 -157.663)" fill="#e22445"/>
            <path id="Path_1107" data-name="Path 1107" d="M363.275,211.568a.186.186,0,0,1-.149-.112l-.67-1.34a.192.192,0,1,1,.335-.186l.67,1.34a.186.186,0,0,1-.074.261h-.074" transform="translate(-227.475 -131.734)" fill="#e22445"/>
            <path id="Path_1108" data-name="Path 1108" d="M366.279,196.054h-.037a.186.186,0,0,1-.149-.223l.261-1.489a.19.19,0,1,1,.372.074l-.261,1.489a.186.186,0,0,1-.186.149" transform="translate(-229.772 -121.914)" fill="#e22445"/>
            <path id="Path_1109" data-name="Path 1109" d="M359.979,199.554h-.037a.186.186,0,0,1-.149-.223l.261-1.489a.19.19,0,1,1,.372.074l-.261,1.489a.186.186,0,0,1-.186.149" transform="translate(-225.817 -124.111)" fill="#e22445"/>
            <path id="Path_1110" data-name="Path 1110" d="M362.321,186.126h-.112a.186.186,0,0,1-.112-.149l-.3-1.377.409.261.223,1.042a.186.186,0,0,1-.149.223" transform="translate(-227.08 -115.894)" fill="#e22445"/>
            <path id="Path_1111" data-name="Path 1111" d="M360.4,253.654a.186.186,0,0,1-.037-.223l.6-1.377a.176.176,0,1,1,.3.186l-.6,1.377a.186.186,0,0,1-.223.074H360.4" transform="translate(-226.164 -158.189)" fill="#e22445"/>
            <path id="Path_1112" data-name="Path 1112" d="M324.591,262.828l-1.191.223v-.372l1.154-.186a.19.19,0,1,1,.074.372" transform="translate(-202.972 -164.794)" fill="#e22445"/>
            <path id="Path_1113" data-name="Path 1113" d="M324.282,253.428l-.782.149V253.2l.744-.112a.19.19,0,1,1,.074.372" transform="translate(-203.035 -158.892)" fill="#e22445"/>
            <path id="Path_1114" data-name="Path 1114" d="M371.837,242.775a.186.186,0,0,1-.149-.112l-.521-1.414a.184.184,0,1,1,.335-.149l.521,1.414a.186.186,0,0,1-.112.261h-.074" transform="translate(-232.949 -151.292)" fill="#e22445"/>
            <path id="Path_1115" data-name="Path 1115" d="M371.873,223.684c-.335-1.377-.744-2.94-1.191-4.28h0l-.372-1.154h0l-.112-.335h0a.15.15,0,0,1,.3-.037c.447,1.191.93,2.866,1.377,4.541q0,.707.037,1.377" transform="translate(-232.352 -136.705)" fill="#e22445"/>
            <path id="Path_1116" data-name="Path 1116" d="M333.59,145.813s-1.9-.67-1.712-2.159,1.563-.447,1.451-1.414-.409-1.9.819-2.121,1.079.558,2.456-.558,2.9,1.712,4.355,1.824c2.159.149,2.419,1.414,2.643,2.456a3.174,3.174,0,0,1-.819,2.233Z" transform="translate(-208.287 -87.455)" fill="#2a3554"/>
            <path id="Path_1117" data-name="Path 1117" d="M334.779,161.689s-.819-1.079-1.377-.186.261,3.5,1.712,2.866Z" transform="translate(-209.141 -101.172)" fill="#fc8664"/>
            <path id="Path_1118" data-name="Path 1118" d="M335.255,165.2a.112.112,0,0,1-.112-.074,1.9,1.9,0,0,0-1.079-1.117.118.118,0,0,1,.074-.223,2.121,2.121,0,0,1,1.228,1.3.112.112,0,0,1-.074.149h-.037" transform="translate(-209.617 -102.826)" fill="#fd664d"/>
            <path id="Path_1119" data-name="Path 1119" d="M334.852,165.536h-.074a.112.112,0,0,1-.037-.186,1.117,1.117,0,0,1,.447-.372.125.125,0,0,1,.112.223.893.893,0,0,0-.372.3l-.112.074" transform="translate(-210.069 -103.567)" fill="#fd664d"/>
            <path id="Path_1120" data-name="Path 1120" d="M358.935,161.689s.782-1.079,1.377-.186-.261,3.5-1.712,2.866Z" transform="translate(-225.071 -101.172)" fill="#fc8664"/>
            <path id="Path_1121" data-name="Path 1121" d="M359.4,165.2a.112.112,0,0,0,.112-.074,1.9,1.9,0,0,1,1.079-1.117.118.118,0,0,0-.074-.223,2.121,2.121,0,0,0-1.228,1.3.112.112,0,0,0,.074.149h.037" transform="translate(-225.497 -102.826)" fill="#fd664d"/>
            <path id="Path_1122" data-name="Path 1122" d="M360.93,165.536H361a.112.112,0,0,0,.037-.186,1.117,1.117,0,0,0-.447-.372.125.125,0,0,0-.112.223.894.894,0,0,1,.372.3l.112.074" transform="translate(-226.21 -103.567)" fill="#fd664d"/>
            <path id="Path_1123" data-name="Path 1123" d="M347.4,175.7v2.605s-.782,1.3-1.824,1.414-1.973-1.154-1.973-1.154v-2.68Z" transform="translate(-215.654 -110.307)" fill="#f9af8b"/>
            <path id="Path_1124" data-name="Path 1124" d="M347.4,175.7v1.154c-.707.782-1.935.968-3.8.707v-1.675Z" transform="translate(-215.654 -110.307)" fill="#fc8664"/>
            <path id="Path_1125" data-name="Path 1125" d="M345.522,152.393a25.007,25.007,0,0,1-.335,3.275h0c-.037.261-.112.484-.149.67l-.112.372c-.6,1.935-2.047,4.727-5.62,3.424-1.489-.521-2.308-2.084-2.68-3.8l-.074-.3v-.261h0a18.5,18.5,0,0,1-.261-3.536,2.717,2.717,0,0,1,1.377-2.308,7.17,7.17,0,0,1,6.216-.186,2.68,2.68,0,0,1,1.712,2.643" transform="translate(-211.063 -93.625)" fill="#f9af8b"/>
            <path id="Path_1126" data-name="Path 1126" d="M345.509,166.6h-.558a14.292,14.292,0,0,1-.782,1.377c-.447-1-2.68-.261-2.68-.261l-.447.074-.409-.074h0s-2.27-.707-2.717.372a4.02,4.02,0,0,1-.6-1.377l-.521.112h0v.261l.074.3c.409,1.675,1.191,3.238,2.68,3.8,3.573,1.265,4.987-1.526,5.62-3.424l.261-1.079h0Zm-2.345,2.643h0a2.494,2.494,0,0,1-.521.409,2.752,2.752,0,0,1-1.489.484,2.94,2.94,0,0,1-1.489-.409,4.319,4.319,0,0,1-.707-.558s-.409-1.377,2.159-1.042c2.568-.447,2.121.856,2.084,1.117" transform="translate(-211.385 -104.594)" fill="#2a3554"/>
            <path id="Path_1127" data-name="Path 1127" d="M352.87,162.084c0,.261-.149.484-.335.484s-.335-.223-.335-.484.149-.484.335-.484.335.223.335.484" transform="translate(-221.053 -101.455)" fill="#2a3554"/>
            <path id="Path_1128" data-name="Path 1128" d="M342.47,162.084c0,.261-.149.484-.335.484s-.335-.223-.335-.484.149-.484.335-.484.335.223.335.484" transform="translate(-214.524 -101.455)" fill="#2a3554"/>
            <path id="Path_1129" data-name="Path 1129" d="M352.808,157.917a3.567,3.567,0,0,0-2.308-.223l.074.558a6.8,6.8,0,0,1,2.233.3.968.968,0,0,0,.037-.67" transform="translate(-219.986 -98.925)" fill="#2a3554"/>
            <path id="Path_1130" data-name="Path 1130" d="M339.728,157.944a3.485,3.485,0,0,1,2.345-.186l-.074.558a6.8,6.8,0,0,0-2.233.3.968.968,0,0,1-.037-.67" transform="translate(-213.196 -98.952)" fill="#2a3554"/>
            <path id="Path_1131" data-name="Path 1131" d="M347.743,164.754a1.3,1.3,0,0,0,.447-.112.118.118,0,0,0-.074-.223.744.744,0,0,1-.484.037.149.149,0,0,1-.074-.112,18.616,18.616,0,0,1,.074-1.9.132.132,0,0,0-.261-.037,18.275,18.275,0,0,0-.074,1.935.372.372,0,0,0,.186.3l.261.074" transform="translate(-217.973 -101.892)" fill="#fc8664"/>
            <path id="Path_1132" data-name="Path 1132" d="M344.4,171.4a1.485,1.485,0,0,0,1.452,1.34,1.432,1.432,0,0,0,1.452-1.34Z" transform="translate(-216.156 -107.607)" fill="#fff9ff"/>
            <path id="Path_1133" data-name="Path 1133" d="M345.4,152.419a25.274,25.274,0,0,1-.335,3.275H344.5s.149-.856.186-1.414.149-1.6-.3-1.712-.186-1.3-.856-1.824a3.033,3.033,0,0,0-3.089-.074c-.968.6-2.047-.037-2.494.074a1.23,1.23,0,0,0-.893,1.3c.149.6-.335.93-.447,1.526a8.692,8.692,0,0,0,.26,2.2l-.521.112a18.424,18.424,0,0,1-.261-3.536,2.717,2.717,0,0,1,1.377-2.308,7.17,7.17,0,0,1,6.216-.186,2.68,2.68,0,0,1,1.712,2.643" transform="translate(-210.937 -93.688)" fill="#2a3554"/>
            <path id="Path_1134" data-name="Path 1134" d="M303.45,211.77h-.074l-.149.149-1.377,1.191-5.992,5.173,3.685,7.63.67,1.414.112.223v.112a.893.893,0,0,1-1.228,1.117l-.149-.074-.261-.149-1.34-.744-7.22-3.945-6.178,5.546-.968.856-.186.149-.112.074a.893.893,0,0,1-1,.112h-.037l-1.042-.6.633.074a.855.855,0,0,1,0-.335v-.372l.261-1.34,1.489-7.555-7.406-4.28-1.6-.93a1.489,1.489,0,0,1-.521-.447.893.893,0,0,1,.633-1.377h.6l2.308-.3,7.593-.968,1.526-7.7.409-2.121a.893.893,0,0,1,.372-.521l-.074-.633.968.558h0a.893.893,0,0,1,.372.372v.112l.112.186.744,1.489,3.834,7.593,7.444-.93,1.749-.223-.074-.558,1.117.633h0a.893.893,0,0,1,.149,1.414" transform="translate(-171.521 -126.316)" fill="#004386"/>
            <path id="Path_1135" data-name="Path 1135" d="M296.717,227.9a.893.893,0,0,1-.484-.112l-.149-.074-.261-.149-1.34-.744-7.22-3.945-6.216,5.546-.968.856-.186.149-.112.074a.893.893,0,0,1-1.452-.782v-.372l.261-1.34,1.489-7.555-7.406-4.28-1.6-.93a1.489,1.489,0,0,1-.521-.447.893.893,0,0,1,.633-1.377h.6l2.308-.3,7.593-.968,1.526-7.7.409-2.121a.893.893,0,0,1,1.638-.261v.112l.112.186.744,1.489,3.834,7.593,7.444-.93,1.861-.223a2.234,2.234,0,0,1,.67,0,.893.893,0,0,1,.447,1.526h-.074l-.149.149-1.377,1.191-5.806,5.173,3.685,7.63.67,1.414.112.223v.112a.893.893,0,0,1-.707,1.228" transform="translate(-169.701 -125.959)" fill="#005db1"/>
            <path id="Path_1136" data-name="Path 1136" d="M279.152,238.565s1.079-1.042,1.786-1.042-.558,1.6-.558,1.6,1.526-1.973,2.084-1.675-.893,2.233-.893,2.233,1.228-1.154,1.675-1-.558,1.638-.558,1.638,1.079-.819,1.414-.744-.335,1.414-.93,1.935-1.117-.372-1.117-.372-.893-.3-.968-.707-.856-.149-1.117-.6-1.3-.409-.856-1.3" transform="translate(-175.1 -149.054)" fill="#f9af8b"/>
            <path id="Path_1137" data-name="Path 1137" d="M331.261,257.41l-.558.186a1.3,1.3,0,0,1-1.377-.335,7.7,7.7,0,0,0-.558-.558,3.228,3.228,0,0,0-1.563-.521c-.261.074-.037.558.223.707a4.729,4.729,0,0,1,.93.558c.261.261-.968,1.377-1.526,1.749s-1.712.409-1.638.93.893.335.893.335-.074.521.707.67a.633.633,0,0,0,.521.558.707.707,0,0,0,.67.558c.521-.037,2.233-.112,4.541-2.977Z" transform="translate(-204.096 -160.828)" fill="#f9af8b"/>
            <path id="Path_1138" data-name="Path 1138" d="M341.1,217.013s8.188-5.546,10.905-8.6c0,0-.074-3.945-.261-7.109a28.809,28.809,0,0,1,.261-6.141,10.977,10.977,0,0,1,.744-2.866s2.159.856,2.94,8.337a76.46,76.46,0,0,1,.409,8.932,3.35,3.35,0,0,1-.93,2.27,27.467,27.467,0,0,1-12.357,7.593,7.421,7.421,0,0,1-1.712-2.345" transform="translate(-214.084 -120.729)" fill="#e22445"/>
            <path id="Path_1139" data-name="Path 1139" d="M408.47,343.029h-3.089a.372.372,0,0,1-.372-.409l.261-2.233h-1.191l-.3,2.345a.372.372,0,0,1-.372.335h-3.089a.372.372,0,0,1-.372-.409l.261-2.233h-1.935a.372.372,0,0,1-.372-.372v-2.9a.372.372,0,0,1,.372-.372h2.382l.186-1.712H398.9a.372.372,0,0,1-.372-.372v-2.9a.372.372,0,0,1,.372-.372h2.382l.3-2.345a.372.372,0,0,1,.372-.335h3.089a.372.372,0,0,1,.372.409l-.261,2.233h1.191l.3-2.345a.372.372,0,0,1,.372-.335h3.089a.372.372,0,0,1,.372.409l-.261,2.233h1.935a.372.372,0,0,1,.372.372v2.9a.372.372,0,0,1-.372.372h-2.382l-.186,1.712h1.935a.372.372,0,0,1,.372.372v2.9a.372.372,0,0,1-.372.372H409.14l-.3,2.345a.372.372,0,0,1-.372.335m-2.68-.744h2.382l.3-2.345a.372.372,0,0,1,.372-.335h2.345v-2.159h-1.973a.372.372,0,0,1-.372-.409l.3-2.456a.372.372,0,0,1,.372-.335h2.345v-2.2h-2.01a.372.372,0,0,1-.372-.409l.261-2.233h-2.382l-.3,2.345a.372.372,0,0,1-.372.335h-1.935a.372.372,0,0,1-.372-.409l.261-2.233h-2.382l-.3,2.345a.372.372,0,0,1-.372.335H399.24v2.2h1.973a.372.372,0,0,1,.372.409l-.3,2.456a.372.372,0,0,1-.372.335h-2.233v2.084h1.973a.372.372,0,0,1,.372.409l-.261,2.233h2.382l.3-2.345a.372.372,0,0,1,.372-.335h1.935a.372.372,0,0,1,.372.409Zm.3-4.838h-1.935a.372.372,0,0,1-.372-.409l.3-2.456a.372.372,0,0,1,.372-.335h1.935a.372.372,0,0,1,.372.409l-.3,2.456a.372.372,0,0,1-.372.335m-1.526-.744h1.191l.186-1.712h-1.191Z" transform="translate(-249.744 -206.363)" fill="#d4e1f7"/>
            <path id="Path_1140" data-name="Path 1140" d="M149.068,51.844a.372.372,0,0,1-.261-.112l-4.913-4.95a4.094,4.094,0,0,1,0-5.769,2.977,2.977,0,0,1,2.419-.93,4.221,4.221,0,0,1,2.791,1.749,4.221,4.221,0,0,1,2.791-1.749,2.977,2.977,0,0,1,2.419.93,4.094,4.094,0,0,1,0,5.769l-4.987,4.95a.372.372,0,0,1-.261.112M146.016,40.79a2.27,2.27,0,0,0-1.638.707,3.387,3.387,0,0,0,0,4.764l4.69,4.69,4.69-4.69a3.387,3.387,0,0,0,0-4.764,2.27,2.27,0,0,0-1.861-.707,3.782,3.782,0,0,0-2.568,1.824.372.372,0,0,1-.6,0,3.707,3.707,0,0,0-2.568-1.824h-.223" transform="translate(-89.53 -25.158)" fill="#d4e1f7"/>
            <path id="Path_1141" data-name="Path 1141" d="M9.142,118.09H8.807l-.149-.074a.186.186,0,0,1,0-.186l.186-.3a.186.186,0,0,1,.3.186h0a.186.186,0,0,1,0,.335" transform="translate(-5.357 -73.762)" fill="#2bd184"/>
            <path id="Path_1142" data-name="Path 1142" d="M10.128,111.96h-.074a.186.186,0,0,1-.074-.223l.3-.521a.186.186,0,1,1,.3.186l-.3.521a.186.186,0,0,1-.149.074m.633-1.079h-.074a.186.186,0,0,1-.074-.223l.3-.521a.186.186,0,0,1,.3.186l-.3.521a.186.186,0,0,1-.149.074m.633-1.079h-.074a.186.186,0,0,1-.074-.223l.3-.521a.186.186,0,0,1,.3.186l-.3.521a.186.186,0,0,1-.149.074" transform="translate(-6.194 -68.489)" fill="#2bd184"/>
            <path id="Path_1143" data-name="Path 1143" d="M15.476,107.033a.186.186,0,0,1-.149-.074H15.29a.186.186,0,0,1-.3-.186l.186-.3.149-.074.149.074.186.3a.186.186,0,0,1-.074.223h-.074" transform="translate(-9.346 -66.799)" fill="#2bd184"/>
            <path id="Path_1144" data-name="Path 1144" d="M18.467,111.772a.186.186,0,0,1-.149-.074l-.3-.521a.186.186,0,1,1,.3-.186l.3.521a.186.186,0,0,1-.074.223h-.074m-.633-1.079a.186.186,0,0,1-.149-.074l-.3-.521a.186.186,0,0,1,.3-.186l.3.521a.186.186,0,0,1-.074.223h-.074m-.6-1a.186.186,0,0,1-.149-.074l-.3-.521a.186.186,0,0,1,.3-.186l.3.521a.186.186,0,0,1-.074.223h-.074" transform="translate(-10.476 -68.3)" fill="#2bd184"/>
            <path id="Path_1145" data-name="Path 1145" d="M21.584,118.152h-.335a.186.186,0,1,1,0-.335h.037a.186.186,0,0,1,.3-.186l.186.3a.186.186,0,0,1,0,.186l-.149.074" transform="translate(-13.11 -73.825)" fill="#2bd184"/>
            <path id="Path_1146" data-name="Path 1146" d="M14.338,118.5h-.6a.186.186,0,1,1,0-.335h.6a.186.186,0,1,1,0,.335m-1.228,0h-.633a.186.186,0,0,1,0-.335h.633a.186.186,0,1,1,0,.335m-1.228,0h-.633a.186.186,0,1,1,0-.335h.633a.186.186,0,0,1,0,.335" transform="translate(-6.832 -74.176)" fill="#2bd184"/>
            <path id="Path_1147" data-name="Path 1147" d="M26.913,131.973h-.037a2.605,2.605,0,0,1-.707-.223.186.186,0,1,1,.149-.335l.633.186a.186.186,0,0,1-.037.335m.707,0a.186.186,0,0,1-.037-.335l.633-.186a.186.186,0,1,1,.149.335,2.606,2.606,0,0,1-.707.223h-.037m1.265-.558-.149-.074a.186.186,0,0,1,0-.261,2.271,2.271,0,0,0,.447-.484.186.186,0,0,1,.3.186,2.643,2.643,0,0,1-.484.558h-.112m-3.2,0h-.112a2.642,2.642,0,0,1-.484-.558.186.186,0,0,1,.3-.186,2.271,2.271,0,0,0,.409.484.186.186,0,0,1,0,.261l-.149.074m3.945-1.191h-.037a.186.186,0,0,1-.112-.223,2.27,2.27,0,0,0,.074-.633.186.186,0,1,1,.335,0,2.605,2.605,0,0,1-.112.744.186.186,0,0,1-.186.112m-4.69,0a.186.186,0,0,1-.186-.112,2.642,2.642,0,0,1-.112-.744.186.186,0,1,1,.335,0,2.27,2.27,0,0,0,.074.633.186.186,0,0,1-.112.223h-.037m4.69-1.377a.186.186,0,0,1-.186-.112,2.27,2.27,0,0,0-.261-.6.186.186,0,0,1,.3-.186,2.6,2.6,0,0,1,.3.67.186.186,0,0,1-.112.223h-.037m-4.69,0h-.037a.186.186,0,0,1-.112-.223,2.605,2.605,0,0,1,.3-.67.186.186,0,1,1,.3.186,2.27,2.27,0,0,0-.186.6.186.186,0,0,1-.186.112m3.945-1.154h-.112l-.558-.335a.186.186,0,1,1,.149-.335,2.642,2.642,0,0,1,.633.409.186.186,0,0,1,0,.261l-.149.074m-3.2,0-.149-.074a.186.186,0,0,1,0-.261,2.642,2.642,0,0,1,.633-.409.186.186,0,0,1,.149.335l-.558.335h-.112m1.973-.558h-.6a.186.186,0,0,1-.037-.335h.744a.186.186,0,0,1-.037.335" transform="translate(-15.35 -79.607)" fill="#005db1"/>
            <path id="Path_1148" data-name="Path 1148" d="M26.913,93.773h-.037a2.605,2.605,0,0,1-.707-.223.186.186,0,1,1,.149-.335l.633.186a.186.186,0,0,1-.037.335m.707,0a.186.186,0,0,1-.037-.335l.633-.186a.186.186,0,1,1,.149.335,2.642,2.642,0,0,1-.707.223h-.037m1.265-.558-.149-.074a.186.186,0,0,1,0-.261,2.27,2.27,0,0,0,.447-.484.186.186,0,0,1,.3.186,2.643,2.643,0,0,1-.484.558h-.112m-3.2,0h-.112a2.643,2.643,0,0,1-.484-.558.186.186,0,0,1,.3-.186,2.27,2.27,0,0,0,.409.484.186.186,0,0,1,0,.261l-.149.074m3.945-1.154h-.037a.186.186,0,0,1-.112-.223,2.27,2.27,0,0,0,.074-.633.186.186,0,1,1,.335,0,2.605,2.605,0,0,1-.112.744.186.186,0,0,1-.186.112m-4.69,0a.186.186,0,0,1-.186-.112,2.642,2.642,0,0,1-.112-.744.186.186,0,1,1,.335,0,2.27,2.27,0,0,0,.074.633.186.186,0,0,1-.112.223h-.037m4.69-1.377a.186.186,0,0,1-.186-.112,2.27,2.27,0,0,0-.261-.6.186.186,0,0,1,.3-.186,2.605,2.605,0,0,1,.3.67.186.186,0,0,1-.112.223h-.037m-4.69,0h-.037a.186.186,0,0,1-.112-.223,2.605,2.605,0,0,1,.3-.67.186.186,0,1,1,.3.186,2.27,2.27,0,0,0-.261.6.186.186,0,0,1-.186.112m4.02-1.191h-.112l-.558-.335a.186.186,0,1,1,.149-.335,2.643,2.643,0,0,1,.633.409.186.186,0,0,1,0,.261l-.149.074m-3.2,0-.149-.074a.186.186,0,0,1,0-.261,2.643,2.643,0,0,1,.633-.409.186.186,0,0,1,.149.335l-.558.335h-.112m1.973-.558h-.6a.186.186,0,0,1-.037-.335h.744a.186.186,0,0,1-.037.335" transform="translate(-15.35 -55.624)" fill="#ff5767"/>
            <path id="Path_1149" data-name="Path 1149" d="M335.96,68.213h.335l.149-.074a.186.186,0,0,0,0-.186l-.186-.3a.186.186,0,1,0-.3.186h-.037a.186.186,0,0,0,0,.335" transform="translate(-210.768 -42.383)" fill="#2bd184"/>
            <path id="Path_1150" data-name="Path 1150" d="M332.745,61.758l-.3-.521a.186.186,0,1,1,.3-.186l.3.521a.186.186,0,0,1-.074.223h-.074l-.149-.074m-.633-1.042-.3-.521a.186.186,0,0,1,.3-.186l.3.521a.186.186,0,0,1-.074.223h-.074l-.149-.074m-.633-1.079-.3-.521a.186.186,0,1,1,.3-.186l.3.521a.186.186,0,0,1-.074.223h-.074a.186.186,0,0,1-.149-.074" transform="translate(-207.814 -36.859)" fill="#2bd184"/>
            <path id="Path_1151" data-name="Path 1151" d="M329.566,57.433a.186.186,0,0,0,.149-.074h.037a.186.186,0,0,0,.3-.186l-.186-.3-.149-.074-.149.074-.186.3a.186.186,0,0,0,.074.223h.074" transform="translate(-206.718 -35.66)" fill="#2bd184"/>
            <path id="Path_1152" data-name="Path 1152" d="M324.554,62.134a.186.186,0,0,1-.074-.223l.3-.521a.186.186,0,1,1,.3.186l-.3.521a.186.186,0,0,1-.149.074h-.074m.633-1.079a.186.186,0,0,1-.074-.223l.3-.521a.186.186,0,0,1,.3.186l-.3.447a.186.186,0,0,1-.149.074h-.074m.633-1.079a.186.186,0,0,1-.074-.223l.3-.521a.186.186,0,0,1,.3.186l-.3.521a.186.186,0,0,1-.149.074h-.112" transform="translate(-203.642 -37.161)" fill="#2bd184"/>
            <path id="Path_1153" data-name="Path 1153" d="M323.244,68.452h.335a.186.186,0,1,0,0-.335h-.037a.186.186,0,0,0-.3-.186l-.186.3a.186.186,0,0,0,0,.186l.149.074" transform="translate(-202.742 -42.623)" fill="#2bd184"/>
            <path id="Path_1154" data-name="Path 1154" d="M325.7,68.461a.186.186,0,0,1,.186-.186h.633a.186.186,0,1,1,0,.335h-.633a.186.186,0,0,1-.186-.186m1.228,0a.186.186,0,0,1,.186-.186h.633a.186.186,0,1,1,0,.335h-.633a.186.186,0,0,1-.186-.186m1.228,0a.186.186,0,0,1,.186-.186h.633a.186.186,0,0,1,0,.335h-.633a.186.186,0,0,1-.186-.186" transform="translate(-204.416 -42.817)" fill="#2bd184"/>
            <path id="Path_1155" data-name="Path 1155" d="M308.286,64.09h.335l.149-.074a.186.186,0,0,0,0-.186l-.186-.3a.186.186,0,0,0-.3.186h-.037a.186.186,0,1,0,0,.335" transform="translate(-193.292 -39.86)" fill="#ff5767"/>
            <path id="Path_1156" data-name="Path 1156" d="M305.456,57.572l-.3-.521a.186.186,0,0,1,.3-.186l.3.521a.186.186,0,0,1-.074.223H305.6l-.149-.074m-.633-1.079-.3-.521a.186.186,0,0,1,.3-.186l.3.521a.186.186,0,0,1-.074.223h-.074a.186.186,0,0,1-.149-.074m-.633-1.079-.3-.521a.186.186,0,0,1,.3-.186l.3.521a.186.186,0,0,1-.074.223h-.074a.186.186,0,0,1-.149-.074" transform="translate(-190.722 -34.273)" fill="#ff5767"/>
            <path id="Path_1157" data-name="Path 1157" d="M302.166,53.133a.186.186,0,0,0,.149-.074h.037a.186.186,0,0,0,.3-.186l-.186-.3-.149-.074-.149.074-.186.3a.186.186,0,0,0,.074.223h.074" transform="translate(-189.516 -32.96)" fill="#ff5767"/>
            <path id="Path_1158" data-name="Path 1158" d="M297.154,57.96a.186.186,0,0,1-.074-.223l.3-.521a.186.186,0,1,1,.3.186l-.3.521a.186.186,0,0,1-.149.074h-.074m.633-1.079a.186.186,0,0,1-.074-.223l.3-.521a.186.186,0,1,1,.3.186l-.3.521a.186.186,0,0,1-.149.074h-.074m.633-1.079a.186.186,0,0,1-.074-.223l.3-.521a.186.186,0,0,1,.3.186l-.3.521a.186.186,0,0,1-.149.074h-.074" transform="translate(-186.44 -34.587)" fill="#ff5767"/>
            <path id="Path_1159" data-name="Path 1159" d="M295.844,63.976h.335a.186.186,0,0,0,0-.335h-.037a.186.186,0,1,0-.3-.186l-.186.3a.186.186,0,0,0,0,.186l.149.074" transform="translate(-185.539 -39.747)" fill="#ff5767"/>
            <path id="Path_1160" data-name="Path 1160" d="M298.3,64.261a.186.186,0,0,1,.186-.186h.633a.186.186,0,0,1,0,.335h-.633a.186.186,0,0,1-.186-.186m1.228,0a.186.186,0,0,1,.186-.186h.633a.186.186,0,1,1,0,.335h-.633a.186.186,0,0,1-.186-.186m1.228,0a.186.186,0,0,1,.186-.186h.633a.186.186,0,0,1,0,.335h-.633a.186.186,0,0,1-.186-.186" transform="translate(-187.214 -40.18)" fill="#ff5767"/>
            <path id="Path_1161" data-name="Path 1161" d="M317.36,40.808a.186.186,0,0,1,.149-.186l.633-.186a.186.186,0,1,1,.149.335,2.6,2.6,0,0,1-.707.223h-.037a.186.186,0,0,1-.186-.149m-.558.149a2.605,2.605,0,0,1-.707-.223.186.186,0,1,1,.149-.335l.633.186a.186.186,0,0,1-.037.335H316.8m-1.34-.6a2.643,2.643,0,0,1-.484-.558.186.186,0,0,1,.3-.186,2.27,2.27,0,0,0,.409.484.186.186,0,0,1,0,.261l-.149.074h-.074m3.2,0a.186.186,0,0,1,0-.261,2.272,2.272,0,0,0,.409-.484.186.186,0,1,1,.3.186,2.642,2.642,0,0,1-.484.558h-.074l-.149-.074m-3.982-1.228a2.607,2.607,0,0,1-.112-.744.186.186,0,1,1,.335,0,2.269,2.269,0,0,0,.074.633.186.186,0,0,1-.112.223h-.037a.186.186,0,0,1-.186-.112m4.838.112a.186.186,0,0,1-.112-.223,2.27,2.27,0,0,0,.074-.633.186.186,0,1,1,.335,0,2.642,2.642,0,0,1-.112.744.186.186,0,0,1-.186.112h-.037m-4.69-1.377a.186.186,0,0,1-.112-.223,2.6,2.6,0,0,1,.3-.67.186.186,0,0,1,.3.186,2.27,2.27,0,0,0-.26.6.186.186,0,0,1-.186.112h-.037m4.578-.112a2.271,2.271,0,0,0-.261-.6.186.186,0,0,1,.3-.186,2.606,2.606,0,0,1,.3.67.186.186,0,0,1-.112.223h0a.186.186,0,0,1-.186-.112m-3.908-1.117a.186.186,0,0,1,0-.261,2.606,2.606,0,0,1,.633-.409.186.186,0,1,1,.149.335l-.558.335h-.112l-.149-.074m3.238,0-.558-.335a.186.186,0,0,1,.149-.335,2.6,2.6,0,0,1,.633.409.186.186,0,0,1,0,.261l-.149.074h-.112m-2.01-.67a.186.186,0,0,1,.149-.186h.744a.186.186,0,1,1-.037.335h-.67a.186.186,0,0,1-.186-.149" transform="translate(-197.416 -22.459)" fill="#005db1"/>
            <path id="Path_1162" data-name="Path 1162" d="M18.8,157.328v5.136a1.228,1.228,0,0,0,1.228,1.228h9.3l2.829,1a.372.372,0,0,0,.447-.447L31.529,161.5v-4.168A1.228,1.228,0,0,0,30.3,156.1H20.028a1.228,1.228,0,0,0-1.228,1.228" transform="translate(-11.74 -98.002)" fill="#ff5767"/>
            <g id="Group_98" data-name="Group 98" transform="translate(9.517 61.15)">
              <g id="Group_97" data-name="Group 97" clip-path="url(#clip-path-2)">
                <path id="Path_1163" data-name="Path 1163" d="M40.5,165.193a.893.893,0,1,0,.893-.893.893.893,0,0,0-.893.893" transform="translate(-34.88 -164.3)" fill="#e22445"/>
                <path id="Path_1164" data-name="Path 1164" d="M32.9,165.193a.893.893,0,1,0,.893-.893.893.893,0,0,0-.893.893" transform="translate(-30.109 -164.3)" fill="#e22445"/>
                <path id="Path_1165" data-name="Path 1165" d="M25.4,165.193a.893.893,0,1,0,.893-.893.893.893,0,0,0-.893.893" transform="translate(-25.4 -164.3)" fill="#e22445"/>
              </g>
            </g>
            <path id="Path_1166" data-name="Path 1166" d="M224.56,67.679l-3.5-1.414H190.393a.893.893,0,0,1-.893-.893V59.193a.893.893,0,0,1,.893-.893h32.529a.893.893,0,0,1,.893.893v4.541l1.042,3.722a.223.223,0,0,1-.3.261" transform="translate(-118.908 -36.602)" fill="#ff5767"/>
            <path id="Path_1167" data-name="Path 1167" d="M200.2,67.574h-.149l-.223-.149-1.117-.782-1.117.782-.186.112h-.223a.149.149,0,0,1-.074-.149h0l.074-.223.372-1.228-1.154-.819-.261-.186-.074-.074a.149.149,0,0,1,0-.149l.112-.074h1.749l.372-1.228.112-.335a.149.149,0,0,1,.261,0h.037l.112.261.484,1.3h1.638a.149.149,0,0,1,.037.261h-.037l-.261.186-1.079.744.484,1.3.074.261h0a.149.149,0,0,1-.037.149h-.074" transform="translate(-123.018 -39.548)" fill="#fff9ff"/>
            <path id="Path_1168" data-name="Path 1168" d="M216.4,67.574h-.149l-.223-.149-1.117-.782-1.117.782-.186.112h-.223a.149.149,0,0,1-.074-.149h0l.074-.223.372-1.228-1.154-.819-.261-.186-.074-.074a.149.149,0,0,1,0-.149l.112-.074h1.749l.372-1.228.112-.335a.149.149,0,0,1,.261,0h.037l.112.261.484,1.3h1.638a.149.149,0,0,1,.037.261h-.037l-.261.186-1.079.744.484,1.3.074.261h0a.149.149,0,0,1-.037.149h-.074" transform="translate(-133.188 -39.548)" fill="#fff9ff"/>
            <path id="Path_1169" data-name="Path 1169" d="M232.7,67.574h-.149l-.223-.149-1.117-.782-1.117.782-.186.112h-.223a.149.149,0,0,1-.074-.149h0l.074-.223.372-1.228-1.154-.819-.261-.186-.074-.074a.149.149,0,0,1,0-.149l.112-.074h1.749l.372-1.228.112-.335a.149.149,0,0,1,.261,0h.037l.112.261.484,1.3h1.749a.149.149,0,0,1,.037.261h-.037l-.261.186-1.079.744.484,1.3.074.261h0a.149.149,0,0,1-.037.149h-.074" transform="translate(-143.421 -39.548)" fill="#fff9ff"/>
            <path id="Path_1170" data-name="Path 1170" d="M248.9,67.574h-.149l-.223-.149-1.117-.782-1.117.782-.186.112h-.223a.149.149,0,0,1-.074-.149h0l.074-.223.372-1.228-1.154-.819-.261-.186-.074-.074a.149.149,0,0,1,0-.149l.112-.074h1.749L247,63.405l.112-.335a.149.149,0,0,1,.261,0h.037l.112.261.484,1.3h1.638a.149.149,0,0,1,.037.261h-.037l-.261.186-1.079.744.633,1.265.074.261h0a.149.149,0,0,1-.037.149H248.9" transform="translate(-153.592 -39.548)" fill="#e22445"/>
            <path id="Path_1171" data-name="Path 1171" d="M265.1,67.574h-.149l-.223-.149-1.117-.782-1.117.782-.186.112h-.223a.149.149,0,0,1-.074-.149h0l.074-.223.372-1.228-1.154-.819-.261-.186-.074-.074a.149.149,0,0,1,0-.149l.112-.074h1.749l.372-1.228.112-.335a.149.149,0,0,1,.261,0h.037l.112.261.484,1.3h1.638a.149.149,0,0,1,.037.261h-.037l-.261.186-1.079.744.484,1.3.074.261h0a.149.149,0,0,1-.037.149h-.074" transform="translate(-163.763 -39.548)" fill="#e22445"/>
            <path id="Path_1172" data-name="Path 1172" d="M36.089,372.073v-12.8c0-1.526-11.389-1.526-11.389,0v12.8c0,1.154,11.389,1.154,11.389,0" transform="translate(-15.444 -224.836)" fill="#ff5767"/>
            <path id="Path_1173" data-name="Path 1173" d="M36.089,364.8v.744a22.63,22.63,0,0,1-5.657.67,22.255,22.255,0,0,1-5.732-.67V364.8a21.363,21.363,0,0,0,5.732.707,21.7,21.7,0,0,0,5.657-.67" transform="translate(-15.444 -229.027)" fill="#e22445"/>
            <path id="Path_1174" data-name="Path 1174" d="M36.5,359.67c0,.372-2.27.67-5.1.67s-5.1-.3-5.1-.67,2.27-.67,5.1-.67,5.1.3,5.1.67" transform="translate(-16.448 -225.385)" fill="#2a3554"/>
            <path id="Path_1175" data-name="Path 1175" d="M26.324,322.126h2.345c.149-.67,1.526-8.039.261-14.329s-5.285-10.533-7.779-7.7.633,8.337,2.94,12.319,2.2,9.119,2.2,9.714" transform="translate(-12.639 -187.841)" fill="#005db1"/>
            <path id="Path_1176" data-name="Path 1176" d="M32.262,329.734h.633a34.986,34.986,0,0,0-4.057-18.274.31.31,0,1,0-.521.335,34.353,34.353,0,0,1,3.945,17.939" transform="translate(-17.684 -195.45)" fill="#004386"/>
            <path id="Path_1177" data-name="Path 1177" d="M52.376,306.5c-5.285,0-8.3,16.153-7.928,20.359h2.27c.186-1.079,1.079-3.908,5.062-10.347,1.861-3.015,6.067-10.012.6-10.012" transform="translate(-27.822 -192.425)" fill="#005db1"/>
            <path id="Path_1178" data-name="Path 1178" d="M53.129,318.432a.3.3,0,0,0-.409.112c-.037.074-4.541,8.114-5.62,15.743h.633c1.079-7.481,5.508-15.334,5.546-15.446a.3.3,0,0,0-.112-.409" transform="translate(-29.507 -199.891)" fill="#004386"/>
            <path id="Path_1179" data-name="Path 1179" d="M20.394,336.976c.074-2.977-4.094-15.148-7.63-14.255s.335,6.662,1.935,8.821a62.717,62.717,0,0,1,3.871,5.471Z" transform="translate(-7.044 -202.58)" fill="#005db1"/>
            <path id="Path_1180" data-name="Path 1180" d="M23.309,342.19c-1.228-5.025-5.546-10.831-5.732-11.091a.305.305,0,0,0-.484.372c.037.074,4.355,5.881,5.583,10.756Z" transform="translate(-10.628 -207.794)" fill="#004386"/>
          </g>
        </g>
      </g>
    </g>
  </g>
</svg>
