<svg xmlns="http://www.w3.org/2000/svg" xmlns:xlink="http://www.w3.org/1999/xlink" width="102.704" height="279.932" viewBox="0 0 102.704 279.932">
  <defs>
    <clipPath id="clip-path">
      <rect id="Rectangle_55" data-name="Rectangle 55" width="102.704" height="279.932" fill="none"/>
    </clipPath>
  </defs>
  <g id="Music_Symbol_1" data-name="Music Symbol 1" transform="translate(62.05 169.125)">
    <g id="Group_88" data-name="Group 88" transform="translate(-62.05 -169.125)" clip-path="url(#clip-path)">
      <path id="Path_692" data-name="Path 692" d="M65.21,133H64.135V98.32c11.172-10.676,21.352-21.683,27.31-32.028C108.328,37.078,105.928,5.712,86.562.416S55.031,43.2,55.61,66.209V89.63L50.893,94.1C36.493,106.927,4.631,127.534.576,152.941-4.8,186.623,27.224,211.948,55.61,213.024v48S54.2,272.362,43.031,272.362c-18.455,0-20.69-9.186-20.69-9.186s13.572,2.814,18.7-9.186c0,0,5.71-16.966-11.255-21.931S4.548,243.065,7.031,256.141c2.152,11.255,12.414,23.586,35.421,23.752,19.2.166,21.683-12.414,21.683-18.869V212.692a40.8,40.8,0,0,0,5.876-1.324c30.455-9.186,35.09-39.145,31.614-49.655C97.486,149.216,87.059,135.147,65.21,133M86.728,17.63c16.966,12.828-5.545,44.028-22.593,62.98V60.747C66.948,34.016,73.155,7.285,86.728,17.63m-58.593,180c-17.379-15.807-24.5-39.89-5.876-59.917,8.607-9.269,21.1-20.11,33.352-31.448v27.145c-16.138,3.393-25.655,19.283-25.241,32.524.5,15.641,7.366,26.9,13.076,29.214,0,0,3.724,2.648,5.379-.91.5-1.241-.083-2.317-1.407-3.393s-17.048-11.007-5.959-26.979c4.8-6.869,9.6-9.931,14.235-11.007v54.455a38.483,38.483,0,0,1-27.559-9.683m55.78-5.379C79.859,199.2,72.576,204,64.135,206.155V153.023a53.129,53.129,0,0,1,7.117,2.152c7.283,2.566,22.51,20.359,12.662,37.076" transform="translate(0.004 -0.002)" fill="#f4ea4e"/>
    </g>
  </g>
</svg>
