<svg xmlns="http://www.w3.org/2000/svg" xmlns:xlink="http://www.w3.org/1999/xlink" width="1802.385" height="741.218" viewBox="0 0 1802.385 741.218">
  <defs>
    <clipPath id="clip-path">
      <rect id="Rectangle_55" data-name="Rectangle 55" width="37.275" height="101.599" fill="none"/>
    </clipPath>
    <clipPath id="clip-path-3">
      <rect id="Rectangle_54" data-name="Rectangle 54" width="29.128" height="89.956" fill="none"/>
    </clipPath>
    <clipPath id="clip-path-5">
      <rect id="Rectangle_52" data-name="Rectangle 52" width="90.3" height="74.412" fill="none"/>
    </clipPath>
    <clipPath id="clip-path-6">
      <rect id="Rectangle_52-2" data-name="Rectangle 52" width="54.5" height="44.911" fill="none"/>
    </clipPath>
    <clipPath id="clip-path-7">
      <rect id="Rectangle_53" data-name="Rectangle 53" width="65.442" height="114.548" fill="none"/>
    </clipPath>
    <clipPath id="clip-path-9">
      <rect id="Rectangle_54-3" data-name="Rectangle 54" width="28.667" height="88.533" fill="none"/>
    </clipPath>
    <clipPath id="clip-path-10">
      <rect id="Rectangle_53-3" data-name="Rectangle 53" width="38.019" height="66.548" fill="none"/>
    </clipPath>
  </defs>
  <g id="Nice_music_symobls" data-name="Nice music symobls" transform="translate(1.263 -3249.647)">
    <g id="Artwork_47" data-name="Artwork 47" transform="translate(253.307 3595.588)">
      <path id="Path_1182" data-name="Path 1182" d="M841.026,577.078c187.523-32.619,278.827,179.033,501.948,163.841,202.716-13.7,217.61-194.375,436.412-214.482,202.12-18.618,257.825,129.285,458.754,99.794C2365.042,607.612,2532.9,520.777,2559.864,376,2589.5,216.48,2437.877,41.319,2284.314,6.615,2119.43-30.622,2033.339,112.069,1801.728,157.05c-261.549,50.791-346.6-154.606-533.227-90.857-189.906,64.792-168.756,269-339.6,311.3-122.643,30.4-155.129-12.7-164.089,0-4.987,7.045-3.333,33.378-3.333,105.346,1,60.545-.153,92.487,3.333,104C768.151,597.878,776.254,588.346,841.026,577.078Z" transform="translate(-1015.788 -346.425)" fill="#160b45"/>
    </g>
    <g id="Group_159" data-name="Group 159">
      <g id="Artwork_39" data-name="Artwork 39" transform="translate(202.05 3854.458)">
        <g id="Group_88" data-name="Group 88" transform="translate(-62.05 -169.125)" clip-path="url(#clip-path)">
          <path id="Path_692" data-name="Path 692" d="M23.654,48.277h-.39V35.692c4.055-3.875,7.749-7.87,9.912-11.624C39.3,13.464,38.432,2.081,31.4.158S19.96,15.687,20.17,24.037v8.5L18.458,34.16C13.232,38.815,1.668,46.294.2,55.516-1.757,67.741,9.868,76.932,20.17,77.322V94.744s-.511,4.115-4.566,4.115c-6.7,0-7.509-3.334-7.509-3.334s4.926,1.021,6.788-3.334c0,0,2.073-6.158-4.085-7.96s-9.161,3.995-8.26,8.741c.781,4.085,4.505,8.56,12.856,8.621,6.969.06,7.87-4.505,7.87-6.848V77.2a14.808,14.808,0,0,0,2.133-.481C36.45,73.388,38.132,62.514,36.871,58.7A14.764,14.764,0,0,0,23.654,48.277m7.81-41.871c6.158,4.656-2.012,15.979-8.2,22.858V22.055c1.021-9.7,3.274-19.4,8.2-15.649M10.2,71.736C3.89,66,1.307,57.258,8.065,49.989c3.124-3.364,7.659-7.3,12.1-11.414v9.852c-5.857,1.232-9.311,7-9.161,11.8.18,5.677,2.673,9.762,4.746,10.6,0,0,1.352.961,1.952-.33.18-.451-.03-.841-.511-1.232s-6.188-3.995-2.163-9.792c1.742-2.493,3.484-3.6,5.166-3.995V75.25a13.967,13.967,0,0,1-10-3.514m20.245-1.952a11.4,11.4,0,0,1-7.179,5.046V55.546a19.282,19.282,0,0,1,2.583.781c2.643.931,8.17,7.389,4.6,13.456" transform="translate(0.014 -0.008)" fill="#f1e698"/>
        </g>
      </g>
      <g id="Artwork_39-2" data-name="Artwork 39" transform="translate(462.05 3587.458)">
        <g id="Group_88-2" data-name="Group 88" transform="translate(-62.05 -169.125)" clip-path="url(#clip-path)">
          <path id="Path_692-2" data-name="Path 692" d="M23.654,48.277h-.39V35.692c4.055-3.875,7.749-7.87,9.912-11.624C39.3,13.464,38.432,2.081,31.4.158S19.96,15.687,20.17,24.037v8.5L18.458,34.16C13.232,38.815,1.668,46.294.2,55.516-1.757,67.741,9.868,76.932,20.17,77.322V94.744s-.511,4.115-4.566,4.115c-6.7,0-7.509-3.334-7.509-3.334s4.926,1.021,6.788-3.334c0,0,2.073-6.158-4.085-7.96s-9.161,3.995-8.26,8.741c.781,4.085,4.505,8.56,12.856,8.621,6.969.06,7.87-4.505,7.87-6.848V77.2a14.808,14.808,0,0,0,2.133-.481C36.45,73.388,38.132,62.514,36.871,58.7A14.764,14.764,0,0,0,23.654,48.277m7.81-41.871c6.158,4.656-2.012,15.979-8.2,22.858V22.055c1.021-9.7,3.274-19.4,8.2-15.649M10.2,71.736C3.89,66,1.307,57.258,8.065,49.989c3.124-3.364,7.659-7.3,12.1-11.414v9.852c-5.857,1.232-9.311,7-9.161,11.8.18,5.677,2.673,9.762,4.746,10.6,0,0,1.352.961,1.952-.33.18-.451-.03-.841-.511-1.232s-6.188-3.995-2.163-9.792c1.742-2.493,3.484-3.6,5.166-3.995V75.25a13.967,13.967,0,0,1-10-3.514m20.245-1.952a11.4,11.4,0,0,1-7.179,5.046V55.546a19.282,19.282,0,0,1,2.583.781c2.643.931,8.17,7.389,4.6,13.456" transform="translate(0.014 -0.008)" fill="#8bc4e5"/>
        </g>
      </g>
      <g id="Artwork_40" data-name="Artwork 40" transform="translate(1623.896 3766.389)">
        <g id="Group_87" data-name="Group 87" transform="translate(-36.95 -114.115)" clip-path="url(#clip-path-3)">
          <path id="Path_691" data-name="Path 691" d="M28.6,80.249a14.78,14.78,0,0,0,.512-4.1c-.039-1.971,0-76.149,0-76.149L25.915,2.523V73.588l-.315-.2c-2.877-2.286-7.489-3.468-12.495-2.838C5.223,71.538-.65,76.662.02,81.983s7.607,8.829,15.49,7.844a19.2,19.2,0,0,0,8.553-3.153,10.446,10.446,0,0,0,1.064-.788,9.414,9.414,0,0,0,3.429-5.6" transform="translate(0.019 0)" fill="#f2d39e"/>
        </g>
      </g>
      <g id="Artwork_40-2" data-name="Artwork 40" transform="translate(712.95 3416.389)">
        <g id="Group_87-2" data-name="Group 87" transform="translate(-36.95 -114.115)" clip-path="url(#clip-path-3)">
          <path id="Path_691-2" data-name="Path 691" d="M28.6,80.249a14.78,14.78,0,0,0,.512-4.1c-.039-1.971,0-76.149,0-76.149L25.915,2.523V73.588l-.315-.2c-2.877-2.286-7.489-3.468-12.495-2.838C5.223,71.538-.65,76.662.02,81.983s7.607,8.829,15.49,7.844a19.2,19.2,0,0,0,8.553-3.153,10.446,10.446,0,0,0,1.064-.788,9.414,9.414,0,0,0,3.429-5.6" transform="translate(0.019 0)" fill="#f2d39e"/>
        </g>
      </g>
      <g id="Artwork_42" data-name="Artwork 42" transform="translate(1560.55 3857.626)">
        <g id="Group_85" data-name="Group 85" transform="translate(-130.35 -107.415)" clip-path="url(#clip-path-5)">
          <path id="Path_689" data-name="Path 689" d="M62.889,67.37l27.4-52.58L45.6,0,19.176,50.744a14.271,14.271,0,0,0-6.062-4.156C7.469,44.474,1.719,45.86.3,49.67s2.044,8.59,7.69,10.7a14.548,14.548,0,0,0,6.893.9l.97-.173a6.943,6.943,0,0,0,4.26-2.563,11.257,11.257,0,0,0,1.8-2.6l.831-1.628L42.73,15.968,78.337,27.225,59.286,63.768a14.374,14.374,0,0,0-6.062-4.157c-5.646-2.113-11.4-.727-12.816,3.083s2.044,8.59,7.69,10.7a14.582,14.582,0,0,0,6.893.866l1-.173a6.943,6.943,0,0,0,4.26-2.563,11.257,11.257,0,0,0,1.7-2.39h.035L62.057,69l.831-1.628" transform="translate(0.013)" fill="#efd277"/>
        </g>
      </g>
      <g id="Artwork_42-2" data-name="Artwork 42" transform="translate(668.35 4020.626)">
        <g id="Group_85-2" data-name="Group 85" transform="translate(-130.35 -107.415)" clip-path="url(#clip-path-6)">
          <path id="Path_689-2" data-name="Path 689" d="M37.948,40.661,54.485,8.927,27.517,0,11.566,30.626a8.613,8.613,0,0,0-3.658-2.509C4.5,26.842,1.03,27.679.173,29.978s1.233,5.185,4.641,6.46a8.78,8.78,0,0,0,4.16.544l.585-.1A4.19,4.19,0,0,0,12.13,35.33a6.794,6.794,0,0,0,1.087-1.568l.5-.983L25.782,9.637l21.491,6.794-11.5,22.055a8.676,8.676,0,0,0-3.658-2.509c-3.408-1.275-6.878-.439-7.735,1.861s1.233,5.185,4.641,6.46a8.8,8.8,0,0,0,4.16.523l.606-.1a4.19,4.19,0,0,0,2.571-1.547,6.794,6.794,0,0,0,1.024-1.442H37.4l.042-.084.5-.983" transform="translate(0.016)" fill="#efd277"/>
        </g>
      </g>
      <g id="Artwork_41" data-name="Artwork 41" transform="translate(1740 3627.775)">
        <g id="Group_86" data-name="Group 86" transform="translate(-65 -113.775)" clip-path="url(#clip-path-7)">
          <path id="Path_690" data-name="Path 690" d="M54.517,28.593C38.962,15.2,37.452,12.082,36.244,4.984V0L32.167,3.222V93.884c-.654-.4-9.565-6.192-22.3-1.41S.1,106.821,2.114,109.489s13.29,8.759,26.68,1.611c0,0,7.551-3.373,7.45-13.994,0-2.517.05-3.624,0-14.347V54.971C45.658,59.3,65.844,72.59,52,103.649c0,0,14.447-16.713,8.155-34.03,5.185-9.061,11.326-26.378-5.588-41.027M50.641,56.431c-7.7-6.544-11.931-10.672-14.4-13.994V25.573C40.221,26.881,67.3,36.9,59.048,67.1a33.325,33.325,0,0,0-8.457-10.622" transform="translate(-0.151)" fill="#e54375"/>
        </g>
      </g>
      <g id="Artwork_41-2" data-name="Artwork 41" transform="translate(570 3454.775)">
        <g id="Group_86-2" data-name="Group 86" transform="translate(-65 -113.775)" clip-path="url(#clip-path-7)">
          <path id="Path_690-2" data-name="Path 690" d="M54.517,28.593C38.962,15.2,37.452,12.082,36.244,4.984V0L32.167,3.222V93.884c-.654-.4-9.565-6.192-22.3-1.41S.1,106.821,2.114,109.489s13.29,8.759,26.68,1.611c0,0,7.551-3.373,7.45-13.994,0-2.517.05-3.624,0-14.347V54.971C45.658,59.3,65.844,72.59,52,103.649c0,0,14.447-16.713,8.155-34.03,5.185-9.061,11.326-26.378-5.588-41.027M50.641,56.431c-7.7-6.544-11.931-10.672-14.4-13.994V25.573C40.221,26.881,67.3,36.9,59.048,67.1a33.325,33.325,0,0,0-8.457-10.622" transform="translate(-0.151)" fill="#e54375"/>
        </g>
      </g>
      <g id="Artwork_40-3" data-name="Artwork 40" transform="translate(1169.95 3782.812)">
        <g id="Group_87-3" data-name="Group 87" transform="translate(-36.95 -114.115)" clip-path="url(#clip-path-9)">
          <path id="Path_691-3" data-name="Path 691" d="M28.143,78.979a14.547,14.547,0,0,0,.5-4.034c-.039-1.94,0-74.945,0-74.945L25.505,2.483V72.423l-.31-.194c-2.832-2.25-7.37-3.414-12.3-2.793C5.14,70.406-.64,75.449.019,80.686s7.487,8.689,15.245,7.719a18.891,18.891,0,0,0,8.418-3.1,10.281,10.281,0,0,0,1.047-.776A9.265,9.265,0,0,0,28.1,79.018" transform="translate(0.02 0)" fill="#623e74"/>
        </g>
      </g>
      <g id="Artwork_41-3" data-name="Artwork 41" transform="translate(1385 3810.775)">
        <g id="Group_86-3" data-name="Group 86" transform="translate(-65 -113.775)" clip-path="url(#clip-path-10)">
          <path id="Path_690-3" data-name="Path 690" d="M31.8,16.611C22.763,8.832,21.885,7.019,21.183,2.9V0L18.815,1.872V54.543c-.38-.234-5.557-3.6-12.956-.819s-5.674,8.335-4.5,9.885,7.721,5.089,15.5.936c0,0,4.387-1.959,4.328-8.13,0-1.462.029-2.106,0-8.335V31.936c5.469,2.515,17.2,10.236,9.154,28.28,0,0,8.393-9.709,4.738-19.77,3.012-5.264,6.58-15.325-3.246-23.835M29.548,32.784c-4.475-3.8-6.931-6.2-8.364-8.13v-9.8c2.31.76,18.044,6.58,13.248,24.127a19.36,19.36,0,0,0-4.913-6.171" transform="translate(-0.214)" fill="#f7d173"/>
        </g>
      </g>
    </g>
  </g>
</svg>
