<svg id="PC" xmlns="http://www.w3.org/2000/svg" width="61.908" height="38.677" viewBox="0 0 61.908 38.677">
  <path id="Path_465" data-name="Path 465" d="M13.752,45.85h-1.18a2.906,2.906,0,0,0-2.9,2.9v.967a.967.967,0,0,0,.967.967H29.979a.967.967,0,0,0,.967-.967v-.967a2.906,2.906,0,0,0-2.9-2.9h-1.18l-.483-1.931H37.71a2.906,2.906,0,0,0,2.9-2.9v-26.1a2.906,2.906,0,0,0-2.9-2.9H2.905a2.906,2.906,0,0,0-2.9,2.9v26.1a2.906,2.906,0,0,0,2.9,2.9H14.234Zm-1.18,1.935H28.044a.968.968,0,0,1,.967.967H11.6a.968.968,0,0,1,.967-.967Zm12.3-1.935H15.745l.483-1.931h8.161ZM2.905,13.945H37.711a.968.968,0,0,1,.967.967v23.2H1.938v-23.2a.968.968,0,0,1,.967-.967ZM1.938,41.017v-.967H20.327a.973.973,0,1,0,.011,0H38.679v.967a.968.968,0,0,1-.967.967H2.905a.968.968,0,0,1-.967-.967Z" transform="translate(-0.003 -12.01)" fill="#3a0070"/>
  <path id="Path_466" data-name="Path 466" d="M60.443,12.01H46.9a2.906,2.906,0,0,0-2.9,2.9V47.785a2.906,2.906,0,0,0,2.9,2.9H60.443a2.906,2.906,0,0,0,2.9-2.9V14.912a2.905,2.905,0,0,0-2.9-2.9Zm-14.512,5.8H61.41v.965H45.931Zm.967-3.866H60.443a.968.968,0,0,1,.967.967v.964H45.931v-.964A.968.968,0,0,1,46.9,13.945ZM60.443,48.752H46.9a.968.968,0,0,1-.967-.967V20.711H61.41V47.785A.968.968,0,0,1,60.443,48.752Z" transform="translate(-1.437 -12.01)" fill="#3a0070"/>
  <path id="Path_467" data-name="Path 467" d="M53.9,32.808a2.9,2.9,0,1,0-2.9-2.9A2.906,2.906,0,0,0,53.9,32.808Zm0-3.87a.967.967,0,1,1-.967.967A.968.968,0,0,1,53.9,28.939Z" transform="translate(-1.665 -12.499)" fill="#3a0070"/>
  <path id="Path_468" data-name="Path 468" d="M57.7,39.006H49.964a.967.967,0,0,0,0,1.935H57.7a.967.967,0,1,0,0-1.935Z" transform="translate(-1.6 -12.89)" fill="#3a0070"/>
  <path id="Path_469" data-name="Path 469" d="M57.7,42.006H49.964a.967.967,0,0,0,0,1.935H57.7a.967.967,0,1,0,0-1.935Z" transform="translate(-1.6 -12.988)" fill="#3a0070"/>
  <path id="Path_470" data-name="Path 470" d="M57.7,45.006H49.964a.967.967,0,0,0,0,1.935H57.7a.967.967,0,1,0,0-1.935Z" transform="translate(-1.6 -13.086)" fill="#3a0070"/>
</svg>
