<svg xmlns="http://www.w3.org/2000/svg" xmlns:xlink="http://www.w3.org/1999/xlink" width="209.04" height="141.706" viewBox="0 0 209.04 141.706">
  <defs>
    <clipPath id="clip-path">
      <rect id="Rectangle_80" data-name="Rectangle 80" width="209.04" height="141.706" fill="none"/>
    </clipPath>
  </defs>
  <g id="Phone_or_tablet" data-name="Phone or tablet" transform="translate(284.5 192.86)">
    <g id="Group_96" data-name="Group 96" transform="translate(-284.5 -192.86)" clip-path="url(#clip-path)">
      <path id="Path_793" data-name="Path 793" d="M467.607,118.282a6.868,6.868,0,0,1,1.286,1.286l1.653-.294,1.1,2.572-1.359.992a6.836,6.836,0,0,1,.037,1.8l1.4.955-1.029,2.572-1.653-.257a6.833,6.833,0,0,1-1.286,1.286l.294,1.653-2.572,1.1-.992-1.359a6.833,6.833,0,0,1-1.8.037l-.955,1.4-2.572-1.029.257-1.653a6.832,6.832,0,0,1-1.286-1.286l-1.653.294-1.1-2.572,1.359-.992a6.869,6.869,0,0,1-.037-1.8l-1.4-.955,1.029-2.572,1.653.257a6.8,6.8,0,0,1,1.286-1.286l-.294-1.653,2.572-1.1.992,1.359a6.834,6.834,0,0,1,1.8-.037l.955-1.4,2.572,1.029Zm-2.866,2.792a2.976,2.976,0,1,0,1.639,1.6,2.976,2.976,0,0,0-1.639-1.6" transform="translate(-288.031 -73.131)" fill="#ebebeb" fill-rule="evenodd"/>
      <path id="Path_794" data-name="Path 794" d="M31.8,144.886a12.344,12.344,0,0,1,2.351,2.315l3.013-.551,1.984,4.629-2.461,1.8a12.344,12.344,0,0,1,.037,3.27l2.5,1.727-1.874,4.666-3.049-.478a12.344,12.344,0,0,1-2.315,2.351l.551,3.013-4.629,1.984-1.8-2.461a12.381,12.381,0,0,1-3.27.037l-1.727,2.5-4.666-1.874.478-3.013a12.344,12.344,0,0,1-2.351-2.314l-3.013.551-1.984-4.629,2.461-1.8a12.344,12.344,0,0,1-.037-3.27l-2.5-1.727,1.874-4.666,3.013.478A12.344,12.344,0,0,1,16.7,145.07l-.551-3.013,4.629-1.984,1.8,2.461a12.381,12.381,0,0,1,3.27-.037l1.727-2.5,4.666,1.874Zm-5.217,5A5.4,5.4,0,1,0,29.6,156.9a5.4,5.4,0,0,0-3.013-7.017" transform="translate(-6.01 -88.567)" fill="#ebebeb" fill-rule="evenodd"/>
      <path id="Path_795" data-name="Path 795" d="M15.444,84.719A6.834,6.834,0,0,1,16.73,86l1.653-.294,1.1,2.572-1.359.955a6.8,6.8,0,0,1,.037,1.837l1.4.955L18.53,94.6l-1.653-.257a6.833,6.833,0,0,1-1.286,1.286l.294,1.653-2.572,1.1-.992-1.359a6.833,6.833,0,0,1-1.8.037l-.955,1.4L6.994,97.43l.257-1.653a6.834,6.834,0,0,1-1.286-1.286l-1.653.294-1.1-2.572,1.323-.992a6.833,6.833,0,0,1-.037-1.8l-1.4-.992,1.029-2.572,1.653.257A6.8,6.8,0,0,1,7.1,84.792l-.294-1.653,2.572-1.1.992,1.359a6.833,6.833,0,0,1,1.8-.037L13.13,82,15.7,83.029Zm-2.9,2.792a2.976,2.976,0,1,0,1.639,1.6,2.976,2.976,0,0,0-1.639-1.6" transform="translate(-1.961 -51.875)" fill="#f0f0f0" fill-rule="evenodd"/>
      <path id="Path_796" data-name="Path 796" d="M82.382,25.613a17.047,17.047,0,0,1,4,2.131l3.747-1.91,4.445,5.327L92.007,34.5a17.047,17.047,0,0,1,1.323,4.335l4,1.323-.661,6.907-4.151.551a17.01,17.01,0,0,1-2.131,4l1.91,3.747-5.327,4.409-3.343-2.572A17.01,17.01,0,0,1,79.3,58.53l-1.323,4-6.907-.661-.551-4.151a17.01,17.01,0,0,1-4-2.131L62.764,57.5l-4.409-5.327,2.572-3.343A17.046,17.046,0,0,1,59.6,44.5l-4-1.286.625-6.907,4.151-.551a17.01,17.01,0,0,1,2.131-4L60.633,28l5.327-4.445L69.3,26.127A17.01,17.01,0,0,1,73.638,24.8l1.323-4,6.907.661ZM77.5,34.283A7.458,7.458,0,1,0,84.219,42.4,7.458,7.458,0,0,0,77.5,34.283" transform="translate(-35.174 -13.158)" fill="#e0e0e0" fill-rule="evenodd"/>
      <path id="Path_797" data-name="Path 797" d="M18.225,292.135c4.592-3.013,5.768-8.744,5.694-13.96a5.318,5.318,0,0,0-.294-2.535,1.777,1.777,0,0,0-2.168-.955c-.808.367-.955,1.029-1.359,1.653A5.107,5.107,0,0,1,18,278.211a1.958,1.958,0,0,1-1.8.11,2.868,2.868,0,0,1-.771-2.314l.147-4.813a7.935,7.935,0,0,0-.184-2.572,2.682,2.682,0,0,0-1.653-1.837,1.631,1.631,0,0,0-2.057,1.029,7.862,7.862,0,0,0-.037,1.065.918.918,0,0,1-.551.845,1.065,1.065,0,0,1-.955-.4,11.425,11.425,0,0,1-2.021-3.159,15.834,15.834,0,0,0-1.874-3.233,4.709,4.709,0,0,0-3.159-1.837A2.834,2.834,0,0,0,.15,262.928a4.128,4.128,0,0,0,1.1,3.453,19.361,19.361,0,0,0,3.931,3.894,1.58,1.58,0,0,1,.661.735c.184.588-.4,1.139-.955,1.323a11.57,11.57,0,0,1-2.057.184,1.931,1.931,0,0,0-1.69.955c-.257.625.331,1.8,1.065,2.425a16.753,16.753,0,0,0,4.886,2.939,5.658,5.658,0,0,1,1.8.918,1.564,1.564,0,0,1,.478,1.837,1.657,1.657,0,0,1-1.8.625,11.718,11.718,0,0,1-1.91-.772,3.034,3.034,0,0,0-3.527.588,2.682,2.682,0,0,0-.367,2.388,6.282,6.282,0,0,0,1.286,2.168,16.79,16.79,0,0,0,7.054,5.143,11.681,11.681,0,0,0,8.119.4" transform="translate(-0.039 -165.168)" fill="#e8505b"/>
      <path id="Path_798" data-name="Path 798" d="M3.737,262.9l.073.073.257.22.955.918a32.476,32.476,0,0,1,3.233,3.637c.625.808,1.286,1.727,1.947,2.719s1.4,2.094,2.131,3.233a38.726,38.726,0,0,1,2.057,3.747c.331.661.588,1.359.882,2.057l.882,2.168a78.434,78.434,0,0,1,2.9,8.376,38.024,38.024,0,0,1,1.286,7.09,27.848,27.848,0,0,1-.037,4.849c-.073.588-.11,1.029-.147,1.323v.331l.073-.331c.073-.294.11-.735.184-1.323a26.6,26.6,0,0,0,.073-4.886,37.362,37.362,0,0,0-1.249-7.09,76.493,76.493,0,0,0-2.9-8.376l-.882-2.168-.882-2.094a38.428,38.428,0,0,0-2.094-3.747c-.735-1.176-1.433-2.241-2.131-3.233s-1.359-1.91-1.984-2.719a30.782,30.782,0,0,0-3.306-3.6l-.992-.882-.257-.22L3.7,262.9" transform="translate(-2.341 -166.315)" fill="#263238"/>
      <path id="Path_799" data-name="Path 799" d="M33.1,286.1a1.69,1.69,0,0,0,.11-.367c.037-.22.11-.588.184-.992s.294-2.057.478-3.343.331-2.5.514-3.343l.184-.992a1.69,1.69,0,0,0,.073-.367l-.11.367c-.073.22-.147.588-.257.992s-.367,2.021-.551,3.343l-.441,3.343-.147,1.029a1.727,1.727,0,0,0-.037.367" transform="translate(-20.94 -175.046)" fill="#263238"/>
      <path id="Path_800" data-name="Path 800" d="M2.7,295.9l.441.073,1.212.147c1.029.147,2.425.367,3.968.7s2.939.7,3.931.955l1.176.331.441.11-.4-.184-1.176-.4A39.1,39.1,0,0,0,8.358,296.6a40.045,40.045,0,0,0-4-.661L3.178,295.9H2.7" transform="translate(-1.708 -187.192)" fill="#263238"/>
      <path id="Path_801" data-name="Path 801" d="M45.6,312l.073-.147.184-.4.7-1.47c.588-1.249,1.323-3.013,2.094-4.96s1.506-3.711,2.057-5l.661-1.506.184-.4V298l-.073.147-.184.4-.7,1.47c-.588,1.249-1.323,3.013-2.094,4.96s-1.506,3.711-2.057,5l-.661,1.506-.184.4v.147" transform="translate(-28.847 -188.52)" fill="#263238"/>
      <path id="Path_802" data-name="Path 802" d="M5.3,322.2l.147.073.441.147,1.58.551,5.217,1.874,5.217,1.8,1.616.514.441.11h.147l-.147-.073-.441-.147-1.58-.514-5.18-1.837L7.5,322.861l-1.58-.478-.441-.11H5.3" transform="translate(-3.353 -203.83)" fill="#263238"/>
      <path id="Path_803" data-name="Path 803" d="M408.866,127.873l-22.153-.11a4.813,4.813,0,0,1-4.813-4.849l.22-55.4A4.813,4.813,0,0,1,386.97,62.7l22.153.11a4.813,4.813,0,0,1,4.813,4.849l-.22,55.4a4.813,4.813,0,0,1-4.849,4.776" transform="translate(-241.597 -39.665)" fill="#455a64"/>
      <path id="Path_804" data-name="Path 804" d="M411.653,68.073h-4.3a1.065,1.065,0,0,0-1.065,1.065v.772a1.065,1.065,0,0,1-1.065,1.065h-8.376a1.065,1.065,0,0,1-1.029-1.1V69.1a1.065,1.065,0,0,0-1.029-1.1H389.5a3.38,3.38,0,0,0-3.38,3.343l-.22,54.078a3.38,3.38,0,0,0,3.38,3.38l22.116.11a3.38,3.38,0,0,0,3.38-3.343L415,71.49a3.38,3.38,0,0,0-3.38-3.38" transform="translate(-244.127 -43.018)" fill="#fff"/>
      <rect id="Rectangle_66" data-name="Rectangle 66" width="21.896" height="1.466" transform="translate(145.263 61.867)" fill="#455a64"/>
      <path id="Path_805" data-name="Path 805" d="M416.867,183.91c0,.037-4.666.11-10.434.11S396,183.984,396,183.91s4.666-.11,10.434-.11,10.434.037,10.434.11" transform="translate(-250.517 -116.275)" fill="#455a64"/>
      <path id="Path_806" data-name="Path 806" d="M416.867,89.31c0,.037-4.666.11-10.434.11S396,89.384,396,89.31s4.666-.11,10.434-.11,10.434.037,10.434.11" transform="translate(-250.517 -56.43)" fill="#455a64"/>
      <path id="Path_807" data-name="Path 807" d="M416.867,191.11c0,.037-4.666.11-10.434.11S396,191.184,396,191.11s4.666-.11,10.434-.11,10.434.037,10.434.11" transform="translate(-250.517 -120.83)" fill="#455a64"/>
      <path id="Path_808" data-name="Path 808" d="M416.867,198.41c0,.037-4.666.11-10.434.11S396,198.484,396,198.41s4.666-.11,10.434-.11,10.434.037,10.434.11" transform="translate(-250.517 -125.448)" fill="#455a64"/>
      <path id="Path_809" data-name="Path 809" d="M416.867,205.71c0,.037-4.666.11-10.434.11S396,205.784,396,205.71s4.666-.11,10.434-.11,10.434.037,10.434.11" transform="translate(-250.517 -130.066)" fill="#455a64"/>
      <path id="Path_810" data-name="Path 810" d="M416.867,212.91c0,.037-4.666.11-10.434.11S396,212.984,396,212.91s4.666-.11,10.434-.11,10.434.037,10.434.11" transform="translate(-250.517 -134.621)" fill="#455a64"/>
      <path id="Path_811" data-name="Path 811" d="M417.767,221.11c0,.037-4.666.11-10.434.11s-10.434-.037-10.434-.11,4.666-.11,10.434-.11,10.434.037,10.434.11" transform="translate(-251.086 -139.809)" fill="#455a64"/>
      <rect id="Rectangle_67" data-name="Rectangle 67" width="21.933" height="21.231" transform="translate(145.483 35.93)" fill="#e0e0e0"/>
      <path id="Path_812" data-name="Path 812" d="M400.7,131.848l6.062-10.948,4.96,6.98,3.012-3.711,4.482,7.678Z" transform="translate(-253.49 -76.484)" fill="#e8505b"/>
      <path id="Path_813" data-name="Path 813" d="M431.06,112.38a1.58,1.58,0,1,1-1.58-1.58,1.58,1.58,0,0,1,1.58,1.58" transform="translate(-270.698 -70.094)" fill="#e8505b"/>
      <path id="Path_814" data-name="Path 814" d="M419.153,119.8v-1.286c0-.845,0-2.057-.037-3.6V102.094l.073.073H400.637l.11-.11h0v17.634l-.073-.073H400.6V101.91h0l.11-.11h18.626v12.969c0,1.543,0,2.755-.037,3.6v1.249" transform="translate(-253.427 -64.401)" fill="#455a64"/>
      <path id="Path_815" data-name="Path 815" d="M224.2,4.225V53.2a4.225,4.225,0,0,1-4.262,4.225H146.025A4.225,4.225,0,0,1,141.8,53.2V4.225A4.225,4.225,0,0,1,146.025,0h73.954a4.225,4.225,0,0,1,4.262,4.225" transform="translate(-89.705 0)" fill="#455a64"/>
      <rect id="Rectangle_68" data-name="Rectangle 68" width="68.811" height="53.807" transform="translate(57.716 1.8)" fill="#fff"/>
      <path id="Path_816" data-name="Path 816" d="M351.1,72.2a2.2,2.2,0,1,1-2.2,2.2,2.2,2.2,0,0,1,2.2-2.2" transform="translate(-220.721 -45.675)" fill="#263238"/>
      <path id="Path_817" data-name="Path 817" d="M149.182,55.041V71.463a.441.441,0,0,1-.441.441h0a.441.441,0,0,1-.441-.441V55.041a.441.441,0,0,1,.441-.441h0a.441.441,0,0,1,.441.441" transform="translate(-93.817 -34.541)" fill="#263238"/>
      <rect id="Rectangle_69" data-name="Rectangle 69" width="21.896" height="1.462" transform="translate(89.127 5.841)" fill="#455a64"/>
      <rect id="Rectangle_70" data-name="Rectangle 70" width="21.896" height="1.466" transform="translate(60.618 31.044)" fill="#455a64"/>
      <path id="Path_818" data-name="Path 818" d="M269.823,30.61c0,.037-6.1.11-13.593.11s-13.63-.037-13.63-.11,6.1-.11,13.63-.11,13.593.037,13.593.11" transform="translate(-153.473 -19.295)" fill="#455a64"/>
      <path id="Path_819" data-name="Path 819" d="M269.823,39.31c0,.037-6.1.11-13.593.11s-13.63-.037-13.63-.11,6.1-.11,13.63-.11,13.593.037,13.593.11" transform="translate(-153.473 -24.799)" fill="#455a64"/>
      <path id="Path_820" data-name="Path 820" d="M269.823,48.01c0,.037-6.1.11-13.593.11s-13.63-.037-13.63-.11,6.1-.11,13.63-.11,13.593.037,13.593.11" transform="translate(-153.473 -30.302)" fill="#455a64"/>
      <path id="Path_821" data-name="Path 821" d="M269.823,56.71c0,.037-6.1.11-13.593.11s-13.63-.037-13.63-.11,6.1-.11,13.63-.11,13.593.037,13.593.11" transform="translate(-153.473 -35.806)" fill="#455a64"/>
      <path id="Path_822" data-name="Path 822" d="M269.823,65.41c0,.037-6.1.11-13.593.11s-13.63-.037-13.63-.11,6.1-.11,13.63-.11,13.593.037,13.593.11" transform="translate(-153.473 -41.31)" fill="#455a64"/>
      <path id="Path_823" data-name="Path 823" d="M263.835,74.11c0,.037-4.776.11-10.617.11s-10.617-.037-10.617-.11,4.739-.11,10.617-.11,10.617.037,10.617.11" transform="translate(-153.473 -46.814)" fill="#455a64"/>
      <path id="Path_824" data-name="Path 824" d="M201.309,100.01c0,.037-8.009.11-17.855.11s-17.855-.037-17.855-.11,8.009-.11,17.855-.11,17.855.037,17.855.11" transform="translate(-104.762 -63.199)" fill="#455a64"/>
      <path id="Path_825" data-name="Path 825" d="M201.309,107.21c0,.037-8.009.11-17.855.11s-17.855-.037-17.855-.11,8.009-.11,17.855-.11,17.855.037,17.855.11" transform="translate(-104.762 -67.753)" fill="#455a64"/>
      <path id="Path_826" data-name="Path 826" d="M201.309,114.51c0,.037-8.009.11-17.855.11s-17.855-.037-17.855-.11,8.009-.11,17.855-.11,17.855.037,17.855.11" transform="translate(-104.762 -72.372)" fill="#455a64"/>
      <path id="Path_827" data-name="Path 827" d="M201.309,121.71c0,.037-8.009.11-17.855.11s-17.855-.037-17.855-.11,8.009-.11,17.855-.11,17.855.037,17.855.11" transform="translate(-104.762 -76.926)" fill="#455a64"/>
      <path id="Path_828" data-name="Path 828" d="M201.309,129.01c0,.037-8.009.11-17.855.11s-17.855-.037-17.855-.11,8.009-.11,17.855-.11,17.855.037,17.855.11" transform="translate(-104.762 -81.545)" fill="#455a64"/>
      <rect id="Rectangle_71" data-name="Rectangle 71" width="21.933" height="21.231" transform="translate(60.838 5.107)" fill="#e8505b"/>
      <path id="Path_829" data-name="Path 829" d="M170.3,47.911,176.362,37l4.96,6.98,3.013-3.711,4.482,7.642Z" transform="translate(-107.735 -23.407)" fill="#e0e0e0"/>
      <path id="Path_830" data-name="Path 830" d="M200.66,28.48a1.58,1.58,0,1,1-1.58-1.58,1.58,1.58,0,0,1,1.58,1.58" transform="translate(-124.942 -17.017)" fill="#e0e0e0"/>
      <path id="Path_831" data-name="Path 831" d="M188.626,36.345V18.637l.073.073H170.11l.11-.11h0V36.234l-.073-.073H170V18.71h0l.11-.11h18.626V36.345" transform="translate(-107.545 -11.767)" fill="#455a64"/>
      <rect id="Rectangle_72" data-name="Rectangle 72" width="15.54" height="15.026" transform="translate(101.471 33.836)" fill="#e8505b"/>
      <path id="Path_832" data-name="Path 832" d="M279.5,116.215l4.3-7.715,3.527,4.923,2.131-2.608,3.159,5.4Z" transform="translate(-176.817 -68.639)" fill="#e0e0e0"/>
      <path id="Path_833" data-name="Path 833" d="M301.1,102.5a1.1,1.1,0,1,1-1.1-1.1,1.1,1.1,0,0,1,1.1,1.1" transform="translate(-189.09 -64.148)" fill="#e0e0e0"/>
      <path id="Path_834" data-name="Path 834" d="M292.489,108.028v-3.453c0-2.2-.037-5.327-.037-9.074l.073.073H279.374l.073-.073h0v12.417l-.073-.073H279.3V95.61h0l.073-.073h13.189v.073c0,3.784-.037,6.907-.037,9.111v3.38h0" transform="translate(-176.69 -60.415)" fill="#455a64"/>
      <path id="Path_835" data-name="Path 835" d="M159.747,248.295H55.264a5.364,5.364,0,0,1-5.364-5.364V177.464a5.364,5.364,0,0,1,5.364-5.364H159.747a5.364,5.364,0,0,1,5.364,5.364v65.467a5.364,5.364,0,0,1-5.364,5.364" transform="translate(-31.568 -108.874)" fill="#263238"/>
      <path id="Path_836" data-name="Path 836" d="M155.1,370.85H43.339A6.539,6.539,0,0,1,36.8,364.31v-.11H161.636v.11a6.539,6.539,0,0,1-6.539,6.539" transform="translate(-23.28 -230.4)" fill="#263238"/>
      <rect id="Rectangle_73" data-name="Rectangle 73" width="108.708" height="64.336" transform="translate(21.418 66.276)" fill="#e0e0e0"/>
      <path id="Path_837" data-name="Path 837" d="M175.8,364.2l1.543,2.461h21.786l1.47-2.461Z" transform="translate(-111.214 -230.4)" fill="#455a64"/>
      <rect id="Rectangle_74" data-name="Rectangle 74" width="100.075" height="60.026" transform="translate(25.055 70.537)" fill="#fafafa"/>
      <path id="Path_838" data-name="Path 838" d="M76.89,198.645a.845.845,0,1,1-.845-.845.845.845,0,0,1,.845.845" transform="translate(-47.573 -125.132)" fill="#455a64"/>
      <path id="Path_839" data-name="Path 839" d="M86.29,198.645a.845.845,0,1,1-.845-.845.845.845,0,0,1,.845.845" transform="translate(-53.52 -125.132)" fill="#455a64"/>
      <path id="Path_840" data-name="Path 840" d="M95.59,198.645a.845.845,0,1,1-.845-.845.845.845,0,0,1,.845.845" transform="translate(-59.403 -125.132)" fill="#455a64"/>
      <path id="Path_841" data-name="Path 841" d="M168.275,209.91c0,.037-22.41.11-50.037.11s-50.037-.037-50.037-.11,22.41-.11,50.037-.11,50.037.037,50.037.11" transform="translate(-43.145 -132.723)" fill="#455a64"/>
      <rect id="Rectangle_75" data-name="Rectangle 75" width="115.211" height="0.367" transform="translate(18.332 133.837)" fill="#455a64"/>
      <rect id="Rectangle_76" data-name="Rectangle 76" width="21.896" height="1.466" transform="translate(33.248 106.357)" fill="#455a64"/>
      <rect id="Rectangle_77" data-name="Rectangle 77" width="21.896" height="1.466" transform="translate(61.536 86.004)" fill="#455a64"/>
      <path id="Path_842" data-name="Path 842" d="M221.946,248.81c0,.037-12.2.11-27.223.11s-27.223-.037-27.223-.11,12.2-.11,27.223-.11,27.223.037,27.223.11" transform="translate(-105.964 -157.332)" fill="#455a64"/>
      <path id="Path_843" data-name="Path 843" d="M221.946,257.51c0,.037-12.2.11-27.223.11s-27.223-.037-27.223-.11,12.2-.11,27.223-.11,27.223.037,27.223.11" transform="translate(-105.964 -162.836)" fill="#455a64"/>
      <path id="Path_844" data-name="Path 844" d="M221.946,266.21c0,.037-12.2.11-27.223.11s-27.223-.037-27.223-.11,12.2-.11,27.223-.11,27.223.037,27.223.11" transform="translate(-105.964 -168.34)" fill="#455a64"/>
      <path id="Path_845" data-name="Path 845" d="M221.946,274.91c0,.037-12.2.11-27.223.11s-27.223-.037-27.223-.11,12.2-.11,27.223-.11,27.223.037,27.223.11" transform="translate(-105.964 -173.844)" fill="#455a64"/>
      <path id="Path_846" data-name="Path 846" d="M221.946,283.61c0,.037-12.2.11-27.223.11s-27.223-.037-27.223-.11,12.2-.11,27.223-.11,27.223.037,27.223.11" transform="translate(-105.964 -179.347)" fill="#455a64"/>
      <path id="Path_847" data-name="Path 847" d="M188.835,292.31c0,.037-4.776.11-10.617.11s-10.617-.037-10.617-.11,4.739-.11,10.617-.11,10.617.037,10.617.11" transform="translate(-106.027 -184.851)" fill="#455a64"/>
      <path id="Path_848" data-name="Path 848" d="M252.983,309.21c0,.037-8.009.11-17.891.11s-17.891-.037-17.891-.11,8.009-.11,17.891-.11,17.891.037,17.891.11" transform="translate(-137.405 -195.542)" fill="#455a64"/>
      <path id="Path_849" data-name="Path 849" d="M252.983,318.41c0,.037-8.009.11-17.891.11s-17.891-.037-17.891-.11,8.009-.11,17.891-.11,17.891.037,17.891.11" transform="translate(-137.405 -201.362)" fill="#455a64"/>
      <path id="Path_850" data-name="Path 850" d="M252.983,327.71c0,.037-8.009.11-17.891.11s-17.891-.037-17.891-.11,8.009-.11,17.891-.11,17.891.037,17.891.11" transform="translate(-137.405 -207.246)" fill="#455a64"/>
      <path id="Path_851" data-name="Path 851" d="M252.983,336.91c0,.037-8.009.11-17.891.11s-17.891-.037-17.891-.11,8.009-.11,17.891-.11,17.891.037,17.891.11" transform="translate(-137.405 -213.066)" fill="#455a64"/>
      <path id="Path_852" data-name="Path 852" d="M113.608,308.31c0,.037-4.776.11-10.654.11s-10.654-.037-10.654-.11,4.776-.11,10.654-.11,10.654.037,10.654.11" transform="translate(-58.391 -194.973)" fill="#455a64"/>
      <path id="Path_853" data-name="Path 853" d="M113.608,315.61c0,.037-4.776.11-10.654.11s-10.654-.037-10.654-.11,4.776-.11,10.654-.11,10.654.037,10.654.11" transform="translate(-58.391 -199.591)" fill="#455a64"/>
      <path id="Path_854" data-name="Path 854" d="M113.608,322.81c0,.037-4.776.11-10.654.11s-10.654-.037-10.654-.11,4.776-.11,10.654-.11,10.654.037,10.654.11" transform="translate(-58.391 -204.146)" fill="#455a64"/>
      <path id="Path_855" data-name="Path 855" d="M113.608,330.11c0,.037-4.776.11-10.654.11s-10.654-.037-10.654-.11,4.776-.11,10.654-.11,10.654.037,10.654.11" transform="translate(-58.391 -208.764)" fill="#455a64"/>
      <path id="Path_856" data-name="Path 856" d="M113.608,337.31c0,.037-4.776.11-10.654.11s-10.654-.037-10.654-.11,4.776-.11,10.654-.11,10.654.037,10.654.11" transform="translate(-58.391 -213.319)" fill="#455a64"/>
      <rect id="Rectangle_78" data-name="Rectangle 78" width="21.933" height="21.231" transform="translate(33.248 81.228)" fill="#e0e0e0"/>
      <path id="Path_857" data-name="Path 857" d="M95.2,255.148l6.062-10.948,4.96,6.98,3.013-3.711,4.482,7.678Z" transform="translate(-60.225 -154.485)" fill="#e8505b"/>
      <path id="Path_858" data-name="Path 858" d="M125.559,235.68a1.58,1.58,0,1,1-1.58-1.58,1.58,1.58,0,0,1,1.58,1.58" transform="translate(-77.433 -148.096)" fill="#e8505b"/>
      <path id="Path_859" data-name="Path 859" d="M113.653,243.1V225.394l.073.073H95.137l.11-.11h0v17.634l-.073-.073H95.1V225.21h0l.11-.11h18.626v.073c-.037,5.327-.037,9.772-.037,12.858,0,1.543-.037,2.755-.037,3.6v1.249" transform="translate(-60.162 -142.402)" fill="#455a64"/>
      <rect id="Rectangle_79" data-name="Rectangle 79" width="15.54" height="15.026" transform="translate(61.536 112.051)" fill="#e0e0e0"/>
      <path id="Path_860" data-name="Path 860" d="M170.7,329.052,175,321.3l3.527,4.96,2.131-2.645,3.2,5.437Z" transform="translate(-107.988 -203.26)" fill="#e8505b"/>
      <path id="Path_861" data-name="Path 861" d="M192.3,315.3a1.1,1.1,0,1,1-1.1-1.1,1.1,1.1,0,0,1,1.1,1.1" transform="translate(-120.261 -198.769)" fill="#e8505b"/>
      <path id="Path_862" data-name="Path 862" d="M183.726,320.738v-3.453c0-2.2-.037-5.327-.037-9.074l.073.073H170.573l.073-.073h0v12.528l-.073-.073H170.5V308.173h0l.073-.073h13.189v.073c0,3.784-.037,6.907-.037,9.111v3.38h0" transform="translate(-107.861 -194.91)" fill="#455a64"/>
      <path id="Path_863" data-name="Path 863" d="M554.919,356.911l-3.674-.441-.845,6.87,5.364.7.073-.441c.331-1.874,1.616-9.625,1.4-10.948s-2.315,4.225-2.315,4.225" transform="translate(-348.193 -222.963)" fill="#e8505b"/>
      <path id="Path_864" data-name="Path 864" d="M565.738,351.8c.073,0-.184,2.608-.551,5.768s-.735,5.768-.808,5.731.184-2.608.551-5.768.735-5.731.808-5.731" transform="translate(-357.028 -222.555)" fill="#263238"/>
      <path id="Path_865" data-name="Path 865" d="M563.739,362.676c-.037.037-.22-.037-.4-.184s-.257-.367-.184-.4.22.073.367.22.294.294.22.367" transform="translate(-356.242 -229.059)" fill="#263238"/>
      <path id="Path_866" data-name="Path 866" d="M564.259,361.639c-.037.073-.257,0-.478-.147s-.331-.367-.294-.4.22.073.441.22.367.294.331.367" transform="translate(-356.469 -228.426)" fill="#263238"/>
      <path id="Path_867" data-name="Path 867" d="M562.452,377.4c0,.037-.11.11-.257.257a4.444,4.444,0,0,0-.661.551,1.653,1.653,0,0,0-.4.7c-.037.22-.037.331-.073.367s-.11-.11-.074-.367a1.4,1.4,0,0,1,.4-.845,2.425,2.425,0,0,1,.735-.514l.367-.11" transform="translate(-354.882 -238.75)" fill="#263238"/>
      <path id="Path_868" data-name="Path 868" d="M562.853,363.39c.073-.037.184.11.22.331s0,.367-.073.367-.11-.147-.147-.331a.574.574,0,0,1,0-.367" transform="translate(-356.053 -229.884)" fill="#263238"/>
      <path id="Path_869" data-name="Path 869" d="M561.63,363.6c.074,0,.11.184.074.441s-.11.4-.147.4-.11-.22-.074-.441.11-.4.147-.4" transform="translate(-355.198 -230.02)" fill="#263238"/>
      <path id="Path_870" data-name="Path 870" d="M448.8,363.736l-20.353-2.057-42.249.955,11.242-9.074L425.62,352.2l24.651,3.417Z" transform="translate(-244.317 -222.808)" fill="#263238"/>
      <path id="Path_871" data-name="Path 871" d="M432.408,368.01c0,.037-3.968.11-8.854.11s-8.854-.037-8.854-.11,3.968-.11,8.854-.11,8.854.037,8.854.11" transform="translate(-262.347 -232.74)" fill="#455a64"/>
      <path id="Path_872" data-name="Path 872" d="M457.5,353.81l1.47,9.111h2.792l-2.131-9.221Z" transform="translate(-289.423 -223.757)"/>
      <path id="Path_873" data-name="Path 873" d="M474.211,372.774l-.4-3.674-6.907.735.551,5.4h.441c1.91-.11,9.736-.625,10.948-1.139s-4.629-1.286-4.629-1.286" transform="translate(-295.37 -233.499)" fill="#e8505b"/>
      <path id="Path_874" data-name="Path 874" d="M479.9,381.576c0,.073-2.572.4-5.731.772s-5.768.588-5.768.514,2.572-.4,5.731-.771,5.768-.588,5.768-.514" transform="translate(-296.319 -241.383)" fill="#263238"/>
      <path id="Path_875" data-name="Path 875" d="M487.337,379.823c-.073-.037-.037-.22.11-.441s.294-.331.331-.294-.037.22-.147.4-.22.331-.294.331" transform="translate(-308.275 -239.814)" fill="#263238"/>
      <path id="Path_876" data-name="Path 876" d="M488.512,380.137c-.073,0-.073-.257.037-.478s.257-.4.331-.367,0,.22-.11.478-.22.4-.257.4" transform="translate(-309.009 -239.944)" fill="#263238"/>
      <path id="Path_877" data-name="Path 877" d="M470.394,382.414c-.037.037-.147-.073-.294-.22a4.443,4.443,0,0,0-.661-.514,1.652,1.652,0,0,0-.771-.22H468.3c0-.037.11-.147.331-.184a1.4,1.4,0,0,1,.919.184,2.425,2.425,0,0,1,.661.588c.147.184.22.294.184.331" transform="translate(-296.255 -241.192)" fill="#263238"/>
      <path id="Path_878" data-name="Path 878" d="M486.125,379.2c.037.037-.073.184-.257.294s-.367.073-.367.037.11-.147.294-.22.331-.11.367-.073" transform="translate(-307.136 -239.889)" fill="#263238"/>
      <path id="Path_879" data-name="Path 879" d="M485.345,378.149c0,.073-.147.147-.4.184s-.441,0-.441-.073.184-.147.4-.184.4,0,.441.073" transform="translate(-306.504 -239.168)" fill="#263238"/>
      <path id="Path_880" data-name="Path 880" d="M376.71,238.726l5.878-.11c.073-.7.184-3.343.184-3.343a2.931,2.931,0,0,0,2.645-2.682c.184-2.461.11-8.046.11-8.046a8.486,8.486,0,0,0-8.56.551l-.367.257Z" transform="translate(-238.244 -141.48)" fill="#b78876"/>
      <path id="Path_881" data-name="Path 881" d="M398.51,236.416a.367.367,0,1,1,.514,0,.367.367,0,0,1-.514,0" transform="translate(-252.035 -149.163)" fill="#263238"/>
      <path id="Path_882" data-name="Path 882" d="M398.3,235.275c-.037.037-.257-.147-.588-.184s-.588.147-.625.073.037-.11.147-.184a.845.845,0,0,1,.992.073c.11.073.147.184.11.184" transform="translate(-251.196 -148.573)" fill="#263238"/>
      <path id="Path_883" data-name="Path 883" d="M388.829,236.1a.367.367,0,1,1-.478.073.367.367,0,0,1,.478-.073" transform="translate(-245.623 -149.326)" fill="#263238"/>
      <path id="Path_884" data-name="Path 884" d="M388.3,235.475c-.037.037-.257-.147-.588-.184s-.588.147-.625.073.037-.11.147-.184a.845.845,0,0,1,.992.073c.11.073.147.184.11.184" transform="translate(-244.87 -148.7)" fill="#263238"/>
      <path id="Path_885" data-name="Path 885" d="M393.6,238.939l.551-.073a.281.281,0,0,0,.184-.073.477.477,0,0,0-.037-.257l-.22-.7A9.33,9.33,0,0,1,393.6,236a9.366,9.366,0,0,1,.661,1.763l.22.7a.551.551,0,0,1,.037.367.221.221,0,0,1-.147.147h-.7" transform="translate(-248.999 -149.298)" fill="#263238"/>
      <path id="Path_886" data-name="Path 886" d="M390.506,244.734a5.461,5.461,0,0,0,1.616.588.919.919,0,0,1-1.1.294.734.734,0,0,1-.514-.882" transform="translate(-247.007 -154.799)" fill="#fff"/>
      <path id="Path_887" data-name="Path 887" d="M388.023,253.3a5.694,5.694,0,0,1-3.123-1.1,3.026,3.026,0,0,0,3.086,1.727Z" transform="translate(-243.495 -159.546)" fill="#a36957"/>
      <path id="Path_888" data-name="Path 888" d="M384.443,217.276a.918.918,0,1,0-.514-1.69,2.719,2.719,0,0,0,.7-.882.919.919,0,0,0-.184-1.029,1.029,1.029,0,0,0-1.065-.073c-.514.22-.918.661-1.47.845a5.25,5.25,0,0,1-1.69.11,3.013,3.013,0,0,0-1.763.625,2.021,2.021,0,0,0-.772,1.653,2.965,2.965,0,0,0-2.314.4,2.278,2.278,0,0,0-.772,1.8,6.8,6.8,0,0,0,.478,1.947h0a1.4,1.4,0,0,0,.257.514l.294,1.763h1.1l-.074-3.637s-.11-1.543,1.212-1.4,3.123,1.616,5.694,1.249a2.792,2.792,0,0,0,1.212-.331,1.176,1.176,0,0,0,.551-1.065.808.808,0,0,0-.882-.7" transform="translate(-236.976 -135.056)" fill="#263238"/>
      <path id="Path_889" data-name="Path 889" d="M374.938,234.158c-.037-.037-1.8-.257-1.653,1.837s2.2,1.212,2.2,1.176-.551-2.976-.551-2.976" transform="translate(-236.142 -148.117)" fill="#b78876"/>
      <path id="Path_890" data-name="Path 890" d="M375.676,237.906l-.11.073a.367.367,0,0,1-.257.037.882.882,0,0,1-.478-.771,1.212,1.212,0,0,1,.073-.514.4.4,0,0,1,.257-.294.184.184,0,0,1,.22.073.285.285,0,0,1,.037.11s.037-.037,0-.11l-.073-.11h-.22a.514.514,0,0,0-.367.367,1.212,1.212,0,0,0-.073.588.955.955,0,0,0,.588.845.4.4,0,0,0,.331-.073c.073-.073.073-.11.073-.11" transform="translate(-237.027 -149.551)" fill="#a36957"/>
      <path id="Path_891" data-name="Path 891" d="M363.9,318.23c1.1,1.653,7.789,11.683,15.761,4.372,10.176-9.331,18.222-17.487,18.222-17.487l3.013,18.443,9.478-.514S406.7,295.6,404.349,293.1s-5-2.535-25.46,13.593Z" transform="translate(-230.21 -184.65)" fill="#455a64"/>
      <path id="Path_892" data-name="Path 892" d="M456,267.429,464.854,261l.441.7-8.78,6.5Z" transform="translate(-288.474 -165.113)" fill="#263238"/>
      <path id="Path_893" data-name="Path 893" d="M462,268.375l1.47-3.747a7.721,7.721,0,0,1,.882-1.837c.147-.037.771.073-.037,2.021s.955.771.955.771l1.69-1.212s1.359,4,.588,5.217a19.434,19.434,0,0,1-2.021,2.572Z" transform="translate(-292.27 -166.243)" fill="#b78876"/>
      <path id="Path_894" data-name="Path 894" d="M398.244,266.616c-.184-.4-11.426,9.515-13.667,9.846l-6.539-8.523a70.6,70.6,0,0,0-4.3-5.841c-1.874-2.388-7.09-1.874-8.45,1.029-2.315,4.923-2.351,10.434-3.6,21.124l-.514,7.2a25.356,25.356,0,0,0,.073,4.629c.184,1.8.588,3.674,1.433,3.417l14.989-12.381.478-5.621c3.159,3.2,4.115,3.858,5.768,3.6,4.115-.625,18.553-13.63,18.553-13.63s-4.078-4.372-4.262-4.776" transform="translate(-228.441 -164.851)" fill="#e8505b"/>
      <path id="Path_895" data-name="Path 895" d="M460.782,285.954a4.409,4.409,0,0,1-.808-.625,18.148,18.148,0,0,1-3.2-3.747,4.409,4.409,0,0,1-.478-.882,6.945,6.945,0,0,1,.588.808c.367.514.882,1.212,1.506,1.947s1.212,1.359,1.653,1.8a6.984,6.984,0,0,1,.7.735" transform="translate(-288.664 -177.576)" fill="#263238"/>
      <path id="Path_896" data-name="Path 896" d="M423.4,307.28a15.466,15.466,0,0,1,.588-3.38,15.542,15.542,0,0,1-.588,3.38" transform="translate(-267.851 -192.253)" fill="#263238"/>
      <path id="Path_897" data-name="Path 897" d="M425.808,306.976A12.526,12.526,0,0,1,425,304a12.533,12.533,0,0,1,.808,2.976" transform="translate(-268.863 -192.316)" fill="#263238"/>
      <path id="Path_898" data-name="Path 898" d="M382.973,284.637l.367.478.992,1.323,3.27,4.335,3.306,4.3.992,1.323.331.478-.4-.441-1.065-1.286c-.882-1.065-2.094-2.572-3.38-4.3s-2.425-3.233-3.233-4.372l-.918-1.359-.331-.514" transform="translate(-242.23 -180.043)" fill="#263238"/>
      <path id="Path_899" data-name="Path 899" d="M374.484,301.463A9.331,9.331,0,0,1,372.5,299.7a9.3,9.3,0,0,1,1.984,1.763" transform="translate(-235.65 -189.596)" fill="#263238"/>
      <path id="Path_900" data-name="Path 900" d="M371.77,315.7a9.074,9.074,0,0,1-1.47,2.168,9.072,9.072,0,0,1,1.47-2.168" transform="translate(-234.259 -199.718)" fill="#263238"/>
      <path id="Path_901" data-name="Path 901" d="M377.023,328.575c-.037.037-.367-.294-.735-.735A2.939,2.939,0,0,1,375.7,327c.037-.037.367.294.735.735a2.938,2.938,0,0,1,.588.845" transform="translate(-237.675 -206.861)" fill="#263238"/>
      <path id="Path_902" data-name="Path 902" d="M366.763,341.3A5.916,5.916,0,0,1,365,342.476a5.879,5.879,0,0,1,1.763-1.176" transform="translate(-230.906 -215.913)" fill="#263238"/>
      <path id="Path_903" data-name="Path 903" d="M380.38,340.67a3.27,3.27,0,0,1-1.58-1.874c.037-.037.331.441.772.955s.882.845.845.918" transform="translate(-239.636 -214.328)" fill="#263238"/>
      <path id="Path_904" data-name="Path 904" d="M392.021,334.5A9.114,9.114,0,0,1,390,336.19a9.147,9.147,0,0,1,2.021-1.69" transform="translate(-246.721 -211.611)" fill="#263238"/>
      <path id="Path_905" data-name="Path 905" d="M367.5,350.228a2.829,2.829,0,0,1-1.4-1.433c.037-.037.331.331.7.7s.735.661.7.735" transform="translate(-231.602 -220.653)" fill="#263238"/>
      <path id="Path_906" data-name="Path 906" d="M394.094,325.6a3.527,3.527,0,0,1-2.094.441,21.014,21.014,0,0,1,2.094-.441" transform="translate(-247.986 -205.981)" fill="#263238"/>
      <path id="Path_907" data-name="Path 907" d="M386.945,315.1a6.28,6.28,0,0,1-.367,1.323,11.466,11.466,0,0,1-.441,1.249H386.1a5.548,5.548,0,0,1,.294-1.286,4,4,0,0,1,.551-1.249" transform="translate(-244.254 -199.338)" fill="#263238"/>
      <path id="Path_908" data-name="Path 908" d="M388.757,305.806A8.523,8.523,0,0,1,386.7,304.3a8.524,8.524,0,0,1,2.057,1.506" transform="translate(-244.634 -192.506)" fill="#263238"/>
      <path id="Path_909" data-name="Path 909" d="M382.123,293.7a4.556,4.556,0,0,1-1.323,1.837,12.562,12.562,0,0,1,1.323-1.837" transform="translate(-240.901 -185.8)" fill="#263238"/>
      <path id="Path_910" data-name="Path 910" d="M372.171,287.461a8.083,8.083,0,0,1,.22-2.461,8.082,8.082,0,0,1-.22,2.461" transform="translate(-235.432 -180.296)" fill="#263238"/>
      <path id="Path_911" data-name="Path 911" d="M367.2,309.082a9.441,9.441,0,0,1-.037-2.682,9.477,9.477,0,0,1,.037,2.682" transform="translate(-232.226 -193.834)" fill="#263238"/>
      <path id="Path_912" data-name="Path 912" d="M365.978,332.053a3.858,3.858,0,0,1-.478-1.653,3.9,3.9,0,0,1,.478,1.653" transform="translate(-231.222 -209.017)" fill="#263238"/>
      <path id="Path_913" data-name="Path 913" d="M380.31,275.137a8.451,8.451,0,0,1-.955.918,8.34,8.34,0,0,1-.955.918,5,5,0,0,1,1.91-1.874" transform="translate(-239.383 -174.033)" fill="#263238"/>
      <path id="Path_914" data-name="Path 914" d="M376.317,268.625a7.753,7.753,0,0,1,.11-2.425,7.752,7.752,0,0,1-.11,2.425" transform="translate(-238.034 -168.403)" fill="#263238"/>
      <path id="Path_915" data-name="Path 915" d="M390.584,268.059A20.94,20.94,0,0,1,388.6,266.7a4.739,4.739,0,0,1,1.984,1.359" transform="translate(-245.836 -168.719)" fill="#263238"/>
      <path id="Path_916" data-name="Path 916" d="M389.98,278.472a9.047,9.047,0,0,1-.037-2.572,8.742,8.742,0,0,1,.037,2.572" transform="translate(-246.628 -174.539)" fill="#263238"/>
      <path id="Path_917" data-name="Path 917" d="M396.6,289.3q-1.112-.214-2.2-.514a3.931,3.931,0,0,1,2.2.514" transform="translate(-249.505 -182.687)" fill="#263238"/>
      <path id="Path_918" data-name="Path 918" d="M400.9,279.068a6.171,6.171,0,0,1-.037-2.168,6.172,6.172,0,0,1,.037,2.168" transform="translate(-253.545 -175.172)" fill="#263238"/>
      <path id="Path_919" data-name="Path 919" d="M408.628,290.619a9.811,9.811,0,0,1-.11-2.719,9.807,9.807,0,0,1,.11,2.719" transform="translate(-258.406 -182.131)" fill="#263238"/>
      <path id="Path_920" data-name="Path 920" d="M400.869,297.217c-.037.037-.331-.22-.661-.588s-.551-.7-.514-.735.331.22.661.588.551.7.514.735" transform="translate(-252.851 -187.186)" fill="#263238"/>
      <path id="Path_921" data-name="Path 921" d="M406.768,305.138a6.209,6.209,0,0,1-2.168.147,6.208,6.208,0,0,1,2.168-.147" transform="translate(-255.957 -193.013)" fill="#263238"/>
      <path id="Path_922" data-name="Path 922" d="M416.066,304.025a7.715,7.715,0,0,1-.073-2.425,7.751,7.751,0,0,1,.073,2.425" transform="translate(-263.125 -190.798)" fill="#263238"/>
      <path id="Path_923" data-name="Path 923" d="M417.345,318.594a5.621,5.621,0,0,1-2.645-.294,26.513,26.513,0,0,1,2.645.294" transform="translate(-262.347 -201.362)" fill="#263238"/>
      <path id="Path_924" data-name="Path 924" d="M430.208,314.1a8.265,8.265,0,0,1-.808,2.388,8.3,8.3,0,0,1,.808-2.388" transform="translate(-271.646 -198.705)" fill="#263238"/>
      <path id="Path_925" data-name="Path 925" d="M434.8,304.125a6.942,6.942,0,0,1-2.2-.625,6.981,6.981,0,0,1,2.2.625" transform="translate(-273.671 -192)" fill="#263238"/>
      <path id="Path_926" data-name="Path 926" d="M441.227,308.6a6.944,6.944,0,0,1-1.727,1.543,6.943,6.943,0,0,1,1.727-1.543" transform="translate(-278.036 -195.226)" fill="#263238"/>
      <path id="Path_927" data-name="Path 927" d="M445.706,296.125a4.556,4.556,0,0,1-.441-2.425q.265,1.2.441,2.425" transform="translate(-281.67 -185.8)" fill="#263238"/>
      <path id="Path_928" data-name="Path 928" d="M453.278,298.4A97.7,97.7,0,0,1,451,300.641a7.126,7.126,0,0,1,2.278-2.241" transform="translate(-285.311 -188.773)" fill="#263238"/>
      <path id="Path_929" data-name="Path 929" d="M454.151,293.082a8.412,8.412,0,0,1-2.351-.882,8.377,8.377,0,0,1,2.351.882" transform="translate(-285.817 -184.851)" fill="#263238"/>
      <path id="Path_930" data-name="Path 930" d="M456.188,286.957a5.952,5.952,0,0,1-.588-2.057,5.95,5.95,0,0,1,.588,2.057" transform="translate(-288.221 -180.233)" fill="#263238"/>
      <path id="Path_931" data-name="Path 931" d="M399.112,316.327A5.914,5.914,0,0,1,397.9,314.6a5.914,5.914,0,0,1,1.212,1.727" transform="translate(-251.719 -199.022)" fill="#263238"/>
      <path id="Path_932" data-name="Path 932" d="M413.822,331.858v-.147l-.073-.478-.22-1.763c-.22-1.543-.514-3.784-.955-6.539s-1.029-6.025-1.874-9.589a5.069,5.069,0,0,0-.441-1.286,4.006,4.006,0,0,0-.882-1.065,3.821,3.821,0,0,0-2.682-.882,3.526,3.526,0,0,0-1.433.367,9.481,9.481,0,0,0-1.249.845l-2.535,1.874c-3.417,2.535-6.576,5.07-9.442,7.384s-5.327,4.556-7.384,6.392a6.3,6.3,0,0,1-3.306,1.727,3.343,3.343,0,0,1-1.543-.184,4.665,4.665,0,0,1-1.139-.625,9.7,9.7,0,0,1-1.323-1.212l-.331-.331-.11-.11.11.11.331.331a10.468,10.468,0,0,0,1.323,1.176,4.628,4.628,0,0,0,1.139.588,3.269,3.269,0,0,0,1.506.184,6.373,6.373,0,0,0,3.233-1.727c2.057-1.874,4.519-4.078,7.384-6.429s6.025-4.849,9.442-7.421l2.535-1.874a9.581,9.581,0,0,1,1.286-.882,3.711,3.711,0,0,1,1.506-.4,4,4,0,0,1,2.792.918,4.188,4.188,0,0,1,.919,1.139,5.217,5.217,0,0,1,.441,1.359c.845,3.6,1.4,6.87,1.837,9.625s.7,5,.882,6.539l.184,1.8v.478a.968.968,0,0,1,0,.147" transform="translate(-238.434 -196.037)" fill="#263238"/>
      <path id="Path_933" data-name="Path 933" d="M472.779,369.1l-.367.073-1.029.073-3.343.184-3.343.147h-1.4l.367-.073.992-.11L468,369.21l3.343-.11h1.4" transform="translate(-293.092 -233.499)" fill="#263238"/>
      <path id="Path_934" data-name="Path 934" d="M457.994,320.2a12.566,12.566,0,0,1-3.2,3.49c-.037-.037.735-.772,1.616-1.727s1.543-1.8,1.58-1.763" transform="translate(-287.713 -202.562)" fill="#263238"/>
      <path id="Path_935" data-name="Path 935" d="M459,323.2q-1.55,1.068-3.2,1.984A11.976,11.976,0,0,1,459,323.2" transform="translate(-288.348 -204.462)" fill="#263238"/>
      <path id="Path_936" data-name="Path 936" d="M511.249,368.32h-.882l-2.351-.22-7.752-.808c-3.013-.331-5.768-.661-7.752-.772-.992-.037-1.8-.037-2.351-.037H489.5l.625-.073a22.073,22.073,0,0,1,2.351-.037c1.984.073,4.739.4,7.752.7l7.752.882,2.351.294.625.073h.22" transform="translate(-309.667 -231.764)" fill="#455a64"/>
      <path id="Path_937" data-name="Path 937" d="M547.49,368.792c-.037,0,.11-1.837.367-4.115s.514-4.115.551-4.078-.11,1.837-.367,4.115-.514,4.115-.551,4.078" transform="translate(-346.349 -228.121)" fill="#455a64"/>
    </g>
  </g>
</svg>
