<svg xmlns="http://www.w3.org/2000/svg" viewBox="0 0 328.48 575.95"><defs><style>.cls-1{fill:#1a5a6d;}.cls-2{fill:#321a14;}.cls-3{fill:#1f6b82;}.cls-4,.cls-9{fill:#1d1d1b;}.cls-4{opacity:0.2;}.cls-5{fill:#c71e26;}.cls-6{fill:#ededed;}.cls-7{fill:#f2c194;}.cls-8{fill:#ffcfa1;}.cls-10{fill:#878787;}.cls-11{fill:#b2b2b2;}</style></defs><title>Rap CH1</title><g id="Layer_2" data-name="Layer 2"><g id="Layer_1-2" data-name="Layer 1"><path class="cls-1" d="M217.89,345.24c-.14,1.56-1.44,5.81-3.5,12-.22.67-.46,1.37-.69,2.09-.71,2.12-1.49,4.44-2.34,6.93-1.28,3.79-2.7,8-4.21,12.48-5,15-11.12,33.53-16.55,52.63h0c-2.89,10.15-5.59,20.47-7.86,30.5a292.17,292.17,0,0,0-5.62,31.94c-19.45-.41-42.62-4.56-69.71-15.63q-4.64-1.87-9.44-4.06l2.55-8.94L123,386.64l10.95-38.34,6.72-.24,48.7-1.78Z"/><path class="cls-1" d="M163.27,567.47l.07,0-.06.07Z"/><path class="cls-2" d="M163.34,567.43l-.06.07v0Z"/><path class="cls-3" d="M288.35,353.8a65.86,65.86,0,0,1-1.06,8.11c-.06.33-.13.65-.19,1s-.1.5-.16.75c-.11.5-.22,1-.34,1.47-.08.33-.16.67-.25,1s-.18.68-.27,1a4.77,4.77,0,0,1-.15.54c-.14.5-.29,1-.44,1.5-.07.27-.15.53-.24.79l-.57,1.71q-1.21,3.53-2.76,7c-.13.29-.26.58-.4.86a9.37,9.37,0,0,1-.4.85c-.27.57-.55,1.13-.83,1.69s-.58,1.12-.88,1.68l-.81,1.5c-.19.35-.39.7-.6,1s-.29.52-.45.78c-.32.55-.65,1.09-1,1.63s-.67,1.09-1,1.63c-.69,1.08-1.41,2.15-2.14,3.21l-1,1.35q-.65.92-1.32,1.8L270,398.18c-.4.51-.8,1-1.21,1.54-.82,1-1.66,2-2.51,3-.42.5-.85,1-1.3,1.5s-.87,1-1.32,1.49-.89,1-1.35,1.47-.88.95-1.33,1.42-1,1.07-1.54,1.59l-1.31,1.32c-.95,1-1.92,1.9-2.9,2.82l-1.48,1.38c-.43.41-.87.81-1.31,1.21l-.41.38-1.49,1.32-1.44,1.26c-1.5,1.31-3,2.6-4.58,3.85l-1.4,1.14c-1.13.91-2.28,1.81-3.43,2.7L238,428.83c-.55.43-1.11.85-1.68,1.27l-1.6,1.17c-.86.64-1.72,1.26-2.58,1.87l-2.34,1.65c-.83.58-1.65,1.15-2.48,1.71l-2.49,1.67c-.43.29-.86.58-1.3.86q-1.08.72-2.16,1.41c-1.11.72-2.22,1.43-3.33,2.12L215.82,444q-3.93,2.43-7.81,4.68c-1.11.65-2.21,1.28-3.3,1.9l-1.64.93c-.54.31-1.08.62-1.62.91l-1.62.9-1.61.88c-1.06.59-2.12,1.16-3.17,1.72.89,1.21,1.78,2.42,2.65,3.64.52.71,1,1.43,1.54,2.14l1.8,2.53,1.46,2.08c.49.69,1,1.38,1.44,2.08q7.19,10.39,13.51,20.78-3.72,1-7.75,1.82c-1.26.26-2.54.5-3.85.73a146.28,146.28,0,0,1-28.73,2.17c-19.45-.41-42.62-4.56-69.71-15.63q-3.63-6.41-6.89-13a173.73,173.73,0,0,1-12-31.26,23.83,23.83,0,0,1,5.81-22.69A220.84,220.84,0,0,1,123,386.64q9.12-6.7,19.3-13.2h0l.06,0q7.18-4.61,14.79-9.11s0,0,0,0a.25.25,0,0,1,.08,0h0l.17-.1c10.17-6,20.86-12,31.91-17.83l2-1h97.08A66,66,0,0,1,288.35,353.8Z"/><path class="cls-3" d="M250.69,576h-.06q-.3-1.4-.66-2.82c-.08-.34-.17-.68-.26-1s-.22-.87-.35-1.31l.89,1.82C250.4,573.71,250.54,574.85,250.69,576Z"/><path class="cls-4" d="M288.35,353.8a65.86,65.86,0,0,1-1.06,8.11c-.06.33-.13.65-.19,1s-.1.5-.16.75c-.11.5-.22,1-.34,1.47-.08.33-.16.67-.25,1s-.18.68-.27,1a4.77,4.77,0,0,1-.15.54c-.14.5-.29,1-.44,1.5-.07.27-.15.53-.24.79l-.57,1.71q-1.2,3.53-2.76,7c-.13.29-.26.58-.4.86a9.37,9.37,0,0,1-.4.85c-.27.57-.55,1.13-.83,1.69s-.58,1.12-.88,1.68l-.81,1.5c-.19.35-.39.7-.6,1s-.29.52-.45.78c-.32.55-.65,1.09-1,1.63s-.67,1.09-1,1.63c-.69,1.08-1.41,2.15-2.14,3.21l-1,1.35q-.65.92-1.32,1.8L270,398.18c-.4.51-.8,1-1.21,1.54-.82,1-1.66,2-2.51,3-.42.5-.85,1-1.3,1.5s-.87,1-1.32,1.49-.89,1-1.35,1.47-.88.95-1.33,1.42-1,1.07-1.54,1.59l-1.31,1.32c-.95,1-1.92,1.9-2.9,2.82l-1.48,1.38c-.43.41-.87.81-1.31,1.21l-.41.38-1.49,1.32-1.44,1.26c-1.5,1.31-3,2.6-4.58,3.85l-1.4,1.14c-1.13.91-2.28,1.81-3.43,2.7L238,428.83c-.55.43-1.11.85-1.68,1.27l-1.6,1.17c-.86.64-1.72,1.26-2.58,1.87l-2.34,1.65c-.83.58-1.65,1.15-2.48,1.71l-2.49,1.67c-.43.29-.86.58-1.3.86q-1.08.72-2.16,1.41c-1.11.72-2.22,1.43-3.33,2.12L215.82,444q-3.93,2.43-7.81,4.68c-1.11.65-2.21,1.28-3.3,1.9l-1.64.93c-.54.31-1.08.62-1.62.91l-1.62.9-1.61.88c-1.06.59-2.12,1.16-3.17,1.72.89,1.21,1.78,2.42,2.65,3.64.52.71,1,1.43,1.54,2.14l1.8,2.53,1.46,2.08c.49.69,1,1.38,1.44,2.08q7.19,10.39,13.51,20.78-3.72,1-7.75,1.82c-1.26.26-2.54.5-3.85.73a232.57,232.57,0,0,0-23.11-29.77c-8.79-9.42-18-17-27.63-22.29a163,163,0,0,0,35.49-8.21h0c20.09-7.24,36.8-18.54,50-34.07-8.56-6.94-19.91-13.07-33.43-18.56-13.82-5.62-29.91-10.57-47.62-15l.24,0,7.31-.59h.15c4.52-.38,10.83-.9,18.31-1.5h0l28.14-2.24C238.76,357.4,267.53,355.2,288.35,353.8Z"/><path class="cls-5" d="M301.18,369.14a161.31,161.31,0,0,1-18.31,2.69,181,181,0,0,1-28.87.11c-29.86-2.17-56.45-10-85.1-8.9-3.12.11-6.21.37-9.37.7C149.3,365,133.93,382.31,123,386.65L117.05,281.4a177.49,177.49,0,0,0-1.14-20.08c0-.55-.07-1.06-.14-1.62-2.47-22.13-8.13-44.9-13.17-67.62-1.77-8-3.49-16-4.93-24-2.68-14.67-4.56-29.2-4.56-43.43l49.57-27.21c30.53-4.71,84.47,3.38,112.57,8,12.28,5.33,21.84,17.21,29.13,33.24C311.33,197.89,307.87,314.17,301.18,369.14Z"/><path class="cls-5" d="M95.86,100.13a119.46,119.46,0,0,0,8.41,25.15,102.36,102.36,0,0,0,10.8,18.33c15.13,20.42,36,31.56,56,27.21,19-4.12,32.93-21.27,38.84-44.29A102.59,102.59,0,0,0,213,102.37a119.8,119.8,0,0,0-2.78-27.06c-.28-1.29-.55-2.55-.88-3.83-.17-.68-.36-1.35-.53-2-11-41-41.12-69.13-70.27-65.42-.38,0-.75.1-1.15.16-.74.09-1.44.22-2.12.37l-.26.06a22.81,22.81,0,0,0-2.3.59c-.43.11-.8.22-1.16.34a10,10,0,0,0-1.05.36c-27.07,9.24-42.29,45.91-36.08,86.55.18,1.27.39,2.53.62,3.81S95.58,98.84,95.86,100.13Z"/><path class="cls-2" d="M100.84,89.21a105.82,105.82,0,0,0,6.3,19.73,92.1,92.1,0,0,0,6,11.82C146.39,161.5,188,159,203,102.21a95.17,95.17,0,0,0,.69-14.15,108.11,108.11,0,0,0-2.46-20.63A104.74,104.74,0,0,0,198,55.91c-11.42-34.33-38-56.7-63-51.28S95.11,41.44,99,77.41A105.16,105.16,0,0,0,100.84,89.21Z"/><path class="cls-6" d="M203.51,101c-15.77,58.44-55.67,61-90.37,19.73l41.51-18.92Z"/><path class="cls-7" d="M160.65,134l.49-.11a25,25,0,0,0,19.1-29.68L176,84.61,126.72,95.3,131,114.88A25,25,0,0,0,160.65,134Z"/><path class="cls-8" d="M137.23,13.53c-21,4.47-34.74,21.9-27.78,46.44a65.23,65.23,0,0,0,2.93,8.31c-5.25-1.63-8.34,3.87-5.16,10.59,2.24,4.73,6.12,10.9,9.1,11.31,3.58.49,4.14-1.79,4.31-1.9,3,6.87,5,13.16,8.42,16.41a124.52,124.52,0,0,0,9.82,8.83c6.19,4.72,10.59,5.27,20,3.28s13.35-4.28,17.12-11.1a123,123,0,0,0,5.43-12c1.79-4.34,1.08-10.9,1.09-18.41.2,0,1.64,1.89,4.71,0,2.57-1.57,3.63-8.78,3.78-14,.2-7.43-4.85-11.22-9-7.62a65.39,65.39,0,0,0-.67-8.78C177.85,19.58,158.26,9.16,137.23,13.53Z"/><path class="cls-9" d="M109.62,68.09c-7.34-18.65-7.07-29.65-1.05-40.79C119.34,7.39,156.32,2.42,169,14.59c9.15,8.76,14.68,17.73,15.47,37.75a8.67,8.67,0,0,0-3,5.27l-5.16,1.12c-1-42.19-18.48-39.53-23.73-39.48-4.62,0-22.77,3.85-27,5.68-4.84,2.07-22,6.72-5.68,46l-5,1.1A8.76,8.76,0,0,0,109.62,68.09Z"/><path class="cls-5" d="M94.3,92.92c.24,1.11.51,2.25.77,3.36a106.12,106.12,0,0,0,3.64,11.82c-.08-1.33-.18-2.64-.2-3.89-.66-19.7,7.4-32,13.71-36.32,10-8.42,24.69-12.1,37.49-14.65,19.68-3.5,38.28-4,50.9,11.71a57,57,0,0,1,8.44,14.11c.69,1.49,1.3,3.06,1.91,4.69a104.89,104.89,0,0,0-1.59-12.27c-.15-.93-.35-1.85-.56-2.79l-.12-.59c-9.54-43.93-42.87-74-74.44-67.13-30.93,6.71-48.74,46.3-40.53,89.17C93.91,91.05,94.09,92,94.3,92.92Z"/><path class="cls-4" d="M100.84,89.21a105.82,105.82,0,0,0,6.3,19.73C113.84,91.06,131,84.4,151.29,80s38.79-5.46,52.37,8.06a108.11,108.11,0,0,0-2.46-20.63c-.18-.82-.36-1.64-.58-2.46-13.76-16.49-33.32-15.59-55-10.9S106,66,100.33,86.68C100.49,87.52,100.66,88.37,100.84,89.21Z"/><path class="cls-4" d="M159.42,363.74C149.3,365,133.93,382.31,123,386.65L117.05,281.4a177.49,177.49,0,0,0-1.14-20.08l1.25.55c1.11.37,2.1.78,3,1.18,8.64,3.71,10.26,8,12.5,10.74,2.21,2.61,5,3.9,14.67,2.13,4.93-.88,9.38,4.52,1,8.16-5.52,2.36-12.1,1.18-17,.3,0,0-3.13.37-.59,12,1.88,8.46,6.66,17.8,6.7,24.93C137.66,371.44,159.42,363.74,159.42,363.74Z"/><path class="cls-8" d="M143.79,279.49c-5.52,2.35-12.1,1.17-17,.29,0,0-3.12.37-.59,12,3.16,14.53,11.51,32.1,4.27,35-5,2-3.16-8.53-11.22-27.29-.73.3-.62,0-1.14.3,1.55,7.87,6.18,32-1.28,33.06-5.12.07-1.7-14.93-5.45-31.92a10.74,10.74,0,0,1-3.09,0c-.29,22.4-3.67,30.38-9.15,29.68-4.71-.59,1.61-17.73,2-30.3a4.69,4.69,0,0,1-1.4-.3c-.4,2.28-4.56,24.49-11,21.81-4-1.69,4.41-18.43,4.45-25.45-4.53-13.2-2.1-23.42-1.44-33L75.5,257.46l11.77-11.84,25.33,11.66c1.11.36,2.1.77,3,1.17,8.64,3.72,10.26,8,12.5,10.74s5,3.9,14.67,2.13C147.72,270.44,152.17,275.85,143.79,279.49Z"/><path class="cls-5" d="M102.6,192.08c-11.4,4.7-22.32,9.15-32.25,13.23l42.8,51.38a10.67,10.67,0,0,0-1.1.14c-12.24,1.95-17.39,18.47-28.39,25.89C49.24,270.81,5,236.76,0,209.18,3.38,181.6,49.83,145,93.11,124.63l47.55,51.85c-8.27,3.42-16.47,6.77-24.45,10C111.57,188.4,107.05,190.27,102.6,192.08Z"/><path class="cls-4" d="M301.18,369.14a161.31,161.31,0,0,1-18.31,2.69,181,181,0,0,1-28.87.11c-29.86-2.17-56.45-10-85.1-8.9,119-7.83,130.88-54.87,106.61-83.37-49.57-18.86-66.23-30.67-72-53.06-9.86,7.87-22.4,6.47-29.94-6.73l-4-28.83L213,180.64,282,197.22,243,139.93l41.38-1.29C311.33,197.89,307.87,314.17,301.18,369.14Z"/><path class="cls-7" d="M171.09,165.42c.6,4.4,4.11,7.67,7.46,10.65l18.54,16.53c3.16-6.29,5.73-12.15,8.89-18.45-9.24-4.35-20.72-4.37-26.54-12.08-.95-1.26-2-2.73-3.75-2.87a4.46,4.46,0,0,0-3.86,2.13A6.11,6.11,0,0,0,171.09,165.42Z"/><path class="cls-2" d="M154.36,141.32a16,16,0,1,0,11.43-19.45A15.95,15.95,0,0,0,154.36,141.32Z"/><polygon class="cls-10" points="162.32 157.35 186.09 151.18 185.18 141.88 158.59 148.79 162.32 157.35"/><polygon class="cls-11" points="171.88 171.29 184.52 168.01 184.71 151.53 163.69 156.99 171.88 171.29"/><polygon class="cls-10" points="185.91 226.4 198.55 223.12 184.52 168.01 171.88 171.29 185.91 226.4"/><path class="cls-7" d="M187,189.62a5.5,5.5,0,0,0-6-5l-16.34,1.63a5.52,5.52,0,0,0,1.06,11l16.34-1.62A5.47,5.47,0,0,0,187,189.62Z"/><path class="cls-7" d="M188.12,178.48a5.5,5.5,0,0,0-6-5l-8.77.2c-3,.29-13,.92-12.49,7.39a5.49,5.49,0,0,0,6,5l16.34-1.62A5.47,5.47,0,0,0,188.12,178.48Z"/><path class="cls-7" d="M192.11,198.9a5.5,5.5,0,0,0-6.21-4.76L169,196.56a5.53,5.53,0,0,0,1.56,10.95l16.94-2.41A5.48,5.48,0,0,0,192.11,198.9Z"/><path class="cls-7" d="M188.09,209.87a4.89,4.89,0,0,0-5.52-4.23l-10.12,1.06a4.91,4.91,0,0,0,1.39,9.73l8.71,0C185.2,216.1,188.48,212.53,188.09,209.87Z"/><path class="cls-8" d="M198.49,172.63l-11.17.42-13.23.51a5.53,5.53,0,0,0,.42,11.06,5.53,5.53,0,0,0,.42,11.06l1.65-.06a5.53,5.53,0,0,0,.43,11.06l1.78-.07a4.91,4.91,0,0,0,.37,9.82l7.8-.29,13.18-.51a16.12,16.12,0,0,0,15.49-16.72l-.41-10.79A16.12,16.12,0,0,0,198.49,172.63Z"/><path class="cls-5" d="M255.24,105.4c61.51,21.31,76,114.44,72.84,142-11.31,25.66-84.87-6.13-110.19-10.56-9.94-14.85-8.08-36.28-8.59-61l54,10.22c-18.12-13-37.14-28.63-43-55.68Z"/><polygon class="cls-4" points="263.32 186.1 287.76 197.24 241.79 153.28 249.23 175.24 210.96 176.2 263.32 186.1"/><path class="cls-4" d="M128.19,269.23c-2.31-2.8-3.93-7.06-12.57-10.78-2.54-21.73-8.09-44.09-13-66.37-11.4,4.7-22.32,9.15-32.25,13.23l42.8,51.38a10.67,10.67,0,0,0-1.1.14L46.89,203.7C70.5,194.1,89.69,183,97.64,168l18.57,18.49,6.06,6.07C118.27,213.44,121.58,246.94,128.19,269.23Z"/></g></g></svg>