<svg xmlns="http://www.w3.org/2000/svg" xmlns:xlink="http://www.w3.org/1999/xlink" width="232.592" height="512.262" viewBox="0 0 232.592 512.262">
  <defs>
    <clipPath id="clip-path">
      <rect id="Rectangle_102" data-name="Rectangle 102" width="232.592" height="512.262" fill="none"/>
    </clipPath>
    <clipPath id="clip-path-2">
      <rect id="Rectangle_92" data-name="Rectangle 92" width="48.499" height="167.309" fill="none"/>
    </clipPath>
    <clipPath id="clip-path-3">
      <rect id="Rectangle_93" data-name="Rectangle 93" width="132.547" height="187.851" fill="none"/>
    </clipPath>
    <clipPath id="clip-path-4">
      <rect id="Rectangle_95" data-name="Rectangle 95" width="67.035" height="85.064" fill="none"/>
    </clipPath>
    <clipPath id="clip-path-5">
      <path id="Path_1270" data-name="Path 1270" d="M47.4,58.016l3.555,3.555.762-3.555L47.654,57Z" transform="translate(-47.4 -57)" fill="none"/>
    </clipPath>
    <clipPath id="clip-path-6">
      <path id="Path_1272" data-name="Path 1272" d="M47,57.654l1.27,4.317,3.3-1.016L48.016,57.4Z" transform="translate(-47 -57.4)" fill="none"/>
    </clipPath>
    <clipPath id="clip-path-7">
      <path id="Path_1274" data-name="Path 1274" d="M49.385,57.608,47.1,62.686l5.078-1.524L50.909,57.1Z" transform="translate(-47.1 -57.1)" fill="none"/>
    </clipPath>
    <clipPath id="clip-path-8">
      <path id="Path_1276" data-name="Path 1276" d="M46.3,58.477,48.331,63.3l2.285-5.078L50.109,56.7Z" transform="translate(-46.3 -56.7)" fill="none"/>
    </clipPath>
    <clipPath id="clip-path-9">
      <path id="Path_1278" data-name="Path 1278" d="M38.1,24.908v3.3h4.317V27.7h0l-4.063-3.3v.508" transform="translate(-38.1 -24.4)" fill="none"/>
    </clipPath>
    <clipPath id="clip-path-10">
      <path id="Path_1280" data-name="Path 1280" d="M39.877,24.508l-1.27.508H38.1l4.063,3.047h.762L41.655,24l-1.777.508" transform="translate(-38.1 -24)" fill="none"/>
    </clipPath>
    <clipPath id="clip-path-11">
      <rect id="Rectangle_96" data-name="Rectangle 96" width="33.772" height="35.371" fill="none"/>
    </clipPath>
    <clipPath id="clip-path-12">
      <rect id="Rectangle_98" data-name="Rectangle 98" width="13.966" height="17.444" fill="none"/>
    </clipPath>
    <clipPath id="clip-path-13">
      <rect id="Rectangle_99" data-name="Rectangle 99" width="61.703" height="13.534" fill="none"/>
    </clipPath>
    <clipPath id="clip-path-14">
      <rect id="Rectangle_100" data-name="Rectangle 100" width="0.254" height="0.051" fill="none"/>
    </clipPath>
    <clipPath id="clip-path-15">
      <rect id="Rectangle_101" data-name="Rectangle 101" width="99.537" height="182.722" fill="none"/>
    </clipPath>
  </defs>
  <g id="Rap_Character_2" data-name="Rap Character 2" clip-path="url(#clip-path)">
    <g id="Group_128" data-name="Group 128" transform="translate(-0.036 58.652)">
      <path id="Path_1219" data-name="Path 1219" d="M119.358,229.569H49.022A50.786,50.786,0,0,1,48.006,218.4a70.845,70.845,0,0,1,3.809-23.361c.508,0,27.931-11.934,27.931-11.427A21.329,21.329,0,0,0,81.27,189.7c3.555,8.125,6.856,11.934,13.966,13.458,16.251,3.3,22.853,10.919,24.376,18.536a20.568,20.568,0,0,1,0,7.872" transform="translate(73.913 223.939)" fill="#3c3c3b"/>
      <path id="Path_1220" data-name="Path 1220" d="M64,186.1l-12.188,5.078a70.845,70.845,0,0,0-3.809,23.361,50.785,50.785,0,0,0,1.016,11.173h61.449C107.17,202.351,69.336,211.746,64,186.1" transform="translate(73.913 227.796)" fill="#706f6f"/>
      <path id="Path_1221" data-name="Path 1221" d="M77.162,194.893l-5.84-2.793L50.5,216.73h8.379Z" transform="translate(77.767 237.032)" fill="#fff"/>
      <path id="Path_1222" data-name="Path 1222" d="M73.1,194.154,56.6,213.706h7.618l14.22-17.774L73.1,193.9" transform="translate(87.156 239.802)" fill="#fff"/>
      <path id="Path_1223" data-name="Path 1223" d="M121.159,208.473H48.03a28.947,28.947,0,0,1,0-11.173c26.154.508,46.976,6.348,72.876,4.063a16.759,16.759,0,0,1,.254,7.11" transform="translate(73.127 245.036)" fill="#c6c6c6"/>
      <path id="Path_1224" data-name="Path 1224" d="M72.012,229.569H1.422A50.785,50.785,0,0,1,.406,218.4a70.844,70.844,0,0,1,3.809-23.361c.508,0,27.931-11.934,27.931-11.427A21.33,21.33,0,0,0,33.67,189.7c3.555,8.125,6.856,11.934,13.966,13.458,16.251,3.3,22.853,10.919,24.376,18.536a20.567,20.567,0,0,1,0,7.872" transform="translate(0.646 223.939)" fill="#3c3c3b"/>
      <path id="Path_1225" data-name="Path 1225" d="M16.5,186.1,4.315,191.178A70.844,70.844,0,0,0,.506,214.539a50.783,50.783,0,0,0,1.016,11.173H62.971C59.67,202.351,21.836,211.746,16.5,186.1" transform="translate(0.8 227.796)" fill="#706f6f"/>
      <path id="Path_1226" data-name="Path 1226" d="M29.662,194.893l-5.84-2.793L3,216.73h8.126Z" transform="translate(4.654 237.032)" fill="#fff"/>
      <path id="Path_1227" data-name="Path 1227" d="M25.6,194.154,9.1,213.706h7.618l14.22-17.774L25.6,193.9" transform="translate(14.043 239.802)" fill="#fff"/>
      <path id="Path_1228" data-name="Path 1228" d="M73.659,208.473H.53a28.947,28.947,0,0,1,0-11.173c26.154.508,46.976,6.348,72.876,4.063a16.759,16.759,0,0,1,.254,7.11" transform="translate(0.014 245.036)" fill="#c6c6c6"/>
      <path id="Path_1229" data-name="Path 1229" d="M122.515,316.626c-12.7,5.332-21.076,6.856-30.978,10.157-3.3-8.887-6.094-17.267-8.633-24.884-12.442-38.342-16.251-65.258-7.11-87.857A240.722,240.722,0,0,1,53.7,175.953c-4.317-8.887-8.633-18.536-13.2-28.693l-1.27-2.793-9.4-22.091L21.2,101.3l66.528,6.094,7.618.762,2.793,14.474,5.332,27.17,11.68,58.656c6.856,43.421,11.426,82.779,6.856,108.171" transform="translate(32.668 97.271)" fill="#3199cc"/>
      <g id="Group_123" data-name="Group 123" transform="translate(72.15 231.581)" opacity="0.2">
        <g id="Group_122" data-name="Group 122" clip-path="url(#clip-path-2)">
          <path id="Path_1230" data-name="Path 1230" d="M71.721,281.634c-12.442-38.342-16.251-65.258-7.11-87.857a240.718,240.718,0,0,1-21.837-37.834c-4.317-8.887-8.633-18.536-13.2-28.693l-1.27-2.793A225.738,225.738,0,0,1,54.708,114.3c2.793,28.693,6.094,53.831,22.345,75.161a337.461,337.461,0,0,0-5.332,92.174" transform="translate(-28.554 -114.3)" fill="#1d1d1b"/>
        </g>
      </g>
      <path id="Path_1231" data-name="Path 1231" d="M122.113,106.557l-3.809,8.379-6.856,14.981-2.285,4.825c-3.047,6.348-6.6,12.7-10.665,19.552s-6.6,10.157-10.411,15.743L84.025,183.5,71.582,226.154C61.933,273.13,38.319,299.537,33.24,326.707c-15.489,9.9-21.583-.508-31.74,5.332,0-5.078,0-10.157.254-14.981.762-46.468,3.809-76.684,22.853-102.838-1.524-18.536-2.285-36.819-2.539-53.578,0-6.856,0-13.2.254-19.552s.254-7.618.508-11.426A180.287,180.287,0,0,1,27.4,96.4l6.094.508Z" transform="translate(2.345 89.729)" fill="#36a9e1"/>
      <g id="Group_125" data-name="Group 125" transform="translate(4.099 219.9)" opacity="0.2">
        <g id="Group_124" data-name="Group 124" clip-path="url(#clip-path-3)">
          <path id="Path_1232" data-name="Path 1232" d="M128.661,109.7H22.522q-.254,5.586-.508,11.427t0,4.571v14.727c.254,16.759,1.016,34.787,2.539,53.578C5.509,220.156,2.462,250.373,1.7,296.84v.762c9.141-45.452,17.521-92.174,40.627-103.346-5.84-20.06-11.426-40.12-8.633-55.609q18.79-2.793,36.819-4.063,13.966-.762,27.424-.508a283.389,283.389,0,0,1,35.8,2.793Z" transform="translate(-1.446 -109.7)" fill="#1d1d1b"/>
        </g>
      </g>
      <path id="Path_1233" data-name="Path 1233" d="M128.988,102.347h0c-3.3,23.615-11.68,41.389-26.408,45.706-10.919-3.047-22.853-17.267-32.5-35.3a167.091,167.091,0,0,1-7.11-15.235C55.859,80,51.288,61.211,52.05,46.23c0-1.016.254-2.031.254-3.047l1.27-2.285c8.887-13.458,24.63-9.9,34.533,14.727A196.281,196.281,0,0,1,98.518,90.158a25.309,25.309,0,0,1,.762,5.078l16.251-33.518h14.22a201.36,201.36,0,0,1-1.016,40.12" transform="translate(80.026 -7.63)" fill="#7f572b"/>
      <path id="Path_1234" data-name="Path 1234" d="M83.433,71.066,94.86,73.6l2.793-7.364c6.094-5.332,6.856-16,6.856-16C96.637,46.435,90.543,38.056,83.687,31.2a64.5,64.5,0,0,1-8.379,15.235L74.8,47.7c0,.508.508,9.4.762,10.157a9.9,9.9,0,0,0,4.317,6.6l3.047.762Z" transform="translate(115.17 -10.629)" fill="#664622"/>
      <path id="Path_1235" data-name="Path 1235" d="M99.682,89.637l-1.016,1.016a72.112,72.112,0,0,1-13.2,9.9,56.879,56.879,0,0,0-15.489,12.7L67.941,116.3a120.866,120.866,0,0,1-5.84-13.2c-7.11-18.79-10.919-40.628-9.9-56.371,0-1.016.254-2.031.254-3.047l1.27-2.285C62.609,27.681,78.86,29.458,88.509,53.834A187.392,187.392,0,0,1,99.682,89.384" transform="translate(80.131 -8.125)" fill="#ededed"/>
      <path id="Path_1236" data-name="Path 1236" d="M88.646,30.868a11.173,11.173,0,1,1-8.052-3.246,11.173,11.173,0,0,1,8.052,3.246" transform="translate(107.164 -16.137)" fill="#321a14"/>
      <path id="Path_1237" data-name="Path 1237" d="M90.521,36.332,78.332,48.775,73,44.966,86.458,31Z" transform="translate(112.399 -10.936)" fill="#878787"/>
      <path id="Path_1238" data-name="Path 1238" d="M91.9,43.457l-6.348,6.6L75.4,44.473,86.065,33.3Z" transform="translate(116.093 -7.396)" fill="#b2b2b2"/>
      <rect id="Rectangle_94" data-name="Rectangle 94" width="9.141" height="34.279" transform="matrix(0.695, -0.719, 0.719, 0.695, 201.648, 42.526)" fill="#878787"/>
      <path id="Path_1239" data-name="Path 1239" d="M97.653,62.547c-3.3.508-7.11,2.031-9.4.508,2.031-10.665-5.586-14.727-5.586-14.727v-1.27a2.031,2.031,0,0,1,.508-1.524l2.793-3.3c5.078-5.84,1.27-8.633,1.27-8.633a36.222,36.222,0,0,0-5.078,2.285l-2.793,2.539-3.809,3.809a2.539,2.539,0,0,0-.762,1.524c0,.508.508,9.4.762,10.157a9.9,9.9,0,0,0,4.317,6.6l1.524.762v6.6l13.966,2.793Z" transform="translate(115.17 -6.934)" fill="#7f572b"/>
      <path id="Path_1240" data-name="Path 1240" d="M85.393,37.8a3.555,3.555,0,0,1-4.063,2.793h-.508a3.555,3.555,0,0,1-2.793-4.063l.508-3.555a3.3,3.3,0,0,1,3.809-2.539h1.27A3.047,3.047,0,0,1,85.9,33.987Z" transform="translate(120.066 -11.892)" fill="#7f572b"/>
      <path id="Path_1241" data-name="Path 1241" d="M85,45.612a3.555,3.555,0,0,1-2.031,1.524,3.047,3.047,0,0,1-2.539-.508,3.3,3.3,0,0,1-1.016-4.571l4.063-8.126a3.3,3.3,0,0,1,4.571-1.016l1.016.762a3.047,3.047,0,0,1,1.016,4.063Z" transform="translate(121.472 -8.79)" fill="#7f572b"/>
      <path id="Path_1242" data-name="Path 1242" d="M83.108,47.192a2.539,2.539,0,0,1-2.031-1.777,3.555,3.555,0,0,1,.254-2.539l3.3-6.094a3.3,3.3,0,0,1,4.317-1.27l1.27.508a3.047,3.047,0,0,1,1.27,4.063s-4.063,7.364-8.125,7.11" transform="translate(124.636 -4.529)" fill="#7f572b"/>
      <path id="Path_1243" data-name="Path 1243" d="M84.668,47.012c-1.524-.254-1.777-2.793-1.016-4.063l2.285-4.317a2.539,2.539,0,0,1,3.555-1.016l1.016.508a2.285,2.285,0,0,1,1.27,3.3s-3.555,6.348-6.6,5.84" transform="translate(128.155 -1.302)" fill="#7f572b"/>
      <g id="Group_127" data-name="Group 127" transform="translate(142.233 55.359)" opacity="0.2">
        <g id="Group_126" data-name="Group 126" clip-path="url(#clip-path-4)">
          <path id="Path_1244" data-name="Path 1244" d="M122.781,83.75v.508h0c-3.3,23.615-11.68,41.389-26.408,45.706-10.919-3.047-22.853-17.267-32.5-35.3L61.84,97.716A120.356,120.356,0,0,1,56,84.512l1.016-5.078L63.364,44.9s7.364,52.816,30.217,69.321c13.2,0,22.091-13.2,29.455-30.725" transform="translate(-56 -44.9)" fill="#1d1d1b"/>
        </g>
      </g>
      <path id="Path_1245" data-name="Path 1245" d="M115.008,138.506,10.9,115.653A115.534,115.534,0,0,1,14.963,92.8l90.9,9.649c5.332,11.173,6.856,23.869,8.887,36.311" transform="translate(16.814 84.187)" fill="#36a9e1"/>
      <path id="Path_1246" data-name="Path 1246" d="M151.441,49.429c0,41.9-17.013,86.841-16.759,127.977l-7.618,73.637A76.431,76.431,0,0,0,104.72,244.7c-22.6-3.047-43.167,4.825-66.528,6.6a109.183,109.183,0,0,1-20.314,0,96.235,96.235,0,0,1-12.95-2.285c-3.047-28.439,7.364-74.653,16-115.534L41.493,69.235l12.95-40.374c19.806-3.809,40.627-5.586,61.957-1.777Z" transform="translate(6.788 -20.224)" fill="#ededed"/>
      <path id="Path_1247" data-name="Path 1247" d="M58.194,93.749v1.777a1.27,1.27,0,0,1-.508,1.016l-1.524.508q-1.016,0-1.016-.762V94.257a16,16,0,0,1-8.126-2.031,6.6,6.6,0,0,1-3.809-5.332,6.348,6.348,0,0,1,.508-3.047,4.063,4.063,0,0,1,1.27-1.777,5.84,5.84,0,0,1,3.047-1.27h.508l2.793.508a2.031,2.031,0,0,1,1.27,1.777.762.762,0,0,1-.508.762l-1.27,1.27-.508,1.27v.508q.254,3.3,4.571,4.063l-.762-11.68-1.777-.508-2.031-.762-1.777-.762-2.285-1.27A6.6,6.6,0,0,1,43.466,70.9a7.364,7.364,0,0,1,2.285-6.348,12.95,12.95,0,0,1,7.11-3.809V59.216a1.016,1.016,0,0,1,.508-1.016h1.524q.762,0,1.016,1.016v1.777a15.236,15.236,0,0,1,6.6,1.27A4.317,4.317,0,0,1,65.3,65.31a3.555,3.555,0,0,1-.762,2.793A3.3,3.3,0,0,1,62,69.119H60.479q-.762-.381-.762-.762v-1.27a2.539,2.539,0,0,0-1.27-2.031l-2.285-.762.762,9.4h.254l1.27.508,2.031.762,2.539,1.27,2.539,1.777A8.125,8.125,0,0,1,68.1,83.338,8.887,8.887,0,0,1,65.558,90.7,12.95,12.95,0,0,1,58.194,94M49.814,67.849q.254,2.285,3.809,4.063l-.508-7.872a4.316,4.316,0,0,0-2.285,1.27,3.3,3.3,0,0,0-.762,1.777Zm7.364,12.188.762,9.9a5.078,5.078,0,0,0,2.539-2.031,4.571,4.571,0,0,0,.762-3.047,6.348,6.348,0,0,0-4.063-5.078" transform="translate(66.518 30.93)" fill="#f9b233"/>
      <path id="Path_1248" data-name="Path 1248" d="M48.218,25.087a2.031,2.031,0,0,1-1.777,2.285H42.886A2.094,2.094,0,1,1,41.87,23.31h3.809a2.031,2.031,0,0,1,2.285,2.031" transform="translate(62.02 -22.798)" fill="#f9b233"/>
      <path id="Path_1249" data-name="Path 1249" d="M51.774,26.149a2.285,2.285,0,0,1-2.539,1.777l-3.3-.508a2.162,2.162,0,1,1,.254-4.317L50,23.61a2.031,2.031,0,0,1,1.777,2.539" transform="translate(67.606 -23.099)" fill="#f9b233"/>
      <path id="Path_1250" data-name="Path 1250" d="M54.639,28.782a2.285,2.285,0,0,1-2.793.762l-1.524-.762L48.8,28.021a2.285,2.285,0,0,1-1.27-2.539,2.031,2.031,0,0,1,2.793-1.27l1.777.762,1.777,1.016a2.031,2.031,0,0,1,.762,3.047" transform="translate(73.12 -21.669)" fill="#f9b233"/>
      <path id="Path_1251" data-name="Path 1251" d="M56.415,32.287a2.031,2.031,0,0,1-2.793-.254l-2.285-2.285a2.285,2.285,0,0,1-.254-3.047,2.031,2.031,0,0,1,3.047-.254l2.539,2.793a2.031,2.031,0,0,1-.254,3.047" transform="translate(77.946 -18.825)" fill="#f9b233"/>
      <path id="Path_1252" data-name="Path 1252" d="M56.675,36.023a2.793,2.793,0,0,1-1.27-.762h-.762l-1.524-3.3a2.285,2.285,0,0,1,.762-2.793,2.031,2.031,0,0,1,2.793.762l1.777,3.3.508,1.27-.762,1.27a1.777,1.777,0,0,1-1.524.254" transform="translate(81.495 -14.182)" fill="#f9b233"/>
      <path id="Path_1253" data-name="Path 1253" d="M54.47,39.856a2.031,2.031,0,0,1-1.524-2.539l.762-3.555a2.094,2.094,0,0,1,4.063,1.016l-.762,3.555a2.031,2.031,0,0,1-2.539,1.524" transform="translate(81.414 -9.128)" fill="#f9b233"/>
      <path id="Path_1254" data-name="Path 1254" d="M53.67,43.456a2.031,2.031,0,0,1-1.524-2.539l.762-3.555a2.094,2.094,0,0,1,4.063,1.016l-.762,3.555a2.031,2.031,0,0,1-2.539,1.524" transform="translate(80.183 -3.586)" fill="#f9b233"/>
      <path id="Path_1255" data-name="Path 1255" d="M52.77,47.056a2.031,2.031,0,0,1-1.524-2.539l.762-3.555a2.094,2.094,0,1,1,4.063,1.016l-.762,3.555a2.031,2.031,0,0,1-2.539,1.524" transform="translate(78.798 1.955)" fill="#f9b233"/>
      <path id="Path_1256" data-name="Path 1256" d="M51.97,50.556a2.031,2.031,0,0,1-1.524-2.539l.762-3.555a2.094,2.094,0,0,1,4.063,1.016l-.762,3.555a2.031,2.031,0,0,1-2.539,1.524" transform="translate(77.566 7.342)" fill="#f9b233"/>
      <path id="Path_1257" data-name="Path 1257" d="M51.17,54.156a2.031,2.031,0,0,1-1.524-2.539l.762-3.555a2.094,2.094,0,0,1,4.063,1.016l-.762,3.555a2.031,2.031,0,0,1-2.539,1.524" transform="translate(76.335 12.883)" fill="#f9b233"/>
      <path id="Path_1258" data-name="Path 1258" d="M50.27,57.756a2.031,2.031,0,0,1-1.524-2.539l.762-3.555a2.094,2.094,0,1,1,4.063,1.016l-.762,3.555a2.031,2.031,0,0,1-2.539,1.524" transform="translate(74.95 18.424)" fill="#f9b233"/>
      <path id="Path_1259" data-name="Path 1259" d="M49.47,61.256a2.031,2.031,0,0,1-1.524-2.539l.762-3.555a2.094,2.094,0,0,1,4.063,1.016l-.762,3.555a2.031,2.031,0,0,1-2.539,1.524" transform="translate(73.718 23.812)" fill="#f9b233"/>
      <path id="Path_1260" data-name="Path 1260" d="M46.427,54.108a2.031,2.031,0,0,1,2.793,1.016l1.27,3.047a2.051,2.051,0,1,1-3.809,1.524l-1.27-3.3a2.031,2.031,0,0,1,1.27-2.793" transform="translate(69.651 23.85)" fill="#f9b233"/>
      <path id="Path_1261" data-name="Path 1261" d="M45.075,50.635a2.031,2.031,0,0,1,2.793,1.016l1.27,3.3a2.051,2.051,0,0,1-3.809,1.524l-1.27-3.3a2.031,2.031,0,0,1,1.27-2.539" transform="translate(67.703 18.944)" fill="#f9b233"/>
      <path id="Path_1262" data-name="Path 1262" d="M44.029,47.312a2.031,2.031,0,0,1,2.793,1.27l1.27,3.3a2.17,2.17,0,0,1-4.063,1.524l-1.27-3.3a2.031,2.031,0,0,1,1.27-2.539" transform="translate(65.702 13.887)" fill="#f9b233"/>
      <path id="Path_1263" data-name="Path 1263" d="M42.983,43.859a2.031,2.031,0,0,1,2.539,1.27l1.016,3.3a2.007,2.007,0,0,1-3.809,1.27l-1.27-3.3a2.031,2.031,0,0,1,1.27-2.539" transform="translate(63.701 8.707)" fill="#f9b233"/>
      <path id="Path_1264" data-name="Path 1264" d="M41.716,40.559a2.031,2.031,0,0,1,2.539,1.27l1.016,3.3a2.007,2.007,0,0,1-3.809,1.27l-1.016-3.3a2.031,2.031,0,0,1,1.524-2.539" transform="translate(62.174 3.627)" fill="#f9b233"/>
      <path id="Path_1265" data-name="Path 1265" d="M40.97,37.308a2.031,2.031,0,0,1,2.539,1.524l.508,1.524.508,1.524a2.094,2.094,0,1,1-4.063,1.016l-.508-1.777-.508-1.777A2.031,2.031,0,0,1,40.97,36.8" transform="translate(60.635 -2.009)" fill="#f9b233"/>
      <path id="Path_1266" data-name="Path 1266" d="M40.388,33.615a2.031,2.031,0,0,1,2.285,1.524l.762,3.3a2.094,2.094,0,1,1-4.063,1.016l-.762-3.3a2.031,2.031,0,0,1,1.777-2.285" transform="translate(59.439 -6.949)" fill="#f9b233"/>
      <path id="Path_1267" data-name="Path 1267" d="M40.142,30.111a2.031,2.031,0,0,1,2.285,1.777l.508,3.3a2.047,2.047,0,1,1-4.063.508l-.762-3.3a2.031,2.031,0,0,1,1.777-2.285" transform="translate(58.67 -12.332)" fill="#f9b233"/>
      <path id="Path_1268" data-name="Path 1268" d="M40.185,26.6a2.031,2.031,0,0,1,2.031,2.031v3.555a2.159,2.159,0,0,1-4.317,0V28.631A2.031,2.031,0,0,1,39.931,26.6" transform="translate(58.373 -17.709)" fill="#f9b233"/>
    </g>
    <g id="Group_129" data-name="Group 129" transform="translate(120.359 144.735)" clip-path="url(#clip-path-5)">
      <path id="Path_1269" data-name="Path 1269" d="M50.193,61.755H48.416L47.4,58.2h4.063l-.508,2.031h-.762Z" transform="translate(-47.4 -55.153)" fill="#f9b233"/>
    </g>
    <g id="Group_130" data-name="Group 130" transform="translate(119.343 145.751)" clip-path="url(#clip-path-6)">
      <path id="Path_1271" data-name="Path 1271" d="M47.2,58.4h.762l3.555.762h-.508l-2.031.508H47.2Z" transform="translate(-46.692 -55.861)" fill="#f9b233"/>
    </g>
    <g id="Group_131" data-name="Group 131" transform="translate(119.597 144.989)" clip-path="url(#clip-path-7)">
      <path id="Path_1273" data-name="Path 1273" d="M46.1,59.67h1.27l3.3-1.27h1.016l-3.047.762H46.1Z" transform="translate(-48.639 -55.099)" fill="#f9b233"/>
    </g>
    <g id="Group_132" data-name="Group 132" transform="translate(117.566 143.974)" clip-path="url(#clip-path-8)">
      <path id="Path_1275" data-name="Path 1275" d="M47.87,57h2.539l1.016,3.555H47.616L46.6,59.539h1.27Z" transform="translate(-45.838 -56.238)" fill="#f9b233"/>
    </g>
    <g id="Group_133" data-name="Group 133" transform="translate(96.744 61.957)" clip-path="url(#clip-path-9)">
      <path id="Path_1277" data-name="Path 1277" d="M38.762,23.6h2.031l1.016,3.3H38V24.616h.762Z" transform="translate(-38.254 -25.631)" fill="#f9b233"/>
    </g>
    <g id="Group_134" data-name="Group 134" transform="translate(96.744 60.941)" clip-path="url(#clip-path-10)">
      <path id="Path_1279" data-name="Path 1279" d="M42.263,25.008H38.2l1.016-.508h3.047Z" transform="translate(-37.946 -23.23)" fill="#f9b233"/>
    </g>
    <g id="Group_145" data-name="Group 145" transform="translate(4.317 0.248)">
      <path id="Path_1281" data-name="Path 1281" d="M40.2,45.11,60.509,12.1C72.7,17.686,85.9,34.7,88.949,35.461s-14.22,29.2-17.267,38.6C61.017,90.308,35.117,71.264,40.2,45.11" transform="translate(56.549 18.377)" fill="#7f572b"/>
      <g id="Group_136" data-name="Group 136" transform="translate(114.773 54.092)" opacity="0.2">
        <g id="Group_135" data-name="Group 135" clip-path="url(#clip-path-11)">
          <path id="Path_1282" data-name="Path 1282" d="M51.189,21.4c-9.9,14.22-1.016,28.439,10.665,34.787s13.966-5.332,18.79-13.966Z" transform="translate(-46.873 -21.4)" fill="#1d1d1b"/>
        </g>
      </g>
      <path id="Path_1283" data-name="Path 1283" d="M102.07,57.156l-2.793,1.016a38.088,38.088,0,0,1-3.555,13.712C91.152,80.263,87.6,80.771,80.233,79.5S62.458,68.075,62.458,49.792c-5.078-1.016-12.95,4.063-16,0a36.311,36.311,0,0,1-4.825-9.4,37.073,37.073,0,0,1-2.031-12.95C42.906-.738,64.744,1.039,76.932,1.8s22.091,11.173,25.392,26.662l.762,4.571a14.474,14.474,0,0,1-2.031,6.094,4.3,4.3,0,0,0-.762,5.078c1.016,2.031,2.031,3.809,3.3,6.094a4.571,4.571,0,0,1-1.524,6.6" transform="translate(56.631 2.014)" fill="#7f572b"/>
      <path id="Path_1284" data-name="Path 1284" d="M102.065,19.91,104.1,30.32,41.885,42.509l-1.016-4.571,3.3-.508,1.524-.508,1.27-1.27a4.724,4.724,0,0,0-1.27-6.094L44.17,28.8H42.393l-3.047.508A24.884,24.884,0,0,1,56.613,3.659L59.406,2.9,73.118.358h1.016A24.884,24.884,0,0,1,102.065,19.91" transform="translate(56.129 -0.098)" fill="#ededed"/>
      <path id="Path_1285" data-name="Path 1285" d="M93.452,18.389,95.483,28.8l-48.5,9.649L44.953,28.038a24.884,24.884,0,0,1,48.5-9.649" transform="translate(64.742 1.423)" fill="#1d1d1b"/>
      <path id="Path_1286" data-name="Path 1286" d="M41.8,15.27,43.07,14l1.27,6.094H42.816Z" transform="translate(60.023 21.301)" fill="#1d1d1b"/>
      <path id="Path_1287" data-name="Path 1287" d="M61.732.8a24.884,24.884,0,0,0-18.79,27.424l-1.524-.762A25.138,25.138,0,0,1,53.353,2.831l3.3-1.27Z" transform="translate(59.135 0.984)" fill="#1d1d1b"/>
      <path id="Path_1288" data-name="Path 1288" d="M52.885,19.974l-.254-1.524,1.016-.254L52.124,9.563l-1.27.254L50.6,8.293l3.555-.762,4.571,5.84L60.5,6.262,64.058,5.5l.508,1.777-1.27.254,1.524,8.379,1.27-.254.508,1.777L61.519,18.45l-.254-1.777,1.27-.254-1.016-4.825L59.741,18.7l-4.317-5.84.762,4.825,1.27-.254.254,1.524Z" transform="translate(73.568 8.218)" fill="#f9b233"/>
      <path id="Path_1289" data-name="Path 1289" d="M61.063,17.342l-2.285-.762L57,7.439l1.777-1.777L62.332,4.9l2.285,1.016.254,2.031-2.539.508-.254-1.777-2.539.508,1.777,8.379,2.539-.508-.508-1.524,2.539-.508.508,2.031-1.777,1.777Z" transform="translate(83.419 7.294)" fill="#f9b233"/>
      <rect id="Rectangle_97" data-name="Rectangle 97" width="75.669" height="2.412" transform="translate(111.123 37.471) rotate(-11.1)" fill="#706f6f"/>
      <g id="Group_138" data-name="Group 138" transform="translate(107.155 41.649)" opacity="0.2">
        <g id="Group_137" data-name="Group 137" clip-path="url(#clip-path-12)">
          <path id="Path_1290" data-name="Path 1290" d="M57.434,23.474c1.27,4.825-.762,9.4-4.317,10.411S45.5,31.854,44.23,27.029s.762-9.4,4.317-10.411,7.618,2.031,8.887,6.856" transform="translate(-43.976 -16.618)" fill="#1d1d1b"/>
        </g>
      </g>
      <g id="Group_140" data-name="Group 140" transform="translate(98.014 30.477)" opacity="0.2">
        <g id="Group_139" data-name="Group 139" clip-path="url(#clip-path-13)">
          <path id="Path_1291" data-name="Path 1291" d="M102,16.517a14.473,14.473,0,0,1-2.031,6.094,4.825,4.825,0,0,0-1.27,3.047L40.3,24.134h0L100.987,12.2l.762,4.571" transform="translate(-40.3 -11.946)" fill="#1d1d1b"/>
        </g>
      </g>
      <path id="Path_1292" data-name="Path 1292" d="M58.134,22.274c1.27,4.825-.762,9.4-4.317,10.411S46.2,30.654,44.93,25.829s.762-9.4,4.317-10.411,7.618,2.031,8.887,6.856" transform="translate(64.256 23.184)" fill="#7f572b"/>
      <g id="Group_142" data-name="Group 142" transform="translate(69.321 109.193)" opacity="0.2">
        <g id="Group_141" data-name="Group 141" clip-path="url(#clip-path-14)">
          <path id="Path_1293" data-name="Path 1293" d="M29.1,43.1h0" transform="translate(-28.846 -43.1)" fill="#1d1d1b"/>
        </g>
      </g>
      <g id="Group_144" data-name="Group 144" transform="translate(6.856 107.415)" opacity="0.2">
        <g id="Group_143" data-name="Group 143" clip-path="url(#clip-path-15)">
          <path id="Path_1294" data-name="Path 1294" d="M101.271,145.238c-3.555,2.539-8.379,2.793-12.188,3.047s-.508.254-.508,1.27l.762,3.555,1.524,3.809c4.825,9.9,13.712,21.076,9.141,24.376s-3.809-5.586-12.7-17.775h-.762c2.539,5.332,9.9,21.837,4.825,23.869s-4.063-9.9-9.649-21.583H80.7c3.555,16,4.571,23.107.508,23.361s-4.063-13.458-5.84-22.6H73.339s1.27,18.536-4.063,17.521,0-13.966-1.27-19.044a36.311,36.311,0,0,1-4.825-11.934L39.06,147.27A51.8,51.8,0,0,0,28.9,180.787c.254,13.966,4.317,28.947,9.141,44.182a109.188,109.188,0,0,1-20.314,0,96.487,96.487,0,0,1-12.95-2.285C1.987,193.737,12.4,147.524,21.031,106.642L41.6,42.4l25.392,2.031C64.2,45.447,52.264,91.407,52.264,91.407l33.518,42.4L86.8,138.89c2.793,2.539,4.063,4.317,12.7.508,3.3-1.524,7.618,1.777,2.031,5.586" transform="translate(-4.527 -42.4)" fill="#1d1d1b"/>
        </g>
      </g>
      <path id="Path_1295" data-name="Path 1295" d="M58.578,27.117C28.362,45.907,8.81,90.344,1.7,120.56c23.869,25.392,36.311,33.518,71.1,47.991L84.732,158.9,38.519,109.9s22.6-23.869,34.787-44.944,3.047-41.135-14.981-37.834" transform="translate(-1.7 40.94)" fill="#7f572b"/>
      <path id="Path_1296" data-name="Path 1296" d="M24.5,84.057l9.141,7.364c1.27,6.856,1.27,14.727,6.856,23.361,1.27,5.078-2.031,18.282,1.27,19.044S45.829,116.3,45.829,116.3h2.031c1.777,9.141,2.285,22.853,5.84,22.6s3.3-7.364-.508-23.361h1.016c5.586,11.426,5.84,22.853,9.4,21.837s-2.285-18.536-4.825-23.869l.762-.508c9.141,12.188,9.649,20.06,12.7,17.775S67.921,116.3,63.1,106.4s-1.777-8.633-1.777-8.633,9.141-.762,12.7-3.3,1.27-7.11-2.031-5.586c-14.727,6.094-7.872-3.3-24.123-5.078l-12.95-9.9Z" transform="translate(33.394 113.501)" fill="#7f572b"/>
      <path id="Path_1297" data-name="Path 1297" d="M41.672,105.741c3.3-4.571,21.329-35.8,24.123-40.374,13.966-24.123-.254-42.151-16.5-38.6S17.549,54.7,7.9,78.064a95.983,95.983,0,0,0,33.772,27.677" transform="translate(7.843 40.27)" fill="#ededed"/>
    </g>
  </g>
</svg>
