<svg xmlns="http://www.w3.org/2000/svg" xmlns:xlink="http://www.w3.org/1999/xlink" width="952.958" height="965.563" viewBox="0 0 952.958 965.563">
  <defs>
    <clipPath id="clip-path">
      <rect id="Rectangle_111" data-name="Rectangle 111" width="258.944" height="644.322" fill="none"/>
    </clipPath>
    <clipPath id="clip-path-2">
      <rect id="Rectangle_103" data-name="Rectangle 103" width="98.614" height="215.286" fill="none"/>
    </clipPath>
    <clipPath id="clip-path-3">
      <rect id="Rectangle_104" data-name="Rectangle 104" width="104.165" height="42.907" fill="none"/>
    </clipPath>
    <clipPath id="clip-path-4">
      <rect id="Rectangle_106" data-name="Rectangle 106" width="36.899" height="26.58" fill="none"/>
    </clipPath>
    <clipPath id="clip-path-5">
      <rect id="Rectangle_109" data-name="Rectangle 109" width="144.329" height="318.569" fill="none"/>
    </clipPath>
    <clipPath id="clip-path-6">
      <rect id="Rectangle_110" data-name="Rectangle 110" width="64.001" height="188.51" fill="none"/>
    </clipPath>
    <clipPath id="clip-path-7">
      <rect id="Rectangle_52" data-name="Rectangle 52" width="90.3" height="74.412" fill="none"/>
    </clipPath>
    <clipPath id="clip-path-8">
      <rect id="Rectangle_52-2" data-name="Rectangle 52" width="114" height="93.942" fill="none"/>
    </clipPath>
    <clipPath id="clip-path-9">
      <rect id="Rectangle_53" data-name="Rectangle 53" width="87.151" height="152.548" fill="none"/>
    </clipPath>
    <clipPath id="clip-path-10">
      <rect id="Rectangle_55" data-name="Rectangle 55" width="68.1" height="185.615" fill="none"/>
    </clipPath>
  </defs>
  <g id="Right_Illustration" data-name="Right Illustration" transform="translate(-968 -1974)">
    <g id="Group_71" data-name="Group 71" transform="translate(214 1.985)">
      <g id="Layer_2" data-name="Layer 2" transform="translate(754 2001)">
        <g id="OBJECT" transform="translate(0 0)">
          <path id="Path_485" data-name="Path 485" d="M921.082,444.489c-73.887.171-103.262-132.113-94.8-249.034,1.091-15.081,5.175-45.029-9.139-78.354C802.978,84.057,766.533,38,725.758,43.964c-37.451,5.482-63.086,52.591-66.606,91.423-7.067,78.056,74.808,127.723,60.076,148.873-13.64,19.608-103.9,6.044-154.1-53.537C509.92,165.2,551.3,101.142,497.217,45.268,459.912,6.744,389.239-15.439,328.745,12.626c-62.6,29.028-89.079,102.062-84.884,156.717,7.732,100.843,124,197.381,214.176,197.236,17.988,0,46.956-3.939,63.989,14.373s18.875,55.072,3.922,74.432c-34.552,44.757-175.753,17.979-265.13-50.929-90-69.42-116.589-173.281-124.986-227.424A65.293,65.293,0,0,0,105,130.869c-11.62-6.931-25.311-11.739-38.764-8.525C27.7,131.482,15.346,200.715,15.346,239.862,15.2,370.372,151.449,461.94,174.671,477.55c30.383,20.409,90.639,54.978,179.5,67.689a66.837,66.837,0,0,1,50.3,35.805c4.544,9,6.36,17.792,3.956,25.831C398,641.64,310.245,655.86,237.347,643.439c-89.462-15.277-121.133-64.586-177.629-45.746-3.973,1.33-41.483,14.407-54.859,47.016-27.025,65.984,66.751,157.97,84.893,175,33.06,31.091,113.145,93.827,444.029,109.7,219.043,10.511,287.565,16.763,399.116-35.564,24.775-11.626,20.064-116.026,19.031-220.775C950.807,559.516,959.742,444.4,921.082,444.489Z" transform="translate(-0.005 -0.001)" fill="#17033f"/>
        </g>
      </g>
      <g id="Group_64" data-name="Group 64" transform="translate(922.19 2115.52)" opacity="0.63">
        <g id="Group_62" data-name="Group 62">
          <path id="Path_635" data-name="Path 635" d="M13.684,53.418A28.371,28.371,0,0,0,46.2,51.6a27.124,27.124,0,0,0,6.639-7.469A28.571,28.571,0,0,0,4.919,13.014a10.36,10.36,0,0,1-.571,1.037,28.371,28.371,0,0,0,9.336,39.366Z" transform="translate(238.041 42.478) rotate(90)" fill="#e5c665"/>
          <path id="Path_636" data-name="Path 636" d="M13.59,46.349a28.371,28.371,0,0,0,32.52-1.815,5.7,5.7,0,0,0,.726-1.089A28.526,28.526,0,0,0,4.825,6.153a10.363,10.363,0,0,1-.57,1.037A28.371,28.371,0,0,0,13.59,46.349Z" transform="translate(230.972 42.572) rotate(90)" fill="#d1b054"/>
          <path id="Path_639" data-name="Path 639" d="M7.52,28.893a15.923,15.923,0,0,0,17.531-.571,14.678,14.678,0,0,0,4.409-4.668A15.975,15.975,0,0,0,3.527,5.346L2.386,6.9A16.027,16.027,0,0,0,7.521,28.893Z" transform="translate(260.196 120.58) rotate(90)" fill="#e5c665"/>
          <path id="Path_640" data-name="Path 640" d="M7.633,26.435a15.923,15.923,0,0,0,17.531-.571,11.3,11.3,0,0,0,1.141-1.608A15.975,15.975,0,0,0,3.484,2.888L2.343,4.444A16.027,16.027,0,0,0,7.633,26.435Z" transform="translate(257.737 120.467) rotate(90)" fill="#d1b054"/>
          <path id="Path_641" data-name="Path 641" d="M4.242,16.984a8.869,8.869,0,0,0,9.44,0,7.677,7.677,0,0,0,2.9-2.853A8.944,8.944,0,0,0,2.012,3.759a6.432,6.432,0,0,0-.726.934A9.025,9.025,0,0,0,4.242,16.984Z" transform="translate(288.898 121.68) rotate(90)" fill="#e5c665"/>
          <path id="Path_642" data-name="Path 642" d="M4.2,14.443a8.869,8.869,0,0,0,9.44,0,3.167,3.167,0,0,0,.519-.726,9.077,9.077,0,0,0-2.9-12.4,8.817,8.817,0,0,0-9.284,0,6.425,6.425,0,0,0-.726.934A9.025,9.025,0,0,0,4.2,14.443Z" transform="translate(286.357 121.725) rotate(90)" fill="#d1b054"/>
          <path id="Path_633" data-name="Path 633" d="M4.229,16.234a8.869,8.869,0,0,0,9.7,0,7.365,7.365,0,0,0,3.008-2.9A9.18,9.18,0,0,0,2,2.957a3.369,3.369,0,0,0-.778.934A9.232,9.232,0,0,0,4.229,16.234Z" transform="translate(250.286 18.168) rotate(90)" fill="#e5c665"/>
          <path id="Path_634" data-name="Path 634" d="M4.3,14.81a8.869,8.869,0,0,0,9.7,0,2.335,2.335,0,0,0,.571-.726A9.232,9.232,0,0,0,11.556,1.376a8.869,8.869,0,0,0-9.491,0,3.369,3.369,0,0,0-.778.934A9.232,9.232,0,0,0,4.3,14.81Z" transform="translate(248.861 18.102) rotate(90)" fill="#d1b054"/>
          <path id="Path_637" data-name="Path 637" d="M8.2,32.036a17.323,17.323,0,0,0,15.975,1.141,16.649,16.649,0,0,0,7.884-6.794A17.323,17.323,0,0,0,6.129,4.08a17.117,17.117,0,0,0-3.579,4.1A17.427,17.427,0,0,0,8.2,32.036Z" transform="translate(308.306 34.732) rotate(90)" fill="#e5c665"/>
          <path id="Path_638" data-name="Path 638" d="M8.2,29.4a17.323,17.323,0,0,0,15.975,1.141A15.559,15.559,0,0,0,27.81,26.39,17.323,17.323,0,0,0,6.13,1.442a17.115,17.115,0,0,0-3.579,4.1A17.427,17.427,0,0,0,8.2,29.4Z" transform="translate(305.668 34.732) rotate(90)" fill="#d1b054"/>
          <path id="Path_656" data-name="Path 656" d="M3.763,6.578A17.375,17.375,0,1,0,15.4.113,17.375,17.375,0,0,0,3.763,6.578Z" transform="translate(153.004 325.889) rotate(90)" fill="#3a0088"/>
          <path id="Path_660" data-name="Path 660" d="M2.14,3.656A9.751,9.751,0,1,0,15.729,2.048,9.751,9.751,0,0,0,2.14,3.656Z" transform="translate(588.838 97.707) rotate(90)" fill="#e5c665"/>
          <path id="Path_661" data-name="Path 661" d="M.724,1.256a3.268,3.268,0,0,0,.519,4.616,3.216,3.216,0,0,0,4.564-.519A3.3,3.3,0,0,0,.62,1.256Z" transform="translate(578.765 156.992) rotate(90)" fill="#3a0088"/>
          <path id="Path_662" data-name="Path 662" d="M2.131,4.075A10.373,10.373,0,1,0,9.185.068,10.373,10.373,0,0,0,2.131,4.075Z" transform="translate(57.198 316.075) rotate(90)" fill="#3a0088"/>
          <path id="Path_664" data-name="Path 664" d="M11.98,27.181A13.641,13.641,0,1,0,.1,11.985,13.641,13.641,0,0,0,11.98,27.181Z" transform="translate(648.254 134.698) rotate(90)" fill="#3a0088"/>
          <path id="Path_668" data-name="Path 668" d="M6.7,15.193a7.624,7.624,0,1,0-5.083-2.877A7.624,7.624,0,0,0,6.7,15.193Z" transform="translate(635.635 183.868) rotate(90)" fill="#e5c665"/>
          <path id="Path_665" data-name="Path 665" d="M2.246,5.1A2.541,2.541,0,0,0,5.1,2.874,2.541,2.541,0,0,0,2.868.021,2.541,2.541,0,0,0,.016,2.252,2.593,2.593,0,0,0,2.246,5.1Z" transform="translate(633.493 95.409) rotate(90)" fill="#3a0088"/>
          <path id="Path_663" data-name="Path 663" d="M7.265,16.534A8.3,8.3,0,1,0,.055,7.3,8.3,8.3,0,0,0,7.265,16.534Z" transform="translate(61.988 352.11) rotate(90)" fill="#e5c665"/>
          <path id="Path_669" data-name="Path 669" d="M5.643,12.816a6.431,6.431,0,1,0-5.6-7.158,6.431,6.431,0,0,0,5.6,7.158Z" transform="translate(12.864 310.749) rotate(90)" fill="#3a0088"/>
          <path id="Path_671" data-name="Path 671" d="M3.242,7.231A3.631,3.631,0,0,0,4.072.022,3.683,3.683,0,0,0,.026,3.186,3.631,3.631,0,0,0,3.242,7.231Z" transform="translate(549.865 62.32) rotate(90)" fill="#e5c665"/>
          <path id="Path_670" data-name="Path 670" d="M1.043,2.392A1.141,1.141,0,0,0,2.392,1.354,1.193,1.193,0,0,0,1.354.006,1.245,1.245,0,0,0,.006,1.043,1.245,1.245,0,0,0,1.043,2.392Z" transform="translate(653.498 55.949) rotate(90)" fill="#3a0088"/>
          <path id="Path_666" data-name="Path 666" d="M3.489,7.858A3.89,3.89,0,0,0,7.846,4.486,3.942,3.942,0,1,0,3.489,7.858Z" transform="translate(596.727 48.336) rotate(90)" fill="#3a0088"/>
          <path id="Path_646" data-name="Path 646" d="M14.4,50.6A26.867,26.867,0,1,0,1.215,34.787,26.815,26.815,0,0,0,14.4,50.6Z" transform="translate(458.243 194.459) rotate(90)" fill="#3a0088"/>
          <path id="Path_651" data-name="Path 651" d="M8.06,28.367A15.041,15.041,0,1,0,.68,19.514,15.041,15.041,0,0,0,8.06,28.367Z" transform="translate(537.489 187.406) rotate(90)" fill="#e61c5d"/>
          <path id="Path_648" data-name="Path 648" d="M2.671,9.722A5.187,5.187,0,1,0,.544,2.876,5.187,5.187,0,0,0,2.671,9.722Z" transform="translate(507.51 241.294) rotate(90)" fill="#e5c665"/>
          <path id="Path_645" data-name="Path 645" d="M8.755,30.729A16.286,16.286,0,1,0,.747,21.164a16.286,16.286,0,0,0,8.008,9.566Z" transform="translate(621.416 235.015) rotate(90)" fill="#e61c5d"/>
          <path id="Path_653" data-name="Path 653" d="M.058,18.263A19.709,19.709,0,1,0,6.86,4.768a19.761,19.761,0,0,0-6.8,13.494Z" transform="translate(389.033 286.027) rotate(90)" fill="#3a0088"/>
          <path id="Path_649" data-name="Path 649" d="M.05,5.829A6.639,6.639,0,1,0,7.132.019,6.639,6.639,0,0,0,.05,5.829Z" transform="translate(365.293 245.372) rotate(90)" fill="#e5c665"/>
          <path id="Path_643" data-name="Path 643" d="M.061,19.823A21.421,21.421,0,1,0,23.037.062,21.421,21.421,0,0,0,.061,19.823Z" transform="translate(375.604 156.67) rotate(90)" fill="#3a0088"/>
          <circle id="Ellipse_25" data-name="Ellipse 25" cx="3.942" cy="3.942" r="3.942" transform="translate(575.821 13.647) rotate(90)" fill="#bf1150"/>
          <circle id="Ellipse_26" data-name="Ellipse 26" cx="4.564" cy="4.564" r="4.564" transform="translate(11.991 263.173) rotate(90)" fill="#e5c665"/>
          <path id="Path_650" data-name="Path 650" d="M0,7.106a7.054,7.054,0,1,0,2.066-5.04A7.106,7.106,0,0,0,0,7.106Z" transform="translate(54.077 283.348) rotate(90)" fill="#e5c665"/>
          <path id="Path_667" data-name="Path 667" d="M0,7.106a7.054,7.054,0,1,0,2.066-5.04A7.106,7.106,0,0,0,0,7.106Z" transform="translate(94.997 309.775) rotate(90)" fill="#e5c665"/>
          <path id="Path_652" data-name="Path 652" d="M.009,5.187A5.5,5.5,0,1,0,5.507,0,5.5,5.5,0,0,0,.009,5.187Z" transform="translate(537.544 0) rotate(90)" fill="#3a0088"/>
          <path id="Path_654" data-name="Path 654" d="M297.843,104.271a25.194,25.194,0,0,1,.812,19.856h0a24.134,24.134,0,0,1-1.842,3.84l-25.194,52.293a2.029,2.029,0,0,1-2.716.968l-.406-.187a2.06,2.06,0,0,1-.937-2.747l7.087-14.673a3.5,3.5,0,0,0-1.624-4.683h0a3.5,3.5,0,0,0-4.683,1.623l-11.333,23.477a3.5,3.5,0,0,1-4.683,1.623h0a3.5,3.5,0,0,1-1.623-4.683l8.023-16.609a3.5,3.5,0,0,0-1.624-4.683h0a3.528,3.528,0,0,0-4.683,1.623l-13.206,27.348a3.5,3.5,0,0,1-4.683,1.623h0a3.528,3.528,0,0,1-1.655-4.683l17.7-36.589a3.5,3.5,0,0,0-1.623-4.683h0a3.5,3.5,0,0,0-4.683,1.655l-10.864,22.478a3.5,3.5,0,0,1-4.683,1.623h0a3.465,3.465,0,0,1-1.623-4.652l8.96-18.732a2.029,2.029,0,0,0-.937-2.716h0a2.061,2.061,0,0,1-.968-2.747L252.512,103.4h0a25.288,25.288,0,0,1,45.331.781Z" transform="translate(246.149 200.65)" fill="#f9e595"/>
          <path id="Path_655" data-name="Path 655" d="M240.589,94.737a7.368,7.368,0,1,0,9.366,4.527,7.368,7.368,0,0,0-9.366-4.527Z" transform="translate(265.004 210.464)" fill="#e5c665"/>
          <path id="Path_657" data-name="Path 657" d="M245.861,92.163a4.121,4.121,0,1,0,3.165.166,4.121,4.121,0,0,0-3.165-.166Z" transform="translate(280.898 205.359)" fill="#e5c665"/>
          <path id="Path_658" data-name="Path 658" d="M243.508,98.779a1.374,1.374,0,1,0,1.068.046,1.374,1.374,0,0,0-1.068-.046Z" transform="translate(279.817 219.722)" fill="#e5c665"/>
          <path id="Path_659" data-name="Path 659" d="M249.2,98.575a4.464,4.464,0,1,0,3.429.184,4.5,4.5,0,0,0-3.429-.184Z" transform="translate(287.39 218.927)" fill="#e5c665"/>
        </g>
        <path id="Path_322" data-name="Path 322" d="M3.763,6.578A17.375,17.375,0,1,0,15.4.113,17.375,17.375,0,0,0,3.763,6.578Z" transform="translate(689.433 283.264) rotate(90)" fill="#3a0088"/>
        <path id="Path_215" data-name="Path 215" d="M2.131,4.075A10.373,10.373,0,1,0,9.185.068,10.373,10.373,0,0,0,2.131,4.075Z" transform="translate(430.597 513.856) rotate(90)" fill="#3a0088"/>
        <path id="Path_216" data-name="Path 216" d="M11.98,27.181A13.641,13.641,0,1,0,.1,11.985,13.641,13.641,0,0,0,11.98,27.181Z" transform="translate(563.855 409.205) rotate(90)" fill="#3a0088"/>
        <path id="Path_315" data-name="Path 315" d="M11.98,27.181A13.641,13.641,0,1,0,.1,11.985,13.641,13.641,0,0,0,11.98,27.181Z" transform="translate(629.762 331.627) rotate(90)" fill="#3a0088"/>
        <path id="Path_217" data-name="Path 217" d="M6.7,15.193a7.624,7.624,0,1,0-5.083-2.877A7.624,7.624,0,0,0,6.7,15.193Z" transform="translate(588.837 396.143) rotate(90)" fill="#e5c665"/>
        <path id="Path_218" data-name="Path 218" d="M2.246,5.1A2.541,2.541,0,0,0,5.1,2.874,2.541,2.541,0,0,0,2.868.021,2.541,2.541,0,0,0,.016,2.252,2.593,2.593,0,0,0,2.246,5.1Z" transform="translate(459.582 490.973) rotate(90)" fill="#3a0088"/>
        <path id="Path_219" data-name="Path 219" d="M7.265,16.534A8.3,8.3,0,1,0,.055,7.3,8.3,8.3,0,0,0,7.265,16.534Z" transform="translate(459.745 369.16) rotate(90)" fill="#e5c665"/>
        <path id="Path_673" data-name="Path 673" d="M7.265,16.534A8.3,8.3,0,1,0,.055,7.3,8.3,8.3,0,0,0,7.265,16.534Z" transform="translate(118.253 702.491) rotate(90)" fill="#e5c665"/>
        <path id="Path_323" data-name="Path 323" d="M7.265,16.534A8.3,8.3,0,1,0,.055,7.3,8.3,8.3,0,0,0,7.265,16.534Z" transform="translate(706.484 387.063) rotate(90)" fill="#e5c665"/>
        <path id="Path_320" data-name="Path 320" d="M7.265,16.534A8.3,8.3,0,1,0,.055,7.3,8.3,8.3,0,0,0,7.265,16.534Z" transform="translate(702.71 459.526) rotate(90)" fill="#e5c665"/>
        <path id="Path_319" data-name="Path 319" d="M7.265,16.534A8.3,8.3,0,1,0,.055,7.3,8.3,8.3,0,0,0,7.265,16.534Z" transform="translate(625.984 557.565) rotate(90)" fill="#e5c665"/>
        <path id="Path_316" data-name="Path 316" d="M7.265,16.534A8.3,8.3,0,1,0,.055,7.3,8.3,8.3,0,0,0,7.265,16.534Z" transform="translate(663.654 549.147) rotate(90)" fill="#e5c665"/>
        <path id="Path_220" data-name="Path 220" d="M5.643,12.816a6.431,6.431,0,1,0-5.6-7.158,6.431,6.431,0,0,0,5.6,7.158Z" transform="translate(532.35 395.147) rotate(90)" fill="#3a0088"/>
        <path id="Path_221" data-name="Path 221" d="M3.242,7.231A3.631,3.631,0,0,0,4.072.022,3.683,3.683,0,0,0,.026,3.186,3.631,3.631,0,0,0,3.242,7.231Z" transform="translate(491.895 447.654) rotate(90)" fill="#e5c665"/>
        <path id="Path_222" data-name="Path 222" d="M1.043,2.392A1.141,1.141,0,0,0,2.392,1.354,1.193,1.193,0,0,0,1.354.006,1.245,1.245,0,0,0,.006,1.043,1.245,1.245,0,0,0,1.043,2.392Z" transform="translate(479.587 451.513) rotate(90)" fill="#3a0088"/>
        <path id="Path_223" data-name="Path 223" d="M3.489,7.858A3.89,3.89,0,0,0,7.846,4.486,3.942,3.942,0,1,0,3.489,7.858Z" transform="translate(468.818 449.015) rotate(90)" fill="#3a0088"/>
        <path id="Path_317" data-name="Path 317" d="M8.06,28.367A15.041,15.041,0,1,0,.68,19.514,15.041,15.041,0,0,0,8.06,28.367Z" transform="translate(748.911 423.551) rotate(90)" fill="#e61c5d"/>
        <path id="Path_318" data-name="Path 318" d="M8.755,30.729A16.286,16.286,0,1,0,.747,21.164a16.286,16.286,0,0,0,8.008,9.566Z" transform="translate(540.244 540.213) rotate(90)" fill="#e61c5d"/>
        <path id="Path_238" data-name="Path 238" d="M0,8.3A8.3,8.3,0,1,0,8.3,0,8.3,8.3,0,0,0,0,8.3Z" transform="translate(777.437 491.132) rotate(90)" fill="#bf1150"/>
        <path id="Path_239" data-name="Path 239" d="M.026,5.854A6.431,6.431,0,1,0,6.431,0,6.431,6.431,0,0,0,.026,5.854Z" transform="translate(625.733 675.865) rotate(90)" fill="#e5c665"/>
        <path id="Path_240" data-name="Path 240" d="M0,3.89A3.942,3.942,0,1,0,3.942,0,3.942,3.942,0,0,0,0,3.89Z" transform="translate(594.361 492.803) rotate(90)" fill="#bf1150"/>
        <circle id="Ellipse_13" data-name="Ellipse 13" cx="4.564" cy="4.564" r="4.564" transform="translate(488.242 601.619) rotate(90)" fill="#e5c665"/>
        <path id="Path_242" data-name="Path 242" d="M0,7.054A7.106,7.106,0,1,0,7.054,0,7.106,7.106,0,0,0,0,7.054Z" transform="translate(574.343 363.187) rotate(90)" fill="#3a0088"/>
        <path id="Path_333" data-name="Path 333" d="M0,7.106a7.054,7.054,0,1,0,2.066-5.04A7.106,7.106,0,0,0,0,7.106Z" transform="translate(473.511 401.846) rotate(90)" fill="#e5c665"/>
        <path id="Path_321" data-name="Path 321" d="M0,7.106a7.054,7.054,0,1,0,2.066-5.04A7.106,7.106,0,0,0,0,7.106Z" transform="translate(623.552 500.737) rotate(90)" fill="#e5c665"/>
        <circle id="Ellipse_14" data-name="Ellipse 14" cx="5.498" cy="5.498" r="5.498" transform="translate(602.478 465.182) rotate(90)" fill="#e5c665"/>
        <path id="Path_212" data-name="Path 212" d="M3.763,6.578A17.375,17.375,0,1,0,15.4.113,17.375,17.375,0,0,0,3.763,6.578Z" transform="translate(660.824 606.364) rotate(90)" fill="#3a0088"/>
        <path id="Path_213" data-name="Path 213" d="M2.14,3.656A9.751,9.751,0,1,0,15.729,2.048,9.751,9.751,0,0,0,2.14,3.656Z" transform="translate(749.29 536.748) rotate(90)" fill="#e5c665"/>
        <path id="Path_214" data-name="Path 214" d="M.724,1.256a3.268,3.268,0,0,0,.519,4.616,3.216,3.216,0,0,0,4.564-.519A3.3,3.3,0,0,0,.62,1.256Z" transform="translate(625.653 465.6) rotate(90)" fill="#3a0088"/>
        <path id="Path_224" data-name="Path 224" d="M14.4,50.6A26.867,26.867,0,1,0,1.215,34.787,26.815,26.815,0,0,0,14.4,50.6Z" transform="translate(449.718 702.554) rotate(90)" fill="#3a0088"/>
        <path id="Path_225" data-name="Path 225" d="M8.06,28.367A15.041,15.041,0,1,0,.68,19.514,15.041,15.041,0,0,0,8.06,28.367Z" transform="translate(570.737 617.07) rotate(90)" fill="#e61c5d"/>
        <path id="Path_226" data-name="Path 226" d="M2.671,9.722A5.187,5.187,0,1,0,.544,2.876,5.187,5.187,0,0,0,2.671,9.722Z" transform="translate(522.003 696.534) rotate(90)" fill="#e5c665"/>
        <path id="Path_227" data-name="Path 227" d="M8.755,30.729A16.286,16.286,0,1,0,.747,21.164a16.286,16.286,0,0,0,8.008,9.566Z" transform="translate(471.191 639.956) rotate(90)" fill="#e61c5d"/>
        <path id="Path_672" data-name="Path 672" d="M8.755,30.729A16.286,16.286,0,1,0,.747,21.164a16.286,16.286,0,0,0,8.008,9.566Z" transform="translate(46.826 666.384) rotate(90)" fill="#e61c5d"/>
        <circle id="Ellipse_12" data-name="Ellipse 12" cx="3.942" cy="3.942" r="3.942" transform="translate(519.555 491.904) rotate(90)" fill="#bf1150"/>
        <path id="Path_243" data-name="Path 243" d="M0,7.106a7.054,7.054,0,1,0,2.066-5.04A7.106,7.106,0,0,0,0,7.106Z" transform="translate(463.281 572.348) rotate(90)" fill="#e5c665"/>
        <path id="Path_244" data-name="Path 244" d="M.009,5.187A5.5,5.5,0,1,0,5.507,0,5.5,5.5,0,0,0,.009,5.187Z" transform="translate(643.255 482.519) rotate(90)" fill="#3a0088"/>
        <path id="Path_229" data-name="Path 229" d="M.058,18.263A19.709,19.709,0,1,0,6.86,4.768a19.761,19.761,0,0,0-6.8,13.494Z" transform="translate(150.331 646.637) rotate(90)" fill="#3a0088"/>
        <path id="Path_326" data-name="Path 326" d="M297.843,104.271a25.194,25.194,0,0,1,.812,19.856h0a24.134,24.134,0,0,1-1.842,3.84l-25.194,52.293a2.029,2.029,0,0,1-2.716.968l-.406-.187a2.06,2.06,0,0,1-.937-2.747l7.087-14.673a3.5,3.5,0,0,0-1.624-4.683h0a3.5,3.5,0,0,0-4.683,1.623l-11.333,23.477a3.5,3.5,0,0,1-4.683,1.623h0a3.5,3.5,0,0,1-1.623-4.683l8.023-16.609a3.5,3.5,0,0,0-1.624-4.683h0a3.528,3.528,0,0,0-4.683,1.623l-13.206,27.348a3.5,3.5,0,0,1-4.683,1.623h0a3.528,3.528,0,0,1-1.655-4.683l17.7-36.589a3.5,3.5,0,0,0-1.623-4.683h0a3.5,3.5,0,0,0-4.683,1.655l-10.864,22.478a3.5,3.5,0,0,1-4.683,1.623h0a3.465,3.465,0,0,1-1.623-4.652l8.96-18.732a2.029,2.029,0,0,0-.937-2.716h0a2.061,2.061,0,0,1-.968-2.747L252.512,103.4h0a25.288,25.288,0,0,1,45.331.781Z" transform="translate(7.447 561.261)" fill="#f9e595"/>
        <path id="Path_327" data-name="Path 327" d="M240.589,94.737a7.368,7.368,0,1,0,9.366,4.527,7.368,7.368,0,0,0-9.366-4.527Z" transform="translate(26.302 571.075)" fill="#e5c665"/>
        <path id="Path_330" data-name="Path 330" d="M245.861,92.163a4.121,4.121,0,1,0,3.165.166,4.121,4.121,0,0,0-3.165-.166Z" transform="translate(42.196 565.97)" fill="#e5c665"/>
        <path id="Path_328" data-name="Path 328" d="M243.508,98.779a1.374,1.374,0,1,0,1.068.046,1.374,1.374,0,0,0-1.068-.046Z" transform="translate(41.115 580.333)" fill="#e5c665"/>
        <path id="Path_329" data-name="Path 329" d="M249.2,98.575a4.464,4.464,0,1,0,3.429.184,4.5,4.5,0,0,0-3.429-.184Z" transform="translate(48.688 579.538)" fill="#e5c665"/>
      </g>
      <path id="Path_335" data-name="Path 335" d="M14.4,50.6A26.867,26.867,0,1,0,1.215,34.787,26.815,26.815,0,0,0,14.4,50.6Z" transform="translate(1399.188 2840.24) rotate(90)" fill="#3a0088"/>
      <path id="Path_235" data-name="Path 235" d="M278.194,114.087a4.5,4.5,0,1,0,1.172-3.255A4.5,4.5,0,0,0,278.194,114.087Z" transform="translate(1023.536 2792.677)" fill="#3a0088"/>
      <path id="Path_236" data-name="Path 236" d="M264.514,98.965a7.149,7.149,0,1,0,6.837-7.43A7.149,7.149,0,0,0,264.514,98.965Z" transform="translate(994.507 2754.819)" fill="#e61c5d"/>
      <g id="Artwork_50" data-name="Artwork 50" transform="translate(1191.65 2228.675)">
        <g id="Group_158" data-name="Group 158" transform="translate(-39.65 -98.66)" clip-path="url(#clip-path)">
          <g id="Group_157" data-name="Group 157" transform="translate(-0.002 0.124)">
            <path id="Path_1298" data-name="Path 1298" d="M1.061,236.506H87.919a62.369,62.369,0,0,0,1.306-13.714,87.512,87.512,0,0,0-4.572-28.735c-.653,0-34.286-14.694-34.613-14.041a26.123,26.123,0,0,1-1.959,7.51c-4.572,9.8-8.49,14.694-17.306,16.327C10.857,208.1,2.367,217.24.734,226.709a25.143,25.143,0,0,0,0,9.8" transform="translate(0.574 407.627)" fill="#f9b233"/>
            <path id="Path_1299" data-name="Path 1299" d="M61.6,182.527l15.021,6.2a87.513,87.513,0,0,1,4.572,28.735,27.756,27.756,0,0,1-1.959,10.449H40.372c-12.408,0-24.164,3.265-36.572,3.265,3.918-28.735,50.94-17.306,57.47-48.98" transform="translate(8.611 412.625)" fill="#321a14"/>
            <path id="Path_1300" data-name="Path 1300" d="M37.7,200.249A10.449,10.449,0,1,1,27.249,189.8,10.449,10.449,0,0,1,37.7,200.249" transform="translate(38.061 429.842)" fill="#fff"/>
            <path id="Path_1301" data-name="Path 1301" d="M.328,206.815H90.452a35.592,35.592,0,0,0,0-13.715c-32.327.653-58.124,7.837-89.8,5.225a20.571,20.571,0,0,0-.327,8.816" transform="translate(0.001 437.318)" fill="#c6c6c6"/>
            <path id="Path_1302" data-name="Path 1302" d="M116.312,167.471c-9.47,25.143-29.062,54.205-49.307,76.736.98,4.245,23.511,87.512,2.286,174.7,0,0-21.878-27.756-53.552-21.878-6.2-28.409-6.857-65.634-5.551-98.288h0c1.633-42.123,6.2-77.063,6.2-77.063A1042.684,1042.684,0,0,1,44.8,119.47,157.067,157.067,0,0,1,56.229,94l10.776,7.51,45.715,31.348a2.286,2.286,0,0,0-.327,1.306c.653,5.225,7.837,23.184,3.918,33.307" transform="translate(21.815 212.82)" fill="#a3191f"/>
            <path id="Path_1303" data-name="Path 1303" d="M41.161,236.506h86.859a62.368,62.368,0,0,0,1.306-13.714,87.511,87.511,0,0,0-4.572-28.735c-.653,0-34.286-14.694-34.613-14.041a26.123,26.123,0,0,1-1.959,7.51c-4.572,9.8-8.49,14.694-17.306,16.327C50.957,208.1,42.467,217.24,40.834,226.709a25.144,25.144,0,0,0,0,9.8" transform="translate(91.416 407.627)" fill="#f9b233"/>
            <path id="Path_1304" data-name="Path 1304" d="M101.7,182.527l15.021,6.2a87.511,87.511,0,0,1,4.572,28.735c0,5.878-2.286,7.51-2.939,10.449H80.8c-12.408,0-24.49,3.265-36.9,3.265,3.918-28.735,50.94-17.306,57.47-48.98" transform="translate(99.452 412.625)" fill="#321a14"/>
            <path id="Path_1305" data-name="Path 1305" d="M77.8,200.249A10.449,10.449,0,1,1,67.349,189.8,10.449,10.449,0,0,1,77.8,200.249" transform="translate(128.902 429.842)" fill="#fff"/>
            <path id="Path_1306" data-name="Path 1306" d="M40.428,206.815h90.124a35.593,35.593,0,0,0,0-13.715c-32.327.653-58.124,7.837-89.8,5.225a20.572,20.572,0,0,0-.327,8.816" transform="translate(90.842 437.318)" fill="#c6c6c6"/>
            <path id="Path_1307" data-name="Path 1307" d="M148.9,419.23s-33.96-25.143-63.675-19.592c-33.96-65.307-49.307-177.962-49.307-177.962-1.633-20.572-4.245-64-3.265-95.675a148.9,148.9,0,0,1,3.265-32H97.3c-.653.98,4.245,11.755,8.163,22.858s5.551,16.653,5.225,21.551v.653c-1.959,25.47-4.572,82.94-17.306,105.471A509.073,509.073,0,0,1,133.548,338.9a355.273,355.273,0,0,1,15.674,80.328" transform="translate(73.479 212.82)" fill="#c71e26"/>
            <g id="Group_148" data-name="Group 148" transform="translate(108.086 339.147)" opacity="0.2">
              <g id="Group_147" data-name="Group 147" clip-path="url(#clip-path-2)">
                <path id="Path_1308" data-name="Path 1308" d="M131.941,316.475v2.939C114.634,278.271,97,241.372,77.082,219.167c13.061-23.184,18.939-50.287,19.266-81.308C95.7,124.8,77.082,128.064,33,103.9c5.225,0,72.491,13.061,76.083,12.408-1.959,25.47-4.572,82.94-17.306,105.471a509.066,509.066,0,0,1,40.164,94.7" transform="translate(-33.327 -103.9)" fill="#1d1d1b"/>
              </g>
            </g>
            <path id="Path_1309" data-name="Path 1309" d="M109.065,106.926h-.98c-31.348,11.755-61.389,20.245-87.512,17.96A15.021,15.021,0,0,1,4.9,110.191,233.143,233.143,0,0,1,7.512,82.436C10.451,63.823,15.349,47.17,20.9,21.7l16.98,6.857,2.286,58.45,63.022-19.592,4.245,27.756.98,7.184Z" transform="translate(11.103 49.034)" fill="#ffcfa1"/>
            <g id="Group_150" data-name="Group 150" transform="translate(16.003 131.796)" opacity="0.1">
              <g id="Group_149" data-name="Group 149" clip-path="url(#clip-path-3)">
                <path id="Path_1310" data-name="Path 1310" d="M108.839,52.808l-.653,7.837V64.89C76.838,76.646,46.8,85.136,20.674,82.85A15.021,15.021,0,0,1,5,68.156,233.138,233.138,0,0,1,7.612,40.4a116.246,116.246,0,0,0,9.143,26.776c10.776,16,53.879-3.592,90.451-13.715l1.633-.653" transform="translate(-4.673 -40.4)" fill="#1d1d1b"/>
              </g>
            </g>
            <rect id="Rectangle_105" data-name="Rectangle 105" width="72.491" height="68.246" transform="translate(128.005 129.837)" fill="#ffcfa1"/>
            <path id="Path_1311" data-name="Path 1311" d="M31.1,77.364a170.127,170.127,0,0,1,42.123-.653A78.369,78.369,0,0,0,56.243,21.2,53.879,53.879,0,0,1,35.018,58.1l11.1-4.245A43.756,43.756,0,0,0,31.427,77.691" transform="translate(70.455 47.901)" fill="#362a2b"/>
            <path id="Path_1312" data-name="Path 1312" d="M75.117,72.738c-.327,3.592,1.306,7.184,1.306,10.776S71.525,93.963,66.3,96.249s-10.776,3.592-16,5.878A561.962,561.962,0,0,1,59.77,37.8,26.45,26.45,0,0,1,63.361,28a14.041,14.041,0,0,1,17.306-4.245A5.225,5.225,0,0,1,83.607,26.7a7.511,7.511,0,0,1-.327,3.592C80.994,39.1,85.239,48.9,82.3,57.717s-6.2,9.47-6.531,15.021" transform="translate(113.95 50.569)" fill="#362a2b"/>
            <path id="Path_1313" data-name="Path 1313" d="M155.486,268.7a102.535,102.535,0,0,1-17.306,4.245l-13.388.653a169.148,169.148,0,0,1-36.572-5.551l-16.327-4.572-11.429-3.592h-.327c-13.388-4.245-26.123-7.837-38.858-6.531H20.3a458.456,458.456,0,0,1,27.1-62.042,357.562,357.562,0,0,0,.98-50.94C36.3,129.922,33.035,121.759,34.341,113.922c1.959-13.388,17.633-24.817,23.184-42.45,3.918-12.408,3.918-15.347,8.816-34.286C71.893,34.9,76.464,35.553,87.893,34.9h21.225l15.674.98,2.612,1.633c6.857,3.918,25.47,7.837,32.327,15.021,0,0-15.674,18.939-18.286,35.266a21.878,21.878,0,0,0,0,8.163c4.9,23.184,11.1,22.531,13.061,23.184s.98,5.878,1.959,15.347,3.265,29.715,3.918,50.287a391.845,391.845,0,0,1-5.225,83.92" transform="translate(45.989 78.937)" fill="#1f6b82"/>
            <path id="Path_1314" data-name="Path 1314" d="M40.152,65.756l2.939-17.633c16-24.817,21.551-25.8,39.184-26.123l1.306,43.429c-14.694,55.838-53.552,47.348-43.429.327" transform="translate(87.2 49.714)" fill="#ffcfa1"/>
            <g id="Group_152" data-name="Group 152" transform="translate(119.515 86.408)" opacity="0.2">
              <g id="Group_151" data-name="Group 151" clip-path="url(#clip-path-4)">
                <path id="Path_1315" data-name="Path 1315" d="M43.378,39.561,73.746,26.5C72.113,47.4,56.44,52.949,48.276,52.949s-13.388-4.9-11.1-18.939Z" transform="translate(-36.521 -26.5)" fill="#1d1d1b"/>
              </g>
            </g>
            <path id="Path_1316" data-name="Path 1316" d="M112.6,68.832c6.531-6.857,10.123,1.959,14.041-6.857C141.659,20.5,112.27,11.035,96.923,5.158,57.086-8.883,47.289,30.954,45.983,40.75A26.776,26.776,0,0,1,36.84,51.2c-3.265,2.286-2.939,3.918-1.306,6.531S39.126,60.342,38.8,62.3a47.021,47.021,0,0,0-1.306,14.368c.98,7.837,3.265,15.347,11.1,17.633,0,0,19.266,3.592,35.592-19.592,6.857,1.959,23.511-.98,28.409-6.2" transform="translate(77.777 4.841)" fill="#ffcfa1"/>
            <path id="Path_1317" data-name="Path 1317" d="M62.844,5.6a4.245,4.245,0,0,1,2.286-2.612,4.245,4.245,0,0,1,2.939.327C78.517,7.56,89.62,12.458,95.824,21.927a38.858,38.858,0,0,1,4.9,23.511C99.416,65.357,77.864,98.01,61.211,108.786c-9.8-8.816-11.429-22.858-12.735-35.266s9.47-37.552,10.776-49.96A69.551,69.551,0,0,1,62.844,5.274" transform="translate(109.57 6.357)" fill="#362a2b"/>
            <path id="Path_1318" data-name="Path 1318" d="M55.753,3.663a50.287,50.287,0,0,0-15.021,16c-4.9,11.1,3.265,17.633,10.449,27.1s9.8,13.388,10.449,21.225c.98-9.47,5.225-19.919,5.225-29.388s-2.939-9.8-.653-14.041A18.612,18.612,0,0,1,74.365,17.7c6.531-3.265,18.286-8.49,24.164-4.572C91.345,3.989,77.631,1.7,66.2,1.7A26.123,26.123,0,0,0,55.753,3.663" transform="translate(88.905 3.723)" fill="#362a2b"/>
            <path id="Path_1319" data-name="Path 1319" d="M81.133,41.036a17.633,17.633,0,0,0,3.918-12.082,28.409,28.409,0,0,0-5.878-18.613,18.939,18.939,0,0,0-17.96-6.857C53.051,5.444,47.5,13.607,46.193,22.1s.653,16.653,2.612,24.817S52.4,63.567,50.438,72.057C55.01,65.526,55.01,55.73,61.214,50.832s14.694-4.245,19.919-9.47" transform="translate(103.689 7.167)" fill="#362a2b"/>
            <path id="Path_1320" data-name="Path 1320" d="M124.706,51.833l-4.9,13.715L38.5,35.833l2.286-6.2,4.245,1.633h2.286l2.286-.653a5.878,5.878,0,0,0,2.939-7.51l-1.306-1.959-1.959-1.306-3.918-1.306A33.633,33.633,0,0,1,82.909.893l3.592.98L104.46,8.4l1.306.653a33.633,33.633,0,0,1,18.613,42.776" transform="translate(87.219 -0.038)" fill="#f9b233"/>
            <path id="Path_1321" data-name="Path 1321" d="M112.473,47.348l-4.9,13.715L43.9,37.878l4.9-13.715a33.729,33.729,0,0,1,63.348,23.184" transform="translate(99.452 4.447)" fill="#3199cc"/>
            <path id="Path_1322" data-name="Path 1322" d="M42.912,10.153,45.2,9.5l-2.939,7.837L40.3,16.684Z" transform="translate(91.297 21.397)" fill="#1d1d1b"/>
            <path id="Path_1323" data-name="Path 1323" d="M85.076,3.665A33.96,33.96,0,0,0,43.606,22.6L42.3,20.645A34.286,34.286,0,0,1,73.321.4l4.571.653Z" transform="translate(95.827 0.782)" fill="#1d1d1b"/>
            <rect id="Rectangle_107" data-name="Rectangle 107" width="3.265" height="103.153" transform="translate(143.489 42.256) rotate(-69.9)" fill="#f9b233"/>
            <path id="Path_1324" data-name="Path 1324" d="M13.612,41.809,11,29.727C13.939,19.6,26.021,13.4,26.021,13.4c8.49,7.184,21.878,9.8,33.307,14.041A82.287,82.287,0,0,0,46.266,45.074L44.96,46.38,32.878,50.952a12.735,12.735,0,0,1-10.123-1.633L20.143,46.38Z" transform="translate(24.922 30.232)" fill="#dbb28a"/>
            <path id="Path_1325" data-name="Path 1325" d="M41.792,18.484A14.368,14.368,0,1,0,49.955,37.1a14.368,14.368,0,0,0-8.163-18.613" transform="translate(50.294 39.515)" fill="#321a14"/>
            <path id="Path_1326" data-name="Path 1326" d="M29.063,17,20.9,37.572l7.184,4.245,9.143-23.184Z" transform="translate(47.349 38.387)" fill="#878787"/>
            <path id="Path_1327" data-name="Path 1327" d="M21.645,16.9,17.4,27.676l12.082,8.816,6.857-17.96Z" transform="translate(39.42 38.16)" fill="#b2b2b2"/>
            <rect id="Rectangle_108" data-name="Rectangle 108" width="11.755" height="43.691" transform="translate(16.209 50.131) rotate(-68.9)" fill="#878787"/>
            <path id="Path_1328" data-name="Path 1328" d="M13.492,21.369c.98,4.245,1.306,9.47,4.572,11.1,11.1-8.163,19.919-1.633,19.919-1.633l1.306-.653a2.612,2.612,0,0,0,1.633-1.633l2.286-4.9c4.245-8.816,9.143-6.2,9.143-6.2S53,23,52.35,24.308L50.717,28.88l-1.959,7.51a2.939,2.939,0,0,1-1.306,1.633L35.37,42.594a12.735,12.735,0,0,1-10.123-1.633l-1.633-1.306L9.9,32.145Z" transform="translate(22.43 38.589)" fill="#ffcfa1"/>
            <path id="Path_1329" data-name="Path 1329" d="M24.028,18.428a4.245,4.245,0,0,0-.98,6.2v.653a4.245,4.245,0,0,0,6.2.98l3.918-2.612a4.245,4.245,0,0,0,.98-5.551l-.98-1.306a3.918,3.918,0,0,0-5.225-.98Z" transform="translate(50.099 34.347)" fill="#ffcfa1"/>
            <path id="Path_1330" data-name="Path 1330" d="M19.115,25.265a4.245,4.245,0,0,0-.653,3.265,3.918,3.918,0,0,0,1.959,2.939,4.245,4.245,0,0,0,5.551-1.306l7.184-8.816A4.245,4.245,0,0,0,31.85,15.8l-1.306-.98a3.918,3.918,0,0,0-5.225.98Z" transform="translate(41.623 32.081)" fill="#ffcfa1"/>
            <path id="Path_1331" data-name="Path 1331" d="M16.751,28.335a3.265,3.265,0,0,0,2.939,1.633,4.245,4.245,0,0,0,2.939-1.633l5.225-7.184a4.245,4.245,0,0,0-.653-5.878l-1.306-.98a3.918,3.918,0,0,0-5.225.653s-6.2,8.816-3.918,13.388" transform="translate(36.804 30.644)" fill="#ffcfa1"/>
            <path id="Path_1332" data-name="Path 1332" d="M14.675,25.353c1.306,1.633,4.245.653,5.225-.98l3.918-4.9a3.265,3.265,0,0,0-.653-4.572l-.98-.98a2.939,2.939,0,0,0-4.245.327S12.716,21.761,15,25.026" transform="translate(32.675 29.707)" fill="#ffcfa1"/>
            <path id="Path_1333" data-name="Path 1333" d="M50.3,23.1V20.815h1.306L53.565,9.386h-.98V7.1L63.035,9.059l1.633,2.286L63.361,16.57h-.98l.653.98-.98,5.551h1.306l-.653,2.286-4.9-1.306.653-2.286H59.77l.98-4.572-5.225-.98-.98,4.572h1.306V23.1H50.3m5.551-8.49,5.225.98.98-4.572-5.551-.98-.653,4.572" transform="translate(113.95 15.96)" fill="#fff"/>
            <path id="Path_1334" data-name="Path 1334" d="M54.8,22.741l.653-2.286h1.306L64.923,8.7l2.612.98q-.327,7.184-1.306,14.368l1.306.653-.98,1.959-4.572-1.633.653-2.286h1.306V20.455l-3.592-1.306-1.306,1.959h1.306L59.7,23.394l-4.9-.653m9.8-8.816-2.612,3.918,2.612.98v-4.9" transform="translate(124.145 19.584)" fill="#fff"/>
            <path id="Path_1335" data-name="Path 1335" d="M59.1,24.568l.98-1.959,1.306.653,4.9-10.449-1.306-.653.98-1.959,9.47,4.9.98,2.612-2.612,4.9-2.612.653-5.225-2.612L64,24.894l1.306.653-.98,1.959-4.572-2.286m7.51-6.531,4.9,2.612,2.286-3.918L68.57,13.792,66.61,18.037" transform="translate(133.886 22.982)" fill="#fff"/>
            <g id="Group_154" data-name="Group 154" transform="translate(32.33 192.859)" opacity="0.2">
              <g id="Group_153" data-name="Group 153" clip-path="url(#clip-path-5)">
                <path id="Path_1336" data-name="Path 1336" d="M154.556,68.8c-8.163,47.021-73.8,13.715-72.491,67.267-11.1,16.98-16.98,32-15.674,44.409s6.531,17.959,17.306,24.49c-33.307,11.429-48,45.715-54.858,89.8C15.778,311.739,12.186,343.413,9.9,377.7c1.633-42.123,6.2-77.063,6.2-77.063A1042.712,1042.712,0,0,1,44.513,198.431h-.98a458.129,458.129,0,0,1,27.1-62.042,357.224,357.224,0,0,0,.979-50.94C59.534,75,56.268,66.837,57.574,59c-2.286,13.061,25.143,25.47,42.776,2.286-2.939,27.1,35.266,31.021,53.879,7.51" transform="translate(-9.9 -59.327)" fill="#1d1d1b"/>
              </g>
            </g>
            <g id="Group_156" data-name="Group 156" transform="translate(143.026 163.797)" opacity="0.2">
              <g id="Group_155" data-name="Group 155" clip-path="url(#clip-path-6)">
                <path id="Path_1337" data-name="Path 1337" d="M107.148,149.894l-3.592-50.287L101.6,72.178,88.536,53.239,86.576,50.3a571.749,571.749,0,0,1,5.551,67.593l-35.593,6.531L43.8,151.526l1.959,22.2h1.306a6.531,6.531,0,0,0,4.245-4.572v-.653a11.1,11.1,0,0,0,4.9-9.143V146.3l1.306-.98c3.592-2.286,7.184-3.918,7.184-9.8l26.776.653a260.25,260.25,0,0,1-11.755,79.675,208.977,208.977,0,0,1-8.163,22.531h0l13.388-.653a102.53,102.53,0,0,0,17.306-4.245,391.844,391.844,0,0,0,5.225-83.92" transform="translate(-43.8 -49.973)" fill="#1d1d1b"/>
              </g>
            </g>
            <path id="Path_1338" data-name="Path 1338" d="M103.052,114.92,49.5,139.084l.653,15.021c37.878-6.2,56.817-3.918,87.512-15.021a15.021,15.021,0,0,0,7.837-19.919c-7.51-25.47-27.1-50.287-49.96-75.43-25.47-18.286-23.511,25.8-20.572,39.511Z" transform="translate(112.138 89.041)" fill="#ffcfa1"/>
            <path id="Path_1339" data-name="Path 1339" d="M43.775,97.784a15.674,15.674,0,0,0,8.49-7.184,11.755,11.755,0,0,0-.327-8.163c-.98-2.612-2.286-5.225-3.265-7.837a55.838,55.838,0,0,1-7.837,18.939,7.183,7.183,0,0,0-.98,2.286,2.286,2.286,0,0,0,.653,2.286c.98.653,2.286.327,3.592-.327" transform="translate(90.107 168.872)" fill="#dbb28a"/>
            <path id="Path_1340" data-name="Path 1340" d="M79.931,78.116,72.094,69.3,60.013,74.525l-4.572,1.306A16.653,16.653,0,0,0,44.665,86.606,94.37,94.37,0,0,0,41.4,101.3l.98,25.8c.653,4.245,4.572,2.286,4.9-2.612l.653,4.245c1.306,4.572,5.551,1.306,4.572-4.572V111.1l1.306,9.8c.98,3.592,4.572.98,3.918-3.592V100.974A16.98,16.98,0,0,0,66.87,86.28l5.551-.98Z" transform="translate(93.789 156.865)" fill="#ffcfa1"/>
            <path id="Path_1341" data-name="Path 1341" d="M39.856,41.623a1.633,1.633,0,0,1-1.633-1.959V36.725a1.641,1.641,0,1,1,3.265.327v2.939a1.633,1.633,0,0,1-1.959,1.633" transform="translate(86.517 79.724)" fill="#f9b233"/>
            <path id="Path_1342" data-name="Path 1342" d="M39.656,44.154a1.633,1.633,0,0,1-1.633-1.959V39.256a1.807,1.807,0,1,1,3.592.327v2.939a1.633,1.633,0,0,1-1.959,1.633" transform="translate(86.063 85.03)" fill="#f9b233"/>
            <path id="Path_1343" data-name="Path 1343" d="M39.533,46.3A1.633,1.633,0,0,1,37.9,44.672V41.733a1.649,1.649,0,1,1,3.265.327V45a1.633,1.633,0,0,1-1.633,1.633" transform="translate(85.86 90.717)" fill="#f9b233"/>
            <path id="Path_1344" data-name="Path 1344" d="M39.982,48.954a1.633,1.633,0,0,1-1.959-1.633V44.382a1.807,1.807,0,1,1,3.592-.327v2.939a1.633,1.633,0,0,1-1.306,1.959" transform="translate(86.063 95.904)" fill="#f9b233"/>
            <path id="Path_1345" data-name="Path 1345" d="M40.712,51.031a1.633,1.633,0,0,1-2.286-1.306V46.786a1.665,1.665,0,1,1,3.265-.653v2.612A1.633,1.633,0,0,1,40.386,50.7" transform="translate(86.966 101.337)" fill="#f9b233"/>
            <path id="Path_1346" data-name="Path 1346" d="M42.61,53.258a1.633,1.633,0,0,1-2.286-.98L39.018,49.34A1.633,1.633,0,0,1,40,47.054a1.959,1.959,0,0,1,2.286.98l1.306,2.612a1.959,1.959,0,0,1-.98,2.286" transform="translate(88.007 106.294)" fill="#f9b233"/>
            <path id="Path_1347" data-name="Path 1347" d="M44.472,54.292a1.959,1.959,0,0,1-2.612-.327L40.227,51.68a1.633,1.633,0,0,1,.327-2.286,1.959,1.959,0,0,1,2.286.653l1.633,2.286a1.633,1.633,0,0,1-.327,2.286" transform="translate(90.391 111.464)" fill="#f9b233"/>
            <path id="Path_1348" data-name="Path 1348" d="M46.851,56a1.633,1.633,0,0,1-2.612,0l-2.286-1.959a1.736,1.736,0,1,1,2.286-2.612L46.2,53.383a1.633,1.633,0,0,1,0,2.286" transform="translate(93.562 115.312)" fill="#f9b233"/>
            <path id="Path_1349" data-name="Path 1349" d="M48.653,57.4a1.633,1.633,0,0,1-2.286.327l-2.286-1.959a1.766,1.766,0,0,1,1.959-2.939l2.286,1.633a1.633,1.633,0,0,1,.327,2.286" transform="translate(74.385 166.603) rotate(-45)" fill="#f9b233"/>
            <path id="Path_1350" data-name="Path 1350" d="M50.911,58.019a1.633,1.633,0,0,1-2.286.653l-2.612-1.633a1.555,1.555,0,1,1,1.633-2.612l2.286,1.633a1.633,1.633,0,0,1,.653,2.286" transform="matrix(0.469, -0.883, 0.883, 0.469, 81.826, 185.806)" fill="#f9b233"/>
            <path id="Path_1353" data-name="Path 1353" d="M53.533,42.031a1.633,1.633,0,0,1-1.306-1.959V37.133a1.665,1.665,0,1,1,3.265.653v2.939a1.633,1.633,0,0,1-1.959,1.306" transform="translate(118.228 80.949)" fill="#f9b233"/>
            <path id="Path_1354" data-name="Path 1354" d="M53.033,44.1a1.633,1.633,0,0,1-1.306-1.959l.653-2.612a1.665,1.665,0,1,1,3.265.653l-.653,2.939a1.633,1.633,0,0,1-1.959,1.306" transform="translate(117.095 86.386)" fill="#f9b233"/>
            <path id="Path_1355" data-name="Path 1355" d="M52.2,46.441a1.633,1.633,0,0,1-.98-2.286V41.543a1.7,1.7,0,0,1,3.265.98v2.939a1.633,1.633,0,0,1-2.286.98" transform="translate(115.645 91.233)" fill="#f9b233"/>
            <path id="Path_1356" data-name="Path 1356" d="M51.4,48.6a1.633,1.633,0,0,1-.98-2.286L51.4,43.7A1.76,1.76,0,1,1,54.663,45l-.98,2.612a1.633,1.633,0,0,1-2.286.98" transform="translate(113.832 96.262)" fill="#f9b233"/>
            <path id="Path_1357" data-name="Path 1357" d="M50.5,50.7a1.633,1.633,0,0,1-.98-2.286L50.5,45.8A1.76,1.76,0,1,1,53.763,47.1l-.98,2.612a1.633,1.633,0,0,1-2.286.98" transform="translate(111.793 101.019)" fill="#f9b233"/>
            <path id="Path_1358" data-name="Path 1358" d="M49.7,52.9a1.633,1.633,0,0,1-.98-2.286l.653-1.306L50.024,48A1.76,1.76,0,1,1,53.29,49.3l-.653,1.306v1.306a1.633,1.633,0,0,1-2.286.98" transform="translate(109.981 106.003)" fill="#f9b233"/>
            <path id="Path_1359" data-name="Path 1359" d="M49.656,55.457A1.633,1.633,0,0,1,48.023,53.5a9.143,9.143,0,0,1,.327-1.633V50.233a1.665,1.665,0,1,1,3.265.653v1.306a7.182,7.182,0,0,0-.327,1.306,1.633,1.633,0,0,1-1.959,1.633" transform="translate(108.717 110.625)" fill="#f9b233"/>
          </g>
        </g>
      </g>
    </g>
    <g id="Artwork_42" data-name="Artwork 42" transform="translate(1358.35 2772.626)">
      <g id="Group_85" data-name="Group 85" transform="translate(-130.35 -107.415)" clip-path="url(#clip-path-7)">
        <path id="Path_689" data-name="Path 689" d="M62.889,67.37l27.4-52.58L45.6,0,19.176,50.744a14.271,14.271,0,0,0-6.062-4.156C7.469,44.474,1.719,45.86.3,49.67s2.044,8.59,7.69,10.7a14.548,14.548,0,0,0,6.893.9l.97-.173a6.943,6.943,0,0,0,4.26-2.563,11.257,11.257,0,0,0,1.8-2.6l.831-1.628L42.73,15.968,78.337,27.225,59.286,63.768a14.374,14.374,0,0,0-6.062-4.157c-5.646-2.113-11.4-.727-12.816,3.083s2.044,8.59,7.69,10.7a14.582,14.582,0,0,0,6.893.866l1-.173a6.943,6.943,0,0,0,4.26-2.563,11.257,11.257,0,0,0,1.7-2.39h.035L62.057,69l.831-1.628" transform="translate(0.013)" fill="#f9e595"/>
      </g>
    </g>
    <g id="Artwork_42-2" data-name="Artwork 42" transform="translate(1910.35 2505.095)">
      <g id="Group_85-2" data-name="Group 85" transform="translate(-130.35 -107.415)" clip-path="url(#clip-path-8)">
        <path id="Path_689-2" data-name="Path 689" d="M79.4,85.052l34.589-66.38L57.579,0,24.214,64.062a18.016,18.016,0,0,0-7.652-5.247C9.434,56.147,2.175,57.9.382,62.707s2.58,10.845,9.708,13.512a18.366,18.366,0,0,0,8.7,1.137l1.224-.219A8.765,8.765,0,0,0,25.4,73.9a14.212,14.212,0,0,0,2.274-3.28l1.049-2.055L53.95,20.159,98.9,34.371,74.852,80.5A18.147,18.147,0,0,0,67.2,75.257c-7.128-2.667-14.387-.918-16.18,3.892s2.58,10.845,9.708,13.512a18.41,18.41,0,0,0,8.7,1.093l1.268-.219A8.765,8.765,0,0,0,76.076,90.3a14.212,14.212,0,0,0,2.143-3.017h.044l.087-.175L79.4,85.052" transform="translate(0.011)" fill="#941956"/>
      </g>
    </g>
    <g id="Artwork_41" data-name="Artwork 41" transform="translate(1413 2087.775)">
      <g id="Group_86" data-name="Group 86" transform="translate(-65 -113.775)" clip-path="url(#clip-path-9)">
        <path id="Path_690" data-name="Path 690" d="M72.5,38.078C51.787,20.246,49.776,16.089,48.167,6.637V0l-5.43,4.291V125.028c-.872-.536-12.737-8.246-29.7-1.877S.033,142.257,2.714,145.81s17.7,11.665,35.531,2.145c0,0,10.056-4.492,9.922-18.637,0-3.352.067-4.827,0-19.106V73.207C60.7,78.972,87.586,96.671,69.15,138.034c0,0,19.24-22.257,10.86-45.319,6.905-12.067,15.084-35.129-7.441-54.637M67.34,75.151C57.083,66.436,51.452,60.939,48.167,56.514V34.056C53.463,35.8,89.53,49.14,78.536,89.363A44.38,44.38,0,0,0,67.273,75.218" transform="translate(-0.1)" fill="#f74e6a"/>
      </g>
    </g>
    <g id="Artwork_39" data-name="Artwork 39" transform="translate(1099.95 2327.442)">
      <g id="Group_88" data-name="Group 88" transform="translate(-62.05 -169.125)" clip-path="url(#clip-path-10)">
        <path id="Path_692" data-name="Path 692" d="M43.232,88.19h-.713V65.2C49.927,58.118,56.677,50.82,60.628,43.96,71.822,24.589,70.231,3.792,57.39.28S36.483,28.65,36.867,43.905v15.53L33.739,62.4C24.191,70.9,3.064,84.568.375,101.415c-3.567,22.334,17.67,39.126,36.492,39.839v31.828s-.933,7.518-8.341,7.518c-12.237,0-13.719-6.091-13.719-6.091s9,1.866,12.4-6.091c0,0,3.786-11.249-7.463-14.542s-16.737,7.3-15.091,15.969c1.427,7.463,8.231,15.639,23.487,15.749,12.731.11,14.377-8.231,14.377-12.512V141.034a27.054,27.054,0,0,0,3.9-.878c20.194-6.091,23.267-25.956,20.962-32.925-2.744-8.286-9.658-17.615-24.145-19.042M57.5,11.694c11.249,8.506-3.677,29.194-14.981,41.76V40.284C44.385,22.559,48.5,4.834,57.5,11.694M18.648,131.047c-11.524-10.481-16.243-26.45-3.9-39.73,5.707-6.146,13.993-13.335,22.115-20.853v18c-10.7,2.25-17.011,12.786-16.737,21.566.329,10.371,4.884,17.834,8.67,19.371,0,0,2.469,1.756,3.567-.6.329-.823-.055-1.537-.933-2.25s-11.3-7.3-3.951-17.889c3.183-4.555,6.366-6.585,9.439-7.3v36.108a25.517,25.517,0,0,1-18.273-6.42m36.986-3.567c-2.689,4.61-7.518,7.792-13.115,9.219v-35.23a35.228,35.228,0,0,1,4.719,1.427c4.829,1.7,14.926,13.5,8.4,24.584" transform="translate(0.009 -0.005)" fill="#f1e698"/>
      </g>
    </g>
    <g id="Artwork_39-2" data-name="Artwork 39" transform="translate(1842.05 2853.442)">
      <g id="Group_88-2" data-name="Group 88" transform="translate(-62.05 -169.125)" clip-path="url(#clip-path-10)">
        <path id="Path_692-2" data-name="Path 692" d="M43.232,88.19h-.713V65.2C49.927,58.118,56.677,50.82,60.628,43.96,71.822,24.589,70.231,3.792,57.39.28S36.483,28.65,36.867,43.905v15.53L33.739,62.4C24.191,70.9,3.064,84.568.375,101.415c-3.567,22.334,17.67,39.126,36.492,39.839v31.828s-.933,7.518-8.341,7.518c-12.237,0-13.719-6.091-13.719-6.091s9,1.866,12.4-6.091c0,0,3.786-11.249-7.463-14.542s-16.737,7.3-15.091,15.969c1.427,7.463,8.231,15.639,23.487,15.749,12.731.11,14.377-8.231,14.377-12.512V141.034a27.054,27.054,0,0,0,3.9-.878c20.194-6.091,23.267-25.956,20.962-32.925-2.744-8.286-9.658-17.615-24.145-19.042M57.5,11.694c11.249,8.506-3.677,29.194-14.981,41.76V40.284C44.385,22.559,48.5,4.834,57.5,11.694M18.648,131.047c-11.524-10.481-16.243-26.45-3.9-39.73,5.707-6.146,13.993-13.335,22.115-20.853v18c-10.7,2.25-17.011,12.786-16.737,21.566.329,10.371,4.884,17.834,8.67,19.371,0,0,2.469,1.756,3.567-.6.329-.823-.055-1.537-.933-2.25s-11.3-7.3-3.951-17.889c3.183-4.555,6.366-6.585,9.439-7.3v36.108a25.517,25.517,0,0,1-18.273-6.42m36.986-3.567c-2.689,4.61-7.518,7.792-13.115,9.219v-35.23a35.228,35.228,0,0,1,4.719,1.427c4.829,1.7,14.926,13.5,8.4,24.584" transform="translate(0.009 -0.005)" fill="#94825c"/>
      </g>
    </g>
  </g>
</svg>
