<svg xmlns="http://www.w3.org/2000/svg" width="101.721" height="114.738" viewBox="0 0 101.721 114.738">
  <g id="Small_moons" data-name="Small moons" transform="translate(-416 -1589.635)">
    <path id="Path_338" data-name="Path 338" d="M53.56,109.965a8.274,8.274,0,1,0,2.423-5.912,8.335,8.335,0,0,0-2.423,5.912Z" transform="translate(619.351 1634.143) rotate(90)" fill="#f74e6a"/>
    <path id="Path_337" data-name="Path 337" d="M53.56,109.965a8.274,8.274,0,1,0,2.423-5.912,8.335,8.335,0,0,0-2.423,5.912Z" transform="translate(534.3 1610.143) rotate(90)" fill="#de4979"/>
    <path id="Path_232" data-name="Path 232" d="M247.545,126.16a10.144,10.144,0,1,0,9.7-10.584,10.144,10.144,0,0,0-9.7,10.584Z" transform="translate(209.704 1474.068)" fill="#f74e6a"/>
  </g>
</svg>
