<svg xmlns="http://www.w3.org/2000/svg" width="54.248" height="45.124" viewBox="0 0 54.248 45.124">
  <path id="Twttier" d="M53.385,39.74A21.481,21.481,0,0,1,49.645,41a11.662,11.662,0,0,0,3.078-4.9h0a.612.612,0,0,0-.894-.712h0a21.583,21.583,0,0,1-5.718,2.362,1.458,1.458,0,0,1-.357.044,1.516,1.516,0,0,1-1-.382,11.7,11.7,0,0,0-7.738-2.92,12.5,12.5,0,0,0-3.705.572,11.331,11.331,0,0,0-7.636,8.164,12.476,12.476,0,0,0-.277,4.306.419.419,0,0,1-.105.328.434.434,0,0,1-.323.146l-.042,0A30.667,30.667,0,0,1,3.848,36.745h0a.612.612,0,0,0-1,.078h0a11.709,11.709,0,0,0,1.9,14.216,10.481,10.481,0,0,1-2.668-1.033h0a.611.611,0,0,0-.908.527h0A11.71,11.71,0,0,0,8,61.322q-.125,0-.25,0a10.523,10.523,0,0,1-1.97-.188h0a.612.612,0,0,0-.7.787h0A11.722,11.722,0,0,0,14.344,69.9,21.581,21.581,0,0,1,2.257,73.568H.9a.9.9,0,0,0-.875.675.926.926,0,0,0,.443,1.024A32.1,32.1,0,0,0,16.6,79.615a32.54,32.54,0,0,0,13.784-2.924,30.439,30.439,0,0,0,10.086-7.558A33.134,33.134,0,0,0,46.648,58.79a32.673,32.673,0,0,0,2.1-11.32v-.178a1.99,1.99,0,0,1,.745-1.549,23.116,23.116,0,0,0,4.65-5.1h0a.612.612,0,0,0-.756-.9Z" transform="translate(0 -34.491)" fill="#76a9ea"/>
</svg>
