<svg xmlns="http://www.w3.org/2000/svg" xmlns:xlink="http://www.w3.org/1999/xlink" width="145.853" height="161.696" viewBox="0 0 145.853 161.696">
  <defs>
    <clipPath id="clip-path">
      <rect id="Rectangle_64" data-name="Rectangle 64" width="145.853" height="161.695" fill="none"/>
    </clipPath>
    <clipPath id="clip-path-2">
      <rect id="Rectangle_63" data-name="Rectangle 63" width="57.57" height="15.264" fill="none"/>
    </clipPath>
  </defs>
  <g id="unlimited_download" data-name="unlimited download" transform="translate(166.45 184.53)">
    <g id="Group_94" data-name="Group 94" transform="translate(-166.45 -184.53)">
      <g id="Layer_1" data-name="Layer 1">
        <g id="Group_93" data-name="Group 93" clip-path="url(#clip-path)">
          <g id="Group_92" data-name="Group 92" transform="translate(0.629 0.539)">
            <path id="Path_694" data-name="Path 694" d="M178.716,280.52h-58.1A5.52,5.52,0,0,1,115.1,275V237.32a5.52,5.52,0,0,1,5.52-5.52h58.1a5.52,5.52,0,0,1,5.52,5.52V275a5.52,5.52,0,0,1-5.52,5.52" transform="translate(-65.301 -130.781)" fill="#699fc4"/>
            <path id="Path_695" data-name="Path 695" d="M127.343,231.8s-1.358,2.716,1.928,2.716h54.153a2.4,2.4,0,0,0,2.716-2.673Z" transform="translate(-72.024 -130.781)" fill="#aedbf4"/>
            <path id="Path_696" data-name="Path 696" d="M177.608,263.887l-1.8,3.768s-41.184-9.726-51.3-8.543c-8.5,1.008-9.42-2.629-9.507-3.812v32.86a5.52,5.52,0,0,0,5.564,5.564h58.1a5.52,5.52,0,0,0,5.52-5.52V263.8c-2.366,2.1-6.572.088-6.572.088" transform="translate(-65.244 -143.985)" fill="#71a7cc"/>
            <path id="Path_697" data-name="Path 697" d="M178.716,280.52h-58.1A5.52,5.52,0,0,1,115.1,275V237.32a5.52,5.52,0,0,1,5.52-5.52h58.1a5.52,5.52,0,0,1,5.52,5.52V275a5.52,5.52,0,0,1-5.52,5.52Z" transform="translate(-65.301 -130.781)" fill="none" stroke="#4d1b63" stroke-linecap="round" stroke-linejoin="round" stroke-width="2.84"/>
            <path id="Path_698" data-name="Path 698" d="M181.146,281.819H131.857a4.6,4.6,0,0,1-4.557-4.557V246.857a4.6,4.6,0,0,1,4.557-4.557H181.19a4.6,4.6,0,0,1,4.557,4.557v30.362a4.6,4.6,0,0,1-4.557,4.557" transform="translate(-72.156 -136.681)" fill="#fff"/>
            <path id="Path_699" data-name="Path 699" d="M131.857,299.16h49.289A4.6,4.6,0,0,0,185.7,294.6v-15.6l-2.979-3.768a3.242,3.242,0,0,0-5.082,0L166.6,289.083l-3.724-4.644a3.417,3.417,0,0,0-5.345,0l-3.943,4.951-11.873-14.94a3.374,3.374,0,0,0-5.3,0L127.3,286.06v8.5a4.6,4.6,0,0,0,4.557,4.557" transform="translate(-72.156 -154.022)" fill="#fff"/>
            <path id="Path_700" data-name="Path 700" d="M164.363,289.49,152.49,274.55a3.374,3.374,0,0,0-5.3,0l-.789,1.008L163.531,294.7s1.928-1.271.876-5.214" transform="translate(-82.887 -154.078)" fill="#cce7f1"/>
            <path id="Path_701" data-name="Path 701" d="M204.013,308.784s3.155-2.234.613-6.791l-3.724-4.644a3.417,3.417,0,0,0-5.345,0l-.657.832Z" transform="translate(-110.138 -166.888)" fill="#cce7f1"/>
            <path id="Path_702" data-name="Path 702" d="M246.933,276.324a3.242,3.242,0,0,0-5.082,0l-.35.438,8.412,11.041v-7.711Z" transform="translate(-136.321 -155.108)" fill="#cce7f1"/>
            <path id="Path_703" data-name="Path 703" d="M131.857,299.16h49.289A4.6,4.6,0,0,0,185.7,294.6v-15.6l-2.979-3.768a3.242,3.242,0,0,0-5.082,0L166.6,289.083l-3.724-4.644a3.417,3.417,0,0,0-5.345,0l-3.943,4.951-11.873-14.94a3.374,3.374,0,0,0-5.3,0L127.3,286.06v8.5a4.6,4.6,0,0,0,4.557,4.6Z" transform="translate(-72.156 -154.022)" fill="none" stroke="#4d1b63" stroke-linecap="round" stroke-linejoin="round" stroke-width="2.84"/>
            <path id="Path_704" data-name="Path 704" d="M181.146,281.819H131.857a4.6,4.6,0,0,1-4.557-4.557V246.857a4.6,4.6,0,0,1,4.557-4.557H181.19a4.6,4.6,0,0,1,4.557,4.557v30.362A4.6,4.6,0,0,1,181.146,281.819Z" transform="translate(-72.156 -136.681)" fill="none" stroke="#4d1b63" stroke-linecap="round" stroke-linejoin="round" stroke-width="2.84"/>
            <path id="Path_705" data-name="Path 705" d="M220.714,262.607a4.907,4.907,0,1,1-4.907-4.907,4.907,4.907,0,0,1,4.907,4.907" transform="translate(-119.128 -145.334)" fill="#94e3e7"/>
            <path id="Path_706" data-name="Path 706" d="M215.835,271.362a4.907,4.907,0,0,1-4.819-4.162,4.907,4.907,0,1,0,9.683,0,4.907,4.907,0,0,1-4.819,4.162" transform="translate(-119.156 -150.672)" fill="#4aa"/>
            <path id="Path_707" data-name="Path 707" d="M220.714,262.607a4.907,4.907,0,1,1-4.907-4.907A4.907,4.907,0,0,1,220.714,262.607Z" transform="translate(-119.128 -145.334)" fill="none" stroke="#4d1b63" stroke-linecap="round" stroke-linejoin="round" stroke-width="2.84"/>
            <path id="Path_708" data-name="Path 708" d="M170.816,280.52h-58.1A5.52,5.52,0,0,1,107.2,275V237.32a5.52,5.52,0,0,1,5.52-5.52h58.1a5.52,5.52,0,0,1,5.52,5.52V275a5.521,5.521,0,0,1-5.52,5.52" transform="translate(-60.862 -130.781)" fill="#699fc4"/>
            <path id="Path_709" data-name="Path 709" d="M119.543,231.8s-1.358,2.716,1.928,2.716H175.58a2.4,2.4,0,0,0,2.716-2.673Z" transform="translate(-67.641 -130.781)" fill="#aedbf4"/>
            <path id="Path_710" data-name="Path 710" d="M169.808,263.887l-1.8,3.768s-41.184-9.726-51.3-8.543c-8.5,1.008-9.42-2.629-9.507-3.812v32.86a5.52,5.52,0,0,0,5.52,5.564h58.1a5.52,5.52,0,0,0,5.52-5.52V263.8c-2.366,2.1-6.572.088-6.572.088" transform="translate(-60.862 -143.985)" fill="#71a7cc"/>
            <path id="Path_711" data-name="Path 711" d="M170.816,280.52h-58.1A5.52,5.52,0,0,1,107.2,275V237.32a5.52,5.52,0,0,1,5.52-5.52h58.1a5.52,5.52,0,0,1,5.52,5.52V275a5.521,5.521,0,0,1-5.52,5.52Z" transform="translate(-60.862 -130.781)" fill="none" stroke="#4d1b63" stroke-linecap="round" stroke-linejoin="round" stroke-width="2.84"/>
            <path id="Path_712" data-name="Path 712" d="M173.346,281.819H124.057a4.6,4.6,0,0,1-4.557-4.557V246.857a4.6,4.6,0,0,1,4.557-4.557h49.289a4.6,4.6,0,0,1,4.557,4.557v30.362a4.6,4.6,0,0,1-4.557,4.557" transform="translate(-67.773 -136.681)" fill="#fff"/>
            <path id="Path_713" data-name="Path 713" d="M124.057,299.16h49.289A4.6,4.6,0,0,0,177.9,294.6v-15.6l-2.979-3.768a3.242,3.242,0,0,0-5.082,0L158.8,289.083l-3.724-4.644a3.417,3.417,0,0,0-5.345,0l-3.943,4.951-11.873-14.94a3.374,3.374,0,0,0-5.3,0L119.5,286.06v8.5a4.6,4.6,0,0,0,4.557,4.557" transform="translate(-67.773 -154.022)" fill="#fff"/>
            <path id="Path_714" data-name="Path 714" d="M156.463,289.49,144.59,274.55a3.374,3.374,0,0,0-5.3,0l-.789,1.008L155.631,294.7s1.928-1.271.876-5.214" transform="translate(-78.449 -154.078)" fill="#cce7f1"/>
            <path id="Path_715" data-name="Path 715" d="M196.113,308.784s3.155-2.234.613-6.791L193,297.349a3.417,3.417,0,0,0-5.345,0l-.657.832Z" transform="translate(-105.699 -166.888)" fill="#cce7f1"/>
            <path id="Path_716" data-name="Path 716" d="M239.033,276.324a3.242,3.242,0,0,0-5.082,0l-.351.438,8.412,11.041v-7.711Z" transform="translate(-131.883 -155.108)" fill="#cce7f1"/>
            <path id="Path_717" data-name="Path 717" d="M124.057,299.16h49.289A4.6,4.6,0,0,0,177.9,294.6v-15.6l-2.979-3.768a3.242,3.242,0,0,0-5.082,0L158.8,289.083l-3.724-4.644a3.417,3.417,0,0,0-5.345,0l-3.943,4.951-11.873-14.94a3.374,3.374,0,0,0-5.3,0L119.5,286.06v8.5a4.6,4.6,0,0,0,4.557,4.6Z" transform="translate(-67.773 -154.022)" fill="none" stroke="#4d1b63" stroke-linecap="round" stroke-linejoin="round" stroke-width="2.84"/>
            <rect id="Rectangle_61" data-name="Rectangle 61" width="58.446" height="39.528" rx="10.4" transform="translate(51.683 105.619)" stroke-width="2.84" stroke="#4d1b63" stroke-linecap="round" stroke-linejoin="round" fill="none"/>
            <path id="Path_718" data-name="Path 718" d="M212.814,262.607a4.907,4.907,0,1,1-4.907-4.907,4.907,4.907,0,0,1,4.907,4.907" transform="translate(-114.689 -145.334)" fill="#94e3e7"/>
            <path id="Path_719" data-name="Path 719" d="M207.935,271.362a4.907,4.907,0,0,1-4.819-4.162,4.907,4.907,0,1,0,9.683,0,4.907,4.907,0,0,1-4.819,4.162" transform="translate(-114.717 -150.672)" fill="#4aa"/>
            <path id="Path_720" data-name="Path 720" d="M212.814,262.607a4.907,4.907,0,1,1-4.907-4.907A4.907,4.907,0,0,1,212.814,262.607Z" transform="translate(-114.689 -145.334)" fill="none" stroke="#4d1b63" stroke-linecap="round" stroke-linejoin="round" stroke-width="2.84"/>
            <path id="Path_721" data-name="Path 721" d="M280.418,274.044,267.275,260.9a1.621,1.621,0,0,0-2.278,0l-13.144,13.144a1.621,1.621,0,0,0,1.139,2.716h1.533a1.621,1.621,0,0,1,1.621,1.621v16.079a1.621,1.621,0,0,0,1.621,1.621h16.78a1.621,1.621,0,0,0,1.621-1.621V278.381a1.621,1.621,0,0,1,1.621-1.621h1.49a1.621,1.621,0,0,0,1.139-2.716" transform="translate(-141.898 -146.869)" fill="#db435a"/>
            <path id="Path_722" data-name="Path 722" d="M305.765,309.657V293.534a1.621,1.621,0,0,1,1.621-1.621h1.533a1.621,1.621,0,0,0,1.139-2.716l-1.8-1.8c.088,1.446-.219,2.716-1.49,2.716-2.892,0-2.585,3.549-2.585,7.536V311.19h.044a1.621,1.621,0,0,0,1.621-1.621" transform="translate(-171.539 -162.021)" fill="#b22f48"/>
            <path id="Path_723" data-name="Path 723" d="M258.293,272.423c2.015-1.884,7.492-7.054,10.515-9.989l-1.533-1.533a1.621,1.621,0,0,0-2.278,0l-13.144,13.144a1.621,1.621,0,0,0,1.139,2.716h1.533a1.621,1.621,0,0,1,1.621,1.621v16.079a1.621,1.621,0,0,0,1.621,1.621h2.322V276.76s-4.644-1.709-1.8-4.337" transform="translate(-141.898 -146.869)" fill="#ed6b84"/>
            <path id="Path_724" data-name="Path 724" d="M280.418,274.044,267.275,260.9a1.621,1.621,0,0,0-2.278,0l-13.144,13.144a1.621,1.621,0,0,0,1.139,2.716h1.533a1.621,1.621,0,0,1,1.621,1.621v16.079a1.621,1.621,0,0,0,1.621,1.621h16.78a1.621,1.621,0,0,0,1.621-1.621V278.381a1.621,1.621,0,0,1,1.621-1.621h1.49a1.621,1.621,0,0,0,1.139-2.716Z" transform="translate(-141.898 -146.869)" fill="none" stroke="#4d1b63" stroke-linecap="round" stroke-linejoin="round" stroke-width="2.84"/>
            <path id="Path_725" data-name="Path 725" d="M161.772,280.52H103.72A5.52,5.52,0,0,1,98.2,275V237.32a5.52,5.52,0,0,1,5.52-5.52h58.1a5.52,5.52,0,0,1,5.52,5.52V275a5.521,5.521,0,0,1-5.564,5.52" transform="translate(-55.805 -130.781)" fill="#8fbfe5"/>
            <path id="Path_726" data-name="Path 726" d="M110.443,231.8s-1.358,2.716,1.928,2.716H166.48a2.4,2.4,0,0,0,2.716-2.673Z" transform="translate(-62.528 -130.781)" fill="#aedbf4"/>
            <path id="Path_727" data-name="Path 727" d="M160.708,263.887l-1.8,3.768s-41.184-9.726-51.3-8.543c-8.5,1.008-9.42-2.629-9.507-3.812v32.86a5.52,5.52,0,0,0,5.564,5.564h58.052a5.52,5.52,0,0,0,5.52-5.52V263.8c-2.366,2.1-6.572.088-6.572.088" transform="translate(-55.749 -143.985)" fill="#71a7cc"/>
            <path id="Path_728" data-name="Path 728" d="M161.772,280.52H103.72A5.52,5.52,0,0,1,98.2,275V237.32a5.52,5.52,0,0,1,5.52-5.52h58.1a5.52,5.52,0,0,1,5.52,5.52V275a5.521,5.521,0,0,1-5.564,5.52Z" transform="translate(-55.805 -130.781)" fill="none" stroke="#4d1b63" stroke-linecap="round" stroke-linejoin="round" stroke-width="2.84"/>
            <path id="Path_729" data-name="Path 729" d="M164.246,281.819H114.957a4.6,4.6,0,0,1-4.557-4.557V246.857a4.6,4.6,0,0,1,4.557-4.557h49.289a4.6,4.6,0,0,1,4.557,4.557v30.362a4.6,4.6,0,0,1-4.557,4.557" transform="translate(-62.66 -136.681)" fill="#fff"/>
            <path id="Path_730" data-name="Path 730" d="M114.957,299.16h49.289A4.6,4.6,0,0,0,168.8,294.6v-15.6l-2.979-3.768a3.242,3.242,0,0,0-5.082,0L149.7,289.083l-3.724-4.644a3.417,3.417,0,0,0-5.345,0l-3.943,4.951-11.873-14.94a3.374,3.374,0,0,0-5.3,0L110.4,286.06v8.5a4.6,4.6,0,0,0,4.557,4.557" transform="translate(-62.66 -154.022)" fill="#fff"/>
            <path id="Path_731" data-name="Path 731" d="M147.363,289.49,135.49,274.55a3.374,3.374,0,0,0-5.3,0l-.789,1.008L146.531,294.7s1.928-1.271.876-5.214" transform="translate(-73.336 -154.078)" fill="#cce7f1"/>
            <path id="Path_732" data-name="Path 732" d="M187.113,308.784s3.155-2.234.613-6.791L184,297.349a3.417,3.417,0,0,0-5.345,0l-.657.832Z" transform="translate(-100.643 -166.888)" fill="#cce7f1"/>
            <path id="Path_733" data-name="Path 733" d="M229.933,276.324a3.242,3.242,0,0,0-5.082,0l-.35.438,8.412,11.041v-7.711Z" transform="translate(-126.77 -155.108)" fill="#cce7f1"/>
            <path id="Path_734" data-name="Path 734" d="M114.957,299.16h49.289A4.6,4.6,0,0,0,168.8,294.6v-15.6l-2.979-3.768a3.242,3.242,0,0,0-5.082,0L149.7,289.083l-3.724-4.644a3.417,3.417,0,0,0-5.345,0l-3.943,4.951-11.873-14.94a3.374,3.374,0,0,0-5.3,0L110.4,286.06v8.5a4.6,4.6,0,0,0,4.557,4.6Z" transform="translate(-62.66 -154.022)" fill="none" stroke="#4d1b63" stroke-linecap="round" stroke-linejoin="round" stroke-width="2.84"/>
            <rect id="Rectangle_62" data-name="Rectangle 62" width="58.446" height="39.528" rx="10.4" transform="translate(47.74 105.619)" stroke-width="2.84" stroke="#4d1b63" stroke-linecap="round" stroke-linejoin="round" fill="none"/>
            <path id="Path_735" data-name="Path 735" d="M203.814,262.607a4.907,4.907,0,1,1-4.907-4.907,4.907,4.907,0,0,1,4.907,4.907" transform="translate(-109.633 -145.334)" fill="#94e3e7"/>
            <path id="Path_736" data-name="Path 736" d="M198.935,271.362a4.907,4.907,0,0,1-4.819-4.162,4.907,4.907,0,1,0,9.683,0,4.907,4.907,0,0,1-4.819,4.162" transform="translate(-109.66 -150.672)" fill="#4aa"/>
            <path id="Path_737" data-name="Path 737" d="M203.814,262.607a4.907,4.907,0,1,1-4.907-4.907A4.907,4.907,0,0,1,203.814,262.607Z" transform="translate(-109.633 -145.334)" fill="none" stroke="#4d1b63" stroke-linecap="round" stroke-linejoin="round" stroke-width="2.84"/>
            <path id="Path_738" data-name="Path 738" d="M111.786,23.211a18.4,18.4,0,0,0-5.345.789A29.53,29.53,0,0,0,49,23.781a18.4,18.4,0,1,0-4.469,36.277H73.187a29.88,29.88,0,0,0,9.025,0h29.574a18.423,18.423,0,0,0,0-36.847" transform="translate(-15.37 -1.231)" fill="#90c2e4"/>
            <path id="Path_739" data-name="Path 739" d="M80.528,88.3a29.88,29.88,0,0,0,9.025,0h29.574a18.4,18.4,0,1,0-5.345-36.058s15.6,2.059,15.6,17.437-13.713,14.327-13.713,14.327H48.325a86.311,86.311,0,0,1-9.025-.657A18.357,18.357,0,0,0,51.874,88.3Z" transform="translate(-22.711 -29.476)" fill="#65a6c9"/>
            <path id="Path_740" data-name="Path 740" d="M51.857,28.55S61.847-2.25,93.085,5.9A29.53,29.53,0,0,0,48.834,23.906,18.445,18.445,0,0,0,27.717,49.712c.263-9.2,3.549-25.061,24.141-21.162" transform="translate(-15.202 -1.356)" fill="#aedbf4"/>
            <path id="Path_741" data-name="Path 741" d="M111.786,23.211a18.4,18.4,0,0,0-5.345.789A29.53,29.53,0,0,0,49,23.781a18.4,18.4,0,1,0-4.469,36.277H73.187A30.972,30.972,0,0,0,77.7,60.1a30.971,30.971,0,0,0,4.513-.044h29.574a18.423,18.423,0,0,0,0-36.847Z" transform="translate(-15.37 -1.231)" fill="none" stroke="#4d1b63" stroke-linecap="round" stroke-linejoin="round" stroke-width="2.84"/>
            <path id="Path_742" data-name="Path 742" d="M127.868,230.738l-64.01,6.178a6.134,6.134,0,0,1-6.66-5.477L53.167,189.9a6.134,6.134,0,0,1,5.477-6.66l64.01-6.178a6.134,6.134,0,0,1,6.66,5.477l4.031,41.535a6.134,6.134,0,0,1-5.477,6.66" transform="translate(-30.488 -100.014)" fill="#8fbfe5"/>
            <path id="Path_743" data-name="Path 743" d="M65.561,183.221s-1.183,3.111,2.41,2.76l59.629-5.739A2.67,2.67,0,0,0,130.316,177Z" transform="translate(-37.361 -99.991)" fill="#aedbf4"/>
            <path id="Path_744" data-name="Path 744" d="M124.281,221.26,122.7,225.6s-46.442-6.309-57.439-3.943c-9.244,2.015-10.647-1.884-10.866-3.155l3.505,36.233a6.134,6.134,0,0,0,6.66,5.477l64.01-6.178a6.134,6.134,0,0,0,5.477-6.66l-2.585-26.9c-2.41,2.585-7.229.789-7.229.789" transform="translate(-31.195 -123.308)" fill="#71a7cc"/>
            <path id="Path_745" data-name="Path 745" d="M127.868,230.738l-64.01,6.178a6.134,6.134,0,0,1-6.66-5.477L53.167,189.9a6.134,6.134,0,0,1,5.477-6.66l64.01-6.178a6.134,6.134,0,0,1,6.66,5.477l4.031,41.535A6.134,6.134,0,0,1,127.868,230.738Z" transform="translate(-30.488 -100.014)" fill="none" stroke="#4d1b63" stroke-linecap="round" stroke-linejoin="round" stroke-width="2.84"/>
            <path id="Path_746" data-name="Path 746" d="M130.563,233.222,76.235,238.48a5.082,5.082,0,0,1-5.52-4.557L67.472,200.45a5.082,5.082,0,0,1,4.557-5.52l54.328-5.258a5.082,5.082,0,0,1,5.52,4.557l3.242,33.473a5.082,5.082,0,0,1-4.557,5.52" transform="translate(-38.528 -107.099)" fill="#fff"/>
            <path id="Path_747" data-name="Path 747" d="M79.3,258.942l54.328-5.258a5.082,5.082,0,0,0,4.557-5.52l-1.665-17.175-3.68-3.812a3.593,3.593,0,0,0-5.608.526l-10.69,16.474-4.6-4.732a3.812,3.812,0,0,0-5.915.57l-3.812,5.915-14.677-15.2a3.768,3.768,0,0,0-5.827.526L72.9,245.01l.92,9.376a5.082,5.082,0,0,0,5.52,4.556" transform="translate(-41.59 -127.561)" fill="#fff"/>
            <path id="Path_748" data-name="Path 748" d="M112.537,250.329l-14.677-15.2a3.768,3.768,0,0,0-5.871.57l-.789,1.227,20.943,19.234s1.972-1.621.394-5.827" transform="translate(-51.872 -132.005)" fill="#cce7f1"/>
            <path id="Path_749" data-name="Path 749" d="M158.316,267.393s3.242-2.8-.044-7.536l-4.6-4.732a3.812,3.812,0,0,0-5.915.57L147.1,256.7Z" transform="translate(-83.281 -143.241)" fill="#cce7f1"/>
            <path id="Path_750" data-name="Path 750" d="M202.059,227.078a3.593,3.593,0,0,0-5.608.526l-.351.526,10.471,11.3-.832-8.5Z" transform="translate(-110.812 -127.505)" fill="#cce7f1"/>
            <path id="Path_751" data-name="Path 751" d="M79.3,258.942l54.328-5.258a5.082,5.082,0,0,0,4.557-5.52l-1.665-17.175-3.68-3.812a3.593,3.593,0,0,0-5.608.526l-10.69,16.474-4.6-4.732a3.812,3.812,0,0,0-5.915.57l-3.812,5.915-14.677-15.2a3.768,3.768,0,0,0-5.827.526L72.9,245.01l.92,9.376A5.082,5.082,0,0,0,79.3,258.942Z" transform="translate(-41.59 -127.561)" fill="none" stroke="#4d1b63" stroke-linecap="round" stroke-linejoin="round" stroke-width="2.84"/>
            <path id="Path_752" data-name="Path 752" d="M130.563,233.222,76.235,238.48a5.082,5.082,0,0,1-5.52-4.557L67.472,200.45a5.082,5.082,0,0,1,4.557-5.52l54.328-5.258a5.082,5.082,0,0,1,5.52,4.557l3.242,33.473A5.082,5.082,0,0,1,130.563,233.222Z" transform="translate(-38.528 -107.099)" fill="none" stroke="#4d1b63" stroke-linecap="round" stroke-linejoin="round" stroke-width="2.84"/>
            <path id="Path_753" data-name="Path 753" d="M172.2,214.532a5.433,5.433,0,1,1-5.915-4.863,5.433,5.433,0,0,1,5.915,4.863" transform="translate(-91.294 -118.333)" fill="#94e3e7"/>
            <path id="Path_754" data-name="Path 754" d="M167.167,224.026a5.433,5.433,0,0,1-5.783-4.075,5.421,5.421,0,1,0,10.69-1.051,5.433,5.433,0,0,1-4.907,5.082" transform="translate(-91.3 -123.533)" fill="#4aa"/>
            <path id="Path_755" data-name="Path 755" d="M172.2,214.532a5.433,5.433,0,1,1-5.915-4.863A5.433,5.433,0,0,1,172.2,214.532Z" transform="translate(-91.294 -118.333)" fill="none" stroke="#4d1b63" stroke-linecap="round" stroke-linejoin="round" stroke-width="2.84"/>
            <line id="Line_2" data-name="Line 2" y2="27.208" transform="translate(87.347 58.827)" fill="none" stroke="#4d1b63" stroke-linecap="round" stroke-linejoin="round" stroke-width="2.84"/>
            <line id="Line_3" data-name="Line 3" y2="31.764" transform="translate(35.516 58.827)" fill="none" stroke="#4d1b63" stroke-linecap="round" stroke-linejoin="round" stroke-width="2.84"/>
            <path id="Path_756" data-name="Path 756" d="M81.857,205.078a2.278,2.278,0,1,1-2.278-2.278,2.278,2.278,0,0,1,2.278,2.278" transform="translate(-44.062 -114.487)" fill="#4d1b63"/>
            <path id="Path_757" data-name="Path 757" d="M200.157,194.678a2.278,2.278,0,1,1-2.278-2.278,2.278,2.278,0,0,1,2.278,2.278" transform="translate(-110.532 -108.643)" fill="#4d1b63"/>
            <path id="Path_758" data-name="Path 758" d="M142.576,52.733a1.227,1.227,0,0,1-.876-.351l-6.616-6.66-6.4,6.353a1.239,1.239,0,0,1-1.753-1.753l7.273-7.273a1.271,1.271,0,0,1,1.753,0l7.536,7.536a1.227,1.227,0,0,1-.876,2.1" transform="translate(-71.746 -24.531)" fill="#fff"/>
            <path id="Path_759" data-name="Path 759" d="M144.727,61.249a1.227,1.227,0,0,1-1.227-1.227V43.9a1.249,1.249,0,1,1,2.5,0V60.022a1.227,1.227,0,0,1-1.227,1.227" transform="translate(-81.258 -24.503)" fill="#fff"/>
            <path id="Path_760" data-name="Path 760" d="M142.227,84.19h-17.7a1.227,1.227,0,0,1-1.227-1.227V77.4a1.249,1.249,0,0,1,2.5,0v4.294H141V77.4a1.249,1.249,0,0,1,2.5,0v5.52a1.227,1.227,0,0,1-1.227,1.227" transform="translate(-69.908 -43.326)" fill="#fff"/>
            <g id="Group_91" data-name="Group 91" transform="translate(42.395 129.891)">
              <g id="Group_90" data-name="Group 90" clip-path="url(#clip-path-2)">
                <path id="Path_761" data-name="Path 761" d="M155.726,297.7,98.2,312.947l.219-8.763Z" transform="translate(-98.2 -297.7)" fill="#bcbec0"/>
              </g>
            </g>
            <path id="Path_762" data-name="Path 762" d="M299.156,245.428a1.928,1.928,0,1,1-1.928-1.928,1.928,1.928,0,0,1,1.928,1.928" transform="translate(-166.55 -137.355)" fill="#4d1b63"/>
            <path id="Path_763" data-name="Path 763" d="M330.428,250.764a.964.964,0,1,1-.964-.964.964.964,0,0,1,.964.964" transform="translate(-185.204 -140.895)" fill="#4d1b63"/>
            <path id="Path_764" data-name="Path 764" d="M14.828,110.364a.964.964,0,1,1-.964-.964.964.964,0,0,1,.964.964" transform="translate(-7.877 -62.008)" fill="#4d1b63"/>
            <path id="Path_765" data-name="Path 765" d="M299.428,123.564a.964.964,0,1,1-.964-.964.964.964,0,0,1,.964.964" transform="translate(-167.786 -69.425)" fill="#4d1b63"/>
            <path id="Path_766" data-name="Path 766" d="M61.828,159.064a.964.964,0,1,1-.964-.964.964.964,0,0,1,.964.964" transform="translate(-34.285 -89.371)" fill="#4d1b63"/>
            <path id="Path_767" data-name="Path 767" d="M297.228,225.464a.964.964,0,1,1-.964-.964.964.964,0,0,1,.964.964" transform="translate(-166.55 -126.68)" fill="#4d1b63"/>
            <path id="Path_768" data-name="Path 768" d="M216.128,145.164a.964.964,0,1,1-.964-.964.964.964,0,0,1,.964.964" transform="translate(-120.982 -81.561)" fill="#4d1b63"/>
            <path id="Path_769" data-name="Path 769" d="M30.428,240.164a.964.964,0,1,1-.964-.964.964.964,0,0,1,.964.964" transform="translate(-16.643 -134.939)" fill="#4d1b63"/>
            <path id="Path_770" data-name="Path 770" d="M8.656,120.128A1.928,1.928,0,1,1,6.728,118.2a1.928,1.928,0,0,1,1.928,1.928" transform="translate(-3.326 -66.953)" fill="#4d1b63"/>
            <path id="Path_771" data-name="Path 771" d="M289.156,137.428a1.928,1.928,0,1,1-1.928-1.928,1.928,1.928,0,0,1,1.928,1.928" transform="translate(-160.932 -76.673)" fill="#4d1b63"/>
            <path id="Path_772" data-name="Path 772" d="M14.556,261.128a1.928,1.928,0,1,1-1.928-1.928,1.928,1.928,0,0,1,1.928,1.928" transform="translate(-6.641 -146.177)" fill="#4d1b63"/>
            <path id="Path_773" data-name="Path 773" d="M38.756,170.128a1.928,1.928,0,1,1-1.928-1.928,1.928,1.928,0,0,1,1.928,1.928" transform="translate(-20.239 -95.046)" fill="#4d1b63"/>
            <path id="Path_774" data-name="Path 774" d="M44.138,267.987,24.816,248.622a2.366,2.366,0,0,0-3.33,0L2.121,267.987a2.366,2.366,0,0,0,1.665,4.031H6.065a2.366,2.366,0,0,1,2.366,2.366v23.659a2.366,2.366,0,0,0,2.366,2.366H35.463a2.366,2.366,0,0,0,2.366-2.366V274.384a2.366,2.366,0,0,1,2.366-2.366h2.278a2.366,2.366,0,0,0,1.665-4.031" transform="translate(-1.436 -139.848)" fill="#db435a"/>
            <path id="Path_775" data-name="Path 775" d="M81.389,320.328V296.669a2.366,2.366,0,0,1,2.366-2.366h2.278a2.366,2.366,0,0,0,1.665-4.031L85.025,287.6c.131,2.1-.307,4.031-2.234,4.031-4.294,0-3.812,5.258-3.812,11.128v19.935h.044a2.366,2.366,0,0,0,2.366-2.366" transform="translate(-44.996 -162.134)" fill="#b22f48"/>
            <path id="Path_776" data-name="Path 776" d="M11.541,265.577c2.979-2.76,11.041-10.427,15.51-14.677l-2.278-2.278a2.366,2.366,0,0,0-3.33,0L2.121,267.987a2.366,2.366,0,0,0,1.665,4.031H6.065a2.366,2.366,0,0,1,2.366,2.366v23.659a2.366,2.366,0,0,0,2.366,2.366h3.417V271.974s-6.835-2.5-2.629-6.4" transform="translate(-1.436 -139.848)" fill="#ed6b84"/>
            <path id="Path_777" data-name="Path 777" d="M44.138,267.987,24.816,248.622a2.366,2.366,0,0,0-3.33,0L2.121,267.987a2.366,2.366,0,0,0,1.665,4.031H6.065a2.366,2.366,0,0,1,2.366,2.366v23.659a2.366,2.366,0,0,0,2.366,2.366H35.463a2.366,2.366,0,0,0,2.366-2.366V274.384a2.366,2.366,0,0,1,2.366-2.366h2.278a2.366,2.366,0,0,0,1.665-4.031Z" transform="translate(-1.436 -139.848)" fill="none" stroke="#4d1b63" stroke-linecap="round" stroke-linejoin="round" stroke-width="2.84"/>
          </g>
        </g>
      </g>
    </g>
  </g>
</svg>
