<svg xmlns="http://www.w3.org/2000/svg" width="64.936" height="45.466" viewBox="0 0 64.936 45.466">
  <g id="YouTube" transform="translate(1.054)">
    <path id="Path_677" data-name="Path 677" d="M63.6,7.114a8.136,8.136,0,0,0-5.723-5.724C52.794,0,32.468,0,32.468,0S12.142,0,7.06,1.338A8.3,8.3,0,0,0,1.337,7.114C0,12.2,0,22.733,0,22.733S0,33.324,1.337,38.352a8.137,8.137,0,0,0,5.724,5.724c5.135,1.391,25.407,1.391,25.407,1.391s20.326,0,25.407-1.338A8.136,8.136,0,0,0,63.6,38.405c1.337-5.082,1.337-15.619,1.337-15.619S64.99,12.2,63.6,7.114Zm0,0" transform="translate(-1.054 0)" fill="red"/>
    <path id="Path_678" data-name="Path 678" d="M204.969,121.954l16.9-9.735-16.9-9.735Zm0,0" transform="translate(-178.973 -89.487)" fill="#fff"/>
  </g>
</svg>
